<?xml version="1.0" encoding="UTF-8" standalone="no"?>
<!-- Created with Inkscape (http://www.inkscape.org/) -->

<svg
   width="200"
   height="200"
   viewBox="0 0 52.916666 52.916668"
   version="1.1"
   id="svg5"
   inkscape:version="1.1 (ce6663b3b7, 2021-05-25)"
   sodipodi:docname="fast.svg"
   xmlns:inkscape="http://www.inkscape.org/namespaces/inkscape"
   xmlns:sodipodi="http://sodipodi.sourceforge.net/DTD/sodipodi-0.dtd"
   xmlns="http://www.w3.org/2000/svg"
   xmlns:svg="http://www.w3.org/2000/svg">
  <sodipodi:namedview
     id="namedview7"
     pagecolor="#ffffff"
     bordercolor="#666666"
     borderopacity="1.0"
     inkscape:pageshadow="2"
     inkscape:pageopacity="0.0"
     inkscape:pagecheckerboard="0"
     inkscape:document-units="mm"
     showgrid="false"
     inkscape:zoom="0.75187991"
     inkscape:cx="-60.514983"
     inkscape:cy="454.85987"
     inkscape:window-width="1920"
     inkscape:window-height="1043"
     inkscape:window-x="0"
     inkscape:window-y="0"
     inkscape:window-maximized="1"
     inkscape:current-layer="layer1"
     units="px" />
  <defs
     id="defs2" />
  <g
     inkscape:label="Layer 1"
     inkscape:groupmode="layer"
     id="layer1">
    <path
       style="fill:#008000;stroke:#cc0000;stroke-width:1.55946;stroke-linecap:round;stroke-linejoin:round"
       id="path1009"
       d="M 16.081159,8.2821552 C 15.961564,12.63226 15.115969,16.906558 14.203352,21.1179 c -0.939621,4.457603 -2.395662,8.737062 -3.972227,12.948617 -0.9543929,2.802188 -2.1484493,5.488933 -3.2372764,8.225428 -0.7180445,1.169608 -1.0602528,2.55684 -1.6611889,3.791787 -0.2048366,0.420949 -0.4544769,0.812062 -0.6789778,1.220026 -0.454004,0.700622 -0.49854,1.581081 -0.7905571,2.35049 0,0 4.9421037,-2.606754 4.9421037,-2.606754 v 0 c 0.2008441,-0.77469 0.3997328,-1.544617 0.8071262,-2.222702 0.8478773,-1.626737 1.4315143,-3.398161 2.2465373,-5.046703 1.072926,-2.724447 2.240394,-5.405287 3.160117,-8.203469 1.524512,-4.235697 2.946764,-8.53052 3.864973,-12.992962 0.915531,-4.306518 1.724833,-8.6622275 2.03826,-13.0844472 0,0 -4.841083,2.7849444 -4.841083,2.7849444 z" />
    <path
       style="fill:#008000;stroke:#cc0000;stroke-width:1.55946;stroke-linecap:round;stroke-linejoin:round"
       id="path1009-3"
       d="m 36.892155,7.93093 c 0.119595,4.350105 0.96519,8.624403 1.877806,12.835745 0.939622,4.457603 2.395663,8.737062 3.972227,12.948617 0.954394,2.802188 2.148449,5.488933 3.237277,8.225428 0.718045,1.169608 1.060252,2.55684 1.661189,3.791787 0.204837,0.420949 0.454477,0.812062 0.678978,1.220026 0.454004,0.700622 0.49854,1.581081 0.790557,2.35049 0,0 -4.942104,-2.606754 -4.942104,-2.606754 v 0 c -0.200844,-0.77469 -0.399733,-1.544617 -0.807126,-2.222702 -0.847878,-1.626737 -1.431514,-3.398161 -2.246538,-5.046703 -1.072925,-2.724447 -2.240393,-5.405287 -3.160116,-8.203469 -1.524513,-4.235697 -2.946764,-8.53052 -3.864973,-12.992963 -0.915531,-4.306517 -1.724833,-8.6622267 -2.03826,-13.0844463 0,0 4.841083,2.7849443 4.841083,2.7849443 z" />
    <path
       style="fill:#008000;stroke:#cc0000;stroke-width:1.55946;stroke-linecap:round;stroke-linejoin:round"
       id="path1159"
       d="m 22.815393,37.48804 c 0.03063,1.374739 0.01193,2.75004 0.0049,4.124978 0.01234,0.901603 0.02055,1.784568 -0.134628,2.669473 -0.16165,0.749935 -0.202831,1.517194 -0.225485,2.285284 -0.01096,0.613699 -0.0065,0.304372 -0.01318,0.927979 0,0 4.857839,-2.782385 4.857839,-2.782385 v 0 c 0.01276,-0.615571 0.0043,-0.310744 0.02499,-0.914482 0.04047,-0.746476 0.122826,-1.485537 0.257162,-2.218504 0.119027,-0.913798 0.08035,-1.832199 0.07662,-2.753592 -0.0072,-1.376808 -0.02564,-2.753974 0.0049,-4.130599 0,0 -4.853075,2.791848 -4.853075,2.791848 z" />
    <path
       style="fill:#008000;stroke:#cc0000;stroke-width:1.55946;stroke-linecap:round;stroke-linejoin:round"
       id="path1161"
       d="m 23.413342,19.935166 c 0.08089,1.469401 -0.246455,2.897236 -0.545594,4.312766 -0.211356,0.898185 -0.303683,1.819729 -0.347724,2.745057 -0.01359,0.448251 -0.0085,0.227892 -0.01574,0.661077 0,0 4.875614,-2.789354 4.875614,-2.789354 v 0 c 0.0096,-0.418479 0.0033,-0.205994 0.01959,-0.637447 0.052,-0.889307 0.167843,-1.769522 0.356008,-2.636014 0.286107,-1.464876 0.541832,-2.939998 0.513177,-4.449204 0,0 -4.8553,2.793119 -4.8553,2.793119 z" />
    <circle
       id="path2031"
       style="fill:#008000;stroke:#cc0000;stroke-width:0.264583"
       cx="7.3955021"
       cy="121.3269"
       r="0.18602528" />
    <circle
       id="path2033"
       style="fill:#008000;stroke:#cc0000;stroke-width:0.264583"
       cx="7.3955021"
       cy="121.3269"
       r="0.18602528" />
    <circle
       id="path2035"
       style="fill:#008000;stroke:#cc0000;stroke-width:0.264583"
       cx="39.507446"
       cy="48.122128"
       r="0.18602528" />
    <circle
       id="path2037"
       style="fill:#008000;stroke:#cc0000;stroke-width:0.264583"
       cx="39.507446"
       cy="48.122128"
       r="0.18602528" />
  </g>
</svg>
