<svg xmlns="http://www.w3.org/2000/svg" xmlns:xlink="http://www.w3.org/1999/xlink" width="740" height="474.2"><rect width="740" height="474.2" rx="0" ry="0" class="a"/><svg height="434.2" viewBox="0 0 70 43.42" width="700" x="20" xmlns="http://www.w3.org/2000/svg" xmlns:xlink="http://www.w3.org/1999/xlink" y="20"><style>@keyframes m{0%{transform:translateX(0)}.1%{transform:translateX(-70px)}.2%{transform:translateX(-210px)}1.6%{transform:translateX(-280px)}2.3%{transform:translateX(-350px)}3%{transform:translateX(-420px)}3.7%{transform:translateX(-490px)}4.4%{transform:translateX(-560px)}5.1%{transform:translateX(-630px)}5.9%{transform:translateX(-700px)}6.6%{transform:translateX(-770px)}7.3%{transform:translateX(-840px)}8%{transform:translateX(-910px)}9.4%{transform:translateX(-1050px)}12.4%{transform:translateX(-1820px)}20.4%{transform:translateX(-1960px)}21.8%{transform:translateX(-2030px)}22.5%{transform:translateX(-2100px)}23.3%{transform:translateX(-2170px)}24%{transform:translateX(-2240px)}24.7%{transform:translateX(-2310px)}25.4%{transform:translateX(-2380px)}26.1%{transform:translateX(-2450px)}26.8%{transform:translateX(-2520px)}27.5%{transform:translateX(-2590px)}28.2%{transform:translateX(-2660px)}29.7%{transform:translateX(-2730px)}30.4%{transform:translateX(-2800px)}31.1%{transform:translateX(-2870px)}31.8%{transform:translateX(-2940px)}32.5%{transform:translateX(-3010px)}33.2%{transform:translateX(-3150px)}36.1%{transform:translateX(-3220px)}39.8%{transform:translateX(-3290px)}42.4%{transform:translateX(-3360px)}58.1%{transform:translateX(-3430px)}58.2%{transform:translateX(-3570px)}59.6%{transform:translateX(-3640px)}60.3%{transform:translateX(-3710px)}61%{transform:translateX(-3780px)}61.7%{transform:translateX(-3850px)}62.4%{transform:translateX(-3920px)}63.1%{transform:translateX(-3990px)}63.9%{transform:translateX(-4060px)}64.6%{transform:translateX(-4130px)}65.3%{transform:translateX(-4200px)}66%{transform:translateX(-4270px)}67.4%{transform:translateX(-4340px)}68.1%{transform:translateX(-4480px)}70.6%{transform:translateX(-4620px)}70.7%{transform:translateX(-5740px)}78.7%{transform:translateX(-5880px)}80.1%{transform:translateX(-5950px)}80.8%{transform:translateX(-6020px)}81.5%{transform:translateX(-6090px)}82.2%{transform:translateX(-6160px)}83%{transform:translateX(-6230px)}83.7%{transform:translateX(-6300px)}84.4%{transform:translateX(-6370px)}85.1%{transform:translateX(-6440px)}85.8%{transform:translateX(-6510px)}86.5%{transform:translateX(-6580px)}87.3%{transform:translateX(-6650px)}88.7%{transform:translateX(-6720px)}89.4%{transform:translateX(-6790px)}90.1%{transform:translateX(-6860px)}90.8%{transform:translateX(-6930px)}91.6%{transform:translateX(-7070px)}93.4%{transform:translateX(-7140px)}96.8%{transform:translateX(-7210px)}99.7%{transform:translateX(-7280px)}to{transform:translateX(-7350px)}}.a{fill:#2c1d16}.c,.d,.e,.f,.g{fill:#ffcc2f;white-space:pre}.d,.e,.f,.g{fill:#bfbfbf;font-weight:700}.e,.f,.g{fill:#6d6e70}.f,.g{fill:#faaf4c}.g{fill:#fff02a}.h{fill:#41ff5b}.h,.i,.j{white-space:pre}.i{fill:#fff0a6;font-weight:700}.j{fill:#666}</style><g font-family="Monaco,Consolas,Menlo,'Bitstream Vera Sans Mono','Powerline Symbols',monospace" font-size="1.67"><defs><symbol id="1"><text y="1.67" class="c">$</text></symbol><symbol id="2"><text y="1.67" class="c">$</text><text x="2.004" y="1.67" class="d">c</text></symbol><symbol id="3"><text y="1.67" class="c">$</text><text x="2.004" y="1.67" class="d">cat</text></symbol><symbol id="4"><text y="1.67" class="c">$</text><text x="2.004" y="1.67" class="d">cat</text><text x="6.012" y="1.67" class="d">Hello.scala</text></symbol><symbol id="5"><text y="1.67" class="e">//</text><text x="3.006" y="1.67" class="e">using</text><text x="9.018" y="1.67" class="e">scala</text><text x="15.03" y="1.67" class="e">3.0.2</text></symbol><symbol id="6"><text y="1.67" class="f">@main</text><text x="6.012" y="1.67" class="g">def</text><text x="10.02" y="1.67" class="h">hello()</text><text x="18.036" y="1.67" class="g">=</text><text x="20.04" y="1.67" class="h">println(</text></symbol><symbol id="7"><text y="1.67" class="f">@main</text><text x="6.012" y="1.67" class="g">def</text><text x="10.02" y="1.67" class="h">hello()</text><text x="18.036" y="1.67" class="g">=</text><text x="20.04" y="1.67" class="h">println(</text><text x="28.056" y="1.67" class="i">&quot;Hello</text><text x="35.07" y="1.67" class="i">world</text><text x="41.082" y="1.67" class="i">from</text><text x="46.092" y="1.67" class="i">ScalaCLI&quot;</text><text x="55.11" y="1.67" class="h">)</text></symbol><symbol id="8"><text y="1.67" class="c">$</text><text x="2.004" y="1.67" class="d">sc</text></symbol><symbol id="9"><text y="1.67" class="c">$</text><text x="2.004" y="1.67" class="d">scal</text></symbol><symbol id="10"><text y="1.67" class="c">$</text><text x="2.004" y="1.67" class="d">scala-</text></symbol><symbol id="11"><text y="1.67" class="c">$</text><text x="2.004" y="1.67" class="d">scala-cl</text></symbol><symbol id="12"><text y="1.67" class="c">$</text><text x="2.004" y="1.67" class="d">scala-cli</text></symbol><symbol id="13"><text y="1.67" class="c">$</text><text x="2.004" y="1.67" class="d">scala-cli</text><text x="12.024" y="1.67" class="d">He</text></symbol><symbol id="14"><text y="1.67" class="c">$</text><text x="2.004" y="1.67" class="d">scala-cli</text><text x="12.024" y="1.67" class="d">Hel</text></symbol><symbol id="15"><text y="1.67" class="c">$</text><text x="2.004" y="1.67" class="d">scala-cli</text><text x="12.024" y="1.67" class="d">Hello</text></symbol><symbol id="16"><text y="1.67" class="c">$</text><text x="2.004" y="1.67" class="d">scala-cli</text><text x="12.024" y="1.67" class="d">Hello.s</text></symbol><symbol id="17"><text y="1.67" class="c">$</text><text x="2.004" y="1.67" class="d">scala-cli</text><text x="12.024" y="1.67" class="d">Hello.sca</text></symbol><symbol id="18"><text y="1.67" class="c">$</text><text x="2.004" y="1.67" class="d">scala-cli</text><text x="12.024" y="1.67" class="d">Hello.scala</text></symbol><symbol id="19"><text y="1.67" class="j">Compiling</text><text x="10.02" y="1.67" class="j">project</text><text x="18.036" y="1.67" class="j">(Scala</text><text x="25.05" y="1.67" class="j">3.0.2,</text><text x="32.064" y="1.67" class="j">JVM)</text></symbol><symbol id="20"><text y="1.67" class="j">Compiled</text><text x="9.018" y="1.67" class="j">project</text><text x="17.034" y="1.67" class="j">(Scala</text><text x="24.048" y="1.67" class="j">3.0.2,</text><text x="31.062" y="1.67" class="j">JVM)</text></symbol><symbol id="21"><text y="1.67" class="c">Hello</text><text x="6.012" y="1.67" class="c">world</text><text x="12.024" y="1.67" class="c">from</text><text x="17.034" y="1.67" class="c">ScalaCLI</text></symbol><symbol id="22"><text y="1.67" class="e">//</text><text x="3.006" y="1.67" class="e">using</text><text x="9.018" y="1.67" class="e">scala</text><text x="15.03" y="1.67" class="e">2</text></symbol><symbol id="23"><text y="1.67" class="g">object</text></symbol><symbol id="24"><text y="1.67" class="g">object</text><text x="7.014" y="1.67" class="f">Hello</text></symbol><symbol id="25"><text y="1.67" class="g">object</text><text x="7.014" y="1.67" class="f">Hello</text><text x="13.026" y="1.67" class="g">extends</text><text x="21.042" y="1.67" class="f">App</text></symbol><symbol id="26"><text y="1.67" class="g">object</text><text x="7.014" y="1.67" class="f">Hello</text><text x="13.026" y="1.67" class="g">extends</text><text x="21.042" y="1.67" class="f">App</text><text x="25.05" y="1.67" class="h">{</text></symbol><symbol id="27"><text x="1.002" y="1.67" class="h">println(</text></symbol><symbol id="28"><text x="1.002" y="1.67" class="h">println(</text><text x="9.018" y="1.67" class="i">&quot;Hello</text><text x="16.032" y="1.67" class="i">world</text><text x="22.044" y="1.67" class="i">from</text><text x="27.054" y="1.67" class="i">ScalaCLI&quot;</text><text x="36.072" y="1.67" class="h">)</text></symbol><symbol id="29"><text y="1.67" class="h">}</text></symbol><symbol id="30"><text y="1.67" class="j">Compiling</text><text x="10.02" y="1.67" class="j">project</text><text x="18.036" y="1.67" class="j">(Scala</text><text x="25.05" y="1.67" class="j">2.13.6,</text><text x="33.066" y="1.67" class="j">JVM)</text></symbol><symbol id="31"><text y="1.67" class="j">Compiled</text><text x="9.018" y="1.67" class="j">project</text><text x="17.034" y="1.67" class="j">(Scala</text><text x="24.048" y="1.67" class="j">2.13.6,</text><text x="32.064" y="1.67" class="j">JVM)</text></symbol><symbol id="a"><path fill="transparent" d="M0 0h70v21H0z"/></symbol><symbol id="b"><path fill="#23ff18" d="M0 0h1.102v2.171H0z"/></symbol></defs><path class="a" d="M0 0h70v43.42H0z"/><g style="animation-duration:12.853832s;animation-iteration-count:infinite;animation-name:m;animation-timing-function:steps(1,end)"><svg width="7420"><svg><use xlink:href="#a"/><use xlink:href="#b" x="-.004"/></svg><svg x="70"><use xlink:href="#a"/><use xlink:href="#b" x="-.004"/></svg><svg x="140"><use xlink:href="#a"/><use xlink:href="#b" x="1.996"/><use xlink:href="#1"/></svg><svg x="210"><use xlink:href="#a"/><use xlink:href="#b" x="1.996"/><use xlink:href="#1"/></svg><svg x="280"><use xlink:href="#a"/><use xlink:href="#b" x="1.996"/><use xlink:href="#1"/></svg><svg x="350"><use xlink:href="#a"/><use xlink:href="#b" x="1.996"/><use xlink:href="#1"/></svg><svg x="420"><use xlink:href="#a"/><use xlink:href="#b" x="2.996"/><use xlink:href="#2"/></svg><svg x="490"><use xlink:href="#a"/><use xlink:href="#b" x="5.996"/><use xlink:href="#3"/></svg><svg x="560"><use xlink:href="#a"/><use xlink:href="#b" x="7.996"/><text y="1.67" class="c">$</text><text x="2.004" y="1.67" class="d">cat</text><text x="6.012" y="1.67" class="d">He</text></svg><svg x="630"><use xlink:href="#a"/><use xlink:href="#b" x="9.996"/><text y="1.67" class="c">$</text><text x="2.004" y="1.67" class="d">cat</text><text x="6.012" y="1.67" class="d">Hell</text></svg><svg x="700"><use xlink:href="#a"/><use xlink:href="#b" x="11.996"/><text y="1.67" class="c">$</text><text x="2.004" y="1.67" class="d">cat</text><text x="6.012" y="1.67" class="d">Hello.</text></svg><svg x="770"><use xlink:href="#a"/><use xlink:href="#b" x="13.996"/><text y="1.67" class="c">$</text><text x="2.004" y="1.67" class="d">cat</text><text x="6.012" y="1.67" class="d">Hello.sc</text></svg><svg x="840"><use xlink:href="#a"/><use xlink:href="#b" x="16.996"/><use xlink:href="#4"/></svg><svg x="910"><use xlink:href="#a"/><use xlink:href="#b" x="16.996"/><use xlink:href="#4"/></svg><svg x="980"><use xlink:href="#a"/><use xlink:href="#b" x="16.996"/><use xlink:href="#4"/></svg><svg x="1050"><use xlink:href="#a"/><use xlink:href="#b" x="-.004" y="2.146"/><use xlink:href="#4"/></svg><svg x="1120"><use xlink:href="#a"/><use xlink:href="#b" x="-.004" y="2.146"/><use xlink:href="#4"/></svg><svg x="1190"><use xlink:href="#a"/><use xlink:href="#b" x="19.996" y="2.146"/><use xlink:href="#4"/><use xlink:href="#5" y="2.171"/></svg><svg x="1260"><use xlink:href="#a"/><use xlink:href="#b" x="19.996" y="2.146"/><use xlink:href="#4"/><use xlink:href="#5" y="2.171"/></svg><svg x="1330"><use xlink:href="#a"/><use xlink:href="#b" x="-.004" y="6.488"/><use xlink:href="#4"/><use xlink:href="#5" y="2.171"/></svg><svg x="1400"><use xlink:href="#a"/><use xlink:href="#b" x="-.004" y="6.488"/><use xlink:href="#4"/><use xlink:href="#5" y="2.171"/></svg><svg x="1470"><use xlink:href="#a"/><use xlink:href="#b" x="5.996" y="6.488"/><use xlink:href="#4"/><use xlink:href="#5" y="2.171"/><text y="8.183" class="f">@main</text></svg><svg x="1540"><use xlink:href="#a"/><use xlink:href="#b" x="9.996" y="6.488"/><use xlink:href="#4"/><use xlink:href="#5" y="2.171"/><text y="8.183" class="f">@main</text><text x="6.012" y="8.183" class="g">def</text></svg><svg x="1610"><use xlink:href="#a"/><use xlink:href="#b" x="17.996" y="6.488"/><use xlink:href="#4"/><use xlink:href="#5" y="2.171"/><text y="8.183" class="f">@main</text><text x="6.012" y="8.183" class="g">def</text><text x="10.02" y="8.183" class="h">hello()</text></svg><svg x="1680"><use xlink:href="#a"/><use xlink:href="#b" x="27.996" y="6.488"/><use xlink:href="#4"/><use xlink:href="#5" y="2.171"/><use xlink:href="#6" y="6.513"/></svg><svg x="1750"><use xlink:href="#a"/><use xlink:href="#b" x="27.996" y="6.488"/><use xlink:href="#4"/><use xlink:href="#5" y="2.171"/><use xlink:href="#6" y="6.513"/></svg><svg x="1820"><use xlink:href="#a"/><use xlink:href="#b" x="-.004" y="8.659"/><use xlink:href="#4"/><use xlink:href="#5" y="2.171"/><use xlink:href="#7" y="6.513"/></svg><svg x="1890"><use xlink:href="#a"/><use xlink:href="#b" x="1.996" y="8.659"/><use xlink:href="#4"/><use xlink:href="#5" y="2.171"/><use xlink:href="#7" y="6.513"/><use xlink:href="#1" y="8.684"/></svg><svg x="1960"><use xlink:href="#a"/><use xlink:href="#b" x="1.996" y="8.659"/><use xlink:href="#4"/><use xlink:href="#5" y="2.171"/><use xlink:href="#7" y="6.513"/><use xlink:href="#1" y="8.684"/></svg><svg x="2030"><use xlink:href="#a"/><use xlink:href="#b" x="1.996" y="8.659"/><use xlink:href="#4"/><use xlink:href="#5" y="2.171"/><use xlink:href="#7" y="6.513"/><use xlink:href="#1" y="8.684"/></svg><svg x="2100"><use xlink:href="#a"/><use xlink:href="#b" x="1.996" y="8.659"/><use xlink:href="#4"/><use xlink:href="#5" y="2.171"/><use xlink:href="#7" y="6.513"/><use xlink:href="#1" y="8.684"/></svg><svg x="2170"><use xlink:href="#a"/><use xlink:href="#b" x="1.996" y="8.659"/><use xlink:href="#4"/><use xlink:href="#5" y="2.171"/><use xlink:href="#7" y="6.513"/><use xlink:href="#1" y="8.684"/></svg><svg x="2240"><use xlink:href="#a"/><use xlink:href="#b" x="3.996" y="8.659"/><use xlink:href="#4"/><use xlink:href="#5" y="2.171"/><use xlink:href="#7" y="6.513"/><use xlink:href="#8" y="8.684"/></svg><svg x="2310"><use xlink:href="#a"/><use xlink:href="#b" x="5.996" y="8.659"/><use xlink:href="#4"/><use xlink:href="#5" y="2.171"/><use xlink:href="#7" y="6.513"/><use xlink:href="#9" y="8.684"/></svg><svg x="2380"><use xlink:href="#a"/><use xlink:href="#b" x="7.996" y="8.659"/><use xlink:href="#4"/><use xlink:href="#5" y="2.171"/><use xlink:href="#7" y="6.513"/><use xlink:href="#10" y="8.684"/></svg><svg x="2450"><use xlink:href="#a"/><use xlink:href="#b" x="9.996" y="8.659"/><use xlink:href="#4"/><use xlink:href="#5" y="2.171"/><use xlink:href="#7" y="6.513"/><use xlink:href="#11" y="8.684"/></svg><svg x="2520"><use xlink:href="#a"/><use xlink:href="#b" x="11.996" y="8.659"/><use xlink:href="#4"/><use xlink:href="#5" y="2.171"/><use xlink:href="#7" y="6.513"/><use xlink:href="#12" y="8.684"/></svg><svg x="2590"><use xlink:href="#a"/><use xlink:href="#b" x="13.996" y="8.659"/><use xlink:href="#4"/><use xlink:href="#5" y="2.171"/><use xlink:href="#7" y="6.513"/><use xlink:href="#13" y="8.684"/></svg><svg x="2660"><use xlink:href="#a"/><use xlink:href="#b" x="14.996" y="8.659"/><use xlink:href="#4"/><use xlink:href="#5" y="2.171"/><use xlink:href="#7" y="6.513"/><use xlink:href="#14" y="8.684"/></svg><svg x="2730"><use xlink:href="#a"/><use xlink:href="#b" x="16.996" y="8.659"/><use xlink:href="#4"/><use xlink:href="#5" y="2.171"/><use xlink:href="#7" y="6.513"/><use xlink:href="#15" y="8.684"/></svg><svg x="2800"><use xlink:href="#a"/><use xlink:href="#b" x="18.996" y="8.659"/><use xlink:href="#4"/><use xlink:href="#5" y="2.171"/><use xlink:href="#7" y="6.513"/><use xlink:href="#16" y="8.684"/></svg><svg x="2870"><use xlink:href="#a"/><use xlink:href="#b" x="20.996" y="8.659"/><use xlink:href="#4"/><use xlink:href="#5" y="2.171"/><use xlink:href="#7" y="6.513"/><use xlink:href="#17" y="8.684"/></svg><svg x="2940"><use xlink:href="#a"/><use xlink:href="#b" x="22.996" y="8.659"/><use xlink:href="#4"/><use xlink:href="#5" y="2.171"/><use xlink:href="#7" y="6.513"/><use xlink:href="#18" y="8.684"/></svg><svg x="3010"><use xlink:href="#a"/><use xlink:href="#b" x="22.996" y="8.659"/><use xlink:href="#4"/><use xlink:href="#5" y="2.171"/><use xlink:href="#7" y="6.513"/><use xlink:href="#18" y="8.684"/></svg><svg x="3080"><use xlink:href="#a"/><use xlink:href="#b" x="22.996" y="8.659"/><use xlink:href="#4"/><use xlink:href="#5" y="2.171"/><use xlink:href="#7" y="6.513"/><use xlink:href="#18" y="8.684"/></svg><svg x="3150"><use xlink:href="#a"/><use xlink:href="#b" x="-.004" y="10.83"/><use xlink:href="#4"/><use xlink:href="#5" y="2.171"/><use xlink:href="#7" y="6.513"/><use xlink:href="#18" y="8.684"/></svg><svg x="3220"><use xlink:href="#a"/><use xlink:href="#b" x="-.004" y="13.001"/><use xlink:href="#4"/><use xlink:href="#5" y="2.171"/><use xlink:href="#7" y="6.513"/><use xlink:href="#18" y="8.684"/><use xlink:href="#19" y="10.855"/></svg><svg x="3290"><use xlink:href="#a"/><use xlink:href="#b" x="-.004" y="15.172"/><use xlink:href="#4"/><use xlink:href="#5" y="2.171"/><use xlink:href="#7" y="6.513"/><use xlink:href="#18" y="8.684"/><use xlink:href="#19" y="10.855"/><use xlink:href="#20" y="13.026"/></svg><svg x="3360"><use xlink:href="#a"/><use xlink:href="#b" x="-.004" y="17.343"/><use xlink:href="#4"/><use xlink:href="#5" y="2.171"/><use xlink:href="#7" y="6.513"/><use xlink:href="#18" y="8.684"/><use xlink:href="#19" y="10.855"/><use xlink:href="#20" y="13.026"/><use xlink:href="#21" y="15.197"/></svg><svg x="3430"><use xlink:href="#a"/><use xlink:href="#b" x="-.004"/></svg><svg x="3500"><use xlink:href="#a"/><use xlink:href="#b" x="1.996"/><use xlink:href="#1"/></svg><svg x="3570"><use xlink:href="#a"/><use xlink:href="#b" x="1.996"/><use xlink:href="#1"/></svg><svg x="3640"><use xlink:href="#a"/><use xlink:href="#b" x="1.996"/><use xlink:href="#1"/></svg><svg x="3710"><use xlink:href="#a"/><use xlink:href="#b" x="1.996"/><use xlink:href="#1"/></svg><svg x="3780"><use xlink:href="#a"/><use xlink:href="#b" x="2.996"/><use xlink:href="#2"/></svg><svg x="3850"><use xlink:href="#a"/><use xlink:href="#b" x="4.996"/><use xlink:href="#3"/></svg><svg x="3920"><use xlink:href="#a"/><use xlink:href="#b" x="6.996"/><text y="1.67" class="c">$</text><text x="2.004" y="1.67" class="d">cat</text><text x="6.012" y="1.67" class="d">H</text></svg><svg x="3990"><use xlink:href="#a"/><use xlink:href="#b" x="8.996"/><text y="1.67" class="c">$</text><text x="2.004" y="1.67" class="d">cat</text><text x="6.012" y="1.67" class="d">Hel</text></svg><svg x="4060"><use xlink:href="#a"/><use xlink:href="#b" x="10.996"/><text y="1.67" class="c">$</text><text x="2.004" y="1.67" class="d">cat</text><text x="6.012" y="1.67" class="d">Hello</text></svg><svg x="4130"><use xlink:href="#a"/><use xlink:href="#b" x="12.996"/><text y="1.67" class="c">$</text><text x="2.004" y="1.67" class="d">cat</text><text x="6.012" y="1.67" class="d">Hello.s</text></svg><svg x="4200"><use xlink:href="#a"/><use xlink:href="#b" x="14.996"/><text y="1.67" class="c">$</text><text x="2.004" y="1.67" class="d">cat</text><text x="6.012" y="1.67" class="d">Hello.sca</text></svg><svg x="4270"><use xlink:href="#a"/><use xlink:href="#b" x="16.996"/><use xlink:href="#4"/></svg><svg x="4340"><use xlink:href="#a"/><use xlink:href="#b" x="16.996"/><use xlink:href="#4"/></svg><svg x="4410"><use xlink:href="#a"/><use xlink:href="#b" x="16.996"/><use xlink:href="#4"/></svg><svg x="4480"><use xlink:href="#a"/><use xlink:href="#b" x="-.004" y="2.146"/><use xlink:href="#4"/></svg><svg x="4550"><use xlink:href="#a"/><use xlink:href="#b" x="-.004" y="2.146"/><use xlink:href="#4"/></svg><svg x="4620"><use xlink:href="#a"/><use xlink:href="#b" x="15.996" y="2.146"/><use xlink:href="#4"/><use xlink:href="#22" y="2.171"/></svg><svg x="4690"><use xlink:href="#a"/><use xlink:href="#b" x="15.996" y="2.146"/><use xlink:href="#4"/><use xlink:href="#22" y="2.171"/></svg><svg x="4760"><use xlink:href="#a"/><use xlink:href="#b" x="-.004" y="6.488"/><use xlink:href="#4"/><use xlink:href="#22" y="2.171"/></svg><svg x="4830"><use xlink:href="#a"/><use xlink:href="#b" x="5.996" y="6.488"/><use xlink:href="#4"/><use xlink:href="#22" y="2.171"/><use xlink:href="#23" y="6.513"/></svg><svg x="4900"><use xlink:href="#a"/><use xlink:href="#b" x="6.996" y="6.488"/><use xlink:href="#4"/><use xlink:href="#22" y="2.171"/><use xlink:href="#23" y="6.513"/></svg><svg x="4970"><use xlink:href="#a"/><use xlink:href="#b" x="6.996" y="6.488"/><use xlink:href="#4"/><use xlink:href="#22" y="2.171"/><use xlink:href="#23" y="6.513"/></svg><svg x="5040"><use xlink:href="#a"/><use xlink:href="#b" x="11.996" y="6.488"/><use xlink:href="#4"/><use xlink:href="#22" y="2.171"/><use xlink:href="#24" y="6.513"/></svg><svg x="5110"><use xlink:href="#a"/><use xlink:href="#b" x="11.996" y="6.488"/><use xlink:href="#4"/><use xlink:href="#22" y="2.171"/><use xlink:href="#24" y="6.513"/></svg><svg x="5180"><use xlink:href="#a"/><use xlink:href="#b" x="24.996" y="6.488"/><use xlink:href="#4"/><use xlink:href="#22" y="2.171"/><use xlink:href="#25" y="6.513"/></svg><svg x="5250"><use xlink:href="#a"/><use xlink:href="#b" x="24.996" y="6.488"/><use xlink:href="#4"/><use xlink:href="#22" y="2.171"/><use xlink:href="#25" y="6.513"/></svg><svg x="5320"><use xlink:href="#a"/><use xlink:href="#b" x="25.996" y="6.488"/><use xlink:href="#4"/><use xlink:href="#22" y="2.171"/><use xlink:href="#26" y="6.513"/></svg><svg x="5390"><use xlink:href="#a"/><use xlink:href="#b" x="25.996" y="6.488"/><use xlink:href="#4"/><use xlink:href="#22" y="2.171"/><use xlink:href="#26" y="6.513"/></svg><svg x="5460"><use xlink:href="#a"/><use xlink:href="#b" x="7.996" y="8.659"/><use xlink:href="#4"/><use xlink:href="#22" y="2.171"/><use xlink:href="#26" y="6.513"/><text x="1.002" y="10.354" class="h">println</text></svg><svg x="5530"><use xlink:href="#a"/><use xlink:href="#b" x="8.996" y="8.659"/><use xlink:href="#4"/><use xlink:href="#22" y="2.171"/><use xlink:href="#26" y="6.513"/><use xlink:href="#27" y="8.684"/></svg><svg x="5600"><use xlink:href="#a"/><use xlink:href="#b" x="8.996" y="8.659"/><use xlink:href="#4"/><use xlink:href="#22" y="2.171"/><use xlink:href="#26" y="6.513"/><use xlink:href="#27" y="8.684"/></svg><svg x="5670"><use xlink:href="#a"/><use xlink:href="#b" x="35.996" y="8.659"/><use xlink:href="#4"/><use xlink:href="#22" y="2.171"/><use xlink:href="#26" y="6.513"/><text x="1.002" y="10.354" class="h">println(</text><text x="9.018" y="10.354" class="i">&quot;Hello</text><text x="16.032" y="10.354" class="i">world</text><text x="22.044" y="10.354" class="i">from</text><text x="27.054" y="10.354" class="i">ScalaCLI&quot;</text></svg><svg x="5740"><use xlink:href="#a"/><use xlink:href="#b" x="-.004" y="13.001"/><use xlink:href="#4"/><use xlink:href="#22" y="2.171"/><use xlink:href="#26" y="6.513"/><use xlink:href="#28" y="8.684"/><use xlink:href="#29" y="10.855"/></svg><svg x="5810"><use xlink:href="#a"/><use xlink:href="#b" x="1.996" y="13.001"/><use xlink:href="#4"/><use xlink:href="#22" y="2.171"/><use xlink:href="#26" y="6.513"/><use xlink:href="#28" y="8.684"/><use xlink:href="#29" y="10.855"/><use xlink:href="#1" y="13.026"/></svg><svg x="5880"><use xlink:href="#a"/><use xlink:href="#b" x="1.996" y="13.001"/><use xlink:href="#4"/><use xlink:href="#22" y="2.171"/><use xlink:href="#26" y="6.513"/><use xlink:href="#28" y="8.684"/><use xlink:href="#29" y="10.855"/><use xlink:href="#1" y="13.026"/></svg><svg x="5950"><use xlink:href="#a"/><use xlink:href="#b" x="1.996" y="13.001"/><use xlink:href="#4"/><use xlink:href="#22" y="2.171"/><use xlink:href="#26" y="6.513"/><use xlink:href="#28" y="8.684"/><use xlink:href="#29" y="10.855"/><use xlink:href="#1" y="13.026"/></svg><svg x="6020"><use xlink:href="#a"/><use xlink:href="#b" x="1.996" y="13.001"/><use xlink:href="#4"/><use xlink:href="#22" y="2.171"/><use xlink:href="#26" y="6.513"/><use xlink:href="#28" y="8.684"/><use xlink:href="#29" y="10.855"/><use xlink:href="#1" y="13.026"/></svg><svg x="6090"><use xlink:href="#a"/><use xlink:href="#b" x="1.996" y="13.001"/><use xlink:href="#4"/><use xlink:href="#22" y="2.171"/><use xlink:href="#26" y="6.513"/><use xlink:href="#28" y="8.684"/><use xlink:href="#29" y="10.855"/><use xlink:href="#1" y="13.026"/></svg><svg x="6160"><use xlink:href="#a"/><use xlink:href="#b" x="3.996" y="13.001"/><use xlink:href="#4"/><use xlink:href="#22" y="2.171"/><use xlink:href="#26" y="6.513"/><use xlink:href="#28" y="8.684"/><use xlink:href="#29" y="10.855"/><use xlink:href="#8" y="13.026"/></svg><svg x="6230"><use xlink:href="#a"/><use xlink:href="#b" x="5.996" y="13.001"/><use xlink:href="#4"/><use xlink:href="#22" y="2.171"/><use xlink:href="#26" y="6.513"/><use xlink:href="#28" y="8.684"/><use xlink:href="#29" y="10.855"/><use xlink:href="#9" y="13.026"/></svg><svg x="6300"><use xlink:href="#a"/><use xlink:href="#b" x="7.996" y="13.001"/><use xlink:href="#4"/><use xlink:href="#22" y="2.171"/><use xlink:href="#26" y="6.513"/><use xlink:href="#28" y="8.684"/><use xlink:href="#29" y="10.855"/><use xlink:href="#10" y="13.026"/></svg><svg x="6370"><use xlink:href="#a"/><use xlink:href="#b" x="9.996" y="13.001"/><use xlink:href="#4"/><use xlink:href="#22" y="2.171"/><use xlink:href="#26" y="6.513"/><use xlink:href="#28" y="8.684"/><use xlink:href="#29" y="10.855"/><use xlink:href="#11" y="13.026"/></svg><svg x="6440"><use xlink:href="#a"/><use xlink:href="#b" x="11.996" y="13.001"/><use xlink:href="#4"/><use xlink:href="#22" y="2.171"/><use xlink:href="#26" y="6.513"/><use xlink:href="#28" y="8.684"/><use xlink:href="#29" y="10.855"/><use xlink:href="#12" y="13.026"/></svg><svg x="6510"><use xlink:href="#a"/><use xlink:href="#b" x="13.996" y="13.001"/><use xlink:href="#4"/><use xlink:href="#22" y="2.171"/><use xlink:href="#26" y="6.513"/><use xlink:href="#28" y="8.684"/><use xlink:href="#29" y="10.855"/><use xlink:href="#13" y="13.026"/></svg><svg x="6580"><use xlink:href="#a"/><use xlink:href="#b" x="14.996" y="13.001"/><use xlink:href="#4"/><use xlink:href="#22" y="2.171"/><use xlink:href="#26" y="6.513"/><use xlink:href="#28" y="8.684"/><use xlink:href="#29" y="10.855"/><use xlink:href="#14" y="13.026"/></svg><svg x="6650"><use xlink:href="#a"/><use xlink:href="#b" x="16.996" y="13.001"/><use xlink:href="#4"/><use xlink:href="#22" y="2.171"/><use xlink:href="#26" y="6.513"/><use xlink:href="#28" y="8.684"/><use xlink:href="#29" y="10.855"/><use xlink:href="#15" y="13.026"/></svg><svg x="6720"><use xlink:href="#a"/><use xlink:href="#b" x="18.996" y="13.001"/><use xlink:href="#4"/><use xlink:href="#22" y="2.171"/><use xlink:href="#26" y="6.513"/><use xlink:href="#28" y="8.684"/><use xlink:href="#29" y="10.855"/><use xlink:href="#16" y="13.026"/></svg><svg x="6790"><use xlink:href="#a"/><use xlink:href="#b" x="20.996" y="13.001"/><use xlink:href="#4"/><use xlink:href="#22" y="2.171"/><use xlink:href="#26" y="6.513"/><use xlink:href="#28" y="8.684"/><use xlink:href="#29" y="10.855"/><use xlink:href="#17" y="13.026"/></svg><svg x="6860"><use xlink:href="#a"/><use xlink:href="#b" x="22.996" y="13.001"/><use xlink:href="#4"/><use xlink:href="#22" y="2.171"/><use xlink:href="#26" y="6.513"/><use xlink:href="#28" y="8.684"/><use xlink:href="#29" y="10.855"/><use xlink:href="#18" y="13.026"/></svg><svg x="6930"><use xlink:href="#a"/><use xlink:href="#b" x="22.996" y="13.001"/><use xlink:href="#4"/><use xlink:href="#22" y="2.171"/><use xlink:href="#26" y="6.513"/><use xlink:href="#28" y="8.684"/><use xlink:href="#29" y="10.855"/><use xlink:href="#18" y="13.026"/></svg><svg x="7000"><use xlink:href="#a"/><use xlink:href="#b" x="22.996" y="13.001"/><use xlink:href="#4"/><use xlink:href="#22" y="2.171"/><use xlink:href="#26" y="6.513"/><use xlink:href="#28" y="8.684"/><use xlink:href="#29" y="10.855"/><use xlink:href="#18" y="13.026"/></svg><svg x="7070"><use xlink:href="#a"/><use xlink:href="#b" x="-.004" y="15.172"/><use xlink:href="#4"/><use xlink:href="#22" y="2.171"/><use xlink:href="#26" y="6.513"/><use xlink:href="#28" y="8.684"/><use xlink:href="#29" y="10.855"/><use xlink:href="#18" y="13.026"/></svg><svg x="7140"><use xlink:href="#a"/><use xlink:href="#b" x="-.004" y="17.343"/><use xlink:href="#4"/><use xlink:href="#22" y="2.171"/><use xlink:href="#26" y="6.513"/><use xlink:href="#28" y="8.684"/><use xlink:href="#29" y="10.855"/><use xlink:href="#18" y="13.026"/><use xlink:href="#30" y="15.197"/></svg><svg x="7210"><use xlink:href="#a"/><use xlink:href="#b" x="-.004" y="19.514"/><use xlink:href="#4"/><use xlink:href="#22" y="2.171"/><use xlink:href="#26" y="6.513"/><use xlink:href="#28" y="8.684"/><use xlink:href="#29" y="10.855"/><use xlink:href="#18" y="13.026"/><use xlink:href="#30" y="15.197"/><use xlink:href="#31" y="17.368"/></svg><svg x="7280"><use xlink:href="#a"/><use xlink:href="#b" x="-.004" y="21.685"/><use xlink:href="#4"/><use xlink:href="#22" y="2.171"/><use xlink:href="#26" y="6.513"/><use xlink:href="#28" y="8.684"/><use xlink:href="#29" y="10.855"/><use xlink:href="#18" y="13.026"/><use xlink:href="#30" y="15.197"/><use xlink:href="#31" y="17.368"/><use xlink:href="#21" y="19.539"/></svg><svg x="7350"><use xlink:href="#a"/><use xlink:href="#b" x="-.004" y="23.856"/><use xlink:href="#4"/><use xlink:href="#22" y="2.171"/><use xlink:href="#26" y="6.513"/><use xlink:href="#28" y="8.684"/><use xlink:href="#29" y="10.855"/><use xlink:href="#18" y="13.026"/><use xlink:href="#30" y="15.197"/><use xlink:href="#31" y="17.368"/><use xlink:href="#21" y="19.539"/></svg></svg></g></g></svg></svg>