<?xml version="1.0" encoding="utf-8"?>
<!-- Generator: Adobe Illustrator 18.0.0, SVG Export Plug-In . SVG Version: 6.00 Build 0)  -->
<!DOCTYPE svg PUBLIC "-//W3C//DTD SVG 1.1//EN" "http://www.w3.org/Graphics/SVG/1.1/DTD/svg11.dtd">
<svg version="1.1" id="Layer_1" xmlns="http://www.w3.org/2000/svg" xmlns:xlink="http://www.w3.org/1999/xlink" x="0px" y="0px"
	 viewBox="0 0 200 200" enable-background="new 0 0 200 200" xml:space="preserve">
<g id="Scala_Icon">
	<path id="XMLID_1_" fill="#DC332D" d="M151.3,168H48.7c-9.2,0-16.7-7.5-16.7-16.7V48.7C32,39.5,39.5,32,48.7,32h102.7
		c9.2,0,16.7,7.5,16.7,16.7v102.7C168,160.5,160.5,168,151.3,168z"/>
	<g id="shadow">
		<defs>
			<path id="XMLID_2_" d="M151.3,168H48.7c-9.2,0-16.7-7.5-16.7-16.7V48.7C32,39.5,39.5,32,48.7,32h102.7c9.2,0,16.7,7.5,16.7,16.7
				v102.7C168,160.5,160.5,168,151.3,168z"/>
		</defs>
		<clipPath id="XMLID_4_">
			<use xlink:href="#XMLID_2_"  overflow="visible"/>
		</clipPath>
		<polygon opacity="0.3" clip-path="url(#XMLID_4_)" points="68.5,87.4 77.4,96.3 68.5,121 78.1,130.5 68.5,154.5 82.1,168 168,168 
			168,82 131.5,45.5 131.5,52.4 		"/>
	</g>
	<g id="logo">
		<g opacity="0.6">
			<path fill="#FFFFFF" d="M68.5,87.4c0,0,62.9,6.3,62.9,16.8V79c0,0,0-10.5-62.9-16.8V72V87.4z"/>
			<path fill="#FFFFFF" d="M68.5,121c0,0,62.9,6.3,62.9,16.8v-25.2c0,0,0-10.5-62.9-16.8V121z"/>
		</g>
		<path fill="#FFFFFF" d="M131.5,45.5v25.2c0,0,0,10.5-62.9,16.8V62.2C68.5,62.2,131.5,56,131.5,45.5"/>
		<path fill="#FFFFFF" d="M68.5,95.8c0,0,62.9-6.3,62.9-16.8v25.2c0,0,0,10.5-62.9,16.8V95.8z"/>
		<path fill="#FFFFFF" d="M68.5,154.5v-25.2c0,0,62.9-6.3,62.9-16.8v25.2C131.5,137.8,131.5,148.2,68.5,154.5"/>
	</g>
</g>
</svg>
