<svg xmlns="http://www.w3.org/2000/svg" xmlns:xlink="http://www.w3.org/1999/xlink" width="740" height="474.2"><rect width="740" height="474.2" rx="0" ry="0" class="a"/><svg height="434.2" viewBox="0 0 70 43.42" width="700" x="20" xmlns="http://www.w3.org/2000/svg" xmlns:xlink="http://www.w3.org/1999/xlink" y="20"><style>@keyframes n{0%{transform:translateX(-70px)}.1%{transform:translateX(-210px)}1.2%{transform:translateX(-280px)}1.8%{transform:translateX(-350px)}2.3%{transform:translateX(-420px)}2.9%{transform:translateX(-490px)}3.5%{transform:translateX(-560px)}4%{transform:translateX(-630px)}4.6%{transform:translateX(-700px)}5.2%{transform:translateX(-770px)}5.7%{transform:translateX(-840px)}6.9%{transform:translateX(-910px)}7.4%{transform:translateX(-980px)}8%{transform:translateX(-1120px)}9.9%{transform:translateX(-1820px)}35.1%{transform:translateX(-1960px)}36.2%{transform:translateX(-2030px)}36.8%{transform:translateX(-2100px)}37.4%{transform:translateX(-2170px)}37.9%{transform:translateX(-2240px)}38.5%{transform:translateX(-2310px)}39.1%{transform:translateX(-2380px)}39.6%{transform:translateX(-2450px)}40.2%{transform:translateX(-2520px)}40.8%{transform:translateX(-2590px)}41.9%{transform:translateX(-2660px)}42.5%{transform:translateX(-2730px)}43%{transform:translateX(-2800px)}43.6%{transform:translateX(-2870px)}44.2%{transform:translateX(-3010px)}44.3%{transform:translateX(-3150px)}45.4%{transform:translateX(-3220px)}46%{transform:translateX(-3290px)}46.6%{transform:translateX(-3360px)}47.1%{transform:translateX(-3430px)}47.7%{transform:translateX(-3500px)}48.3%{transform:translateX(-3570px)}48.8%{transform:translateX(-3640px)}49.4%{transform:translateX(-3710px)}50%{transform:translateX(-3780px)}51.1%{transform:translateX(-3850px)}51.7%{transform:translateX(-3920px)}52.2%{transform:translateX(-3990px)}52.8%{transform:translateX(-4060px)}53.4%{transform:translateX(-4130px)}53.9%{transform:translateX(-4270px)}54%{transform:translateX(-4410px)}55.2%{transform:translateX(-4480px)}55.7%{transform:translateX(-4550px)}56.3%{transform:translateX(-4620px)}56.9%{transform:translateX(-4690px)}57.4%{transform:translateX(-4760px)}58%{transform:translateX(-4830px)}58.6%{transform:translateX(-4900px)}59.1%{transform:translateX(-4970px)}59.7%{transform:translateX(-5040px)}60.8%{transform:translateX(-5110px)}61.4%{transform:translateX(-5180px)}62%{transform:translateX(-5250px)}62.5%{transform:translateX(-5320px)}63.1%{transform:translateX(-5390px)}63.7%{transform:translateX(-5460px)}64.2%{transform:translateX(-5530px)}64.8%{transform:translateX(-5600px)}65.4%{transform:translateX(-5670px)}66.5%{transform:translateX(-5810px)}68.1%{transform:translateX(-5950px)}71.2%{transform:translateX(-6020px)}74.7%{transform:translateX(-7210px)}to{transform:translateX(-7280px)}}.a{fill:#2c1d16}.c{fill:#ffcc2f}.c,.d,.e,.f{white-space:pre}.d{fill:#bfbfbf;font-weight:700}.e,.f{fill:#fff}.f{fill:#fff0a6;font-weight:700}.g{fill:#41ff5b}.g,.h,.i,.j,.k{white-space:pre}.h{fill:#9f93e6;font-weight:700}.i,.j,.k{fill:#666}.j,.k{fill:#bebf00}.k{fill:#2baf2b}</style><g font-family="Monaco,Consolas,Menlo,'Bitstream Vera Sans Mono','Powerline Symbols',monospace" font-size="1.67"><defs><symbol id="1"><text y="1.67" class="c">$</text></symbol><symbol id="2"><text y="1.67" class="c">$</text><text x="2.004" y="1.67" class="d">cat</text><text x="6.012" y="1.67" class="d">stat.sc</text></symbol><symbol id="3"><text y="1.67" class="e">using</text><text x="6.012" y="1.67" class="e">lib</text></symbol><symbol id="4"><text y="1.67" class="e">using</text><text x="6.012" y="1.67" class="e">lib</text><text x="10.02" y="1.67" class="f">&quot;com.lihaoyi::os-lib:0.7.8&quot;</text></symbol><symbol id="5"><text y="1.67" class="e">using</text><text x="6.012" y="1.67" class="e">lib</text><text x="10.02" y="1.67" class="f">&quot;com.lihaoyi::pprint:0.6.6&quot;</text></symbol><symbol id="6"><text y="1.67" class="e">val</text><text x="4.008" y="1.67" class="e">path</text><text x="9.018" y="1.67" class="g">=</text><text x="11.022" y="1.67" class="e">os</text><text x="13.026" y="1.67" class="g">.</text><text x="14.028" y="1.67" class="e">Path</text><text x="18.036" y="1.67" class="g">(</text><text x="19.038" y="1.67" class="e">args</text><text x="23.046" y="1.67" class="g">(</text><text x="24.048" y="1.67" class="h">0</text><text x="25.05" y="1.67" class="g">),</text><text x="28.056" y="1.67" class="e">os</text><text x="30.06" y="1.67" class="g">.</text><text x="31.062" y="1.67" class="e">pwd</text><text x="34.068" y="1.67" class="g">)</text></symbol><symbol id="7"><text y="1.67" class="e">pprint</text><text x="6.012" y="1.67" class="g">.</text><text x="7.014" y="1.67" class="e">pprintln</text><text x="15.03" y="1.67" class="g">(</text><text x="16.032" y="1.67" class="e">os</text><text x="18.036" y="1.67" class="g">.</text><text x="19.038" y="1.67" class="e">stat</text><text x="23.046" y="1.67" class="g">(</text><text x="24.048" y="1.67" class="e">path</text><text x="28.056" y="1.67" class="g">))</text></symbol><symbol id="8"><text y="1.67" class="c">$</text><text x="2.004" y="1.67" class="d">chmod</text><text x="8.016" y="1.67" class="d">+x</text><text x="11.022" y="1.67" class="d">stat.sc</text></symbol><symbol id="9"><text y="1.67" class="c">$</text><text x="2.004" y="1.67" class="d">echo</text><text x="7.014" y="1.67" class="d">&quot;Hello&quot;</text><text x="15.03" y="1.67" class="d">&gt;</text><text x="17.034" y="1.67" class="d">my_file</text></symbol><symbol id="10"><text y="1.67" class="c">$</text><text x="2.004" y="1.67" class="d">scala-cli</text><text x="12.024" y="1.67" class="d">./stat.sc</text><text x="22.044" y="1.67" class="d">--</text><text x="25.05" y="1.67" class="d">my_file</text></symbol><symbol id="11"><text y="1.67" class="i">Compiling</text><text x="10.02" y="1.67" class="i">project</text><text x="18.036" y="1.67" class="i">(Scala</text><text x="25.05" y="1.67" class="i">3.0.2,</text><text x="32.064" y="1.67" class="i">JVM)</text></symbol><symbol id="12"><text y="1.67" class="i">Compiled</text><text x="9.018" y="1.67" class="i">project</text><text x="17.034" y="1.67" class="i">(Scala</text><text x="24.048" y="1.67" class="i">3.0.2,</text><text x="31.062" y="1.67" class="i">JVM)</text></symbol><symbol id="13"><text y="1.67" class="j">StatInfo</text><text x="8.016" y="1.67" class="c">(</text></symbol><symbol id="14"><text x="2.004" y="1.67" class="c">size</text><text x="7.014" y="1.67" class="c">=</text><text x="9.018" y="1.67" class="k">6L</text><text x="11.022" y="1.67" class="c">,</text></symbol><symbol id="15"><text x="2.004" y="1.67" class="c">mtime</text><text x="8.016" y="1.67" class="c">=</text><text x="10.02" y="1.67" class="c">2021-10-20T14:39:13.81807Z,</text></symbol><symbol id="16"><text x="2.004" y="1.67" class="c">ctime</text><text x="8.016" y="1.67" class="c">=</text><text x="10.02" y="1.67" class="c">2021-10-20T14:39:13.81807Z,</text></symbol><symbol id="17"><text x="2.004" y="1.67" class="c">atime</text><text x="8.016" y="1.67" class="c">=</text><text x="10.02" y="1.67" class="c">2021-10-20T14:39:13.81807Z,</text></symbol><symbol id="18"><text x="2.004" y="1.67" class="c">fileType</text><text x="11.022" y="1.67" class="c">=</text><text x="13.026" y="1.67" class="c">File</text></symbol><symbol id="19"><text y="1.67" class="c">)</text></symbol><symbol id="a"><path fill="transparent" d="M0 0h70v21H0z"/></symbol><symbol id="b"><path fill="#23ff18" d="M0 0h1.102v2.171H0z"/></symbol></defs><path class="a" d="M0 0h70v43.42H0z"/><g style="animation-duration:15.928448s;animation-iteration-count:infinite;animation-name:n;animation-timing-function:steps(1,end)"><svg width="7350"><svg><use xlink:href="#a"/><use xlink:href="#b" x="-.004"/></svg><svg x="70"><use xlink:href="#a"/><use xlink:href="#b" x="-.004"/></svg><svg x="140"><use xlink:href="#a"/><use xlink:href="#b" x="1.996"/><use xlink:href="#1"/></svg><svg x="210"><use xlink:href="#a"/><use xlink:href="#b" x="1.996"/><use xlink:href="#1"/></svg><svg x="280"><use xlink:href="#a"/><use xlink:href="#b" x="1.996"/><use xlink:href="#1"/></svg><svg x="350"><use xlink:href="#a"/><use xlink:href="#b" x="1.996"/><use xlink:href="#1"/></svg><svg x="420"><use xlink:href="#a"/><use xlink:href="#b" x="1.996"/><use xlink:href="#1"/></svg><svg x="490"><use xlink:href="#a"/><use xlink:href="#b" x="2.996"/><text y="1.67" class="c">$</text><text x="2.004" y="1.67" class="d">c</text></svg><svg x="560"><use xlink:href="#a"/><use xlink:href="#b" x="4.996"/><text y="1.67" class="c">$</text><text x="2.004" y="1.67" class="d">cat</text></svg><svg x="630"><use xlink:href="#a"/><use xlink:href="#b" x="6.996"/><text y="1.67" class="c">$</text><text x="2.004" y="1.67" class="d">cat</text><text x="6.012" y="1.67" class="d">s</text></svg><svg x="700"><use xlink:href="#a"/><use xlink:href="#b" x="8.996"/><text y="1.67" class="c">$</text><text x="2.004" y="1.67" class="d">cat</text><text x="6.012" y="1.67" class="d">sta</text></svg><svg x="770"><use xlink:href="#a"/><use xlink:href="#b" x="10.996"/><text y="1.67" class="c">$</text><text x="2.004" y="1.67" class="d">cat</text><text x="6.012" y="1.67" class="d">stat.</text></svg><svg x="840"><use xlink:href="#a"/><use xlink:href="#b" x="11.996"/><text y="1.67" class="c">$</text><text x="2.004" y="1.67" class="d">cat</text><text x="6.012" y="1.67" class="d">stat.s</text></svg><svg x="910"><use xlink:href="#a"/><use xlink:href="#b" x="12.996"/><use xlink:href="#2"/></svg><svg x="980"><use xlink:href="#a"/><use xlink:href="#b" x="12.996"/><use xlink:href="#2"/></svg><svg x="1050"><use xlink:href="#a"/><use xlink:href="#b" x="12.996"/><use xlink:href="#2"/></svg><svg x="1120"><use xlink:href="#a"/><use xlink:href="#b" x="-.004" y="2.146"/><use xlink:href="#2"/></svg><svg x="1190"><use xlink:href="#a"/><use xlink:href="#b" x="-.004" y="2.146"/><use xlink:href="#2"/></svg><svg x="1260"><use xlink:href="#a"/><use xlink:href="#b" x="9.996" y="2.146"/><use xlink:href="#2"/><use xlink:href="#3" y="2.171"/></svg><svg x="1330"><use xlink:href="#a"/><use xlink:href="#b" x="8.996" y="4.317"/><use xlink:href="#2"/><use xlink:href="#4" y="2.171"/><use xlink:href="#3" y="4.342"/></svg><svg x="1400"><use xlink:href="#a"/><use xlink:href="#b" x="3.996" y="8.659"/><use xlink:href="#2"/><use xlink:href="#4" y="2.171"/><use xlink:href="#5" y="4.342"/><text y="10.354" class="e">val</text></svg><svg x="1470"><use xlink:href="#a"/><use xlink:href="#b" x="8.996" y="8.659"/><use xlink:href="#2"/><use xlink:href="#4" y="2.171"/><use xlink:href="#5" y="4.342"/><text y="10.354" class="e">val</text><text x="4.008" y="10.354" class="e">path</text></svg><svg x="1540"><use xlink:href="#a"/><use xlink:href="#b" x="9.996" y="8.659"/><use xlink:href="#2"/><use xlink:href="#4" y="2.171"/><use xlink:href="#5" y="4.342"/><text y="10.354" class="e">val</text><text x="4.008" y="10.354" class="e">path</text><text x="9.018" y="10.354" class="g">=</text></svg><svg x="1610"><use xlink:href="#a"/><use xlink:href="#b" x="12.996" y="8.659"/><use xlink:href="#2"/><use xlink:href="#4" y="2.171"/><use xlink:href="#5" y="4.342"/><text y="10.354" class="e">val</text><text x="4.008" y="10.354" class="e">path</text><text x="9.018" y="10.354" class="g">=</text><text x="11.022" y="10.354" class="e">os</text></svg><svg x="1680"><use xlink:href="#a"/><use xlink:href="#b" x="24.996" y="8.659"/><use xlink:href="#2"/><use xlink:href="#4" y="2.171"/><use xlink:href="#5" y="4.342"/><text y="10.354" class="e">val</text><text x="4.008" y="10.354" class="e">path</text><text x="9.018" y="10.354" class="g">=</text><text x="11.022" y="10.354" class="e">os</text><text x="13.026" y="10.354" class="g">.</text><text x="14.028" y="10.354" class="e">Path</text><text x="18.036" y="10.354" class="g">(</text><text x="19.038" y="10.354" class="e">args</text><text x="23.046" y="10.354" class="g">(</text><text x="24.048" y="10.354" class="h">0</text></svg><svg x="1750"><use xlink:href="#a"/><use xlink:href="#b" x="27.996" y="10.83"/><use xlink:href="#2"/><use xlink:href="#4" y="2.171"/><use xlink:href="#5" y="4.342"/><use xlink:href="#6" y="8.684"/><text y="12.525" class="e">pprint</text><text x="6.012" y="12.525" class="g">.</text><text x="7.014" y="12.525" class="e">pprintln</text><text x="15.03" y="12.525" class="g">(</text><text x="16.032" y="12.525" class="e">os</text><text x="18.036" y="12.525" class="g">.</text><text x="19.038" y="12.525" class="e">stat</text><text x="23.046" y="12.525" class="g">(</text><text x="24.048" y="12.525" class="e">path</text></svg><svg x="1820"><use xlink:href="#a"/><use xlink:href="#b" x="-.004" y="15.172"/><use xlink:href="#2"/><use xlink:href="#4" y="2.171"/><use xlink:href="#5" y="4.342"/><use xlink:href="#6" y="8.684"/><use xlink:href="#7" y="10.855"/></svg><svg x="1890"><use xlink:href="#a"/><use xlink:href="#b" x="1.996" y="15.172"/><use xlink:href="#2"/><use xlink:href="#4" y="2.171"/><use xlink:href="#5" y="4.342"/><use xlink:href="#6" y="8.684"/><use xlink:href="#7" y="10.855"/><use xlink:href="#1" y="15.197"/></svg><svg x="1960"><use xlink:href="#a"/><use xlink:href="#b" x="1.996" y="15.172"/><use xlink:href="#2"/><use xlink:href="#4" y="2.171"/><use xlink:href="#5" y="4.342"/><use xlink:href="#6" y="8.684"/><use xlink:href="#7" y="10.855"/><use xlink:href="#1" y="15.197"/></svg><svg x="2030"><use xlink:href="#a"/><use xlink:href="#b" x="1.996" y="15.172"/><use xlink:href="#2"/><use xlink:href="#4" y="2.171"/><use xlink:href="#5" y="4.342"/><use xlink:href="#6" y="8.684"/><use xlink:href="#7" y="10.855"/><use xlink:href="#1" y="15.197"/></svg><svg x="2100"><use xlink:href="#a"/><use xlink:href="#b" x="1.996" y="15.172"/><use xlink:href="#2"/><use xlink:href="#4" y="2.171"/><use xlink:href="#5" y="4.342"/><use xlink:href="#6" y="8.684"/><use xlink:href="#7" y="10.855"/><use xlink:href="#1" y="15.197"/></svg><svg x="2170"><use xlink:href="#a"/><use xlink:href="#b" x="1.996" y="15.172"/><use xlink:href="#2"/><use xlink:href="#4" y="2.171"/><use xlink:href="#5" y="4.342"/><use xlink:href="#6" y="8.684"/><use xlink:href="#7" y="10.855"/><use xlink:href="#1" y="15.197"/></svg><svg x="2240"><use xlink:href="#a"/><use xlink:href="#b" x="3.996" y="15.172"/><use xlink:href="#2"/><use xlink:href="#4" y="2.171"/><use xlink:href="#5" y="4.342"/><use xlink:href="#6" y="8.684"/><use xlink:href="#7" y="10.855"/><text y="16.867" class="c">$</text><text x="2.004" y="16.867" class="d">ch</text></svg><svg x="2310"><use xlink:href="#a"/><use xlink:href="#b" x="5.996" y="15.172"/><use xlink:href="#2"/><use xlink:href="#4" y="2.171"/><use xlink:href="#5" y="4.342"/><use xlink:href="#6" y="8.684"/><use xlink:href="#7" y="10.855"/><text y="16.867" class="c">$</text><text x="2.004" y="16.867" class="d">chmo</text></svg><svg x="2380"><use xlink:href="#a"/><use xlink:href="#b" x="7.996" y="15.172"/><use xlink:href="#2"/><use xlink:href="#4" y="2.171"/><use xlink:href="#5" y="4.342"/><use xlink:href="#6" y="8.684"/><use xlink:href="#7" y="10.855"/><text y="16.867" class="c">$</text><text x="2.004" y="16.867" class="d">chmod</text></svg><svg x="2450"><use xlink:href="#a"/><use xlink:href="#b" x="9.996" y="15.172"/><use xlink:href="#2"/><use xlink:href="#4" y="2.171"/><use xlink:href="#5" y="4.342"/><use xlink:href="#6" y="8.684"/><use xlink:href="#7" y="10.855"/><text y="16.867" class="c">$</text><text x="2.004" y="16.867" class="d">chmod</text><text x="8.016" y="16.867" class="d">+x</text></svg><svg x="2520"><use xlink:href="#a"/><use xlink:href="#b" x="11.996" y="15.172"/><use xlink:href="#2"/><use xlink:href="#4" y="2.171"/><use xlink:href="#5" y="4.342"/><use xlink:href="#6" y="8.684"/><use xlink:href="#7" y="10.855"/><text y="16.867" class="c">$</text><text x="2.004" y="16.867" class="d">chmod</text><text x="8.016" y="16.867" class="d">+x</text><text x="11.022" y="16.867" class="d">s</text></svg><svg x="2590"><use xlink:href="#a"/><use xlink:href="#b" x="13.996" y="15.172"/><use xlink:href="#2"/><use xlink:href="#4" y="2.171"/><use xlink:href="#5" y="4.342"/><use xlink:href="#6" y="8.684"/><use xlink:href="#7" y="10.855"/><text y="16.867" class="c">$</text><text x="2.004" y="16.867" class="d">chmod</text><text x="8.016" y="16.867" class="d">+x</text><text x="11.022" y="16.867" class="d">sta</text></svg><svg x="2660"><use xlink:href="#a"/><use xlink:href="#b" x="14.996" y="15.172"/><use xlink:href="#2"/><use xlink:href="#4" y="2.171"/><use xlink:href="#5" y="4.342"/><use xlink:href="#6" y="8.684"/><use xlink:href="#7" y="10.855"/><text y="16.867" class="c">$</text><text x="2.004" y="16.867" class="d">chmod</text><text x="8.016" y="16.867" class="d">+x</text><text x="11.022" y="16.867" class="d">stat</text></svg><svg x="2730"><use xlink:href="#a"/><use xlink:href="#b" x="16.996" y="15.172"/><use xlink:href="#2"/><use xlink:href="#4" y="2.171"/><use xlink:href="#5" y="4.342"/><use xlink:href="#6" y="8.684"/><use xlink:href="#7" y="10.855"/><text y="16.867" class="c">$</text><text x="2.004" y="16.867" class="d">chmod</text><text x="8.016" y="16.867" class="d">+x</text><text x="11.022" y="16.867" class="d">stat.s</text></svg><svg x="2800"><use xlink:href="#a"/><use xlink:href="#b" x="17.996" y="15.172"/><use xlink:href="#2"/><use xlink:href="#4" y="2.171"/><use xlink:href="#5" y="4.342"/><use xlink:href="#6" y="8.684"/><use xlink:href="#7" y="10.855"/><use xlink:href="#8" y="15.197"/></svg><svg x="2870"><use xlink:href="#a"/><use xlink:href="#b" x="17.996" y="15.172"/><use xlink:href="#2"/><use xlink:href="#4" y="2.171"/><use xlink:href="#5" y="4.342"/><use xlink:href="#6" y="8.684"/><use xlink:href="#7" y="10.855"/><use xlink:href="#8" y="15.197"/></svg><svg x="2940"><use xlink:href="#a"/><use xlink:href="#b" x="17.996" y="15.172"/><use xlink:href="#2"/><use xlink:href="#4" y="2.171"/><use xlink:href="#5" y="4.342"/><use xlink:href="#6" y="8.684"/><use xlink:href="#7" y="10.855"/><use xlink:href="#8" y="15.197"/></svg><svg x="3010"><use xlink:href="#a"/><use xlink:href="#b" x="-.004" y="17.343"/><use xlink:href="#2"/><use xlink:href="#4" y="2.171"/><use xlink:href="#5" y="4.342"/><use xlink:href="#6" y="8.684"/><use xlink:href="#7" y="10.855"/><use xlink:href="#8" y="15.197"/></svg><svg x="3080"><use xlink:href="#a"/><use xlink:href="#b" x="1.996" y="17.343"/><use xlink:href="#2"/><use xlink:href="#4" y="2.171"/><use xlink:href="#5" y="4.342"/><use xlink:href="#6" y="8.684"/><use xlink:href="#7" y="10.855"/><use xlink:href="#8" y="15.197"/><use xlink:href="#1" y="17.368"/></svg><svg x="3150"><use xlink:href="#a"/><use xlink:href="#b" x="1.996" y="17.343"/><use xlink:href="#2"/><use xlink:href="#4" y="2.171"/><use xlink:href="#5" y="4.342"/><use xlink:href="#6" y="8.684"/><use xlink:href="#7" y="10.855"/><use xlink:href="#8" y="15.197"/><use xlink:href="#1" y="17.368"/></svg><svg x="3220"><use xlink:href="#a"/><use xlink:href="#b" x="1.996" y="17.343"/><use xlink:href="#2"/><use xlink:href="#4" y="2.171"/><use xlink:href="#5" y="4.342"/><use xlink:href="#6" y="8.684"/><use xlink:href="#7" y="10.855"/><use xlink:href="#8" y="15.197"/><use xlink:href="#1" y="17.368"/></svg><svg x="3290"><use xlink:href="#a"/><use xlink:href="#b" x="1.996" y="17.343"/><use xlink:href="#2"/><use xlink:href="#4" y="2.171"/><use xlink:href="#5" y="4.342"/><use xlink:href="#6" y="8.684"/><use xlink:href="#7" y="10.855"/><use xlink:href="#8" y="15.197"/><use xlink:href="#1" y="17.368"/></svg><svg x="3360"><use xlink:href="#a"/><use xlink:href="#b" x="2.996" y="17.343"/><use xlink:href="#2"/><use xlink:href="#4" y="2.171"/><use xlink:href="#5" y="4.342"/><use xlink:href="#6" y="8.684"/><use xlink:href="#7" y="10.855"/><use xlink:href="#8" y="15.197"/><text y="19.038" class="c">$</text><text x="2.004" y="19.038" class="d">e</text></svg><svg x="3430"><use xlink:href="#a"/><use xlink:href="#b" x="4.996" y="17.343"/><use xlink:href="#2"/><use xlink:href="#4" y="2.171"/><use xlink:href="#5" y="4.342"/><use xlink:href="#6" y="8.684"/><use xlink:href="#7" y="10.855"/><use xlink:href="#8" y="15.197"/><text y="19.038" class="c">$</text><text x="2.004" y="19.038" class="d">ech</text></svg><svg x="3500"><use xlink:href="#a"/><use xlink:href="#b" x="6.996" y="17.343"/><use xlink:href="#2"/><use xlink:href="#4" y="2.171"/><use xlink:href="#5" y="4.342"/><use xlink:href="#6" y="8.684"/><use xlink:href="#7" y="10.855"/><use xlink:href="#8" y="15.197"/><text y="19.038" class="c">$</text><text x="2.004" y="19.038" class="d">echo</text></svg><svg x="3570"><use xlink:href="#a"/><use xlink:href="#b" x="8.996" y="17.343"/><use xlink:href="#2"/><use xlink:href="#4" y="2.171"/><use xlink:href="#5" y="4.342"/><use xlink:href="#6" y="8.684"/><use xlink:href="#7" y="10.855"/><use xlink:href="#8" y="15.197"/><text y="19.038" class="c">$</text><text x="2.004" y="19.038" class="d">echo</text><text x="7.014" y="19.038" class="d">&quot;H</text></svg><svg x="3640"><use xlink:href="#a"/><use xlink:href="#b" x="10.996" y="17.343"/><use xlink:href="#2"/><use xlink:href="#4" y="2.171"/><use xlink:href="#5" y="4.342"/><use xlink:href="#6" y="8.684"/><use xlink:href="#7" y="10.855"/><use xlink:href="#8" y="15.197"/><text y="19.038" class="c">$</text><text x="2.004" y="19.038" class="d">echo</text><text x="7.014" y="19.038" class="d">&quot;Hel</text></svg><svg x="3710"><use xlink:href="#a"/><use xlink:href="#b" x="12.996" y="17.343"/><use xlink:href="#2"/><use xlink:href="#4" y="2.171"/><use xlink:href="#5" y="4.342"/><use xlink:href="#6" y="8.684"/><use xlink:href="#7" y="10.855"/><use xlink:href="#8" y="15.197"/><text y="19.038" class="c">$</text><text x="2.004" y="19.038" class="d">echo</text><text x="7.014" y="19.038" class="d">&quot;Hello</text></svg><svg x="3780"><use xlink:href="#a"/><use xlink:href="#b" x="14.996" y="17.343"/><use xlink:href="#2"/><use xlink:href="#4" y="2.171"/><use xlink:href="#5" y="4.342"/><use xlink:href="#6" y="8.684"/><use xlink:href="#7" y="10.855"/><use xlink:href="#8" y="15.197"/><text y="19.038" class="c">$</text><text x="2.004" y="19.038" class="d">echo</text><text x="7.014" y="19.038" class="d">&quot;Hello&quot;</text></svg><svg x="3850"><use xlink:href="#a"/><use xlink:href="#b" x="17.996" y="17.343"/><use xlink:href="#2"/><use xlink:href="#4" y="2.171"/><use xlink:href="#5" y="4.342"/><use xlink:href="#6" y="8.684"/><use xlink:href="#7" y="10.855"/><use xlink:href="#8" y="15.197"/><text y="19.038" class="c">$</text><text x="2.004" y="19.038" class="d">echo</text><text x="7.014" y="19.038" class="d">&quot;Hello&quot;</text><text x="15.03" y="19.038" class="d">&gt;</text><text x="17.034" y="19.038" class="d">m</text></svg><svg x="3920"><use xlink:href="#a"/><use xlink:href="#b" x="19.996" y="17.343"/><use xlink:href="#2"/><use xlink:href="#4" y="2.171"/><use xlink:href="#5" y="4.342"/><use xlink:href="#6" y="8.684"/><use xlink:href="#7" y="10.855"/><use xlink:href="#8" y="15.197"/><text y="19.038" class="c">$</text><text x="2.004" y="19.038" class="d">echo</text><text x="7.014" y="19.038" class="d">&quot;Hello&quot;</text><text x="15.03" y="19.038" class="d">&gt;</text><text x="17.034" y="19.038" class="d">my_</text></svg><svg x="3990"><use xlink:href="#a"/><use xlink:href="#b" x="21.996" y="17.343"/><use xlink:href="#2"/><use xlink:href="#4" y="2.171"/><use xlink:href="#5" y="4.342"/><use xlink:href="#6" y="8.684"/><use xlink:href="#7" y="10.855"/><use xlink:href="#8" y="15.197"/><text y="19.038" class="c">$</text><text x="2.004" y="19.038" class="d">echo</text><text x="7.014" y="19.038" class="d">&quot;Hello&quot;</text><text x="15.03" y="19.038" class="d">&gt;</text><text x="17.034" y="19.038" class="d">my_fi</text></svg><svg x="4060"><use xlink:href="#a"/><use xlink:href="#b" x="23.996" y="17.343"/><use xlink:href="#2"/><use xlink:href="#4" y="2.171"/><use xlink:href="#5" y="4.342"/><use xlink:href="#6" y="8.684"/><use xlink:href="#7" y="10.855"/><use xlink:href="#8" y="15.197"/><use xlink:href="#9" y="17.368"/></svg><svg x="4130"><use xlink:href="#a"/><use xlink:href="#b" x="23.996" y="17.343"/><use xlink:href="#2"/><use xlink:href="#4" y="2.171"/><use xlink:href="#5" y="4.342"/><use xlink:href="#6" y="8.684"/><use xlink:href="#7" y="10.855"/><use xlink:href="#8" y="15.197"/><use xlink:href="#9" y="17.368"/></svg><svg x="4200"><use xlink:href="#a"/><use xlink:href="#b" x="23.996" y="17.343"/><use xlink:href="#2"/><use xlink:href="#4" y="2.171"/><use xlink:href="#5" y="4.342"/><use xlink:href="#6" y="8.684"/><use xlink:href="#7" y="10.855"/><use xlink:href="#8" y="15.197"/><use xlink:href="#9" y="17.368"/></svg><svg x="4270"><use xlink:href="#a"/><use xlink:href="#b" x="-.004" y="19.514"/><use xlink:href="#2"/><use xlink:href="#4" y="2.171"/><use xlink:href="#5" y="4.342"/><use xlink:href="#6" y="8.684"/><use xlink:href="#7" y="10.855"/><use xlink:href="#8" y="15.197"/><use xlink:href="#9" y="17.368"/></svg><svg x="4340"><use xlink:href="#a"/><use xlink:href="#b" x="1.996" y="19.514"/><use xlink:href="#2"/><use xlink:href="#4" y="2.171"/><use xlink:href="#5" y="4.342"/><use xlink:href="#6" y="8.684"/><use xlink:href="#7" y="10.855"/><use xlink:href="#8" y="15.197"/><use xlink:href="#9" y="17.368"/><use xlink:href="#1" y="19.539"/></svg><svg x="4410"><use xlink:href="#a"/><use xlink:href="#b" x="1.996" y="19.514"/><use xlink:href="#2"/><use xlink:href="#4" y="2.171"/><use xlink:href="#5" y="4.342"/><use xlink:href="#6" y="8.684"/><use xlink:href="#7" y="10.855"/><use xlink:href="#8" y="15.197"/><use xlink:href="#9" y="17.368"/><use xlink:href="#1" y="19.539"/></svg><svg x="4480"><use xlink:href="#a"/><use xlink:href="#b" x="1.996" y="19.514"/><use xlink:href="#2"/><use xlink:href="#4" y="2.171"/><use xlink:href="#5" y="4.342"/><use xlink:href="#6" y="8.684"/><use xlink:href="#7" y="10.855"/><use xlink:href="#8" y="15.197"/><use xlink:href="#9" y="17.368"/><use xlink:href="#1" y="19.539"/></svg><svg x="4550"><use xlink:href="#a"/><use xlink:href="#b" x="1.996" y="19.514"/><use xlink:href="#2"/><use xlink:href="#4" y="2.171"/><use xlink:href="#5" y="4.342"/><use xlink:href="#6" y="8.684"/><use xlink:href="#7" y="10.855"/><use xlink:href="#8" y="15.197"/><use xlink:href="#9" y="17.368"/><use xlink:href="#1" y="19.539"/></svg><svg x="4620"><use xlink:href="#a"/><use xlink:href="#b" x="2.996" y="19.514"/><use xlink:href="#2"/><use xlink:href="#4" y="2.171"/><use xlink:href="#5" y="4.342"/><use xlink:href="#6" y="8.684"/><use xlink:href="#7" y="10.855"/><use xlink:href="#8" y="15.197"/><use xlink:href="#9" y="17.368"/><text y="21.209" class="c">$</text><text x="2.004" y="21.209" class="d">s</text></svg><svg x="4690"><use xlink:href="#a"/><use xlink:href="#b" x="4.996" y="19.514"/><use xlink:href="#2"/><use xlink:href="#4" y="2.171"/><use xlink:href="#5" y="4.342"/><use xlink:href="#6" y="8.684"/><use xlink:href="#7" y="10.855"/><use xlink:href="#8" y="15.197"/><use xlink:href="#9" y="17.368"/><text y="21.209" class="c">$</text><text x="2.004" y="21.209" class="d">sca</text></svg><svg x="4760"><use xlink:href="#a"/><use xlink:href="#b" x="6.996" y="19.514"/><use xlink:href="#2"/><use xlink:href="#4" y="2.171"/><use xlink:href="#5" y="4.342"/><use xlink:href="#6" y="8.684"/><use xlink:href="#7" y="10.855"/><use xlink:href="#8" y="15.197"/><use xlink:href="#9" y="17.368"/><text y="21.209" class="c">$</text><text x="2.004" y="21.209" class="d">scala</text></svg><svg x="4830"><use xlink:href="#a"/><use xlink:href="#b" x="8.996" y="19.514"/><use xlink:href="#2"/><use xlink:href="#4" y="2.171"/><use xlink:href="#5" y="4.342"/><use xlink:href="#6" y="8.684"/><use xlink:href="#7" y="10.855"/><use xlink:href="#8" y="15.197"/><use xlink:href="#9" y="17.368"/><text y="21.209" class="c">$</text><text x="2.004" y="21.209" class="d">scala-c</text></svg><svg x="4900"><use xlink:href="#a"/><use xlink:href="#b" x="10.996" y="19.514"/><use xlink:href="#2"/><use xlink:href="#4" y="2.171"/><use xlink:href="#5" y="4.342"/><use xlink:href="#6" y="8.684"/><use xlink:href="#7" y="10.855"/><use xlink:href="#8" y="15.197"/><use xlink:href="#9" y="17.368"/><text y="21.209" class="c">$</text><text x="2.004" y="21.209" class="d">scala-cli</text></svg><svg x="4970"><use xlink:href="#a"/><use xlink:href="#b" x="12.996" y="19.514"/><use xlink:href="#2"/><use xlink:href="#4" y="2.171"/><use xlink:href="#5" y="4.342"/><use xlink:href="#6" y="8.684"/><use xlink:href="#7" y="10.855"/><use xlink:href="#8" y="15.197"/><use xlink:href="#9" y="17.368"/><text y="21.209" class="c">$</text><text x="2.004" y="21.209" class="d">scala-cli</text><text x="12.024" y="21.209" class="d">.</text></svg><svg x="5040"><use xlink:href="#a"/><use xlink:href="#b" x="14.996" y="19.514"/><use xlink:href="#2"/><use xlink:href="#4" y="2.171"/><use xlink:href="#5" y="4.342"/><use xlink:href="#6" y="8.684"/><use xlink:href="#7" y="10.855"/><use xlink:href="#8" y="15.197"/><use xlink:href="#9" y="17.368"/><text y="21.209" class="c">$</text><text x="2.004" y="21.209" class="d">scala-cli</text><text x="12.024" y="21.209" class="d">./s</text></svg><svg x="5110"><use xlink:href="#a"/><use xlink:href="#b" x="17.996" y="19.514"/><use xlink:href="#2"/><use xlink:href="#4" y="2.171"/><use xlink:href="#5" y="4.342"/><use xlink:href="#6" y="8.684"/><use xlink:href="#7" y="10.855"/><use xlink:href="#8" y="15.197"/><use xlink:href="#9" y="17.368"/><text y="21.209" class="c">$</text><text x="2.004" y="21.209" class="d">scala-cli</text><text x="12.024" y="21.209" class="d">./stat</text></svg><svg x="5180"><use xlink:href="#a"/><use xlink:href="#b" x="19.996" y="19.514"/><use xlink:href="#2"/><use xlink:href="#4" y="2.171"/><use xlink:href="#5" y="4.342"/><use xlink:href="#6" y="8.684"/><use xlink:href="#7" y="10.855"/><use xlink:href="#8" y="15.197"/><use xlink:href="#9" y="17.368"/><text y="21.209" class="c">$</text><text x="2.004" y="21.209" class="d">scala-cli</text><text x="12.024" y="21.209" class="d">./stat.s</text></svg><svg x="5250"><use xlink:href="#a"/><use xlink:href="#b" x="21.996" y="19.514"/><use xlink:href="#2"/><use xlink:href="#4" y="2.171"/><use xlink:href="#5" y="4.342"/><use xlink:href="#6" y="8.684"/><use xlink:href="#7" y="10.855"/><use xlink:href="#8" y="15.197"/><use xlink:href="#9" y="17.368"/><text y="21.209" class="c">$</text><text x="2.004" y="21.209" class="d">scala-cli</text><text x="12.024" y="21.209" class="d">./stat.sc</text></svg><svg x="5320"><use xlink:href="#a"/><use xlink:href="#b" x="23.996" y="19.514"/><use xlink:href="#2"/><use xlink:href="#4" y="2.171"/><use xlink:href="#5" y="4.342"/><use xlink:href="#6" y="8.684"/><use xlink:href="#7" y="10.855"/><use xlink:href="#8" y="15.197"/><use xlink:href="#9" y="17.368"/><text y="21.209" class="c">$</text><text x="2.004" y="21.209" class="d">scala-cli</text><text x="12.024" y="21.209" class="d">./stat.sc</text><text x="22.044" y="21.209" class="d">--</text></svg><svg x="5390"><use xlink:href="#a"/><use xlink:href="#b" x="25.996" y="19.514"/><use xlink:href="#2"/><use xlink:href="#4" y="2.171"/><use xlink:href="#5" y="4.342"/><use xlink:href="#6" y="8.684"/><use xlink:href="#7" y="10.855"/><use xlink:href="#8" y="15.197"/><use xlink:href="#9" y="17.368"/><text y="21.209" class="c">$</text><text x="2.004" y="21.209" class="d">scala-cli</text><text x="12.024" y="21.209" class="d">./stat.sc</text><text x="22.044" y="21.209" class="d">--</text><text x="25.05" y="21.209" class="d">m</text></svg><svg x="5460"><use xlink:href="#a"/><use xlink:href="#b" x="27.996" y="19.514"/><use xlink:href="#2"/><use xlink:href="#4" y="2.171"/><use xlink:href="#5" y="4.342"/><use xlink:href="#6" y="8.684"/><use xlink:href="#7" y="10.855"/><use xlink:href="#8" y="15.197"/><use xlink:href="#9" y="17.368"/><text y="21.209" class="c">$</text><text x="2.004" y="21.209" class="d">scala-cli</text><text x="12.024" y="21.209" class="d">./stat.sc</text><text x="22.044" y="21.209" class="d">--</text><text x="25.05" y="21.209" class="d">my_</text></svg><svg x="5530"><use xlink:href="#a"/><use xlink:href="#b" x="29.996" y="19.514"/><use xlink:href="#2"/><use xlink:href="#4" y="2.171"/><use xlink:href="#5" y="4.342"/><use xlink:href="#6" y="8.684"/><use xlink:href="#7" y="10.855"/><use xlink:href="#8" y="15.197"/><use xlink:href="#9" y="17.368"/><text y="21.209" class="c">$</text><text x="2.004" y="21.209" class="d">scala-cli</text><text x="12.024" y="21.209" class="d">./stat.sc</text><text x="22.044" y="21.209" class="d">--</text><text x="25.05" y="21.209" class="d">my_fi</text></svg><svg x="5600"><use xlink:href="#a"/><use xlink:href="#b" x="31.996" y="19.514"/><use xlink:href="#2"/><use xlink:href="#4" y="2.171"/><use xlink:href="#5" y="4.342"/><use xlink:href="#6" y="8.684"/><use xlink:href="#7" y="10.855"/><use xlink:href="#8" y="15.197"/><use xlink:href="#9" y="17.368"/><use xlink:href="#10" y="19.539"/></svg><svg x="5670"><use xlink:href="#a"/><use xlink:href="#b" x="31.996" y="19.514"/><use xlink:href="#2"/><use xlink:href="#4" y="2.171"/><use xlink:href="#5" y="4.342"/><use xlink:href="#6" y="8.684"/><use xlink:href="#7" y="10.855"/><use xlink:href="#8" y="15.197"/><use xlink:href="#9" y="17.368"/><use xlink:href="#10" y="19.539"/></svg><svg x="5740"><use xlink:href="#a"/><use xlink:href="#b" x="31.996" y="19.514"/><use xlink:href="#2"/><use xlink:href="#4" y="2.171"/><use xlink:href="#5" y="4.342"/><use xlink:href="#6" y="8.684"/><use xlink:href="#7" y="10.855"/><use xlink:href="#8" y="15.197"/><use xlink:href="#9" y="17.368"/><use xlink:href="#10" y="19.539"/></svg><svg x="5810"><use xlink:href="#a"/><use xlink:href="#b" x="-.004" y="21.685"/><use xlink:href="#2"/><use xlink:href="#4" y="2.171"/><use xlink:href="#5" y="4.342"/><use xlink:href="#6" y="8.684"/><use xlink:href="#7" y="10.855"/><use xlink:href="#8" y="15.197"/><use xlink:href="#9" y="17.368"/><use xlink:href="#10" y="19.539"/></svg><svg x="5880"><use xlink:href="#a"/><use xlink:href="#b" x="35.996" y="21.685"/><use xlink:href="#2"/><use xlink:href="#4" y="2.171"/><use xlink:href="#5" y="4.342"/><use xlink:href="#6" y="8.684"/><use xlink:href="#7" y="10.855"/><use xlink:href="#8" y="15.197"/><use xlink:href="#9" y="17.368"/><use xlink:href="#10" y="19.539"/><use xlink:href="#11" y="21.71"/></svg><svg x="5950"><use xlink:href="#a"/><use xlink:href="#b" x="-.004" y="23.856"/><use xlink:href="#2"/><use xlink:href="#4" y="2.171"/><use xlink:href="#5" y="4.342"/><use xlink:href="#6" y="8.684"/><use xlink:href="#7" y="10.855"/><use xlink:href="#8" y="15.197"/><use xlink:href="#9" y="17.368"/><use xlink:href="#10" y="19.539"/><use xlink:href="#11" y="21.71"/></svg><svg x="6020"><use xlink:href="#a"/><use xlink:href="#b" x="-.004" y="26.027"/><use xlink:href="#2"/><use xlink:href="#4" y="2.171"/><use xlink:href="#5" y="4.342"/><use xlink:href="#6" y="8.684"/><use xlink:href="#7" y="10.855"/><use xlink:href="#8" y="15.197"/><use xlink:href="#9" y="17.368"/><use xlink:href="#10" y="19.539"/><use xlink:href="#11" y="21.71"/><use xlink:href="#12" y="23.881"/></svg><svg x="6090"><use xlink:href="#a"/><use xlink:href="#b" x="7.996" y="26.027"/><use xlink:href="#2"/><use xlink:href="#4" y="2.171"/><use xlink:href="#5" y="4.342"/><use xlink:href="#6" y="8.684"/><use xlink:href="#7" y="10.855"/><use xlink:href="#8" y="15.197"/><use xlink:href="#9" y="17.368"/><use xlink:href="#10" y="19.539"/><use xlink:href="#11" y="21.71"/><use xlink:href="#12" y="23.881"/><text y="27.722" class="j">StatInfo</text></svg><svg x="6160"><use xlink:href="#a"/><use xlink:href="#b" x="-.004" y="28.198"/><use xlink:href="#2"/><use xlink:href="#4" y="2.171"/><use xlink:href="#5" y="4.342"/><use xlink:href="#6" y="8.684"/><use xlink:href="#7" y="10.855"/><use xlink:href="#8" y="15.197"/><use xlink:href="#9" y="17.368"/><use xlink:href="#10" y="19.539"/><use xlink:href="#11" y="21.71"/><use xlink:href="#12" y="23.881"/><use xlink:href="#13" y="26.052"/></svg><svg x="6230"><use xlink:href="#a"/><use xlink:href="#b" x="1.996" y="28.198"/><use xlink:href="#2"/><use xlink:href="#4" y="2.171"/><use xlink:href="#5" y="4.342"/><use xlink:href="#6" y="8.684"/><use xlink:href="#7" y="10.855"/><use xlink:href="#8" y="15.197"/><use xlink:href="#9" y="17.368"/><use xlink:href="#10" y="19.539"/><use xlink:href="#11" y="21.71"/><use xlink:href="#12" y="23.881"/><use xlink:href="#13" y="26.052"/></svg><svg x="6300"><use xlink:href="#a"/><use xlink:href="#b" x="10.996" y="28.198"/><use xlink:href="#2"/><use xlink:href="#4" y="2.171"/><use xlink:href="#5" y="4.342"/><use xlink:href="#6" y="8.684"/><use xlink:href="#7" y="10.855"/><use xlink:href="#8" y="15.197"/><use xlink:href="#9" y="17.368"/><use xlink:href="#10" y="19.539"/><use xlink:href="#11" y="21.71"/><use xlink:href="#12" y="23.881"/><use xlink:href="#13" y="26.052"/><text x="2.004" y="29.893" class="c">size</text><text x="7.014" y="29.893" class="c">=</text><text x="9.018" y="29.893" class="k">6L</text></svg><svg x="6370"><use xlink:href="#a"/><use xlink:href="#b" x="1.996" y="30.369"/><use xlink:href="#2"/><use xlink:href="#4" y="2.171"/><use xlink:href="#5" y="4.342"/><use xlink:href="#6" y="8.684"/><use xlink:href="#7" y="10.855"/><use xlink:href="#8" y="15.197"/><use xlink:href="#9" y="17.368"/><use xlink:href="#10" y="19.539"/><use xlink:href="#11" y="21.71"/><use xlink:href="#12" y="23.881"/><use xlink:href="#13" y="26.052"/><use xlink:href="#14" y="28.223"/></svg><svg x="6440"><use xlink:href="#a"/><use xlink:href="#b" x="9.996" y="30.369"/><use xlink:href="#2"/><use xlink:href="#4" y="2.171"/><use xlink:href="#5" y="4.342"/><use xlink:href="#6" y="8.684"/><use xlink:href="#7" y="10.855"/><use xlink:href="#8" y="15.197"/><use xlink:href="#9" y="17.368"/><use xlink:href="#10" y="19.539"/><use xlink:href="#11" y="21.71"/><use xlink:href="#12" y="23.881"/><use xlink:href="#13" y="26.052"/><use xlink:href="#14" y="28.223"/><text x="2.004" y="32.064" class="c">mtime</text><text x="8.016" y="32.064" class="c">=</text></svg><svg x="6510"><use xlink:href="#a"/><use xlink:href="#b" x="-.004" y="32.54"/><use xlink:href="#2"/><use xlink:href="#4" y="2.171"/><use xlink:href="#5" y="4.342"/><use xlink:href="#6" y="8.684"/><use xlink:href="#7" y="10.855"/><use xlink:href="#8" y="15.197"/><use xlink:href="#9" y="17.368"/><use xlink:href="#10" y="19.539"/><use xlink:href="#11" y="21.71"/><use xlink:href="#12" y="23.881"/><use xlink:href="#13" y="26.052"/><use xlink:href="#14" y="28.223"/><use xlink:href="#15" y="30.394"/></svg><svg x="6580"><use xlink:href="#a"/><use xlink:href="#b" x="9.996" y="32.54"/><use xlink:href="#2"/><use xlink:href="#4" y="2.171"/><use xlink:href="#5" y="4.342"/><use xlink:href="#6" y="8.684"/><use xlink:href="#7" y="10.855"/><use xlink:href="#8" y="15.197"/><use xlink:href="#9" y="17.368"/><use xlink:href="#10" y="19.539"/><use xlink:href="#11" y="21.71"/><use xlink:href="#12" y="23.881"/><use xlink:href="#13" y="26.052"/><use xlink:href="#14" y="28.223"/><use xlink:href="#15" y="30.394"/><text x="2.004" y="34.235" class="c">ctime</text><text x="8.016" y="34.235" class="c">=</text></svg><svg x="6650"><use xlink:href="#a"/><use xlink:href="#b" x="35.996" y="32.54"/><use xlink:href="#2"/><use xlink:href="#4" y="2.171"/><use xlink:href="#5" y="4.342"/><use xlink:href="#6" y="8.684"/><use xlink:href="#7" y="10.855"/><use xlink:href="#8" y="15.197"/><use xlink:href="#9" y="17.368"/><use xlink:href="#10" y="19.539"/><use xlink:href="#11" y="21.71"/><use xlink:href="#12" y="23.881"/><use xlink:href="#13" y="26.052"/><use xlink:href="#14" y="28.223"/><use xlink:href="#15" y="30.394"/><text x="2.004" y="34.235" class="c">ctime</text><text x="8.016" y="34.235" class="c">=</text><text x="10.02" y="34.235" class="c">2021-10-20T14:39:13.81807Z</text></svg><svg x="6720"><use xlink:href="#a"/><use xlink:href="#b" x="-.004" y="34.711"/><use xlink:href="#2"/><use xlink:href="#4" y="2.171"/><use xlink:href="#5" y="4.342"/><use xlink:href="#6" y="8.684"/><use xlink:href="#7" y="10.855"/><use xlink:href="#8" y="15.197"/><use xlink:href="#9" y="17.368"/><use xlink:href="#10" y="19.539"/><use xlink:href="#11" y="21.71"/><use xlink:href="#12" y="23.881"/><use xlink:href="#13" y="26.052"/><use xlink:href="#14" y="28.223"/><use xlink:href="#15" y="30.394"/><use xlink:href="#16" y="32.565"/></svg><svg x="6790"><use xlink:href="#a"/><use xlink:href="#b" x="1.996" y="34.711"/><use xlink:href="#2"/><use xlink:href="#4" y="2.171"/><use xlink:href="#5" y="4.342"/><use xlink:href="#6" y="8.684"/><use xlink:href="#7" y="10.855"/><use xlink:href="#8" y="15.197"/><use xlink:href="#9" y="17.368"/><use xlink:href="#10" y="19.539"/><use xlink:href="#11" y="21.71"/><use xlink:href="#12" y="23.881"/><use xlink:href="#13" y="26.052"/><use xlink:href="#14" y="28.223"/><use xlink:href="#15" y="30.394"/><use xlink:href="#16" y="32.565"/></svg><svg x="6860"><use xlink:href="#a"/><use xlink:href="#b" x="9.996" y="34.711"/><use xlink:href="#2"/><use xlink:href="#4" y="2.171"/><use xlink:href="#5" y="4.342"/><use xlink:href="#6" y="8.684"/><use xlink:href="#7" y="10.855"/><use xlink:href="#8" y="15.197"/><use xlink:href="#9" y="17.368"/><use xlink:href="#10" y="19.539"/><use xlink:href="#11" y="21.71"/><use xlink:href="#12" y="23.881"/><use xlink:href="#13" y="26.052"/><use xlink:href="#14" y="28.223"/><use xlink:href="#15" y="30.394"/><use xlink:href="#16" y="32.565"/><text x="2.004" y="36.406" class="c">atime</text><text x="8.016" y="36.406" class="c">=</text></svg><svg x="6930"><use xlink:href="#a"/><use xlink:href="#b" x="35.996" y="34.711"/><use xlink:href="#2"/><use xlink:href="#4" y="2.171"/><use xlink:href="#5" y="4.342"/><use xlink:href="#6" y="8.684"/><use xlink:href="#7" y="10.855"/><use xlink:href="#8" y="15.197"/><use xlink:href="#9" y="17.368"/><use xlink:href="#10" y="19.539"/><use xlink:href="#11" y="21.71"/><use xlink:href="#12" y="23.881"/><use xlink:href="#13" y="26.052"/><use xlink:href="#14" y="28.223"/><use xlink:href="#15" y="30.394"/><use xlink:href="#16" y="32.565"/><text x="2.004" y="36.406" class="c">atime</text><text x="8.016" y="36.406" class="c">=</text><text x="10.02" y="36.406" class="c">2021-10-20T14:39:13.81807Z</text></svg><svg x="7000"><use xlink:href="#a"/><use xlink:href="#b" x="-.004" y="36.882"/><use xlink:href="#2"/><use xlink:href="#4" y="2.171"/><use xlink:href="#5" y="4.342"/><use xlink:href="#6" y="8.684"/><use xlink:href="#7" y="10.855"/><use xlink:href="#8" y="15.197"/><use xlink:href="#9" y="17.368"/><use xlink:href="#10" y="19.539"/><use xlink:href="#11" y="21.71"/><use xlink:href="#12" y="23.881"/><use xlink:href="#13" y="26.052"/><use xlink:href="#14" y="28.223"/><use xlink:href="#15" y="30.394"/><use xlink:href="#16" y="32.565"/><use xlink:href="#17" y="34.736"/></svg><svg x="7070"><use xlink:href="#a"/><use xlink:href="#b" x="1.996" y="36.882"/><use xlink:href="#2"/><use xlink:href="#4" y="2.171"/><use xlink:href="#5" y="4.342"/><use xlink:href="#6" y="8.684"/><use xlink:href="#7" y="10.855"/><use xlink:href="#8" y="15.197"/><use xlink:href="#9" y="17.368"/><use xlink:href="#10" y="19.539"/><use xlink:href="#11" y="21.71"/><use xlink:href="#12" y="23.881"/><use xlink:href="#13" y="26.052"/><use xlink:href="#14" y="28.223"/><use xlink:href="#15" y="30.394"/><use xlink:href="#16" y="32.565"/><use xlink:href="#17" y="34.736"/></svg><svg x="7140"><use xlink:href="#a"/><use xlink:href="#b" x="12.996" y="36.882"/><use xlink:href="#2"/><use xlink:href="#4" y="2.171"/><use xlink:href="#5" y="4.342"/><use xlink:href="#6" y="8.684"/><use xlink:href="#7" y="10.855"/><use xlink:href="#8" y="15.197"/><use xlink:href="#9" y="17.368"/><use xlink:href="#10" y="19.539"/><use xlink:href="#11" y="21.71"/><use xlink:href="#12" y="23.881"/><use xlink:href="#13" y="26.052"/><use xlink:href="#14" y="28.223"/><use xlink:href="#15" y="30.394"/><use xlink:href="#16" y="32.565"/><use xlink:href="#17" y="34.736"/><text x="2.004" y="38.577" class="c">fileType</text><text x="11.022" y="38.577" class="c">=</text></svg><svg x="7210"><use xlink:href="#a"/><use xlink:href="#b" x="-.004" y="41.224"/><use xlink:href="#2"/><use xlink:href="#4" y="2.171"/><use xlink:href="#5" y="4.342"/><use xlink:href="#6" y="8.684"/><use xlink:href="#7" y="10.855"/><use xlink:href="#8" y="15.197"/><use xlink:href="#9" y="17.368"/><use xlink:href="#10" y="19.539"/><use xlink:href="#11" y="21.71"/><use xlink:href="#12" y="23.881"/><use xlink:href="#13" y="26.052"/><use xlink:href="#14" y="28.223"/><use xlink:href="#15" y="30.394"/><use xlink:href="#16" y="32.565"/><use xlink:href="#17" y="34.736"/><use xlink:href="#18" y="36.907"/><use xlink:href="#19" y="39.078"/></svg><svg x="7280"><use xlink:href="#a"/><use xlink:href="#b" x="-.004" y="43.395"/><use xlink:href="#2"/><use xlink:href="#4" y="2.171"/><use xlink:href="#5" y="4.342"/><use xlink:href="#6" y="8.684"/><use xlink:href="#7" y="10.855"/><use xlink:href="#8" y="15.197"/><use xlink:href="#9" y="17.368"/><use xlink:href="#10" y="19.539"/><use xlink:href="#11" y="21.71"/><use xlink:href="#12" y="23.881"/><use xlink:href="#13" y="26.052"/><use xlink:href="#14" y="28.223"/><use xlink:href="#15" y="30.394"/><use xlink:href="#16" y="32.565"/><use xlink:href="#17" y="34.736"/><use xlink:href="#18" y="36.907"/><use xlink:href="#19" y="39.078"/></svg></svg></g></g></svg></svg>