<svg xmlns="http://www.w3.org/2000/svg" xmlns:xlink="http://www.w3.org/1999/xlink" width="740" height="474.2"><rect width="740" height="474.2" rx="0" ry="0" class="a"/><svg height="434.2" viewBox="0 0 70 43.42" width="700" x="20" xmlns="http://www.w3.org/2000/svg" xmlns:xlink="http://www.w3.org/1999/xlink" y="20"><style>@keyframes o{0%{transform:translateX(0)}.06%{transform:translateX(-70px)}.12%{transform:translateX(-140px)}.13%{transform:translateX(-210px)}1.2%{transform:translateX(-280px)}1.74%{transform:translateX(-350px)}2.26%{transform:translateX(-420px)}2.8%{transform:translateX(-490px)}3.36%{transform:translateX(-560px)}3.9%{transform:translateX(-630px)}4.45%{transform:translateX(-700px)}4.98%{transform:translateX(-770px)}5.52%{transform:translateX(-840px)}6.04%{transform:translateX(-910px)}6.58%{transform:translateX(-980px)}7.12%{transform:translateX(-1050px)}7.13%{transform:translateX(-1120px)}9.06%{transform:translateX(-1190px)}9.08%{transform:translateX(-1470px)}9.09%{transform:translateX(-1820px)}9.1%{transform:translateX(-2170px)}9.11%{transform:translateX(-2660px)}9.12%{transform:translateX(-2730px)}9.13%{transform:translateX(-2800px)}9.14%{transform:translateX(-3150px)}9.15%{transform:translateX(-3500px)}9.16%{transform:translateX(-4060px)}9.17%{transform:translateX(-4200px)}15.08%{transform:translateX(-4270px)}15.09%{transform:translateX(-4340px)}16.14%{transform:translateX(-4410px)}16.68%{transform:translateX(-4480px)}17.21%{transform:translateX(-4550px)}17.75%{transform:translateX(-4620px)}18.27%{transform:translateX(-4690px)}18.82%{transform:translateX(-4760px)}19.35%{transform:translateX(-4830px)}19.89%{transform:translateX(-4900px)}20.43%{transform:translateX(-4970px)}20.95%{transform:translateX(-5040px)}21.48%{transform:translateX(-5110px)}22.55%{transform:translateX(-5180px)}23.09%{transform:translateX(-5250px)}23.62%{transform:translateX(-5320px)}24.15%{transform:translateX(-5390px)}24.68%{transform:translateX(-5460px)}25.21%{transform:translateX(-5530px)}25.74%{transform:translateX(-5600px)}26.26%{transform:translateX(-5670px)}26.79%{transform:translateX(-5740px)}27.31%{transform:translateX(-5810px)}27.86%{transform:translateX(-5950px)}30.62%{transform:translateX(-6020px)}39.8%{transform:translateX(-6090px)}43.41%{transform:translateX(-6160px)}55.33%{transform:translateX(-6230px)}55.34%{transform:translateX(-6300px)}56.4%{transform:translateX(-6370px)}56.93%{transform:translateX(-6440px)}57.46%{transform:translateX(-6510px)}58.01%{transform:translateX(-6580px)}58.55%{transform:translateX(-6650px)}59.08%{transform:translateX(-6720px)}59.61%{transform:translateX(-6790px)}60.13%{transform:translateX(-6860px)}60.69%{transform:translateX(-6930px)}61.22%{transform:translateX(-7000px)}61.76%{transform:translateX(-7070px)}62.29%{transform:translateX(-7140px)}63.35%{transform:translateX(-7210px)}63.9%{transform:translateX(-7280px)}64.44%{transform:translateX(-7350px)}64.97%{transform:translateX(-7420px)}65.51%{transform:translateX(-7490px)}66.05%{transform:translateX(-7560px)}66.58%{transform:translateX(-7630px)}67.12%{transform:translateX(-7700px)}67.64%{transform:translateX(-7770px)}68.19%{transform:translateX(-7840px)}69.57%{transform:translateX(-7910px)}70.75%{transform:translateX(-7980px)}70.87%{transform:translateX(-8050px)}71.02%{transform:translateX(-8120px)}to{transform:translateX(-8190px)}}.a{fill:#2c1d16}.c{fill:#ffcc2f;white-space:pre}.d,.e{font-weight:700}.d{fill:#bfbfbf;white-space:pre}.e{fill:#fff02a}.e,.f,.g{white-space:pre}.f{fill:#faaf4c;font-weight:700}.g{fill:#41ff5b}.h{fill:#fff}.h,.i,.k,.l{white-space:pre}.i{fill:#41ff5b;font-weight:700}.k,.l{fill:#666}.l{fill:#ef5734}</style><g font-family="Monaco,Consolas,Menlo,'Bitstream Vera Sans Mono','Powerline Symbols',monospace" font-size="1.67"><defs><symbol id="1"><text y="1.67" class="c">$</text></symbol><symbol id="2"><text y="1.67" class="c">$</text><text x="2.004" y="1.67" class="d">cat</text><text x="6.012" y="1.67" class="d">Enum.scala</text></symbol><symbol id="3"><text y="1.67" class="e">object</text></symbol><symbol id="4"><text y="1.67" class="e">object</text><text x="7.014" y="1.67" class="f">Enum</text></symbol><symbol id="5"><text y="1.67" class="e">object</text><text x="7.014" y="1.67" class="f">Enum</text><text x="12.024" y="1.67" class="e">extends</text><text x="20.04" y="1.67" class="f">App</text><text x="24.048" y="1.67" class="g">{</text></symbol><symbol id="6"><text x="2.004" y="1.67" class="h">enum</text></symbol><symbol id="7"><text x="2.004" y="1.67" class="h">enum</text><text x="7.014" y="1.67" class="f">Color</text></symbol><symbol id="8"><text x="2.004" y="1.67" class="h">enum</text><text x="7.014" y="1.67" class="f">Color</text><text x="12.024" y="1.67" class="e">:</text></symbol><symbol id="9"><text x="4.008" y="1.67" class="f">case</text><text x="9.018" y="1.67" class="f">Red</text><text x="12.024" y="1.67" class="g">,</text><text x="14.028" y="1.67" class="f">Green</text><text x="19.038" y="1.67" class="g">,</text></symbol><symbol id="10"><text x="4.008" y="1.67" class="f">case</text><text x="9.018" y="1.67" class="f">Red</text><text x="12.024" y="1.67" class="g">,</text><text x="14.028" y="1.67" class="f">Green</text><text x="19.038" y="1.67" class="g">,</text><text x="21.042" y="1.67" class="f">Blue</text></symbol><symbol id="11"><text x="2.004" y="1.67" class="e">val</text><text x="6.012" y="1.67" class="i">values</text><text x="13.026" y="1.67" class="e">=</text><text x="15.03" y="1.67" class="i">Color</text><text x="20.04" y="1.67" class="g">.</text></symbol><symbol id="12"><text x="2.004" y="1.67" class="e">val</text><text x="6.012" y="1.67" class="i">values</text><text x="13.026" y="1.67" class="e">=</text><text x="15.03" y="1.67" class="i">Color</text><text x="20.04" y="1.67" class="g">.values</text></symbol><symbol id="13"><text x="2.004" y="1.67" class="e">val</text><text x="6.012" y="1.67" class="i">values</text><text x="13.026" y="1.67" class="e">=</text><text x="15.03" y="1.67" class="i">Color</text><text x="20.04" y="1.67" class="g">.values.mkString(</text><text x="37.074" y="1.67" style="white-space:pre" fill="#fff0a6" font-weight="700">&quot;,&quot;</text><text x="40.08" y="1.67" class="g">)</text></symbol><symbol id="14"><text x="2.004" y="1.67" class="g">println(</text><text x="10.02" y="1.67" class="h">values</text><text x="16.032" y="1.67" class="g">)</text></symbol><symbol id="15"><text y="1.67" class="g">}</text></symbol><symbol id="16"><text y="1.67" class="c">$</text><text x="2.004" y="1.67" class="d">s</text></symbol><symbol id="17"><text y="1.67" class="c">$</text><text x="2.004" y="1.67" class="d">sca</text></symbol><symbol id="18"><text y="1.67" class="c">$</text><text x="2.004" y="1.67" class="d">scala</text></symbol><symbol id="19"><text y="1.67" class="c">$</text><text x="2.004" y="1.67" class="d">scala-c</text></symbol><symbol id="20"><text y="1.67" class="c">$</text><text x="2.004" y="1.67" class="d">scala-cli</text></symbol><symbol id="21"><text y="1.67" class="c">$</text><text x="2.004" y="1.67" class="d">scala-cli</text><text x="12.024" y="1.67" class="d">En</text></symbol><symbol id="22"><text y="1.67" class="c">$</text><text x="2.004" y="1.67" class="d">scala-cli</text><text x="12.024" y="1.67" class="d">Enum</text></symbol><symbol id="23"><text y="1.67" class="c">$</text><text x="2.004" y="1.67" class="d">scala-cli</text><text x="12.024" y="1.67" class="d">Enum.s</text></symbol><symbol id="24"><text y="1.67" class="c">$</text><text x="2.004" y="1.67" class="d">scala-cli</text><text x="12.024" y="1.67" class="d">Enum.sca</text></symbol><symbol id="25"><text y="1.67" class="c">$</text><text x="2.004" y="1.67" class="d">scala-cli</text><text x="12.024" y="1.67" class="d">Enum.scal</text></symbol><symbol id="26"><text y="1.67" class="c">$</text><text x="2.004" y="1.67" class="d">scala-cli</text><text x="12.024" y="1.67" class="d">Enum.scala</text></symbol><symbol id="27"><text y="1.67" class="c">$</text><text x="2.004" y="1.67" class="d">scala-cli</text><text x="12.024" y="1.67" class="d">Enum.scala</text><text x="23.046" y="1.67" class="d">-S</text></symbol><symbol id="28"><text y="1.67" class="c">$</text><text x="2.004" y="1.67" class="d">scala-cli</text><text x="12.024" y="1.67" class="d">Enum.scala</text><text x="23.046" y="1.67" class="d">-S</text><text x="26.052" y="1.67" class="d">3.0.2</text></symbol><symbol id="29"><text y="1.67" class="k">Compiling</text><text x="10.02" y="1.67" class="k">project</text><text x="18.036" y="1.67" class="k">(Scala</text><text x="25.05" y="1.67" class="k">3.0.2,</text><text x="32.064" y="1.67" class="k">JVM)</text></symbol><symbol id="30"><text y="1.67" class="k">Compiled</text><text x="9.018" y="1.67" class="k">project</text><text x="17.034" y="1.67" class="k">(Scala</text><text x="24.048" y="1.67" class="k">3.0.2,</text><text x="31.062" y="1.67" class="k">JVM)</text></symbol><symbol id="31"><text y="1.67" class="c">Red,Green,Blue</text></symbol><symbol id="32"><text y="1.67" class="c">$</text><text x="2.004" y="1.67" class="d">scala-cli</text><text x="12.024" y="1.67" class="d">Enum.scala</text><text x="23.046" y="1.67" class="d">-S</text><text x="26.052" y="1.67" class="d">2.13.6</text></symbol><symbol id="33"><text y="1.67" class="k">Compiling</text><text x="10.02" y="1.67" class="k">project</text><text x="18.036" y="1.67" class="k">(Scala</text><text x="25.05" y="1.67" class="k">2.13.6,</text><text x="33.066" y="1.67" class="k">JVM)</text></symbol><symbol id="34"><text y="1.67" class="c">[</text><text x="1.002" y="1.67" class="l">error</text><text x="6.012" y="1.67" class="c">]</text><text x="8.016" y="1.67" class="c">./Enum.scala:3:5:</text><text x="26.052" y="1.67" class="c">identifier</text><text x="37.074" y="1.67" class="c">expected</text><text x="46.092" y="1.67" class="c">but</text><text x="50.1" y="1.67" class="c">&apos;case&apos;</text><text x="57.114" y="1.67" class="c">found.</text></symbol><symbol id="35"><text y="1.67" class="c">[</text><text x="1.002" y="1.67" class="l">error</text><text x="6.012" y="1.67" class="c">]</text><text x="12.024" y="1.67" class="c">^</text></symbol><symbol id="36"><text y="1.67" class="k">Error</text><text x="6.012" y="1.67" class="k">compiling</text><text x="16.032" y="1.67" class="k">project</text><text x="24.048" y="1.67" class="k">(Scala</text><text x="31.062" y="1.67" class="k">2.13.6,</text><text x="39.078" y="1.67" class="k">JVM)</text></symbol><symbol id="37"><text y="1.67" class="c">Compilation</text><text x="12.024" y="1.67" class="c">failed</text></symbol><symbol id="a"><path fill="transparent" d="M0 0h70v21H0z"/></symbol><symbol id="b"><path fill="#23ff18" d="M0 0h1.102v2.171H0z"/></symbol></defs><path class="a" d="M0 0h70v43.42H0z"/><g style="animation-duration:17.336132s;animation-iteration-count:infinite;animation-name:o;animation-timing-function:steps(1,end)"><svg width="8260"><svg><use xlink:href="#a"/><use xlink:href="#b" x="-.004"/></svg><svg x="70"><use xlink:href="#a"/><use xlink:href="#b" x="-.004"/></svg><svg x="140"><use xlink:href="#a"/><use xlink:href="#b" x="1.996"/><use xlink:href="#1"/></svg><svg x="210"><use xlink:href="#a"/><use xlink:href="#b" x="1.996"/><use xlink:href="#1"/></svg><svg x="280"><use xlink:href="#a"/><use xlink:href="#b" x="1.996"/><use xlink:href="#1"/></svg><svg x="350"><use xlink:href="#a"/><use xlink:href="#b" x="1.996"/><use xlink:href="#1"/></svg><svg x="420"><use xlink:href="#a"/><use xlink:href="#b" x="2.996"/><text y="1.67" class="c">$</text><text x="2.004" y="1.67" class="d">c</text></svg><svg x="490"><use xlink:href="#a"/><use xlink:href="#b" x="4.996"/><text y="1.67" class="c">$</text><text x="2.004" y="1.67" class="d">cat</text></svg><svg x="560"><use xlink:href="#a"/><use xlink:href="#b" x="6.996"/><text y="1.67" class="c">$</text><text x="2.004" y="1.67" class="d">cat</text><text x="6.012" y="1.67" class="d">E</text></svg><svg x="630"><use xlink:href="#a"/><use xlink:href="#b" x="8.996"/><text y="1.67" class="c">$</text><text x="2.004" y="1.67" class="d">cat</text><text x="6.012" y="1.67" class="d">Enu</text></svg><svg x="700"><use xlink:href="#a"/><use xlink:href="#b" x="10.996"/><text y="1.67" class="c">$</text><text x="2.004" y="1.67" class="d">cat</text><text x="6.012" y="1.67" class="d">Enum.</text></svg><svg x="770"><use xlink:href="#a"/><use xlink:href="#b" x="12.996"/><text y="1.67" class="c">$</text><text x="2.004" y="1.67" class="d">cat</text><text x="6.012" y="1.67" class="d">Enum.sc</text></svg><svg x="840"><use xlink:href="#a"/><use xlink:href="#b" x="14.996"/><text y="1.67" class="c">$</text><text x="2.004" y="1.67" class="d">cat</text><text x="6.012" y="1.67" class="d">Enum.scal</text></svg><svg x="910"><use xlink:href="#a"/><use xlink:href="#b" x="15.996"/><use xlink:href="#2"/></svg><svg x="980"><use xlink:href="#a"/><use xlink:href="#b" x="15.996"/><use xlink:href="#2"/></svg><svg x="1050"><use xlink:href="#a"/><use xlink:href="#b" x="15.996"/><use xlink:href="#2"/></svg><svg x="1120"><use xlink:href="#a"/><use xlink:href="#b" x="-.004" y="2.146"/><use xlink:href="#2"/></svg><svg x="1190"><use xlink:href="#a"/><use xlink:href="#b" x="-.004" y="2.146"/><use xlink:href="#2"/></svg><svg x="1260"><use xlink:href="#a"/><use xlink:href="#b" x="5.996" y="2.146"/><use xlink:href="#2"/><use xlink:href="#3" y="2.171"/></svg><svg x="1330"><use xlink:href="#a"/><use xlink:href="#b" x="5.996" y="2.146"/><use xlink:href="#2"/><use xlink:href="#3" y="2.171"/></svg><svg x="1400"><use xlink:href="#a"/><use xlink:href="#b" x="5.996" y="2.146"/><use xlink:href="#2"/><use xlink:href="#3" y="2.171"/></svg><svg x="1470"><use xlink:href="#a"/><use xlink:href="#b" x="6.996" y="2.146"/><use xlink:href="#2"/><use xlink:href="#3" y="2.171"/></svg><svg x="1540"><use xlink:href="#a"/><use xlink:href="#b" x="6.996" y="2.146"/><use xlink:href="#2"/><use xlink:href="#3" y="2.171"/></svg><svg x="1610"><use xlink:href="#a"/><use xlink:href="#b" x="6.996" y="2.146"/><use xlink:href="#2"/><use xlink:href="#3" y="2.171"/></svg><svg x="1680"><use xlink:href="#a"/><use xlink:href="#b" x="10.996" y="2.146"/><use xlink:href="#2"/><use xlink:href="#4" y="2.171"/></svg><svg x="1750"><use xlink:href="#a"/><use xlink:href="#b" x="10.996" y="2.146"/><use xlink:href="#2"/><use xlink:href="#4" y="2.171"/></svg><svg x="1820"><use xlink:href="#a"/><use xlink:href="#b" x="23.996" y="2.146"/><use xlink:href="#2"/><text y="3.841" class="e">object</text><text x="7.014" y="3.841" class="f">Enum</text><text x="12.024" y="3.841" class="e">extends</text><text x="20.04" y="3.841" class="f">App</text></svg><svg x="1890"><use xlink:href="#a"/><use xlink:href="#b" x="24.996" y="2.146"/><use xlink:href="#2"/><use xlink:href="#5" y="2.171"/></svg><svg x="1960"><use xlink:href="#a"/><use xlink:href="#b" x="24.996" y="2.146"/><use xlink:href="#2"/><use xlink:href="#5" y="2.171"/></svg><svg x="2030"><use xlink:href="#a"/><use xlink:href="#b" x="24.996" y="2.146"/><use xlink:href="#2"/><use xlink:href="#5" y="2.171"/></svg><svg x="2100"><use xlink:href="#a"/><use xlink:href="#b" x="1.996" y="4.317"/><use xlink:href="#2"/><use xlink:href="#5" y="2.171"/></svg><svg x="2170"><use xlink:href="#a"/><use xlink:href="#b" x="1.996" y="4.317"/><use xlink:href="#2"/><use xlink:href="#5" y="2.171"/></svg><svg x="2240"><use xlink:href="#a"/><use xlink:href="#b" x="1.996" y="4.317"/><use xlink:href="#2"/><use xlink:href="#5" y="2.171"/></svg><svg x="2310"><use xlink:href="#a"/><use xlink:href="#b" x="5.996" y="4.317"/><use xlink:href="#2"/><use xlink:href="#5" y="2.171"/><use xlink:href="#6" y="4.342"/></svg><svg x="2380"><use xlink:href="#a"/><use xlink:href="#b" x="5.996" y="4.317"/><use xlink:href="#2"/><use xlink:href="#5" y="2.171"/><use xlink:href="#6" y="4.342"/></svg><svg x="2450"><use xlink:href="#a"/><use xlink:href="#b" x="6.996" y="4.317"/><use xlink:href="#2"/><use xlink:href="#5" y="2.171"/><use xlink:href="#6" y="4.342"/></svg><svg x="2520"><use xlink:href="#a"/><use xlink:href="#b" x="6.996" y="4.317"/><use xlink:href="#2"/><use xlink:href="#5" y="2.171"/><use xlink:href="#6" y="4.342"/></svg><svg x="2590"><use xlink:href="#a"/><use xlink:href="#b" x="6.996" y="4.317"/><use xlink:href="#2"/><use xlink:href="#5" y="2.171"/><use xlink:href="#6" y="4.342"/></svg><svg x="2660"><use xlink:href="#a"/><use xlink:href="#b" x="11.996" y="4.317"/><use xlink:href="#2"/><use xlink:href="#5" y="2.171"/><use xlink:href="#7" y="4.342"/></svg><svg x="2730"><use xlink:href="#a"/><use xlink:href="#b" x="11.996" y="4.317"/><use xlink:href="#2"/><use xlink:href="#5" y="2.171"/><use xlink:href="#7" y="4.342"/></svg><svg x="2800"><use xlink:href="#a"/><use xlink:href="#b" x="11.996" y="4.317"/><use xlink:href="#2"/><use xlink:href="#5" y="2.171"/><use xlink:href="#7" y="4.342"/></svg><svg x="2870"><use xlink:href="#a"/><use xlink:href="#b" x="19.996" y="6.488"/><use xlink:href="#2"/><use xlink:href="#5" y="2.171"/><use xlink:href="#8" y="4.342"/><use xlink:href="#9" y="6.513"/></svg><svg x="2940"><use xlink:href="#a"/><use xlink:href="#b" x="19.996" y="6.488"/><use xlink:href="#2"/><use xlink:href="#5" y="2.171"/><use xlink:href="#8" y="4.342"/><use xlink:href="#9" y="6.513"/></svg><svg x="3010"><use xlink:href="#a"/><use xlink:href="#b" x="20.996" y="6.488"/><use xlink:href="#2"/><use xlink:href="#5" y="2.171"/><use xlink:href="#8" y="4.342"/><use xlink:href="#9" y="6.513"/></svg><svg x="3080"><use xlink:href="#a"/><use xlink:href="#b" x="20.996" y="6.488"/><use xlink:href="#2"/><use xlink:href="#5" y="2.171"/><use xlink:href="#8" y="4.342"/><use xlink:href="#9" y="6.513"/></svg><svg x="3150"><use xlink:href="#a"/><use xlink:href="#b" x="20.996" y="6.488"/><use xlink:href="#2"/><use xlink:href="#5" y="2.171"/><use xlink:href="#8" y="4.342"/><use xlink:href="#9" y="6.513"/></svg><svg x="3220"><use xlink:href="#a"/><use xlink:href="#b" x="24.996" y="6.488"/><use xlink:href="#2"/><use xlink:href="#5" y="2.171"/><use xlink:href="#8" y="4.342"/><use xlink:href="#10" y="6.513"/></svg><svg x="3290"><use xlink:href="#a"/><use xlink:href="#b" x="20.996" y="10.83"/><use xlink:href="#2"/><use xlink:href="#5" y="2.171"/><use xlink:href="#8" y="4.342"/><use xlink:href="#10" y="6.513"/><use xlink:href="#11" y="10.855"/></svg><svg x="3360"><use xlink:href="#a"/><use xlink:href="#b" x="20.996" y="10.83"/><use xlink:href="#2"/><use xlink:href="#5" y="2.171"/><use xlink:href="#8" y="4.342"/><use xlink:href="#10" y="6.513"/><use xlink:href="#11" y="10.855"/></svg><svg x="3430"><use xlink:href="#a"/><use xlink:href="#b" x="26.996" y="10.83"/><use xlink:href="#2"/><use xlink:href="#5" y="2.171"/><use xlink:href="#8" y="4.342"/><use xlink:href="#10" y="6.513"/><use xlink:href="#12" y="10.855"/></svg><svg x="3500"><use xlink:href="#a"/><use xlink:href="#b" x="26.996" y="10.83"/><use xlink:href="#2"/><use xlink:href="#5" y="2.171"/><use xlink:href="#8" y="4.342"/><use xlink:href="#10" y="6.513"/><use xlink:href="#12" y="10.855"/></svg><svg x="3570"><use xlink:href="#a"/><use xlink:href="#b" x="1.996" y="13.001"/><use xlink:href="#2"/><use xlink:href="#5" y="2.171"/><use xlink:href="#8" y="4.342"/><use xlink:href="#10" y="6.513"/><use xlink:href="#13" y="10.855"/></svg><svg x="3640"><use xlink:href="#a"/><use xlink:href="#b" x="8.996" y="13.001"/><use xlink:href="#2"/><use xlink:href="#5" y="2.171"/><use xlink:href="#8" y="4.342"/><use xlink:href="#10" y="6.513"/><use xlink:href="#13" y="10.855"/><text x="2.004" y="14.696" class="g">println</text></svg><svg x="3710"><use xlink:href="#a"/><use xlink:href="#b" x="15.996" y="13.001"/><use xlink:href="#2"/><use xlink:href="#5" y="2.171"/><use xlink:href="#8" y="4.342"/><use xlink:href="#10" y="6.513"/><use xlink:href="#13" y="10.855"/><text x="2.004" y="14.696" class="g">println(</text><text x="10.02" y="14.696" class="h">values</text></svg><svg x="3780"><use xlink:href="#a"/><use xlink:href="#b" x="16.996" y="13.001"/><use xlink:href="#2"/><use xlink:href="#5" y="2.171"/><use xlink:href="#8" y="4.342"/><use xlink:href="#10" y="6.513"/><use xlink:href="#13" y="10.855"/><use xlink:href="#14" y="13.026"/></svg><svg x="3850"><use xlink:href="#a"/><use xlink:href="#b" x="16.996" y="13.001"/><use xlink:href="#2"/><use xlink:href="#5" y="2.171"/><use xlink:href="#8" y="4.342"/><use xlink:href="#10" y="6.513"/><use xlink:href="#13" y="10.855"/><use xlink:href="#14" y="13.026"/></svg><svg x="3920"><use xlink:href="#a"/><use xlink:href="#b" x="16.996" y="13.001"/><use xlink:href="#2"/><use xlink:href="#5" y="2.171"/><use xlink:href="#8" y="4.342"/><use xlink:href="#10" y="6.513"/><use xlink:href="#13" y="10.855"/><use xlink:href="#14" y="13.026"/></svg><svg x="3990"><use xlink:href="#a"/><use xlink:href="#b" x="-.004" y="15.172"/><use xlink:href="#2"/><use xlink:href="#5" y="2.171"/><use xlink:href="#8" y="4.342"/><use xlink:href="#10" y="6.513"/><use xlink:href="#13" y="10.855"/><use xlink:href="#14" y="13.026"/></svg><svg x="4060"><use xlink:href="#a"/><use xlink:href="#b" x="-.004" y="15.172"/><use xlink:href="#2"/><use xlink:href="#5" y="2.171"/><use xlink:href="#8" y="4.342"/><use xlink:href="#10" y="6.513"/><use xlink:href="#13" y="10.855"/><use xlink:href="#14" y="13.026"/></svg><svg x="4130"><use xlink:href="#a"/><use xlink:href="#b" x="-.004" y="15.172"/><use xlink:href="#2"/><use xlink:href="#5" y="2.171"/><use xlink:href="#8" y="4.342"/><use xlink:href="#10" y="6.513"/><use xlink:href="#13" y="10.855"/><use xlink:href="#14" y="13.026"/></svg><svg x="4200"><use xlink:href="#a"/><use xlink:href="#b" x="-.004" y="17.343"/><use xlink:href="#2"/><use xlink:href="#5" y="2.171"/><use xlink:href="#8" y="4.342"/><use xlink:href="#10" y="6.513"/><use xlink:href="#13" y="10.855"/><use xlink:href="#14" y="13.026"/><use xlink:href="#15" y="15.197"/></svg><svg x="4270"><use xlink:href="#a"/><use xlink:href="#b" x="1.996" y="17.343"/><use xlink:href="#2"/><use xlink:href="#5" y="2.171"/><use xlink:href="#8" y="4.342"/><use xlink:href="#10" y="6.513"/><use xlink:href="#13" y="10.855"/><use xlink:href="#14" y="13.026"/><use xlink:href="#15" y="15.197"/><use xlink:href="#1" y="17.368"/></svg><svg x="4340"><use xlink:href="#a"/><use xlink:href="#b" x="1.996" y="17.343"/><use xlink:href="#2"/><use xlink:href="#5" y="2.171"/><use xlink:href="#8" y="4.342"/><use xlink:href="#10" y="6.513"/><use xlink:href="#13" y="10.855"/><use xlink:href="#14" y="13.026"/><use xlink:href="#15" y="15.197"/><use xlink:href="#1" y="17.368"/></svg><svg x="4410"><use xlink:href="#a"/><use xlink:href="#b" x="1.996" y="17.343"/><use xlink:href="#2"/><use xlink:href="#5" y="2.171"/><use xlink:href="#8" y="4.342"/><use xlink:href="#10" y="6.513"/><use xlink:href="#13" y="10.855"/><use xlink:href="#14" y="13.026"/><use xlink:href="#15" y="15.197"/><use xlink:href="#1" y="17.368"/></svg><svg x="4480"><use xlink:href="#a"/><use xlink:href="#b" x="1.996" y="17.343"/><use xlink:href="#2"/><use xlink:href="#5" y="2.171"/><use xlink:href="#8" y="4.342"/><use xlink:href="#10" y="6.513"/><use xlink:href="#13" y="10.855"/><use xlink:href="#14" y="13.026"/><use xlink:href="#15" y="15.197"/><use xlink:href="#1" y="17.368"/></svg><svg x="4550"><use xlink:href="#a"/><use xlink:href="#b" x="1.996" y="17.343"/><use xlink:href="#2"/><use xlink:href="#5" y="2.171"/><use xlink:href="#8" y="4.342"/><use xlink:href="#10" y="6.513"/><use xlink:href="#13" y="10.855"/><use xlink:href="#14" y="13.026"/><use xlink:href="#15" y="15.197"/><use xlink:href="#1" y="17.368"/></svg><svg x="4620"><use xlink:href="#a"/><use xlink:href="#b" x="2.996" y="17.343"/><use xlink:href="#2"/><use xlink:href="#5" y="2.171"/><use xlink:href="#8" y="4.342"/><use xlink:href="#10" y="6.513"/><use xlink:href="#13" y="10.855"/><use xlink:href="#14" y="13.026"/><use xlink:href="#15" y="15.197"/><use xlink:href="#16" y="17.368"/></svg><svg x="4690"><use xlink:href="#a"/><use xlink:href="#b" x="4.996" y="17.343"/><use xlink:href="#2"/><use xlink:href="#5" y="2.171"/><use xlink:href="#8" y="4.342"/><use xlink:href="#10" y="6.513"/><use xlink:href="#13" y="10.855"/><use xlink:href="#14" y="13.026"/><use xlink:href="#15" y="15.197"/><use xlink:href="#17" y="17.368"/></svg><svg x="4760"><use xlink:href="#a"/><use xlink:href="#b" x="6.996" y="17.343"/><use xlink:href="#2"/><use xlink:href="#5" y="2.171"/><use xlink:href="#8" y="4.342"/><use xlink:href="#10" y="6.513"/><use xlink:href="#13" y="10.855"/><use xlink:href="#14" y="13.026"/><use xlink:href="#15" y="15.197"/><use xlink:href="#18" y="17.368"/></svg><svg x="4830"><use xlink:href="#a"/><use xlink:href="#b" x="8.996" y="17.343"/><use xlink:href="#2"/><use xlink:href="#5" y="2.171"/><use xlink:href="#8" y="4.342"/><use xlink:href="#10" y="6.513"/><use xlink:href="#13" y="10.855"/><use xlink:href="#14" y="13.026"/><use xlink:href="#15" y="15.197"/><use xlink:href="#19" y="17.368"/></svg><svg x="4900"><use xlink:href="#a"/><use xlink:href="#b" x="10.996" y="17.343"/><use xlink:href="#2"/><use xlink:href="#5" y="2.171"/><use xlink:href="#8" y="4.342"/><use xlink:href="#10" y="6.513"/><use xlink:href="#13" y="10.855"/><use xlink:href="#14" y="13.026"/><use xlink:href="#15" y="15.197"/><use xlink:href="#20" y="17.368"/></svg><svg x="4970"><use xlink:href="#a"/><use xlink:href="#b" x="11.996" y="17.343"/><use xlink:href="#2"/><use xlink:href="#5" y="2.171"/><use xlink:href="#8" y="4.342"/><use xlink:href="#10" y="6.513"/><use xlink:href="#13" y="10.855"/><use xlink:href="#14" y="13.026"/><use xlink:href="#15" y="15.197"/><use xlink:href="#20" y="17.368"/></svg><svg x="5040"><use xlink:href="#a"/><use xlink:href="#b" x="13.996" y="17.343"/><use xlink:href="#2"/><use xlink:href="#5" y="2.171"/><use xlink:href="#8" y="4.342"/><use xlink:href="#10" y="6.513"/><use xlink:href="#13" y="10.855"/><use xlink:href="#14" y="13.026"/><use xlink:href="#15" y="15.197"/><use xlink:href="#21" y="17.368"/></svg><svg x="5110"><use xlink:href="#a"/><use xlink:href="#b" x="15.996" y="17.343"/><use xlink:href="#2"/><use xlink:href="#5" y="2.171"/><use xlink:href="#8" y="4.342"/><use xlink:href="#10" y="6.513"/><use xlink:href="#13" y="10.855"/><use xlink:href="#14" y="13.026"/><use xlink:href="#15" y="15.197"/><use xlink:href="#22" y="17.368"/></svg><svg x="5180"><use xlink:href="#a"/><use xlink:href="#b" x="17.996" y="17.343"/><use xlink:href="#2"/><use xlink:href="#5" y="2.171"/><use xlink:href="#8" y="4.342"/><use xlink:href="#10" y="6.513"/><use xlink:href="#13" y="10.855"/><use xlink:href="#14" y="13.026"/><use xlink:href="#15" y="15.197"/><use xlink:href="#23" y="17.368"/></svg><svg x="5250"><use xlink:href="#a"/><use xlink:href="#b" x="19.996" y="17.343"/><use xlink:href="#2"/><use xlink:href="#5" y="2.171"/><use xlink:href="#8" y="4.342"/><use xlink:href="#10" y="6.513"/><use xlink:href="#13" y="10.855"/><use xlink:href="#14" y="13.026"/><use xlink:href="#15" y="15.197"/><use xlink:href="#24" y="17.368"/></svg><svg x="5320"><use xlink:href="#a"/><use xlink:href="#b" x="20.996" y="17.343"/><use xlink:href="#2"/><use xlink:href="#5" y="2.171"/><use xlink:href="#8" y="4.342"/><use xlink:href="#10" y="6.513"/><use xlink:href="#13" y="10.855"/><use xlink:href="#14" y="13.026"/><use xlink:href="#15" y="15.197"/><use xlink:href="#25" y="17.368"/></svg><svg x="5390"><use xlink:href="#a"/><use xlink:href="#b" x="22.996" y="17.343"/><use xlink:href="#2"/><use xlink:href="#5" y="2.171"/><use xlink:href="#8" y="4.342"/><use xlink:href="#10" y="6.513"/><use xlink:href="#13" y="10.855"/><use xlink:href="#14" y="13.026"/><use xlink:href="#15" y="15.197"/><use xlink:href="#26" y="17.368"/></svg><svg x="5460"><use xlink:href="#a"/><use xlink:href="#b" x="24.996" y="17.343"/><use xlink:href="#2"/><use xlink:href="#5" y="2.171"/><use xlink:href="#8" y="4.342"/><use xlink:href="#10" y="6.513"/><use xlink:href="#13" y="10.855"/><use xlink:href="#14" y="13.026"/><use xlink:href="#15" y="15.197"/><use xlink:href="#27" y="17.368"/></svg><svg x="5530"><use xlink:href="#a"/><use xlink:href="#b" x="26.996" y="17.343"/><use xlink:href="#2"/><use xlink:href="#5" y="2.171"/><use xlink:href="#8" y="4.342"/><use xlink:href="#10" y="6.513"/><use xlink:href="#13" y="10.855"/><use xlink:href="#14" y="13.026"/><use xlink:href="#15" y="15.197"/><text y="19.038" class="c">$</text><text x="2.004" y="19.038" class="d">scala-cli</text><text x="12.024" y="19.038" class="d">Enum.scala</text><text x="23.046" y="19.038" class="d">-S</text><text x="26.052" y="19.038" class="d">3</text></svg><svg x="5600"><use xlink:href="#a"/><use xlink:href="#b" x="28.996" y="17.343"/><use xlink:href="#2"/><use xlink:href="#5" y="2.171"/><use xlink:href="#8" y="4.342"/><use xlink:href="#10" y="6.513"/><use xlink:href="#13" y="10.855"/><use xlink:href="#14" y="13.026"/><use xlink:href="#15" y="15.197"/><text y="19.038" class="c">$</text><text x="2.004" y="19.038" class="d">scala-cli</text><text x="12.024" y="19.038" class="d">Enum.scala</text><text x="23.046" y="19.038" class="d">-S</text><text x="26.052" y="19.038" class="d">3.0</text></svg><svg x="5670"><use xlink:href="#a"/><use xlink:href="#b" x="29.996" y="17.343"/><use xlink:href="#2"/><use xlink:href="#5" y="2.171"/><use xlink:href="#8" y="4.342"/><use xlink:href="#10" y="6.513"/><use xlink:href="#13" y="10.855"/><use xlink:href="#14" y="13.026"/><use xlink:href="#15" y="15.197"/><text y="19.038" class="c">$</text><text x="2.004" y="19.038" class="d">scala-cli</text><text x="12.024" y="19.038" class="d">Enum.scala</text><text x="23.046" y="19.038" class="d">-S</text><text x="26.052" y="19.038" class="d">3.0.</text></svg><svg x="5740"><use xlink:href="#a"/><use xlink:href="#b" x="30.996" y="17.343"/><use xlink:href="#2"/><use xlink:href="#5" y="2.171"/><use xlink:href="#8" y="4.342"/><use xlink:href="#10" y="6.513"/><use xlink:href="#13" y="10.855"/><use xlink:href="#14" y="13.026"/><use xlink:href="#15" y="15.197"/><use xlink:href="#28" y="17.368"/></svg><svg x="5810"><use xlink:href="#a"/><use xlink:href="#b" x="30.996" y="17.343"/><use xlink:href="#2"/><use xlink:href="#5" y="2.171"/><use xlink:href="#8" y="4.342"/><use xlink:href="#10" y="6.513"/><use xlink:href="#13" y="10.855"/><use xlink:href="#14" y="13.026"/><use xlink:href="#15" y="15.197"/><use xlink:href="#28" y="17.368"/></svg><svg x="5880"><use xlink:href="#a"/><use xlink:href="#b" x="30.996" y="17.343"/><use xlink:href="#2"/><use xlink:href="#5" y="2.171"/><use xlink:href="#8" y="4.342"/><use xlink:href="#10" y="6.513"/><use xlink:href="#13" y="10.855"/><use xlink:href="#14" y="13.026"/><use xlink:href="#15" y="15.197"/><use xlink:href="#28" y="17.368"/></svg><svg x="5950"><use xlink:href="#a"/><use xlink:href="#b" x="-.004" y="19.514"/><use xlink:href="#2"/><use xlink:href="#5" y="2.171"/><use xlink:href="#8" y="4.342"/><use xlink:href="#10" y="6.513"/><use xlink:href="#13" y="10.855"/><use xlink:href="#14" y="13.026"/><use xlink:href="#15" y="15.197"/><use xlink:href="#28" y="17.368"/></svg><svg x="6020"><use xlink:href="#a"/><use xlink:href="#b" x="-.004" y="21.685"/><use xlink:href="#2"/><use xlink:href="#5" y="2.171"/><use xlink:href="#8" y="4.342"/><use xlink:href="#10" y="6.513"/><use xlink:href="#13" y="10.855"/><use xlink:href="#14" y="13.026"/><use xlink:href="#15" y="15.197"/><use xlink:href="#28" y="17.368"/><use xlink:href="#29" y="19.539"/></svg><svg x="6090"><use xlink:href="#a"/><use xlink:href="#b" x="-.004" y="23.856"/><use xlink:href="#2"/><use xlink:href="#5" y="2.171"/><use xlink:href="#8" y="4.342"/><use xlink:href="#10" y="6.513"/><use xlink:href="#13" y="10.855"/><use xlink:href="#14" y="13.026"/><use xlink:href="#15" y="15.197"/><use xlink:href="#28" y="17.368"/><use xlink:href="#29" y="19.539"/><use xlink:href="#30" y="21.71"/></svg><svg x="6160"><use xlink:href="#a"/><use xlink:href="#b" x="-.004" y="26.027"/><use xlink:href="#2"/><use xlink:href="#5" y="2.171"/><use xlink:href="#8" y="4.342"/><use xlink:href="#10" y="6.513"/><use xlink:href="#13" y="10.855"/><use xlink:href="#14" y="13.026"/><use xlink:href="#15" y="15.197"/><use xlink:href="#28" y="17.368"/><use xlink:href="#29" y="19.539"/><use xlink:href="#30" y="21.71"/><use xlink:href="#31" y="23.881"/></svg><svg x="6230"><use xlink:href="#a"/><use xlink:href="#b" x="1.996" y="26.027"/><use xlink:href="#2"/><use xlink:href="#5" y="2.171"/><use xlink:href="#8" y="4.342"/><use xlink:href="#10" y="6.513"/><use xlink:href="#13" y="10.855"/><use xlink:href="#14" y="13.026"/><use xlink:href="#15" y="15.197"/><use xlink:href="#28" y="17.368"/><use xlink:href="#29" y="19.539"/><use xlink:href="#30" y="21.71"/><use xlink:href="#31" y="23.881"/><use xlink:href="#1" y="26.052"/></svg><svg x="6300"><use xlink:href="#a"/><use xlink:href="#b" x="1.996" y="26.027"/><use xlink:href="#2"/><use xlink:href="#5" y="2.171"/><use xlink:href="#8" y="4.342"/><use xlink:href="#10" y="6.513"/><use xlink:href="#13" y="10.855"/><use xlink:href="#14" y="13.026"/><use xlink:href="#15" y="15.197"/><use xlink:href="#28" y="17.368"/><use xlink:href="#29" y="19.539"/><use xlink:href="#30" y="21.71"/><use xlink:href="#31" y="23.881"/><use xlink:href="#1" y="26.052"/></svg><svg x="6370"><use xlink:href="#a"/><use xlink:href="#b" x="1.996" y="26.027"/><use xlink:href="#2"/><use xlink:href="#5" y="2.171"/><use xlink:href="#8" y="4.342"/><use xlink:href="#10" y="6.513"/><use xlink:href="#13" y="10.855"/><use xlink:href="#14" y="13.026"/><use xlink:href="#15" y="15.197"/><use xlink:href="#28" y="17.368"/><use xlink:href="#29" y="19.539"/><use xlink:href="#30" y="21.71"/><use xlink:href="#31" y="23.881"/><use xlink:href="#1" y="26.052"/></svg><svg x="6440"><use xlink:href="#a"/><use xlink:href="#b" x="1.996" y="26.027"/><use xlink:href="#2"/><use xlink:href="#5" y="2.171"/><use xlink:href="#8" y="4.342"/><use xlink:href="#10" y="6.513"/><use xlink:href="#13" y="10.855"/><use xlink:href="#14" y="13.026"/><use xlink:href="#15" y="15.197"/><use xlink:href="#28" y="17.368"/><use xlink:href="#29" y="19.539"/><use xlink:href="#30" y="21.71"/><use xlink:href="#31" y="23.881"/><use xlink:href="#1" y="26.052"/></svg><svg x="6510"><use xlink:href="#a"/><use xlink:href="#b" x="1.996" y="26.027"/><use xlink:href="#2"/><use xlink:href="#5" y="2.171"/><use xlink:href="#8" y="4.342"/><use xlink:href="#10" y="6.513"/><use xlink:href="#13" y="10.855"/><use xlink:href="#14" y="13.026"/><use xlink:href="#15" y="15.197"/><use xlink:href="#28" y="17.368"/><use xlink:href="#29" y="19.539"/><use xlink:href="#30" y="21.71"/><use xlink:href="#31" y="23.881"/><use xlink:href="#1" y="26.052"/></svg><svg x="6580"><use xlink:href="#a"/><use xlink:href="#b" x="2.996" y="26.027"/><use xlink:href="#2"/><use xlink:href="#5" y="2.171"/><use xlink:href="#8" y="4.342"/><use xlink:href="#10" y="6.513"/><use xlink:href="#13" y="10.855"/><use xlink:href="#14" y="13.026"/><use xlink:href="#15" y="15.197"/><use xlink:href="#28" y="17.368"/><use xlink:href="#29" y="19.539"/><use xlink:href="#30" y="21.71"/><use xlink:href="#31" y="23.881"/><use xlink:href="#16" y="26.052"/></svg><svg x="6650"><use xlink:href="#a"/><use xlink:href="#b" x="4.996" y="26.027"/><use xlink:href="#2"/><use xlink:href="#5" y="2.171"/><use xlink:href="#8" y="4.342"/><use xlink:href="#10" y="6.513"/><use xlink:href="#13" y="10.855"/><use xlink:href="#14" y="13.026"/><use xlink:href="#15" y="15.197"/><use xlink:href="#28" y="17.368"/><use xlink:href="#29" y="19.539"/><use xlink:href="#30" y="21.71"/><use xlink:href="#31" y="23.881"/><use xlink:href="#17" y="26.052"/></svg><svg x="6720"><use xlink:href="#a"/><use xlink:href="#b" x="6.996" y="26.027"/><use xlink:href="#2"/><use xlink:href="#5" y="2.171"/><use xlink:href="#8" y="4.342"/><use xlink:href="#10" y="6.513"/><use xlink:href="#13" y="10.855"/><use xlink:href="#14" y="13.026"/><use xlink:href="#15" y="15.197"/><use xlink:href="#28" y="17.368"/><use xlink:href="#29" y="19.539"/><use xlink:href="#30" y="21.71"/><use xlink:href="#31" y="23.881"/><use xlink:href="#18" y="26.052"/></svg><svg x="6790"><use xlink:href="#a"/><use xlink:href="#b" x="8.996" y="26.027"/><use xlink:href="#2"/><use xlink:href="#5" y="2.171"/><use xlink:href="#8" y="4.342"/><use xlink:href="#10" y="6.513"/><use xlink:href="#13" y="10.855"/><use xlink:href="#14" y="13.026"/><use xlink:href="#15" y="15.197"/><use xlink:href="#28" y="17.368"/><use xlink:href="#29" y="19.539"/><use xlink:href="#30" y="21.71"/><use xlink:href="#31" y="23.881"/><use xlink:href="#19" y="26.052"/></svg><svg x="6860"><use xlink:href="#a"/><use xlink:href="#b" x="10.996" y="26.027"/><use xlink:href="#2"/><use xlink:href="#5" y="2.171"/><use xlink:href="#8" y="4.342"/><use xlink:href="#10" y="6.513"/><use xlink:href="#13" y="10.855"/><use xlink:href="#14" y="13.026"/><use xlink:href="#15" y="15.197"/><use xlink:href="#28" y="17.368"/><use xlink:href="#29" y="19.539"/><use xlink:href="#30" y="21.71"/><use xlink:href="#31" y="23.881"/><use xlink:href="#20" y="26.052"/></svg><svg x="6930"><use xlink:href="#a"/><use xlink:href="#b" x="11.996" y="26.027"/><use xlink:href="#2"/><use xlink:href="#5" y="2.171"/><use xlink:href="#8" y="4.342"/><use xlink:href="#10" y="6.513"/><use xlink:href="#13" y="10.855"/><use xlink:href="#14" y="13.026"/><use xlink:href="#15" y="15.197"/><use xlink:href="#28" y="17.368"/><use xlink:href="#29" y="19.539"/><use xlink:href="#30" y="21.71"/><use xlink:href="#31" y="23.881"/><use xlink:href="#20" y="26.052"/></svg><svg x="7000"><use xlink:href="#a"/><use xlink:href="#b" x="13.996" y="26.027"/><use xlink:href="#2"/><use xlink:href="#5" y="2.171"/><use xlink:href="#8" y="4.342"/><use xlink:href="#10" y="6.513"/><use xlink:href="#13" y="10.855"/><use xlink:href="#14" y="13.026"/><use xlink:href="#15" y="15.197"/><use xlink:href="#28" y="17.368"/><use xlink:href="#29" y="19.539"/><use xlink:href="#30" y="21.71"/><use xlink:href="#31" y="23.881"/><use xlink:href="#21" y="26.052"/></svg><svg x="7070"><use xlink:href="#a"/><use xlink:href="#b" x="15.996" y="26.027"/><use xlink:href="#2"/><use xlink:href="#5" y="2.171"/><use xlink:href="#8" y="4.342"/><use xlink:href="#10" y="6.513"/><use xlink:href="#13" y="10.855"/><use xlink:href="#14" y="13.026"/><use xlink:href="#15" y="15.197"/><use xlink:href="#28" y="17.368"/><use xlink:href="#29" y="19.539"/><use xlink:href="#30" y="21.71"/><use xlink:href="#31" y="23.881"/><use xlink:href="#22" y="26.052"/></svg><svg x="7140"><use xlink:href="#a"/><use xlink:href="#b" x="17.996" y="26.027"/><use xlink:href="#2"/><use xlink:href="#5" y="2.171"/><use xlink:href="#8" y="4.342"/><use xlink:href="#10" y="6.513"/><use xlink:href="#13" y="10.855"/><use xlink:href="#14" y="13.026"/><use xlink:href="#15" y="15.197"/><use xlink:href="#28" y="17.368"/><use xlink:href="#29" y="19.539"/><use xlink:href="#30" y="21.71"/><use xlink:href="#31" y="23.881"/><use xlink:href="#23" y="26.052"/></svg><svg x="7210"><use xlink:href="#a"/><use xlink:href="#b" x="19.996" y="26.027"/><use xlink:href="#2"/><use xlink:href="#5" y="2.171"/><use xlink:href="#8" y="4.342"/><use xlink:href="#10" y="6.513"/><use xlink:href="#13" y="10.855"/><use xlink:href="#14" y="13.026"/><use xlink:href="#15" y="15.197"/><use xlink:href="#28" y="17.368"/><use xlink:href="#29" y="19.539"/><use xlink:href="#30" y="21.71"/><use xlink:href="#31" y="23.881"/><use xlink:href="#24" y="26.052"/></svg><svg x="7280"><use xlink:href="#a"/><use xlink:href="#b" x="20.996" y="26.027"/><use xlink:href="#2"/><use xlink:href="#5" y="2.171"/><use xlink:href="#8" y="4.342"/><use xlink:href="#10" y="6.513"/><use xlink:href="#13" y="10.855"/><use xlink:href="#14" y="13.026"/><use xlink:href="#15" y="15.197"/><use xlink:href="#28" y="17.368"/><use xlink:href="#29" y="19.539"/><use xlink:href="#30" y="21.71"/><use xlink:href="#31" y="23.881"/><use xlink:href="#25" y="26.052"/></svg><svg x="7350"><use xlink:href="#a"/><use xlink:href="#b" x="22.996" y="26.027"/><use xlink:href="#2"/><use xlink:href="#5" y="2.171"/><use xlink:href="#8" y="4.342"/><use xlink:href="#10" y="6.513"/><use xlink:href="#13" y="10.855"/><use xlink:href="#14" y="13.026"/><use xlink:href="#15" y="15.197"/><use xlink:href="#28" y="17.368"/><use xlink:href="#29" y="19.539"/><use xlink:href="#30" y="21.71"/><use xlink:href="#31" y="23.881"/><use xlink:href="#26" y="26.052"/></svg><svg x="7420"><use xlink:href="#a"/><use xlink:href="#b" x="24.996" y="26.027"/><use xlink:href="#2"/><use xlink:href="#5" y="2.171"/><use xlink:href="#8" y="4.342"/><use xlink:href="#10" y="6.513"/><use xlink:href="#13" y="10.855"/><use xlink:href="#14" y="13.026"/><use xlink:href="#15" y="15.197"/><use xlink:href="#28" y="17.368"/><use xlink:href="#29" y="19.539"/><use xlink:href="#30" y="21.71"/><use xlink:href="#31" y="23.881"/><use xlink:href="#27" y="26.052"/></svg><svg x="7490"><use xlink:href="#a"/><use xlink:href="#b" x="26.996" y="26.027"/><use xlink:href="#2"/><use xlink:href="#5" y="2.171"/><use xlink:href="#8" y="4.342"/><use xlink:href="#10" y="6.513"/><use xlink:href="#13" y="10.855"/><use xlink:href="#14" y="13.026"/><use xlink:href="#15" y="15.197"/><use xlink:href="#28" y="17.368"/><use xlink:href="#29" y="19.539"/><use xlink:href="#30" y="21.71"/><use xlink:href="#31" y="23.881"/><text y="27.722" class="c">$</text><text x="2.004" y="27.722" class="d">scala-cli</text><text x="12.024" y="27.722" class="d">Enum.scala</text><text x="23.046" y="27.722" class="d">-S</text><text x="26.052" y="27.722" class="d">2</text></svg><svg x="7560"><use xlink:href="#a"/><use xlink:href="#b" x="28.996" y="26.027"/><use xlink:href="#2"/><use xlink:href="#5" y="2.171"/><use xlink:href="#8" y="4.342"/><use xlink:href="#10" y="6.513"/><use xlink:href="#13" y="10.855"/><use xlink:href="#14" y="13.026"/><use xlink:href="#15" y="15.197"/><use xlink:href="#28" y="17.368"/><use xlink:href="#29" y="19.539"/><use xlink:href="#30" y="21.71"/><use xlink:href="#31" y="23.881"/><text y="27.722" class="c">$</text><text x="2.004" y="27.722" class="d">scala-cli</text><text x="12.024" y="27.722" class="d">Enum.scala</text><text x="23.046" y="27.722" class="d">-S</text><text x="26.052" y="27.722" class="d">2.1</text></svg><svg x="7630"><use xlink:href="#a"/><use xlink:href="#b" x="29.996" y="26.027"/><use xlink:href="#2"/><use xlink:href="#5" y="2.171"/><use xlink:href="#8" y="4.342"/><use xlink:href="#10" y="6.513"/><use xlink:href="#13" y="10.855"/><use xlink:href="#14" y="13.026"/><use xlink:href="#15" y="15.197"/><use xlink:href="#28" y="17.368"/><use xlink:href="#29" y="19.539"/><use xlink:href="#30" y="21.71"/><use xlink:href="#31" y="23.881"/><text y="27.722" class="c">$</text><text x="2.004" y="27.722" class="d">scala-cli</text><text x="12.024" y="27.722" class="d">Enum.scala</text><text x="23.046" y="27.722" class="d">-S</text><text x="26.052" y="27.722" class="d">2.13</text></svg><svg x="7700"><use xlink:href="#a"/><use xlink:href="#b" x="31.996" y="26.027"/><use xlink:href="#2"/><use xlink:href="#5" y="2.171"/><use xlink:href="#8" y="4.342"/><use xlink:href="#10" y="6.513"/><use xlink:href="#13" y="10.855"/><use xlink:href="#14" y="13.026"/><use xlink:href="#15" y="15.197"/><use xlink:href="#28" y="17.368"/><use xlink:href="#29" y="19.539"/><use xlink:href="#30" y="21.71"/><use xlink:href="#31" y="23.881"/><use xlink:href="#32" y="26.052"/></svg><svg x="7770"><use xlink:href="#a"/><use xlink:href="#b" x="31.996" y="26.027"/><use xlink:href="#2"/><use xlink:href="#5" y="2.171"/><use xlink:href="#8" y="4.342"/><use xlink:href="#10" y="6.513"/><use xlink:href="#13" y="10.855"/><use xlink:href="#14" y="13.026"/><use xlink:href="#15" y="15.197"/><use xlink:href="#28" y="17.368"/><use xlink:href="#29" y="19.539"/><use xlink:href="#30" y="21.71"/><use xlink:href="#31" y="23.881"/><use xlink:href="#32" y="26.052"/></svg><svg x="7840"><use xlink:href="#a"/><use xlink:href="#b" x="-.004" y="28.198"/><use xlink:href="#2"/><use xlink:href="#5" y="2.171"/><use xlink:href="#8" y="4.342"/><use xlink:href="#10" y="6.513"/><use xlink:href="#13" y="10.855"/><use xlink:href="#14" y="13.026"/><use xlink:href="#15" y="15.197"/><use xlink:href="#28" y="17.368"/><use xlink:href="#29" y="19.539"/><use xlink:href="#30" y="21.71"/><use xlink:href="#31" y="23.881"/><use xlink:href="#32" y="26.052"/></svg><svg x="7910"><use xlink:href="#a"/><use xlink:href="#b" x="-.004" y="30.369"/><use xlink:href="#2"/><use xlink:href="#5" y="2.171"/><use xlink:href="#8" y="4.342"/><use xlink:href="#10" y="6.513"/><use xlink:href="#13" y="10.855"/><use xlink:href="#14" y="13.026"/><use xlink:href="#15" y="15.197"/><use xlink:href="#28" y="17.368"/><use xlink:href="#29" y="19.539"/><use xlink:href="#30" y="21.71"/><use xlink:href="#31" y="23.881"/><use xlink:href="#32" y="26.052"/><use xlink:href="#33" y="28.223"/></svg><svg x="7980"><use xlink:href="#a"/><use xlink:href="#b" x="-.004" y="34.711"/><use xlink:href="#2"/><use xlink:href="#5" y="2.171"/><use xlink:href="#8" y="4.342"/><use xlink:href="#10" y="6.513"/><use xlink:href="#13" y="10.855"/><use xlink:href="#14" y="13.026"/><use xlink:href="#15" y="15.197"/><use xlink:href="#28" y="17.368"/><use xlink:href="#29" y="19.539"/><use xlink:href="#30" y="21.71"/><use xlink:href="#31" y="23.881"/><use xlink:href="#32" y="26.052"/><use xlink:href="#33" y="28.223"/><use xlink:href="#34" y="30.394"/><use xlink:href="#35" y="32.565"/></svg><svg x="8050"><use xlink:href="#a"/><use xlink:href="#b" x="-.004" y="36.882"/><use xlink:href="#2"/><use xlink:href="#5" y="2.171"/><use xlink:href="#8" y="4.342"/><use xlink:href="#10" y="6.513"/><use xlink:href="#13" y="10.855"/><use xlink:href="#14" y="13.026"/><use xlink:href="#15" y="15.197"/><use xlink:href="#28" y="17.368"/><use xlink:href="#29" y="19.539"/><use xlink:href="#30" y="21.71"/><use xlink:href="#31" y="23.881"/><use xlink:href="#32" y="26.052"/><use xlink:href="#33" y="28.223"/><use xlink:href="#34" y="30.394"/><use xlink:href="#35" y="32.565"/><use xlink:href="#36" y="34.736"/></svg><svg x="8120"><use xlink:href="#a"/><use xlink:href="#b" x="-.004" y="39.053"/><use xlink:href="#2"/><use xlink:href="#5" y="2.171"/><use xlink:href="#8" y="4.342"/><use xlink:href="#10" y="6.513"/><use xlink:href="#13" y="10.855"/><use xlink:href="#14" y="13.026"/><use xlink:href="#15" y="15.197"/><use xlink:href="#28" y="17.368"/><use xlink:href="#29" y="19.539"/><use xlink:href="#30" y="21.71"/><use xlink:href="#31" y="23.881"/><use xlink:href="#32" y="26.052"/><use xlink:href="#33" y="28.223"/><use xlink:href="#34" y="30.394"/><use xlink:href="#35" y="32.565"/><use xlink:href="#36" y="34.736"/><use xlink:href="#37" y="36.907"/></svg><svg x="8190"><use xlink:href="#a"/><use xlink:href="#b" x="-.004" y="41.224"/><use xlink:href="#2"/><use xlink:href="#5" y="2.171"/><use xlink:href="#8" y="4.342"/><use xlink:href="#10" y="6.513"/><use xlink:href="#13" y="10.855"/><use xlink:href="#14" y="13.026"/><use xlink:href="#15" y="15.197"/><use xlink:href="#28" y="17.368"/><use xlink:href="#29" y="19.539"/><use xlink:href="#30" y="21.71"/><use xlink:href="#31" y="23.881"/><use xlink:href="#32" y="26.052"/><use xlink:href="#33" y="28.223"/><use xlink:href="#34" y="30.394"/><use xlink:href="#35" y="32.565"/><use xlink:href="#36" y="34.736"/><use xlink:href="#37" y="36.907"/></svg></svg></g></g></svg></svg>