<svg xmlns="http://www.w3.org/2000/svg" xmlns:xlink="http://www.w3.org/1999/xlink" width="740" height="474.2"><rect width="740" height="474.2" rx="0" ry="0" class="a"/><svg height="434.2" viewBox="0 0 70 43.42" width="700" x="20" xmlns="http://www.w3.org/2000/svg" xmlns:xlink="http://www.w3.org/1999/xlink" y="20"><style>@keyframes h{0%{transform:translateX(0)}.1%{transform:translateX(-210px)}2.1%{transform:translateX(-280px)}3.1%{transform:translateX(-350px)}4.1%{transform:translateX(-420px)}5.1%{transform:translateX(-490px)}6.1%{transform:translateX(-560px)}7.2%{transform:translateX(-630px)}8.2%{transform:translateX(-700px)}9.2%{transform:translateX(-770px)}10.2%{transform:translateX(-840px)}12.2%{transform:translateX(-910px)}13.2%{transform:translateX(-980px)}14.2%{transform:translateX(-1050px)}15.2%{transform:translateX(-1120px)}16.2%{transform:translateX(-1190px)}17.2%{transform:translateX(-1260px)}18.2%{transform:translateX(-1330px)}19.2%{transform:translateX(-1400px)}20.3%{transform:translateX(-1470px)}22.3%{transform:translateX(-1540px)}23.3%{transform:translateX(-1610px)}24.3%{transform:translateX(-1680px)}25.3%{transform:translateX(-1750px)}26.3%{transform:translateX(-1820px)}27.3%{transform:translateX(-1890px)}28.3%{transform:translateX(-1960px)}29.3%{transform:translateX(-2030px)}30.3%{transform:translateX(-2100px)}32.3%{transform:translateX(-2170px)}33.4%{transform:translateX(-2240px)}34.4%{transform:translateX(-2310px)}35.4%{transform:translateX(-2380px)}36.4%{transform:translateX(-2450px)}37.4%{transform:translateX(-2520px)}38.4%{transform:translateX(-2590px)}39.4%{transform:translateX(-2660px)}40.4%{transform:translateX(-2730px)}42.4%{transform:translateX(-2800px)}43.4%{transform:translateX(-2870px)}44.4%{transform:translateX(-2940px)}45.4%{transform:translateX(-3010px)}46.5%{transform:translateX(-3080px)}47.5%{transform:translateX(-3150px)}48.5%{transform:translateX(-3220px)}49.5%{transform:translateX(-3290px)}50.5%{transform:translateX(-3360px)}52.5%{transform:translateX(-3430px)}53.5%{transform:translateX(-3500px)}54.5%{transform:translateX(-3570px)}55.5%{transform:translateX(-3640px)}56.5%{transform:translateX(-3710px)}57.5%{transform:translateX(-3780px)}58.5%{transform:translateX(-3850px)}59.5%{transform:translateX(-3920px)}60.6%{transform:translateX(-3990px)}62.6%{transform:translateX(-4060px)}63.6%{transform:translateX(-4130px)}64.6%{transform:translateX(-4200px)}65.6%{transform:translateX(-4270px)}66.6%{transform:translateX(-4340px)}67.6%{transform:translateX(-4480px)}70.2%{transform:translateX(-4550px)}74.1%{transform:translateX(-4620px)}77.6%{transform:translateX(-4690px)}to{transform:translateX(-4760px)}}.a{fill:#2c1d16}.c{fill:#ffcc2f}.c,.d,.e{white-space:pre}.d{fill:#bfbfbf;font-weight:700}.e{fill:#666}</style><g font-family="Monaco,Consolas,Menlo,'Bitstream Vera Sans Mono','Powerline Symbols',monospace" font-size="1.67"><defs><symbol id="1"><text y="1.67" class="c">$</text></symbol><symbol id="2"><text y="1.67" class="c">$</text><text x="2.004" y="1.67" class="d">echo</text><text x="7.014" y="1.67" class="d">&apos;println(&quot;TODO:</text><text x="23.046" y="1.67" class="d">turn</text><text x="28.056" y="1.67" class="d">gifs/scenarios/scripting.sh</text><text x="56.112" y="1.67" class="d">into</text><text x="61.122" y="1.67" class="d">proper</text><text x="68.136" y="1.67" class="d">sc</text></symbol><symbol id="3"><text y="1.67" class="d">enario</text><text x="7.014" y="1.67" class="d">scripting</text><text x="17.034" y="1.67" class="d">with</text><text x="22.044" y="1.67" class="d">Scala</text><text x="28.056" y="1.67" class="d">CLI&quot;)&apos;</text><text x="35.07" y="1.67" class="d">|</text><text x="37.074" y="1.67" class="d">scala-cli</text><text x="47.094" y="1.67" class="d">-</text></symbol><symbol id="4"><text y="1.67" class="e">Compiling</text><text x="10.02" y="1.67" class="e">project</text><text x="18.036" y="1.67" class="e">(Scala</text><text x="25.05" y="1.67" class="e">3.0.2,</text><text x="32.064" y="1.67" class="e">JVM)</text></symbol><symbol id="5"><text y="1.67" class="e">Compiled</text><text x="9.018" y="1.67" class="e">project</text><text x="17.034" y="1.67" class="e">(Scala</text><text x="24.048" y="1.67" class="e">3.0.2,</text><text x="31.062" y="1.67" class="e">JVM)</text></symbol><symbol id="6"><text y="1.67" class="c">TODO:</text><text x="6.012" y="1.67" class="c">turn</text><text x="11.022" y="1.67" class="c">gifs/scenarios/scripting.sh</text><text x="39.078" y="1.67" class="c">into</text><text x="44.088" y="1.67" class="c">proper</text><text x="51.102" y="1.67" class="c">scenario</text><text x="60.12" y="1.67" class="c">scripting</text></symbol><symbol id="7"><text y="1.67" class="c">with</text><text x="5.01" y="1.67" class="c">Scala</text><text x="11.022" y="1.67" class="c">CLI</text></symbol><symbol id="a"><path fill="transparent" d="M0 0h70v21H0z"/></symbol><symbol id="b"><path fill="#23ff18" d="M0 0h1.102v2.171H0z"/></symbol></defs><path class="a" d="M0 0h70v43.42H0z"/><g style="animation-duration:8.949506s;animation-iteration-count:infinite;animation-name:h;animation-timing-function:steps(1,end)"><svg width="4830"><svg><use xlink:href="#a"/><use xlink:href="#b" x="-.004"/></svg><svg x="70"><use xlink:href="#a"/><use xlink:href="#b" x="-.004"/></svg><svg x="140"><use xlink:href="#a"/><use xlink:href="#b" x="1.996"/><use xlink:href="#1"/></svg><svg x="210"><use xlink:href="#a"/><use xlink:href="#b" x="1.996"/><use xlink:href="#1"/></svg><svg x="280"><use xlink:href="#a"/><use xlink:href="#b" x="1.996"/><use xlink:href="#1"/></svg><svg x="350"><use xlink:href="#a"/><use xlink:href="#b" x="1.996"/><use xlink:href="#1"/></svg><svg x="420"><use xlink:href="#a"/><use xlink:href="#b" x="2.996"/><text y="1.67" class="c">$</text><text x="2.004" y="1.67" class="d">e</text></svg><svg x="490"><use xlink:href="#a"/><use xlink:href="#b" x="4.996"/><text y="1.67" class="c">$</text><text x="2.004" y="1.67" class="d">ech</text></svg><svg x="560"><use xlink:href="#a"/><use xlink:href="#b" x="6.996"/><text y="1.67" class="c">$</text><text x="2.004" y="1.67" class="d">echo</text></svg><svg x="630"><use xlink:href="#a"/><use xlink:href="#b" x="8.996"/><text y="1.67" class="c">$</text><text x="2.004" y="1.67" class="d">echo</text><text x="7.014" y="1.67" class="d">&apos;p</text></svg><svg x="700"><use xlink:href="#a"/><use xlink:href="#b" x="10.996"/><text y="1.67" class="c">$</text><text x="2.004" y="1.67" class="d">echo</text><text x="7.014" y="1.67" class="d">&apos;pri</text></svg><svg x="770"><use xlink:href="#a"/><use xlink:href="#b" x="12.996"/><text y="1.67" class="c">$</text><text x="2.004" y="1.67" class="d">echo</text><text x="7.014" y="1.67" class="d">&apos;print</text></svg><svg x="840"><use xlink:href="#a"/><use xlink:href="#b" x="14.996"/><text y="1.67" class="c">$</text><text x="2.004" y="1.67" class="d">echo</text><text x="7.014" y="1.67" class="d">&apos;println</text></svg><svg x="910"><use xlink:href="#a"/><use xlink:href="#b" x="17.996"/><text y="1.67" class="c">$</text><text x="2.004" y="1.67" class="d">echo</text><text x="7.014" y="1.67" class="d">&apos;println(&quot;T</text></svg><svg x="980"><use xlink:href="#a"/><use xlink:href="#b" x="19.996"/><text y="1.67" class="c">$</text><text x="2.004" y="1.67" class="d">echo</text><text x="7.014" y="1.67" class="d">&apos;println(&quot;TOD</text></svg><svg x="1050"><use xlink:href="#a"/><use xlink:href="#b" x="21.996"/><text y="1.67" class="c">$</text><text x="2.004" y="1.67" class="d">echo</text><text x="7.014" y="1.67" class="d">&apos;println(&quot;TODO:</text></svg><svg x="1120"><use xlink:href="#a"/><use xlink:href="#b" x="23.996"/><text y="1.67" class="c">$</text><text x="2.004" y="1.67" class="d">echo</text><text x="7.014" y="1.67" class="d">&apos;println(&quot;TODO:</text><text x="23.046" y="1.67" class="d">t</text></svg><svg x="1190"><use xlink:href="#a"/><use xlink:href="#b" x="25.996"/><text y="1.67" class="c">$</text><text x="2.004" y="1.67" class="d">echo</text><text x="7.014" y="1.67" class="d">&apos;println(&quot;TODO:</text><text x="23.046" y="1.67" class="d">tur</text></svg><svg x="1260"><use xlink:href="#a"/><use xlink:href="#b" x="27.996"/><text y="1.67" class="c">$</text><text x="2.004" y="1.67" class="d">echo</text><text x="7.014" y="1.67" class="d">&apos;println(&quot;TODO:</text><text x="23.046" y="1.67" class="d">turn</text></svg><svg x="1330"><use xlink:href="#a"/><use xlink:href="#b" x="29.996"/><text y="1.67" class="c">$</text><text x="2.004" y="1.67" class="d">echo</text><text x="7.014" y="1.67" class="d">&apos;println(&quot;TODO:</text><text x="23.046" y="1.67" class="d">turn</text><text x="28.056" y="1.67" class="d">gi</text></svg><svg x="1400"><use xlink:href="#a"/><use xlink:href="#b" x="31.996"/><text y="1.67" class="c">$</text><text x="2.004" y="1.67" class="d">echo</text><text x="7.014" y="1.67" class="d">&apos;println(&quot;TODO:</text><text x="23.046" y="1.67" class="d">turn</text><text x="28.056" y="1.67" class="d">gifs</text></svg><svg x="1470"><use xlink:href="#a"/><use xlink:href="#b" x="33.996"/><text y="1.67" class="c">$</text><text x="2.004" y="1.67" class="d">echo</text><text x="7.014" y="1.67" class="d">&apos;println(&quot;TODO:</text><text x="23.046" y="1.67" class="d">turn</text><text x="28.056" y="1.67" class="d">gifs/s</text></svg><svg x="1540"><use xlink:href="#a"/><use xlink:href="#b" x="35.996"/><text y="1.67" class="c">$</text><text x="2.004" y="1.67" class="d">echo</text><text x="7.014" y="1.67" class="d">&apos;println(&quot;TODO:</text><text x="23.046" y="1.67" class="d">turn</text><text x="28.056" y="1.67" class="d">gifs/sce</text></svg><svg x="1610"><use xlink:href="#a"/><use xlink:href="#b" x="38.996"/><text y="1.67" class="c">$</text><text x="2.004" y="1.67" class="d">echo</text><text x="7.014" y="1.67" class="d">&apos;println(&quot;TODO:</text><text x="23.046" y="1.67" class="d">turn</text><text x="28.056" y="1.67" class="d">gifs/scenar</text></svg><svg x="1680"><use xlink:href="#a"/><use xlink:href="#b" x="40.996"/><text y="1.67" class="c">$</text><text x="2.004" y="1.67" class="d">echo</text><text x="7.014" y="1.67" class="d">&apos;println(&quot;TODO:</text><text x="23.046" y="1.67" class="d">turn</text><text x="28.056" y="1.67" class="d">gifs/scenario</text></svg><svg x="1750"><use xlink:href="#a"/><use xlink:href="#b" x="42.996"/><text y="1.67" class="c">$</text><text x="2.004" y="1.67" class="d">echo</text><text x="7.014" y="1.67" class="d">&apos;println(&quot;TODO:</text><text x="23.046" y="1.67" class="d">turn</text><text x="28.056" y="1.67" class="d">gifs/scenarios/</text></svg><svg x="1820"><use xlink:href="#a"/><use xlink:href="#b" x="44.996"/><text y="1.67" class="c">$</text><text x="2.004" y="1.67" class="d">echo</text><text x="7.014" y="1.67" class="d">&apos;println(&quot;TODO:</text><text x="23.046" y="1.67" class="d">turn</text><text x="28.056" y="1.67" class="d">gifs/scenarios/sc</text></svg><svg x="1890"><use xlink:href="#a"/><use xlink:href="#b" x="46.996"/><text y="1.67" class="c">$</text><text x="2.004" y="1.67" class="d">echo</text><text x="7.014" y="1.67" class="d">&apos;println(&quot;TODO:</text><text x="23.046" y="1.67" class="d">turn</text><text x="28.056" y="1.67" class="d">gifs/scenarios/scri</text></svg><svg x="1960"><use xlink:href="#a"/><use xlink:href="#b" x="48.996"/><text y="1.67" class="c">$</text><text x="2.004" y="1.67" class="d">echo</text><text x="7.014" y="1.67" class="d">&apos;println(&quot;TODO:</text><text x="23.046" y="1.67" class="d">turn</text><text x="28.056" y="1.67" class="d">gifs/scenarios/script</text></svg><svg x="2030"><use xlink:href="#a"/><use xlink:href="#b" x="50.996"/><text y="1.67" class="c">$</text><text x="2.004" y="1.67" class="d">echo</text><text x="7.014" y="1.67" class="d">&apos;println(&quot;TODO:</text><text x="23.046" y="1.67" class="d">turn</text><text x="28.056" y="1.67" class="d">gifs/scenarios/scriptin</text></svg><svg x="2100"><use xlink:href="#a"/><use xlink:href="#b" x="52.996"/><text y="1.67" class="c">$</text><text x="2.004" y="1.67" class="d">echo</text><text x="7.014" y="1.67" class="d">&apos;println(&quot;TODO:</text><text x="23.046" y="1.67" class="d">turn</text><text x="28.056" y="1.67" class="d">gifs/scenarios/scripting.</text></svg><svg x="2170"><use xlink:href="#a"/><use xlink:href="#b" x="54.996"/><text y="1.67" class="c">$</text><text x="2.004" y="1.67" class="d">echo</text><text x="7.014" y="1.67" class="d">&apos;println(&quot;TODO:</text><text x="23.046" y="1.67" class="d">turn</text><text x="28.056" y="1.67" class="d">gifs/scenarios/scripting.sh</text></svg><svg x="2240"><use xlink:href="#a"/><use xlink:href="#b" x="56.996"/><text y="1.67" class="c">$</text><text x="2.004" y="1.67" class="d">echo</text><text x="7.014" y="1.67" class="d">&apos;println(&quot;TODO:</text><text x="23.046" y="1.67" class="d">turn</text><text x="28.056" y="1.67" class="d">gifs/scenarios/scripting.sh</text><text x="56.112" y="1.67" class="d">i</text></svg><svg x="2310"><use xlink:href="#a"/><use xlink:href="#b" x="59.996"/><text y="1.67" class="c">$</text><text x="2.004" y="1.67" class="d">echo</text><text x="7.014" y="1.67" class="d">&apos;println(&quot;TODO:</text><text x="23.046" y="1.67" class="d">turn</text><text x="28.056" y="1.67" class="d">gifs/scenarios/scripting.sh</text><text x="56.112" y="1.67" class="d">into</text></svg><svg x="2380"><use xlink:href="#a"/><use xlink:href="#b" x="61.996"/><text y="1.67" class="c">$</text><text x="2.004" y="1.67" class="d">echo</text><text x="7.014" y="1.67" class="d">&apos;println(&quot;TODO:</text><text x="23.046" y="1.67" class="d">turn</text><text x="28.056" y="1.67" class="d">gifs/scenarios/scripting.sh</text><text x="56.112" y="1.67" class="d">into</text><text x="61.122" y="1.67" class="d">p</text></svg><svg x="2450"><use xlink:href="#a"/><use xlink:href="#b" x="63.996"/><text y="1.67" class="c">$</text><text x="2.004" y="1.67" class="d">echo</text><text x="7.014" y="1.67" class="d">&apos;println(&quot;TODO:</text><text x="23.046" y="1.67" class="d">turn</text><text x="28.056" y="1.67" class="d">gifs/scenarios/scripting.sh</text><text x="56.112" y="1.67" class="d">into</text><text x="61.122" y="1.67" class="d">pro</text></svg><svg x="2520"><use xlink:href="#a"/><use xlink:href="#b" x="65.996"/><text y="1.67" class="c">$</text><text x="2.004" y="1.67" class="d">echo</text><text x="7.014" y="1.67" class="d">&apos;println(&quot;TODO:</text><text x="23.046" y="1.67" class="d">turn</text><text x="28.056" y="1.67" class="d">gifs/scenarios/scripting.sh</text><text x="56.112" y="1.67" class="d">into</text><text x="61.122" y="1.67" class="d">prope</text></svg><svg x="2590"><use xlink:href="#a"/><use xlink:href="#b" x="67.996"/><text y="1.67" class="c">$</text><text x="2.004" y="1.67" class="d">echo</text><text x="7.014" y="1.67" class="d">&apos;println(&quot;TODO:</text><text x="23.046" y="1.67" class="d">turn</text><text x="28.056" y="1.67" class="d">gifs/scenarios/scripting.sh</text><text x="56.112" y="1.67" class="d">into</text><text x="61.122" y="1.67" class="d">proper</text></svg><svg x="2660"><use xlink:href="#a"/><use xlink:href="#b" x="69.996"/><use xlink:href="#2"/></svg><svg x="2730"><use xlink:href="#a"/><use xlink:href="#b" x="1.996" y="2.146"/><use xlink:href="#2"/><text y="3.841" class="d">en</text></svg><svg x="2800"><use xlink:href="#a"/><use xlink:href="#b" x="3.996" y="2.146"/><use xlink:href="#2"/><text y="3.841" class="d">enar</text></svg><svg x="2870"><use xlink:href="#a"/><use xlink:href="#b" x="5.996" y="2.146"/><use xlink:href="#2"/><text y="3.841" class="d">enario</text></svg><svg x="2940"><use xlink:href="#a"/><use xlink:href="#b" x="7.996" y="2.146"/><use xlink:href="#2"/><text y="3.841" class="d">enario</text><text x="7.014" y="3.841" class="d">s</text></svg><svg x="3010"><use xlink:href="#a"/><use xlink:href="#b" x="10.996" y="2.146"/><use xlink:href="#2"/><text y="3.841" class="d">enario</text><text x="7.014" y="3.841" class="d">scri</text></svg><svg x="3080"><use xlink:href="#a"/><use xlink:href="#b" x="12.996" y="2.146"/><use xlink:href="#2"/><text y="3.841" class="d">enario</text><text x="7.014" y="3.841" class="d">script</text></svg><svg x="3150"><use xlink:href="#a"/><use xlink:href="#b" x="14.996" y="2.146"/><use xlink:href="#2"/><text y="3.841" class="d">enario</text><text x="7.014" y="3.841" class="d">scriptin</text></svg><svg x="3220"><use xlink:href="#a"/><use xlink:href="#b" x="16.996" y="2.146"/><use xlink:href="#2"/><text y="3.841" class="d">enario</text><text x="7.014" y="3.841" class="d">scripting</text></svg><svg x="3290"><use xlink:href="#a"/><use xlink:href="#b" x="18.996" y="2.146"/><use xlink:href="#2"/><text y="3.841" class="d">enario</text><text x="7.014" y="3.841" class="d">scripting</text><text x="17.034" y="3.841" class="d">wi</text></svg><svg x="3360"><use xlink:href="#a"/><use xlink:href="#b" x="20.996" y="2.146"/><use xlink:href="#2"/><text y="3.841" class="d">enario</text><text x="7.014" y="3.841" class="d">scripting</text><text x="17.034" y="3.841" class="d">with</text></svg><svg x="3430"><use xlink:href="#a"/><use xlink:href="#b" x="22.996" y="2.146"/><use xlink:href="#2"/><text y="3.841" class="d">enario</text><text x="7.014" y="3.841" class="d">scripting</text><text x="17.034" y="3.841" class="d">with</text><text x="22.044" y="3.841" class="d">S</text></svg><svg x="3500"><use xlink:href="#a"/><use xlink:href="#b" x="24.996" y="2.146"/><use xlink:href="#2"/><text y="3.841" class="d">enario</text><text x="7.014" y="3.841" class="d">scripting</text><text x="17.034" y="3.841" class="d">with</text><text x="22.044" y="3.841" class="d">Sca</text></svg><svg x="3570"><use xlink:href="#a"/><use xlink:href="#b" x="26.996" y="2.146"/><use xlink:href="#2"/><text y="3.841" class="d">enario</text><text x="7.014" y="3.841" class="d">scripting</text><text x="17.034" y="3.841" class="d">with</text><text x="22.044" y="3.841" class="d">Scala</text></svg><svg x="3640"><use xlink:href="#a"/><use xlink:href="#b" x="28.996" y="2.146"/><use xlink:href="#2"/><text y="3.841" class="d">enario</text><text x="7.014" y="3.841" class="d">scripting</text><text x="17.034" y="3.841" class="d">with</text><text x="22.044" y="3.841" class="d">Scala</text><text x="28.056" y="3.841" class="d">C</text></svg><svg x="3710"><use xlink:href="#a"/><use xlink:href="#b" x="31.996" y="2.146"/><use xlink:href="#2"/><text y="3.841" class="d">enario</text><text x="7.014" y="3.841" class="d">scripting</text><text x="17.034" y="3.841" class="d">with</text><text x="22.044" y="3.841" class="d">Scala</text><text x="28.056" y="3.841" class="d">CLI&quot;</text></svg><svg x="3780"><use xlink:href="#a"/><use xlink:href="#b" x="33.996" y="2.146"/><use xlink:href="#2"/><text y="3.841" class="d">enario</text><text x="7.014" y="3.841" class="d">scripting</text><text x="17.034" y="3.841" class="d">with</text><text x="22.044" y="3.841" class="d">Scala</text><text x="28.056" y="3.841" class="d">CLI&quot;)&apos;</text></svg><svg x="3850"><use xlink:href="#a"/><use xlink:href="#b" x="35.996" y="2.146"/><use xlink:href="#2"/><text y="3.841" class="d">enario</text><text x="7.014" y="3.841" class="d">scripting</text><text x="17.034" y="3.841" class="d">with</text><text x="22.044" y="3.841" class="d">Scala</text><text x="28.056" y="3.841" class="d">CLI&quot;)&apos;</text><text x="35.07" y="3.841" class="d">|</text></svg><svg x="3920"><use xlink:href="#a"/><use xlink:href="#b" x="37.996" y="2.146"/><use xlink:href="#2"/><text y="3.841" class="d">enario</text><text x="7.014" y="3.841" class="d">scripting</text><text x="17.034" y="3.841" class="d">with</text><text x="22.044" y="3.841" class="d">Scala</text><text x="28.056" y="3.841" class="d">CLI&quot;)&apos;</text><text x="35.07" y="3.841" class="d">|</text><text x="37.074" y="3.841" class="d">s</text></svg><svg x="3990"><use xlink:href="#a"/><use xlink:href="#b" x="39.996" y="2.146"/><use xlink:href="#2"/><text y="3.841" class="d">enario</text><text x="7.014" y="3.841" class="d">scripting</text><text x="17.034" y="3.841" class="d">with</text><text x="22.044" y="3.841" class="d">Scala</text><text x="28.056" y="3.841" class="d">CLI&quot;)&apos;</text><text x="35.07" y="3.841" class="d">|</text><text x="37.074" y="3.841" class="d">sca</text></svg><svg x="4060"><use xlink:href="#a"/><use xlink:href="#b" x="41.996" y="2.146"/><use xlink:href="#2"/><text y="3.841" class="d">enario</text><text x="7.014" y="3.841" class="d">scripting</text><text x="17.034" y="3.841" class="d">with</text><text x="22.044" y="3.841" class="d">Scala</text><text x="28.056" y="3.841" class="d">CLI&quot;)&apos;</text><text x="35.07" y="3.841" class="d">|</text><text x="37.074" y="3.841" class="d">scala</text></svg><svg x="4130"><use xlink:href="#a"/><use xlink:href="#b" x="43.996" y="2.146"/><use xlink:href="#2"/><text y="3.841" class="d">enario</text><text x="7.014" y="3.841" class="d">scripting</text><text x="17.034" y="3.841" class="d">with</text><text x="22.044" y="3.841" class="d">Scala</text><text x="28.056" y="3.841" class="d">CLI&quot;)&apos;</text><text x="35.07" y="3.841" class="d">|</text><text x="37.074" y="3.841" class="d">scala-c</text></svg><svg x="4200"><use xlink:href="#a"/><use xlink:href="#b" x="45.996" y="2.146"/><use xlink:href="#2"/><text y="3.841" class="d">enario</text><text x="7.014" y="3.841" class="d">scripting</text><text x="17.034" y="3.841" class="d">with</text><text x="22.044" y="3.841" class="d">Scala</text><text x="28.056" y="3.841" class="d">CLI&quot;)&apos;</text><text x="35.07" y="3.841" class="d">|</text><text x="37.074" y="3.841" class="d">scala-cli</text></svg><svg x="4270"><use xlink:href="#a"/><use xlink:href="#b" x="47.996" y="2.146"/><use xlink:href="#2"/><use xlink:href="#3" y="2.171"/></svg><svg x="4340"><use xlink:href="#a"/><use xlink:href="#b" x="47.996" y="2.146"/><use xlink:href="#2"/><use xlink:href="#3" y="2.171"/></svg><svg x="4410"><use xlink:href="#a"/><use xlink:href="#b" x="47.996" y="2.146"/><use xlink:href="#2"/><use xlink:href="#3" y="2.171"/></svg><svg x="4480"><use xlink:href="#a"/><use xlink:href="#b" x="-.004" y="4.317"/><use xlink:href="#2"/><use xlink:href="#3" y="2.171"/></svg><svg x="4550"><use xlink:href="#a"/><use xlink:href="#b" x="-.004" y="6.488"/><use xlink:href="#2"/><use xlink:href="#3" y="2.171"/><use xlink:href="#4" y="4.342"/></svg><svg x="4620"><use xlink:href="#a"/><use xlink:href="#b" x="-.004" y="8.659"/><use xlink:href="#2"/><use xlink:href="#3" y="2.171"/><use xlink:href="#4" y="4.342"/><use xlink:href="#5" y="6.513"/></svg><svg x="4690"><use xlink:href="#a"/><use xlink:href="#b" x="-.004" y="13.001"/><use xlink:href="#2"/><use xlink:href="#3" y="2.171"/><use xlink:href="#4" y="4.342"/><use xlink:href="#5" y="6.513"/><use xlink:href="#6" y="8.684"/><use xlink:href="#7" y="10.855"/></svg><svg x="4760"><use xlink:href="#a"/><use xlink:href="#b" x="-.004" y="15.172"/><use xlink:href="#2"/><use xlink:href="#3" y="2.171"/><use xlink:href="#4" y="4.342"/><use xlink:href="#5" y="6.513"/><use xlink:href="#6" y="8.684"/><use xlink:href="#7" y="10.855"/></svg></svg></g></g></svg></svg>