<svg xmlns="http://www.w3.org/2000/svg" xmlns:xlink="http://www.w3.org/1999/xlink" width="740" height="474.2"><rect width="740" height="474.2" rx="0" ry="0" class="a"/><svg height="434.2" viewBox="0 0 70 43.42" width="700" x="20" xmlns="http://www.w3.org/2000/svg" xmlns:xlink="http://www.w3.org/1999/xlink" y="20"><style>@keyframes h{0%{transform:translateX(0)}.1%{transform:translateX(-210px)}1.9%{transform:translateX(-280px)}2.8%{transform:translateX(-350px)}3.7%{transform:translateX(-420px)}4.6%{transform:translateX(-490px)}5.4%{transform:translateX(-560px)}6.3%{transform:translateX(-630px)}7.2%{transform:translateX(-700px)}8.1%{transform:translateX(-770px)}9%{transform:translateX(-840px)}10.8%{transform:translateX(-910px)}11.7%{transform:translateX(-980px)}12.5%{transform:translateX(-1050px)}13.4%{transform:translateX(-1120px)}14.3%{transform:translateX(-1190px)}15.2%{transform:translateX(-1260px)}16.1%{transform:translateX(-1330px)}17%{transform:translateX(-1400px)}17.9%{transform:translateX(-1470px)}19.7%{transform:translateX(-1540px)}20.5%{transform:translateX(-1610px)}21.4%{transform:translateX(-1680px)}22.3%{transform:translateX(-1750px)}23.2%{transform:translateX(-1820px)}24.1%{transform:translateX(-1890px)}25%{transform:translateX(-1960px)}25.9%{transform:translateX(-2030px)}26.8%{transform:translateX(-2100px)}28.5%{transform:translateX(-2170px)}29.4%{transform:translateX(-2240px)}30.3%{transform:translateX(-2310px)}31.2%{transform:translateX(-2380px)}32.1%{transform:translateX(-2450px)}33%{transform:translateX(-2520px)}33.9%{transform:translateX(-2590px)}34.8%{transform:translateX(-2660px)}35.6%{transform:translateX(-2730px)}37.4%{transform:translateX(-2800px)}38.3%{transform:translateX(-2870px)}39.2%{transform:translateX(-2940px)}40.1%{transform:translateX(-3010px)}41%{transform:translateX(-3080px)}41.9%{transform:translateX(-3150px)}42.8%{transform:translateX(-3220px)}43.6%{transform:translateX(-3290px)}44.5%{transform:translateX(-3360px)}46.3%{transform:translateX(-3430px)}47.2%{transform:translateX(-3500px)}48.1%{transform:translateX(-3570px)}49%{transform:translateX(-3640px)}49.9%{transform:translateX(-3710px)}50.7%{transform:translateX(-3780px)}51.6%{transform:translateX(-3850px)}52.5%{transform:translateX(-3920px)}53.4%{transform:translateX(-3990px)}54.3%{transform:translateX(-4060px)}56.1%{transform:translateX(-4130px)}57%{transform:translateX(-4200px)}57.9%{transform:translateX(-4270px)}58.7%{transform:translateX(-4340px)}59.6%{transform:translateX(-4410px)}60.5%{transform:translateX(-4480px)}61.4%{transform:translateX(-4550px)}62.3%{transform:translateX(-4620px)}63.2%{transform:translateX(-4690px)}65%{transform:translateX(-4760px)}65.8%{transform:translateX(-4830px)}66.7%{transform:translateX(-4900px)}67.6%{transform:translateX(-4970px)}68.5%{transform:translateX(-5040px)}69.4%{transform:translateX(-5110px)}70.3%{transform:translateX(-5180px)}71.2%{transform:translateX(-5250px)}72.1%{transform:translateX(-5390px)}74.4%{transform:translateX(-5460px)}77.4%{transform:translateX(-5530px)}80.2%{transform:translateX(-5600px)}to{transform:translateX(-5670px)}}.a{fill:#2c1d16}.c{fill:#ffcc2f}.c,.d,.e{white-space:pre}.d{fill:#bfbfbf;font-weight:700}.e{fill:#666}</style><g font-family="Monaco,Consolas,Menlo,'Bitstream Vera Sans Mono','Powerline Symbols',monospace" font-size="1.67"><defs><symbol id="1"><text y="1.67" class="c">$</text></symbol><symbol id="2"><text y="1.67" class="c">$</text><text x="2.004" y="1.67" class="d">echo</text><text x="7.014" y="1.67" class="d">&apos;println(&quot;TODO:</text><text x="23.046" y="1.67" class="d">turn</text><text x="28.056" y="1.67" class="d">gifs/scenarios/self-contained-examples.sh</text></symbol><symbol id="3"><text y="1.67" class="d">into</text><text x="5.01" y="1.67" class="d">proper</text><text x="12.024" y="1.67" class="d">scenario</text><text x="21.042" y="1.67" class="d">showing</text><text x="29.058" y="1.67" class="d">Self-contained</text><text x="44.088" y="1.67" class="d">examples&quot;)&apos;</text><text x="56.112" y="1.67" class="d">|</text><text x="58.116" y="1.67" class="d">scala-cli</text><text x="68.136" y="1.67" class="d">-</text></symbol><symbol id="4"><text y="1.67" class="e">Compiling</text><text x="10.02" y="1.67" class="e">project</text><text x="18.036" y="1.67" class="e">(Scala</text><text x="25.05" y="1.67" class="e">3.0.2,</text><text x="32.064" y="1.67" class="e">JVM)</text></symbol><symbol id="5"><text y="1.67" class="e">Compiled</text><text x="9.018" y="1.67" class="e">project</text><text x="17.034" y="1.67" class="e">(Scala</text><text x="24.048" y="1.67" class="e">3.0.2,</text><text x="31.062" y="1.67" class="e">JVM)</text></symbol><symbol id="6"><text y="1.67" class="c">TODO:</text><text x="6.012" y="1.67" class="c">turn</text><text x="11.022" y="1.67" class="c">gifs/scenarios/self-contained-examples.sh</text><text x="53.106" y="1.67" class="c">into</text><text x="58.116" y="1.67" class="c">proper</text><text x="65.13" y="1.67" class="c">scena</text></symbol><symbol id="7"><text y="1.67" class="c">rio</text><text x="4.008" y="1.67" class="c">showing</text><text x="12.024" y="1.67" class="c">Self-contained</text><text x="27.054" y="1.67" class="c">examples</text></symbol><symbol id="a"><path fill="transparent" d="M0 0h70v21H0z"/></symbol><symbol id="b"><path fill="#23ff18" d="M0 0h1.102v2.171H0z"/></symbol></defs><path class="a" d="M0 0h70v43.42H0z"/><g style="animation-duration:10.151489s;animation-iteration-count:infinite;animation-name:h;animation-timing-function:steps(1,end)"><svg width="5740"><svg><use xlink:href="#a"/><use xlink:href="#b" x="-.004"/></svg><svg x="70"><use xlink:href="#a"/><use xlink:href="#b" x="-.004"/></svg><svg x="140"><use xlink:href="#a"/><use xlink:href="#b" x="1.996"/><use xlink:href="#1"/></svg><svg x="210"><use xlink:href="#a"/><use xlink:href="#b" x="1.996"/><use xlink:href="#1"/></svg><svg x="280"><use xlink:href="#a"/><use xlink:href="#b" x="1.996"/><use xlink:href="#1"/></svg><svg x="350"><use xlink:href="#a"/><use xlink:href="#b" x="1.996"/><use xlink:href="#1"/></svg><svg x="420"><use xlink:href="#a"/><use xlink:href="#b" x="2.996"/><text y="1.67" class="c">$</text><text x="2.004" y="1.67" class="d">e</text></svg><svg x="490"><use xlink:href="#a"/><use xlink:href="#b" x="4.996"/><text y="1.67" class="c">$</text><text x="2.004" y="1.67" class="d">ech</text></svg><svg x="560"><use xlink:href="#a"/><use xlink:href="#b" x="6.996"/><text y="1.67" class="c">$</text><text x="2.004" y="1.67" class="d">echo</text></svg><svg x="630"><use xlink:href="#a"/><use xlink:href="#b" x="8.996"/><text y="1.67" class="c">$</text><text x="2.004" y="1.67" class="d">echo</text><text x="7.014" y="1.67" class="d">&apos;p</text></svg><svg x="700"><use xlink:href="#a"/><use xlink:href="#b" x="10.996"/><text y="1.67" class="c">$</text><text x="2.004" y="1.67" class="d">echo</text><text x="7.014" y="1.67" class="d">&apos;pri</text></svg><svg x="770"><use xlink:href="#a"/><use xlink:href="#b" x="12.996"/><text y="1.67" class="c">$</text><text x="2.004" y="1.67" class="d">echo</text><text x="7.014" y="1.67" class="d">&apos;print</text></svg><svg x="840"><use xlink:href="#a"/><use xlink:href="#b" x="14.996"/><text y="1.67" class="c">$</text><text x="2.004" y="1.67" class="d">echo</text><text x="7.014" y="1.67" class="d">&apos;println</text></svg><svg x="910"><use xlink:href="#a"/><use xlink:href="#b" x="16.996"/><text y="1.67" class="c">$</text><text x="2.004" y="1.67" class="d">echo</text><text x="7.014" y="1.67" class="d">&apos;println(&quot;</text></svg><svg x="980"><use xlink:href="#a"/><use xlink:href="#b" x="18.996"/><text y="1.67" class="c">$</text><text x="2.004" y="1.67" class="d">echo</text><text x="7.014" y="1.67" class="d">&apos;println(&quot;TO</text></svg><svg x="1050"><use xlink:href="#a"/><use xlink:href="#b" x="20.996"/><text y="1.67" class="c">$</text><text x="2.004" y="1.67" class="d">echo</text><text x="7.014" y="1.67" class="d">&apos;println(&quot;TODO</text></svg><svg x="1120"><use xlink:href="#a"/><use xlink:href="#b" x="22.996"/><text y="1.67" class="c">$</text><text x="2.004" y="1.67" class="d">echo</text><text x="7.014" y="1.67" class="d">&apos;println(&quot;TODO:</text></svg><svg x="1190"><use xlink:href="#a"/><use xlink:href="#b" x="24.996"/><text y="1.67" class="c">$</text><text x="2.004" y="1.67" class="d">echo</text><text x="7.014" y="1.67" class="d">&apos;println(&quot;TODO:</text><text x="23.046" y="1.67" class="d">tu</text></svg><svg x="1260"><use xlink:href="#a"/><use xlink:href="#b" x="26.996"/><text y="1.67" class="c">$</text><text x="2.004" y="1.67" class="d">echo</text><text x="7.014" y="1.67" class="d">&apos;println(&quot;TODO:</text><text x="23.046" y="1.67" class="d">turn</text></svg><svg x="1330"><use xlink:href="#a"/><use xlink:href="#b" x="28.996"/><text y="1.67" class="c">$</text><text x="2.004" y="1.67" class="d">echo</text><text x="7.014" y="1.67" class="d">&apos;println(&quot;TODO:</text><text x="23.046" y="1.67" class="d">turn</text><text x="28.056" y="1.67" class="d">g</text></svg><svg x="1400"><use xlink:href="#a"/><use xlink:href="#b" x="30.996"/><text y="1.67" class="c">$</text><text x="2.004" y="1.67" class="d">echo</text><text x="7.014" y="1.67" class="d">&apos;println(&quot;TODO:</text><text x="23.046" y="1.67" class="d">turn</text><text x="28.056" y="1.67" class="d">gif</text></svg><svg x="1470"><use xlink:href="#a"/><use xlink:href="#b" x="32.996"/><text y="1.67" class="c">$</text><text x="2.004" y="1.67" class="d">echo</text><text x="7.014" y="1.67" class="d">&apos;println(&quot;TODO:</text><text x="23.046" y="1.67" class="d">turn</text><text x="28.056" y="1.67" class="d">gifs/</text></svg><svg x="1540"><use xlink:href="#a"/><use xlink:href="#b" x="34.996"/><text y="1.67" class="c">$</text><text x="2.004" y="1.67" class="d">echo</text><text x="7.014" y="1.67" class="d">&apos;println(&quot;TODO:</text><text x="23.046" y="1.67" class="d">turn</text><text x="28.056" y="1.67" class="d">gifs/sc</text></svg><svg x="1610"><use xlink:href="#a"/><use xlink:href="#b" x="36.996"/><text y="1.67" class="c">$</text><text x="2.004" y="1.67" class="d">echo</text><text x="7.014" y="1.67" class="d">&apos;println(&quot;TODO:</text><text x="23.046" y="1.67" class="d">turn</text><text x="28.056" y="1.67" class="d">gifs/scen</text></svg><svg x="1680"><use xlink:href="#a"/><use xlink:href="#b" x="38.996"/><text y="1.67" class="c">$</text><text x="2.004" y="1.67" class="d">echo</text><text x="7.014" y="1.67" class="d">&apos;println(&quot;TODO:</text><text x="23.046" y="1.67" class="d">turn</text><text x="28.056" y="1.67" class="d">gifs/scenar</text></svg><svg x="1750"><use xlink:href="#a"/><use xlink:href="#b" x="40.996"/><text y="1.67" class="c">$</text><text x="2.004" y="1.67" class="d">echo</text><text x="7.014" y="1.67" class="d">&apos;println(&quot;TODO:</text><text x="23.046" y="1.67" class="d">turn</text><text x="28.056" y="1.67" class="d">gifs/scenario</text></svg><svg x="1820"><use xlink:href="#a"/><use xlink:href="#b" x="42.996"/><text y="1.67" class="c">$</text><text x="2.004" y="1.67" class="d">echo</text><text x="7.014" y="1.67" class="d">&apos;println(&quot;TODO:</text><text x="23.046" y="1.67" class="d">turn</text><text x="28.056" y="1.67" class="d">gifs/scenarios/</text></svg><svg x="1890"><use xlink:href="#a"/><use xlink:href="#b" x="44.996"/><text y="1.67" class="c">$</text><text x="2.004" y="1.67" class="d">echo</text><text x="7.014" y="1.67" class="d">&apos;println(&quot;TODO:</text><text x="23.046" y="1.67" class="d">turn</text><text x="28.056" y="1.67" class="d">gifs/scenarios/se</text></svg><svg x="1960"><use xlink:href="#a"/><use xlink:href="#b" x="46.996"/><text y="1.67" class="c">$</text><text x="2.004" y="1.67" class="d">echo</text><text x="7.014" y="1.67" class="d">&apos;println(&quot;TODO:</text><text x="23.046" y="1.67" class="d">turn</text><text x="28.056" y="1.67" class="d">gifs/scenarios/self</text></svg><svg x="2030"><use xlink:href="#a"/><use xlink:href="#b" x="48.996"/><text y="1.67" class="c">$</text><text x="2.004" y="1.67" class="d">echo</text><text x="7.014" y="1.67" class="d">&apos;println(&quot;TODO:</text><text x="23.046" y="1.67" class="d">turn</text><text x="28.056" y="1.67" class="d">gifs/scenarios/self-c</text></svg><svg x="2100"><use xlink:href="#a"/><use xlink:href="#b" x="50.996"/><text y="1.67" class="c">$</text><text x="2.004" y="1.67" class="d">echo</text><text x="7.014" y="1.67" class="d">&apos;println(&quot;TODO:</text><text x="23.046" y="1.67" class="d">turn</text><text x="28.056" y="1.67" class="d">gifs/scenarios/self-con</text></svg><svg x="2170"><use xlink:href="#a"/><use xlink:href="#b" x="52.996"/><text y="1.67" class="c">$</text><text x="2.004" y="1.67" class="d">echo</text><text x="7.014" y="1.67" class="d">&apos;println(&quot;TODO:</text><text x="23.046" y="1.67" class="d">turn</text><text x="28.056" y="1.67" class="d">gifs/scenarios/self-conta</text></svg><svg x="2240"><use xlink:href="#a"/><use xlink:href="#b" x="54.996"/><text y="1.67" class="c">$</text><text x="2.004" y="1.67" class="d">echo</text><text x="7.014" y="1.67" class="d">&apos;println(&quot;TODO:</text><text x="23.046" y="1.67" class="d">turn</text><text x="28.056" y="1.67" class="d">gifs/scenarios/self-contain</text></svg><svg x="2310"><use xlink:href="#a"/><use xlink:href="#b" x="56.996"/><text y="1.67" class="c">$</text><text x="2.004" y="1.67" class="d">echo</text><text x="7.014" y="1.67" class="d">&apos;println(&quot;TODO:</text><text x="23.046" y="1.67" class="d">turn</text><text x="28.056" y="1.67" class="d">gifs/scenarios/self-contained</text></svg><svg x="2380"><use xlink:href="#a"/><use xlink:href="#b" x="58.996"/><text y="1.67" class="c">$</text><text x="2.004" y="1.67" class="d">echo</text><text x="7.014" y="1.67" class="d">&apos;println(&quot;TODO:</text><text x="23.046" y="1.67" class="d">turn</text><text x="28.056" y="1.67" class="d">gifs/scenarios/self-contained-e</text></svg><svg x="2450"><use xlink:href="#a"/><use xlink:href="#b" x="60.996"/><text y="1.67" class="c">$</text><text x="2.004" y="1.67" class="d">echo</text><text x="7.014" y="1.67" class="d">&apos;println(&quot;TODO:</text><text x="23.046" y="1.67" class="d">turn</text><text x="28.056" y="1.67" class="d">gifs/scenarios/self-contained-exa</text></svg><svg x="2520"><use xlink:href="#a"/><use xlink:href="#b" x="62.996"/><text y="1.67" class="c">$</text><text x="2.004" y="1.67" class="d">echo</text><text x="7.014" y="1.67" class="d">&apos;println(&quot;TODO:</text><text x="23.046" y="1.67" class="d">turn</text><text x="28.056" y="1.67" class="d">gifs/scenarios/self-contained-examp</text></svg><svg x="2590"><use xlink:href="#a"/><use xlink:href="#b" x="64.996"/><text y="1.67" class="c">$</text><text x="2.004" y="1.67" class="d">echo</text><text x="7.014" y="1.67" class="d">&apos;println(&quot;TODO:</text><text x="23.046" y="1.67" class="d">turn</text><text x="28.056" y="1.67" class="d">gifs/scenarios/self-contained-example</text></svg><svg x="2660"><use xlink:href="#a"/><use xlink:href="#b" x="66.996"/><text y="1.67" class="c">$</text><text x="2.004" y="1.67" class="d">echo</text><text x="7.014" y="1.67" class="d">&apos;println(&quot;TODO:</text><text x="23.046" y="1.67" class="d">turn</text><text x="28.056" y="1.67" class="d">gifs/scenarios/self-contained-examples.</text></svg><svg x="2730"><use xlink:href="#a"/><use xlink:href="#b" x="68.996"/><use xlink:href="#2"/></svg><svg x="2800"><use xlink:href="#a"/><use xlink:href="#b" x=".996" y="2.146"/><use xlink:href="#2"/><text y="3.841" class="d">i</text></svg><svg x="2870"><use xlink:href="#a"/><use xlink:href="#b" x="2.996" y="2.146"/><use xlink:href="#2"/><text y="3.841" class="d">int</text></svg><svg x="2940"><use xlink:href="#a"/><use xlink:href="#b" x="4.996" y="2.146"/><use xlink:href="#2"/><text y="3.841" class="d">into</text></svg><svg x="3010"><use xlink:href="#a"/><use xlink:href="#b" x="6.996" y="2.146"/><use xlink:href="#2"/><text y="3.841" class="d">into</text><text x="5.01" y="3.841" class="d">pr</text></svg><svg x="3080"><use xlink:href="#a"/><use xlink:href="#b" x="8.996" y="2.146"/><use xlink:href="#2"/><text y="3.841" class="d">into</text><text x="5.01" y="3.841" class="d">prop</text></svg><svg x="3150"><use xlink:href="#a"/><use xlink:href="#b" x="10.996" y="2.146"/><use xlink:href="#2"/><text y="3.841" class="d">into</text><text x="5.01" y="3.841" class="d">proper</text></svg><svg x="3220"><use xlink:href="#a"/><use xlink:href="#b" x="12.996" y="2.146"/><use xlink:href="#2"/><text y="3.841" class="d">into</text><text x="5.01" y="3.841" class="d">proper</text><text x="12.024" y="3.841" class="d">s</text></svg><svg x="3290"><use xlink:href="#a"/><use xlink:href="#b" x="14.996" y="2.146"/><use xlink:href="#2"/><text y="3.841" class="d">into</text><text x="5.01" y="3.841" class="d">proper</text><text x="12.024" y="3.841" class="d">sce</text></svg><svg x="3360"><use xlink:href="#a"/><use xlink:href="#b" x="16.996" y="2.146"/><use xlink:href="#2"/><text y="3.841" class="d">into</text><text x="5.01" y="3.841" class="d">proper</text><text x="12.024" y="3.841" class="d">scena</text></svg><svg x="3430"><use xlink:href="#a"/><use xlink:href="#b" x="18.996" y="2.146"/><use xlink:href="#2"/><text y="3.841" class="d">into</text><text x="5.01" y="3.841" class="d">proper</text><text x="12.024" y="3.841" class="d">scenari</text></svg><svg x="3500"><use xlink:href="#a"/><use xlink:href="#b" x="20.996" y="2.146"/><use xlink:href="#2"/><text y="3.841" class="d">into</text><text x="5.01" y="3.841" class="d">proper</text><text x="12.024" y="3.841" class="d">scenario</text></svg><svg x="3570"><use xlink:href="#a"/><use xlink:href="#b" x="22.996" y="2.146"/><use xlink:href="#2"/><text y="3.841" class="d">into</text><text x="5.01" y="3.841" class="d">proper</text><text x="12.024" y="3.841" class="d">scenario</text><text x="21.042" y="3.841" class="d">sh</text></svg><svg x="3640"><use xlink:href="#a"/><use xlink:href="#b" x="24.996" y="2.146"/><use xlink:href="#2"/><text y="3.841" class="d">into</text><text x="5.01" y="3.841" class="d">proper</text><text x="12.024" y="3.841" class="d">scenario</text><text x="21.042" y="3.841" class="d">show</text></svg><svg x="3710"><use xlink:href="#a"/><use xlink:href="#b" x="26.996" y="2.146"/><use xlink:href="#2"/><text y="3.841" class="d">into</text><text x="5.01" y="3.841" class="d">proper</text><text x="12.024" y="3.841" class="d">scenario</text><text x="21.042" y="3.841" class="d">showin</text></svg><svg x="3780"><use xlink:href="#a"/><use xlink:href="#b" x="28.996" y="2.146"/><use xlink:href="#2"/><text y="3.841" class="d">into</text><text x="5.01" y="3.841" class="d">proper</text><text x="12.024" y="3.841" class="d">scenario</text><text x="21.042" y="3.841" class="d">showing</text></svg><svg x="3850"><use xlink:href="#a"/><use xlink:href="#b" x="30.996" y="2.146"/><use xlink:href="#2"/><text y="3.841" class="d">into</text><text x="5.01" y="3.841" class="d">proper</text><text x="12.024" y="3.841" class="d">scenario</text><text x="21.042" y="3.841" class="d">showing</text><text x="29.058" y="3.841" class="d">Se</text></svg><svg x="3920"><use xlink:href="#a"/><use xlink:href="#b" x="32.996" y="2.146"/><use xlink:href="#2"/><text y="3.841" class="d">into</text><text x="5.01" y="3.841" class="d">proper</text><text x="12.024" y="3.841" class="d">scenario</text><text x="21.042" y="3.841" class="d">showing</text><text x="29.058" y="3.841" class="d">Self</text></svg><svg x="3990"><use xlink:href="#a"/><use xlink:href="#b" x="34.996" y="2.146"/><use xlink:href="#2"/><text y="3.841" class="d">into</text><text x="5.01" y="3.841" class="d">proper</text><text x="12.024" y="3.841" class="d">scenario</text><text x="21.042" y="3.841" class="d">showing</text><text x="29.058" y="3.841" class="d">Self-c</text></svg><svg x="4060"><use xlink:href="#a"/><use xlink:href="#b" x="36.996" y="2.146"/><use xlink:href="#2"/><text y="3.841" class="d">into</text><text x="5.01" y="3.841" class="d">proper</text><text x="12.024" y="3.841" class="d">scenario</text><text x="21.042" y="3.841" class="d">showing</text><text x="29.058" y="3.841" class="d">Self-con</text></svg><svg x="4130"><use xlink:href="#a"/><use xlink:href="#b" x="38.996" y="2.146"/><use xlink:href="#2"/><text y="3.841" class="d">into</text><text x="5.01" y="3.841" class="d">proper</text><text x="12.024" y="3.841" class="d">scenario</text><text x="21.042" y="3.841" class="d">showing</text><text x="29.058" y="3.841" class="d">Self-conta</text></svg><svg x="4200"><use xlink:href="#a"/><use xlink:href="#b" x="40.996" y="2.146"/><use xlink:href="#2"/><text y="3.841" class="d">into</text><text x="5.01" y="3.841" class="d">proper</text><text x="12.024" y="3.841" class="d">scenario</text><text x="21.042" y="3.841" class="d">showing</text><text x="29.058" y="3.841" class="d">Self-contain</text></svg><svg x="4270"><use xlink:href="#a"/><use xlink:href="#b" x="42.996" y="2.146"/><use xlink:href="#2"/><text y="3.841" class="d">into</text><text x="5.01" y="3.841" class="d">proper</text><text x="12.024" y="3.841" class="d">scenario</text><text x="21.042" y="3.841" class="d">showing</text><text x="29.058" y="3.841" class="d">Self-contained</text></svg><svg x="4340"><use xlink:href="#a"/><use xlink:href="#b" x="44.996" y="2.146"/><use xlink:href="#2"/><text y="3.841" class="d">into</text><text x="5.01" y="3.841" class="d">proper</text><text x="12.024" y="3.841" class="d">scenario</text><text x="21.042" y="3.841" class="d">showing</text><text x="29.058" y="3.841" class="d">Self-contained</text><text x="44.088" y="3.841" class="d">e</text></svg><svg x="4410"><use xlink:href="#a"/><use xlink:href="#b" x="46.996" y="2.146"/><use xlink:href="#2"/><text y="3.841" class="d">into</text><text x="5.01" y="3.841" class="d">proper</text><text x="12.024" y="3.841" class="d">scenario</text><text x="21.042" y="3.841" class="d">showing</text><text x="29.058" y="3.841" class="d">Self-contained</text><text x="44.088" y="3.841" class="d">exa</text></svg><svg x="4480"><use xlink:href="#a"/><use xlink:href="#b" x="48.996" y="2.146"/><use xlink:href="#2"/><text y="3.841" class="d">into</text><text x="5.01" y="3.841" class="d">proper</text><text x="12.024" y="3.841" class="d">scenario</text><text x="21.042" y="3.841" class="d">showing</text><text x="29.058" y="3.841" class="d">Self-contained</text><text x="44.088" y="3.841" class="d">examp</text></svg><svg x="4550"><use xlink:href="#a"/><use xlink:href="#b" x="50.996" y="2.146"/><use xlink:href="#2"/><text y="3.841" class="d">into</text><text x="5.01" y="3.841" class="d">proper</text><text x="12.024" y="3.841" class="d">scenario</text><text x="21.042" y="3.841" class="d">showing</text><text x="29.058" y="3.841" class="d">Self-contained</text><text x="44.088" y="3.841" class="d">example</text></svg><svg x="4620"><use xlink:href="#a"/><use xlink:href="#b" x="52.996" y="2.146"/><use xlink:href="#2"/><text y="3.841" class="d">into</text><text x="5.01" y="3.841" class="d">proper</text><text x="12.024" y="3.841" class="d">scenario</text><text x="21.042" y="3.841" class="d">showing</text><text x="29.058" y="3.841" class="d">Self-contained</text><text x="44.088" y="3.841" class="d">examples&quot;</text></svg><svg x="4690"><use xlink:href="#a"/><use xlink:href="#b" x="54.996" y="2.146"/><use xlink:href="#2"/><text y="3.841" class="d">into</text><text x="5.01" y="3.841" class="d">proper</text><text x="12.024" y="3.841" class="d">scenario</text><text x="21.042" y="3.841" class="d">showing</text><text x="29.058" y="3.841" class="d">Self-contained</text><text x="44.088" y="3.841" class="d">examples&quot;)&apos;</text></svg><svg x="4760"><use xlink:href="#a"/><use xlink:href="#b" x="56.996" y="2.146"/><use xlink:href="#2"/><text y="3.841" class="d">into</text><text x="5.01" y="3.841" class="d">proper</text><text x="12.024" y="3.841" class="d">scenario</text><text x="21.042" y="3.841" class="d">showing</text><text x="29.058" y="3.841" class="d">Self-contained</text><text x="44.088" y="3.841" class="d">examples&quot;)&apos;</text><text x="56.112" y="3.841" class="d">|</text></svg><svg x="4830"><use xlink:href="#a"/><use xlink:href="#b" x="58.996" y="2.146"/><use xlink:href="#2"/><text y="3.841" class="d">into</text><text x="5.01" y="3.841" class="d">proper</text><text x="12.024" y="3.841" class="d">scenario</text><text x="21.042" y="3.841" class="d">showing</text><text x="29.058" y="3.841" class="d">Self-contained</text><text x="44.088" y="3.841" class="d">examples&quot;)&apos;</text><text x="56.112" y="3.841" class="d">|</text><text x="58.116" y="3.841" class="d">s</text></svg><svg x="4900"><use xlink:href="#a"/><use xlink:href="#b" x="60.996" y="2.146"/><use xlink:href="#2"/><text y="3.841" class="d">into</text><text x="5.01" y="3.841" class="d">proper</text><text x="12.024" y="3.841" class="d">scenario</text><text x="21.042" y="3.841" class="d">showing</text><text x="29.058" y="3.841" class="d">Self-contained</text><text x="44.088" y="3.841" class="d">examples&quot;)&apos;</text><text x="56.112" y="3.841" class="d">|</text><text x="58.116" y="3.841" class="d">sca</text></svg><svg x="4970"><use xlink:href="#a"/><use xlink:href="#b" x="62.996" y="2.146"/><use xlink:href="#2"/><text y="3.841" class="d">into</text><text x="5.01" y="3.841" class="d">proper</text><text x="12.024" y="3.841" class="d">scenario</text><text x="21.042" y="3.841" class="d">showing</text><text x="29.058" y="3.841" class="d">Self-contained</text><text x="44.088" y="3.841" class="d">examples&quot;)&apos;</text><text x="56.112" y="3.841" class="d">|</text><text x="58.116" y="3.841" class="d">scala</text></svg><svg x="5040"><use xlink:href="#a"/><use xlink:href="#b" x="64.996" y="2.146"/><use xlink:href="#2"/><text y="3.841" class="d">into</text><text x="5.01" y="3.841" class="d">proper</text><text x="12.024" y="3.841" class="d">scenario</text><text x="21.042" y="3.841" class="d">showing</text><text x="29.058" y="3.841" class="d">Self-contained</text><text x="44.088" y="3.841" class="d">examples&quot;)&apos;</text><text x="56.112" y="3.841" class="d">|</text><text x="58.116" y="3.841" class="d">scala-c</text></svg><svg x="5110"><use xlink:href="#a"/><use xlink:href="#b" x="66.996" y="2.146"/><use xlink:href="#2"/><text y="3.841" class="d">into</text><text x="5.01" y="3.841" class="d">proper</text><text x="12.024" y="3.841" class="d">scenario</text><text x="21.042" y="3.841" class="d">showing</text><text x="29.058" y="3.841" class="d">Self-contained</text><text x="44.088" y="3.841" class="d">examples&quot;)&apos;</text><text x="56.112" y="3.841" class="d">|</text><text x="58.116" y="3.841" class="d">scala-cli</text></svg><svg x="5180"><use xlink:href="#a"/><use xlink:href="#b" x="68.996" y="2.146"/><use xlink:href="#2"/><use xlink:href="#3" y="2.171"/></svg><svg x="5250"><use xlink:href="#a"/><use xlink:href="#b" x="68.996" y="2.146"/><use xlink:href="#2"/><use xlink:href="#3" y="2.171"/></svg><svg x="5320"><use xlink:href="#a"/><use xlink:href="#b" x="68.996" y="2.146"/><use xlink:href="#2"/><use xlink:href="#3" y="2.171"/></svg><svg x="5390"><use xlink:href="#a"/><use xlink:href="#b" x="-.004" y="4.317"/><use xlink:href="#2"/><use xlink:href="#3" y="2.171"/></svg><svg x="5460"><use xlink:href="#a"/><use xlink:href="#b" x="-.004" y="6.488"/><use xlink:href="#2"/><use xlink:href="#3" y="2.171"/><use xlink:href="#4" y="4.342"/></svg><svg x="5530"><use xlink:href="#a"/><use xlink:href="#b" x="-.004" y="8.659"/><use xlink:href="#2"/><use xlink:href="#3" y="2.171"/><use xlink:href="#4" y="4.342"/><use xlink:href="#5" y="6.513"/></svg><svg x="5600"><use xlink:href="#a"/><use xlink:href="#b" x="-.004" y="13.001"/><use xlink:href="#2"/><use xlink:href="#3" y="2.171"/><use xlink:href="#4" y="4.342"/><use xlink:href="#5" y="6.513"/><use xlink:href="#6" y="8.684"/><use xlink:href="#7" y="10.855"/></svg><svg x="5670"><use xlink:href="#a"/><use xlink:href="#b" x="-.004" y="15.172"/><use xlink:href="#2"/><use xlink:href="#3" y="2.171"/><use xlink:href="#4" y="4.342"/><use xlink:href="#5" y="6.513"/><use xlink:href="#6" y="8.684"/><use xlink:href="#7" y="10.855"/></svg></svg></g></g></svg></svg>