<svg xmlns="http://www.w3.org/2000/svg" xmlns:xlink="http://www.w3.org/1999/xlink" width="700" height="434.2"><rect width="700" height="434.2" rx="0" ry="0" class="a"/><svg height="434.2" viewBox="0 0 70 43.42" width="700" xmlns="http://www.w3.org/2000/svg" xmlns:xlink="http://www.w3.org/1999/xlink"><style>@keyframes h{0%{transform:translateX(0)}.1%{transform:translateX(-210px)}1.8%{transform:translateX(-280px)}2.7%{transform:translateX(-350px)}3.6%{transform:translateX(-420px)}4.4%{transform:translateX(-490px)}5.3%{transform:translateX(-560px)}6.1%{transform:translateX(-630px)}7%{transform:translateX(-700px)}7.9%{transform:translateX(-770px)}8.7%{transform:translateX(-840px)}10.5%{transform:translateX(-910px)}11.3%{transform:translateX(-980px)}12.2%{transform:translateX(-1120px)}12.3%{transform:translateX(-1190px)}12.4%{transform:translateX(-1330px)}14.1%{transform:translateX(-1400px)}15%{transform:translateX(-1470px)}15.9%{transform:translateX(-1540px)}16.7%{transform:translateX(-1610px)}17.6%{transform:translateX(-1680px)}18.4%{transform:translateX(-1750px)}19.3%{transform:translateX(-1820px)}20.2%{transform:translateX(-1890px)}21%{transform:translateX(-1960px)}22.8%{transform:translateX(-2030px)}23.6%{transform:translateX(-2100px)}24.5%{transform:translateX(-2170px)}25.3%{transform:translateX(-2240px)}26.2%{transform:translateX(-2310px)}27.1%{transform:translateX(-2380px)}27.9%{transform:translateX(-2450px)}28.8%{transform:translateX(-2520px)}29.6%{transform:translateX(-2590px)}31.4%{transform:translateX(-2660px)}32.2%{transform:translateX(-2730px)}33.1%{transform:translateX(-2800px)}34%{transform:translateX(-2870px)}34.8%{transform:translateX(-2940px)}35.7%{transform:translateX(-3010px)}36.5%{transform:translateX(-3080px)}37.4%{transform:translateX(-3220px)}62.7%{transform:translateX(-3290px)}95.5%{transform:translateX(-3360px)}to{transform:translateX(-3430px)}}.a{fill:#262626}.c{fill:#ffcb83}.c,.d,.e{white-space:pre}.d{fill:#ffc88a;font-weight:700}.e{fill:#6a4f2a}</style><g font-family="Monaco,Consolas,Menlo,'Bitstream Vera Sans Mono','Powerline Symbols',monospace" font-size="1.67"><defs><symbol id="1"><text y="1.67" class="c">$</text></symbol><symbol id="2"><text y="1.67" class="c">$</text><text x="2.004" y="1.67" class="d">scala-cli</text><text x="12.024" y="1.67" class="d">about</text></symbol><symbol id="3"><text y="1.67" class="c">Scala</text><text x="6.012" y="1.67" class="c">CLI</text><text x="10.02" y="1.67" class="c">version</text><text x="18.036" y="1.67" class="c">0.0.4+34-gef816b3-SNAPSHOT</text><text x="45.09" y="1.67" class="c">(v0.0.4-34-ef816b)</text></symbol><symbol id="4"><text y="1.67" class="c">$</text><text x="2.004" y="1.67" class="d">echo</text><text x="7.014" y="1.67" class="d">&apos;println(&quot;TODO&quot;)&apos;</text><text x="25.05" y="1.67" class="d">|</text><text x="27.054" y="1.67" class="d">scala-cli</text><text x="37.074" y="1.67" class="d">-</text></symbol><symbol id="5"><text y="1.67" class="e">Compiling</text><text x="10.02" y="1.67" class="e">project</text><text x="18.036" y="1.67" class="e">(Scala</text><text x="25.05" y="1.67" class="e">3.0.2,</text><text x="32.064" y="1.67" class="e">JVM)</text></symbol><symbol id="6"><text y="1.67" class="e">Compiled</text><text x="9.018" y="1.67" class="e">project</text><text x="17.034" y="1.67" class="e">(Scala</text><text x="24.048" y="1.67" class="e">3.0.2,</text><text x="31.062" y="1.67" class="e">JVM)</text></symbol><symbol id="a"><path fill="transparent" d="M0 0h70v21H0z"/></symbol><symbol id="b"><path fill="#fc531d" d="M0 0h1.102v2.171H0z"/></symbol></defs><path class="a" d="M0 0h70v43.42H0z"/><g style="animation-duration:10.460131s;animation-iteration-count:infinite;animation-name:h;animation-timing-function:steps(1,end)"><svg width="3500"><svg><use xlink:href="#a"/><use xlink:href="#b" x="-.004"/></svg><svg x="70"><use xlink:href="#a"/><use xlink:href="#b" x="-.004"/></svg><svg x="140"><use xlink:href="#a"/><use xlink:href="#b" x="1.996"/><use xlink:href="#1"/></svg><svg x="210"><use xlink:href="#a"/><use xlink:href="#b" x="1.996"/><use xlink:href="#1"/></svg><svg x="280"><use xlink:href="#a"/><use xlink:href="#b" x="1.996"/><use xlink:href="#1"/></svg><svg x="350"><use xlink:href="#a"/><use xlink:href="#b" x="1.996"/><use xlink:href="#1"/></svg><svg x="420"><use xlink:href="#a"/><use xlink:href="#b" x="2.996"/><text y="1.67" class="c">$</text><text x="2.004" y="1.67" class="d">s</text></svg><svg x="490"><use xlink:href="#a"/><use xlink:href="#b" x="4.996"/><text y="1.67" class="c">$</text><text x="2.004" y="1.67" class="d">sca</text></svg><svg x="560"><use xlink:href="#a"/><use xlink:href="#b" x="6.996"/><text y="1.67" class="c">$</text><text x="2.004" y="1.67" class="d">scala</text></svg><svg x="630"><use xlink:href="#a"/><use xlink:href="#b" x="8.996"/><text y="1.67" class="c">$</text><text x="2.004" y="1.67" class="d">scala-c</text></svg><svg x="700"><use xlink:href="#a"/><use xlink:href="#b" x="10.996"/><text y="1.67" class="c">$</text><text x="2.004" y="1.67" class="d">scala-cli</text></svg><svg x="770"><use xlink:href="#a"/><use xlink:href="#b" x="12.996"/><text y="1.67" class="c">$</text><text x="2.004" y="1.67" class="d">scala-cli</text><text x="12.024" y="1.67" class="d">a</text></svg><svg x="840"><use xlink:href="#a"/><use xlink:href="#b" x="14.996"/><text y="1.67" class="c">$</text><text x="2.004" y="1.67" class="d">scala-cli</text><text x="12.024" y="1.67" class="d">abo</text></svg><svg x="910"><use xlink:href="#a"/><use xlink:href="#b" x="16.996"/><use xlink:href="#2"/></svg><svg x="980"><use xlink:href="#a"/><use xlink:href="#b" x="16.996"/><use xlink:href="#2"/></svg><svg x="1050"><use xlink:href="#a"/><use xlink:href="#b" x="16.996"/><use xlink:href="#2"/></svg><svg x="1120"><use xlink:href="#a"/><use xlink:href="#b" x="-.004" y="2.146"/><use xlink:href="#2"/></svg><svg x="1190"><use xlink:href="#a"/><use xlink:href="#b" x="-.004" y="4.317"/><use xlink:href="#2"/><use xlink:href="#3" y="2.171"/></svg><svg x="1260"><use xlink:href="#a"/><use xlink:href="#b" x="1.996" y="4.317"/><use xlink:href="#2"/><use xlink:href="#3" y="2.171"/><use xlink:href="#1" y="4.342"/></svg><svg x="1330"><use xlink:href="#a"/><use xlink:href="#b" x="1.996" y="4.317"/><use xlink:href="#2"/><use xlink:href="#3" y="2.171"/><use xlink:href="#1" y="4.342"/></svg><svg x="1400"><use xlink:href="#a"/><use xlink:href="#b" x="1.996" y="4.317"/><use xlink:href="#2"/><use xlink:href="#3" y="2.171"/><use xlink:href="#1" y="4.342"/></svg><svg x="1470"><use xlink:href="#a"/><use xlink:href="#b" x="1.996" y="4.317"/><use xlink:href="#2"/><use xlink:href="#3" y="2.171"/><use xlink:href="#1" y="4.342"/></svg><svg x="1540"><use xlink:href="#a"/><use xlink:href="#b" x="1.996" y="4.317"/><use xlink:href="#2"/><use xlink:href="#3" y="2.171"/><use xlink:href="#1" y="4.342"/></svg><svg x="1610"><use xlink:href="#a"/><use xlink:href="#b" x="2.996" y="4.317"/><use xlink:href="#2"/><use xlink:href="#3" y="2.171"/><text y="6.012" class="c">$</text><text x="2.004" y="6.012" class="d">e</text></svg><svg x="1680"><use xlink:href="#a"/><use xlink:href="#b" x="4.996" y="4.317"/><use xlink:href="#2"/><use xlink:href="#3" y="2.171"/><text y="6.012" class="c">$</text><text x="2.004" y="6.012" class="d">ech</text></svg><svg x="1750"><use xlink:href="#a"/><use xlink:href="#b" x="6.996" y="4.317"/><use xlink:href="#2"/><use xlink:href="#3" y="2.171"/><text y="6.012" class="c">$</text><text x="2.004" y="6.012" class="d">echo</text></svg><svg x="1820"><use xlink:href="#a"/><use xlink:href="#b" x="8.996" y="4.317"/><use xlink:href="#2"/><use xlink:href="#3" y="2.171"/><text y="6.012" class="c">$</text><text x="2.004" y="6.012" class="d">echo</text><text x="7.014" y="6.012" class="d">&apos;p</text></svg><svg x="1890"><use xlink:href="#a"/><use xlink:href="#b" x="10.996" y="4.317"/><use xlink:href="#2"/><use xlink:href="#3" y="2.171"/><text y="6.012" class="c">$</text><text x="2.004" y="6.012" class="d">echo</text><text x="7.014" y="6.012" class="d">&apos;pri</text></svg><svg x="1960"><use xlink:href="#a"/><use xlink:href="#b" x="11.996" y="4.317"/><use xlink:href="#2"/><use xlink:href="#3" y="2.171"/><text y="6.012" class="c">$</text><text x="2.004" y="6.012" class="d">echo</text><text x="7.014" y="6.012" class="d">&apos;prin</text></svg><svg x="2030"><use xlink:href="#a"/><use xlink:href="#b" x="13.996" y="4.317"/><use xlink:href="#2"/><use xlink:href="#3" y="2.171"/><text y="6.012" class="c">$</text><text x="2.004" y="6.012" class="d">echo</text><text x="7.014" y="6.012" class="d">&apos;printl</text></svg><svg x="2100"><use xlink:href="#a"/><use xlink:href="#b" x="15.996" y="4.317"/><use xlink:href="#2"/><use xlink:href="#3" y="2.171"/><text y="6.012" class="c">$</text><text x="2.004" y="6.012" class="d">echo</text><text x="7.014" y="6.012" class="d">&apos;println(</text></svg><svg x="2170"><use xlink:href="#a"/><use xlink:href="#b" x="17.996" y="4.317"/><use xlink:href="#2"/><use xlink:href="#3" y="2.171"/><text y="6.012" class="c">$</text><text x="2.004" y="6.012" class="d">echo</text><text x="7.014" y="6.012" class="d">&apos;println(&quot;T</text></svg><svg x="2240"><use xlink:href="#a"/><use xlink:href="#b" x="19.996" y="4.317"/><use xlink:href="#2"/><use xlink:href="#3" y="2.171"/><text y="6.012" class="c">$</text><text x="2.004" y="6.012" class="d">echo</text><text x="7.014" y="6.012" class="d">&apos;println(&quot;TOD</text></svg><svg x="2310"><use xlink:href="#a"/><use xlink:href="#b" x="20.996" y="4.317"/><use xlink:href="#2"/><use xlink:href="#3" y="2.171"/><text y="6.012" class="c">$</text><text x="2.004" y="6.012" class="d">echo</text><text x="7.014" y="6.012" class="d">&apos;println(&quot;TODO</text></svg><svg x="2380"><use xlink:href="#a"/><use xlink:href="#b" x="22.996" y="4.317"/><use xlink:href="#2"/><use xlink:href="#3" y="2.171"/><text y="6.012" class="c">$</text><text x="2.004" y="6.012" class="d">echo</text><text x="7.014" y="6.012" class="d">&apos;println(&quot;TODO&quot;)</text></svg><svg x="2450"><use xlink:href="#a"/><use xlink:href="#b" x="24.996" y="4.317"/><use xlink:href="#2"/><use xlink:href="#3" y="2.171"/><text y="6.012" class="c">$</text><text x="2.004" y="6.012" class="d">echo</text><text x="7.014" y="6.012" class="d">&apos;println(&quot;TODO&quot;)&apos;</text></svg><svg x="2520"><use xlink:href="#a"/><use xlink:href="#b" x="26.996" y="4.317"/><use xlink:href="#2"/><use xlink:href="#3" y="2.171"/><text y="6.012" class="c">$</text><text x="2.004" y="6.012" class="d">echo</text><text x="7.014" y="6.012" class="d">&apos;println(&quot;TODO&quot;)&apos;</text><text x="25.05" y="6.012" class="d">|</text></svg><svg x="2590"><use xlink:href="#a"/><use xlink:href="#b" x="28.996" y="4.317"/><use xlink:href="#2"/><use xlink:href="#3" y="2.171"/><text y="6.012" class="c">$</text><text x="2.004" y="6.012" class="d">echo</text><text x="7.014" y="6.012" class="d">&apos;println(&quot;TODO&quot;)&apos;</text><text x="25.05" y="6.012" class="d">|</text><text x="27.054" y="6.012" class="d">sc</text></svg><svg x="2660"><use xlink:href="#a"/><use xlink:href="#b" x="29.996" y="4.317"/><use xlink:href="#2"/><use xlink:href="#3" y="2.171"/><text y="6.012" class="c">$</text><text x="2.004" y="6.012" class="d">echo</text><text x="7.014" y="6.012" class="d">&apos;println(&quot;TODO&quot;)&apos;</text><text x="25.05" y="6.012" class="d">|</text><text x="27.054" y="6.012" class="d">sca</text></svg><svg x="2730"><use xlink:href="#a"/><use xlink:href="#b" x="31.996" y="4.317"/><use xlink:href="#2"/><use xlink:href="#3" y="2.171"/><text y="6.012" class="c">$</text><text x="2.004" y="6.012" class="d">echo</text><text x="7.014" y="6.012" class="d">&apos;println(&quot;TODO&quot;)&apos;</text><text x="25.05" y="6.012" class="d">|</text><text x="27.054" y="6.012" class="d">scala</text></svg><svg x="2800"><use xlink:href="#a"/><use xlink:href="#b" x="33.996" y="4.317"/><use xlink:href="#2"/><use xlink:href="#3" y="2.171"/><text y="6.012" class="c">$</text><text x="2.004" y="6.012" class="d">echo</text><text x="7.014" y="6.012" class="d">&apos;println(&quot;TODO&quot;)&apos;</text><text x="25.05" y="6.012" class="d">|</text><text x="27.054" y="6.012" class="d">scala-c</text></svg><svg x="2870"><use xlink:href="#a"/><use xlink:href="#b" x="35.996" y="4.317"/><use xlink:href="#2"/><use xlink:href="#3" y="2.171"/><text y="6.012" class="c">$</text><text x="2.004" y="6.012" class="d">echo</text><text x="7.014" y="6.012" class="d">&apos;println(&quot;TODO&quot;)&apos;</text><text x="25.05" y="6.012" class="d">|</text><text x="27.054" y="6.012" class="d">scala-cli</text></svg><svg x="2940"><use xlink:href="#a"/><use xlink:href="#b" x="37.996" y="4.317"/><use xlink:href="#2"/><use xlink:href="#3" y="2.171"/><use xlink:href="#4" y="4.342"/></svg><svg x="3010"><use xlink:href="#a"/><use xlink:href="#b" x="37.996" y="4.317"/><use xlink:href="#2"/><use xlink:href="#3" y="2.171"/><use xlink:href="#4" y="4.342"/></svg><svg x="3080"><use xlink:href="#a"/><use xlink:href="#b" x="37.996" y="4.317"/><use xlink:href="#2"/><use xlink:href="#3" y="2.171"/><use xlink:href="#4" y="4.342"/></svg><svg x="3150"><use xlink:href="#a"/><use xlink:href="#b" x="37.996" y="4.317"/><use xlink:href="#2"/><use xlink:href="#3" y="2.171"/><use xlink:href="#4" y="4.342"/></svg><svg x="3220"><use xlink:href="#a"/><use xlink:href="#b" x="-.004" y="6.488"/><use xlink:href="#2"/><use xlink:href="#3" y="2.171"/><use xlink:href="#4" y="4.342"/></svg><svg x="3290"><use xlink:href="#a"/><use xlink:href="#b" x="-.004" y="8.659"/><use xlink:href="#2"/><use xlink:href="#3" y="2.171"/><use xlink:href="#4" y="4.342"/><use xlink:href="#5" y="6.513"/></svg><svg x="3360"><use xlink:href="#a"/><use xlink:href="#b" x="-.004" y="10.83"/><use xlink:href="#2"/><use xlink:href="#3" y="2.171"/><use xlink:href="#4" y="4.342"/><use xlink:href="#5" y="6.513"/><use xlink:href="#6" y="8.684"/></svg><svg x="3430"><use xlink:href="#a"/><use xlink:href="#b" x="-.004" y="13.001"/><use xlink:href="#2"/><use xlink:href="#3" y="2.171"/><use xlink:href="#4" y="4.342"/><use xlink:href="#5" y="6.513"/><use xlink:href="#6" y="8.684"/><text y="12.525" class="c">TODO</text></svg></svg></g></g></svg></svg>