<svg xmlns="http://www.w3.org/2000/svg" xmlns:xlink="http://www.w3.org/1999/xlink" width="740" height="474.2"><rect width="740" height="474.2" rx="0" ry="0" class="a"/><svg height="434.2" viewBox="0 0 70 43.42" width="700" x="20" xmlns="http://www.w3.org/2000/svg" xmlns:xlink="http://www.w3.org/1999/xlink" y="20"><style>@keyframes l{0%{transform:translateX(-70px)}.1%{transform:translateX(-210px)}1.2%{transform:translateX(-280px)}1.8%{transform:translateX(-350px)}2.4%{transform:translateX(-420px)}3%{transform:translateX(-490px)}3.6%{transform:translateX(-560px)}4.1%{transform:translateX(-630px)}4.7%{transform:translateX(-700px)}5.3%{transform:translateX(-770px)}5.9%{transform:translateX(-840px)}7%{transform:translateX(-910px)}7.6%{transform:translateX(-1050px)}9.2%{transform:translateX(-1750px)}28.7%{transform:translateX(-1890px)}29.9%{transform:translateX(-1960px)}30.4%{transform:translateX(-2030px)}31%{transform:translateX(-2100px)}31.6%{transform:translateX(-2170px)}32.2%{transform:translateX(-2240px)}32.8%{transform:translateX(-2310px)}33.3%{transform:translateX(-2380px)}33.9%{transform:translateX(-2450px)}34.5%{transform:translateX(-2520px)}35.7%{transform:translateX(-2660px)}37.1%{transform:translateX(-2730px)}39%{transform:translateX(-2800px)}41%{transform:translateX(-2870px)}41.1%{transform:translateX(-3080px)}42.3%{transform:translateX(-3150px)}42.9%{transform:translateX(-3220px)}43.5%{transform:translateX(-3290px)}44%{transform:translateX(-3360px)}44.6%{transform:translateX(-3430px)}45.2%{transform:translateX(-3500px)}45.8%{transform:translateX(-3570px)}46.4%{transform:translateX(-3640px)}47%{transform:translateX(-3710px)}48.1%{transform:translateX(-3780px)}48.7%{transform:translateX(-3850px)}49.3%{transform:translateX(-3920px)}49.9%{transform:translateX(-4060px)}50.2%{transform:translateX(-4200px)}51.3%{transform:translateX(-4270px)}51.9%{transform:translateX(-4340px)}52.5%{transform:translateX(-4410px)}53.1%{transform:translateX(-4480px)}53.7%{transform:translateX(-4550px)}54.3%{transform:translateX(-4620px)}54.8%{transform:translateX(-4690px)}55.4%{transform:translateX(-4760px)}56%{transform:translateX(-4830px)}57.2%{transform:translateX(-4900px)}57.7%{transform:translateX(-4970px)}58.3%{transform:translateX(-5040px)}58.9%{transform:translateX(-5180px)}60.5%{transform:translateX(-6370px)}61.7%{transform:translateX(-6440px)}62.3%{transform:translateX(-6510px)}62.9%{transform:translateX(-6580px)}63.5%{transform:translateX(-6650px)}64%{transform:translateX(-6720px)}64.6%{transform:translateX(-6790px)}65.2%{transform:translateX(-6860px)}65.8%{transform:translateX(-6930px)}66.4%{transform:translateX(-7000px)}67.5%{transform:translateX(-7070px)}68.1%{transform:translateX(-7140px)}68.7%{transform:translateX(-7210px)}69.3%{transform:translateX(-7280px)}69.9%{transform:translateX(-7350px)}70.4%{transform:translateX(-7490px)}72%{transform:translateX(-7630px)}73.6%{transform:translateX(-7770px)}74.2%{transform:translateX(-7840px)}to{transform:translateX(-7910px)}}.a{fill:#2c3643}.c,.d,.e,.f{fill:#fff;white-space:pre}.d,.e,.f{fill:#e7e7e7;font-weight:700}.e,.f{fill:#faaf4c}.f{fill:#fff02a}.g{fill:#41ff5b}.g,.h,.i{white-space:pre}.h{fill:#fff0a6;font-weight:700}.i{fill:#6f6b68}</style><g font-family="Monaco,Consolas,Menlo,'Bitstream Vera Sans Mono','Powerline Symbols',monospace" font-size="1.67"><defs><symbol id="1"><text y="1.67" class="c">$</text></symbol><symbol id="2"><text y="1.67" class="c">$</text><text x="2.004" y="1.67" class="d">c</text></symbol><symbol id="3"><text y="1.67" class="c">$</text><text x="2.004" y="1.67" class="d">cat</text></symbol><symbol id="4"><text y="1.67" class="c">$</text><text x="2.004" y="1.67" class="d">cat</text><text x="6.012" y="1.67" class="d">M</text></symbol><symbol id="5"><text y="1.67" class="c">$</text><text x="2.004" y="1.67" class="d">cat</text><text x="6.012" y="1.67" class="d">Mai</text></symbol><symbol id="6"><text y="1.67" class="c">$</text><text x="2.004" y="1.67" class="d">cat</text><text x="6.012" y="1.67" class="d">Main.</text></symbol><symbol id="7"><text y="1.67" class="c">$</text><text x="2.004" y="1.67" class="d">cat</text><text x="6.012" y="1.67" class="d">Main.scala</text></symbol><symbol id="8"><text y="1.67" class="e">@main</text></symbol><symbol id="9"><text y="1.67" class="e">@main</text><text x="6.012" y="1.67" class="f">def</text></symbol><symbol id="10"><text y="1.67" class="e">@main</text><text x="6.012" y="1.67" class="f">def</text><text x="10.02" y="1.67" class="g">hello()</text><text x="18.036" y="1.67" class="f">=</text></symbol><symbol id="11"><text y="1.67" class="e">@main</text><text x="6.012" y="1.67" class="f">def</text><text x="10.02" y="1.67" class="g">hello()</text><text x="18.036" y="1.67" class="f">=</text><text x="20.04" y="1.67" class="g">{println(</text><text x="29.058" y="1.67" class="h">&quot;Hello</text><text x="36.072" y="1.67" class="h">&quot;</text><text x="37.074" y="1.67" class="g">+</text><text x="38.076" y="1.67" class="h">&quot;world&quot;</text></symbol><symbol id="12"><text y="1.67" class="e">@main</text><text x="6.012" y="1.67" class="f">def</text><text x="10.02" y="1.67" class="g">hello()</text><text x="18.036" y="1.67" class="f">=</text><text x="20.04" y="1.67" class="g">{println(</text><text x="29.058" y="1.67" class="h">&quot;Hello</text><text x="36.072" y="1.67" class="h">&quot;</text><text x="37.074" y="1.67" class="g">+</text><text x="38.076" y="1.67" class="h">&quot;world&quot;</text><text x="45.09" y="1.67" class="g">)}</text></symbol><symbol id="13"><text y="1.67" class="c">$</text><text x="2.004" y="1.67" class="d">scala-cli</text></symbol><symbol id="14"><text y="1.67" class="c">$</text><text x="2.004" y="1.67" class="d">scala-cli</text><text x="12.024" y="1.67" class="d">.</text></symbol><symbol id="15"><text y="1.67" class="i">Compiling</text><text x="10.02" y="1.67" class="i">project</text><text x="18.036" y="1.67" class="i">(Scala</text><text x="25.05" y="1.67" class="i">3.0.2,</text><text x="32.064" y="1.67" class="i">JVM)</text></symbol><symbol id="16"><text y="1.67" class="i">Compiled</text><text x="9.018" y="1.67" class="i">project</text><text x="17.034" y="1.67" class="i">(Scala</text><text x="24.048" y="1.67" class="i">3.0.2,</text><text x="31.062" y="1.67" class="i">JVM)</text></symbol><symbol id="17"><text y="1.67" class="c">Hello</text><text x="6.012" y="1.67" class="c">world</text></symbol><symbol id="18"><text y="1.67" class="c">$</text><text x="2.004" y="1.67" class="d">sc</text></symbol><symbol id="19"><text y="1.67" class="c">$</text><text x="2.004" y="1.67" class="d">scal</text></symbol><symbol id="20"><text y="1.67" class="c">$</text><text x="2.004" y="1.67" class="d">scala-</text></symbol><symbol id="21"><text y="1.67" class="c">$</text><text x="2.004" y="1.67" class="d">scala-cl</text></symbol><symbol id="22"><text y="1.67" class="c">$</text><text x="2.004" y="1.67" class="d">scala-cli</text><text x="12.024" y="1.67" class="d">fmt</text><text x="16.032" y="1.67" class="d">.</text></symbol><symbol id="23"><text y="1.67" class="e">@main</text><text x="6.012" y="1.67" class="f">def</text><text x="10.02" y="1.67" class="g">hello()</text><text x="18.036" y="1.67" class="f">=</text><text x="20.04" y="1.67" class="g">{</text><text x="22.044" y="1.67" class="g">println(</text><text x="30.06" y="1.67" class="h">&quot;Hello</text><text x="37.074" y="1.67" class="h">&quot;</text></symbol><symbol id="24"><text y="1.67" class="e">@main</text><text x="6.012" y="1.67" class="f">def</text><text x="10.02" y="1.67" class="g">hello()</text><text x="18.036" y="1.67" class="f">=</text><text x="20.04" y="1.67" class="g">{</text><text x="22.044" y="1.67" class="g">println(</text><text x="30.06" y="1.67" class="h">&quot;Hello</text><text x="37.074" y="1.67" class="h">&quot;</text><text x="39.078" y="1.67" class="g">+</text></symbol><symbol id="25"><text y="1.67" class="e">@main</text><text x="6.012" y="1.67" class="f">def</text><text x="10.02" y="1.67" class="g">hello()</text><text x="18.036" y="1.67" class="f">=</text><text x="20.04" y="1.67" class="g">{</text><text x="22.044" y="1.67" class="g">println(</text><text x="30.06" y="1.67" class="h">&quot;Hello</text><text x="37.074" y="1.67" class="h">&quot;</text><text x="39.078" y="1.67" class="g">+</text><text x="41.082" y="1.67" class="h">&quot;world&quot;</text><text x="48.096" y="1.67" class="g">)</text></symbol><symbol id="26"><text y="1.67" class="e">@main</text><text x="6.012" y="1.67" class="f">def</text><text x="10.02" y="1.67" class="g">hello()</text><text x="18.036" y="1.67" class="f">=</text><text x="20.04" y="1.67" class="g">{</text><text x="22.044" y="1.67" class="g">println(</text><text x="30.06" y="1.67" class="h">&quot;Hello</text><text x="37.074" y="1.67" class="h">&quot;</text><text x="39.078" y="1.67" class="g">+</text><text x="41.082" y="1.67" class="h">&quot;world&quot;</text><text x="48.096" y="1.67" class="g">)</text><text x="50.1" y="1.67" class="g">}</text></symbol><symbol id="27"><text y="1.67" class="c">$</text><text x="2.004" y="1.67" class="d">scala-cli</text><text x="12.024" y="1.67" class="d">package</text><text x="20.04" y="1.67" class="d">.</text></symbol><symbol id="28"><text y="1.67" class="c">Wrote</text><text x="6.012" y="1.67" class="c">app,</text><text x="11.022" y="1.67" class="c">run</text><text x="15.03" y="1.67" class="c">it</text><text x="18.036" y="1.67" class="c">with</text></symbol><symbol id="29"><text x="2.004" y="1.67" class="c">./app</text></symbol><symbol id="a"><path fill="transparent" d="M0 0h70v21H0z"/></symbol><symbol id="b"><path fill="#b4b1b1" d="M0 0h1.102v2.171H0z"/></symbol></defs><path class="a" d="M0 0h70v43.42H0z"/><g style="animation-duration:15.517806s;animation-iteration-count:infinite;animation-name:l;animation-timing-function:steps(1,end)"><svg width="7980"><svg><use xlink:href="#a"/><use xlink:href="#b" x="-.004"/></svg><svg x="70"><use xlink:href="#a"/><use xlink:href="#b" x="-.004"/></svg><svg x="140"><use xlink:href="#a"/><use xlink:href="#b" x="1.996"/><use xlink:href="#1"/></svg><svg x="210"><use xlink:href="#a"/><use xlink:href="#b" x="1.996"/><use xlink:href="#1"/></svg><svg x="280"><use xlink:href="#a"/><use xlink:href="#b" x="1.996"/><use xlink:href="#1"/></svg><svg x="350"><use xlink:href="#a"/><use xlink:href="#b" x="1.996"/><use xlink:href="#1"/></svg><svg x="420"><use xlink:href="#a"/><use xlink:href="#b" x="2.996"/><use xlink:href="#2"/></svg><svg x="490"><use xlink:href="#a"/><use xlink:href="#b" x="4.996"/><use xlink:href="#3"/></svg><svg x="560"><use xlink:href="#a"/><use xlink:href="#b" x="6.996"/><use xlink:href="#4"/></svg><svg x="630"><use xlink:href="#a"/><use xlink:href="#b" x="8.996"/><use xlink:href="#5"/></svg><svg x="700"><use xlink:href="#a"/><use xlink:href="#b" x="10.996"/><use xlink:href="#6"/></svg><svg x="770"><use xlink:href="#a"/><use xlink:href="#b" x="12.996"/><text y="1.67" class="c">$</text><text x="2.004" y="1.67" class="d">cat</text><text x="6.012" y="1.67" class="d">Main.sc</text></svg><svg x="840"><use xlink:href="#a"/><use xlink:href="#b" x="14.996"/><text y="1.67" class="c">$</text><text x="2.004" y="1.67" class="d">cat</text><text x="6.012" y="1.67" class="d">Main.scal</text></svg><svg x="910"><use xlink:href="#a"/><use xlink:href="#b" x="15.996"/><use xlink:href="#7"/></svg><svg x="980"><use xlink:href="#a"/><use xlink:href="#b" x="15.996"/><use xlink:href="#7"/></svg><svg x="1050"><use xlink:href="#a"/><use xlink:href="#b" x="-.004" y="2.146"/><use xlink:href="#7"/></svg><svg x="1120"><use xlink:href="#a"/><use xlink:href="#b" x="-.004" y="2.146"/><use xlink:href="#7"/></svg><svg x="1190"><use xlink:href="#a"/><use xlink:href="#b" x="5.996" y="2.146"/><use xlink:href="#7"/><use xlink:href="#8" y="2.171"/></svg><svg x="1260"><use xlink:href="#a"/><use xlink:href="#b" x="9.996" y="2.146"/><use xlink:href="#7"/><use xlink:href="#9" y="2.171"/></svg><svg x="1330"><use xlink:href="#a"/><use xlink:href="#b" x="17.996" y="2.146"/><use xlink:href="#7"/><text y="3.841" class="e">@main</text><text x="6.012" y="3.841" class="f">def</text><text x="10.02" y="3.841" class="g">hello()</text></svg><svg x="1400"><use xlink:href="#a"/><use xlink:href="#b" x="19.996" y="2.146"/><use xlink:href="#7"/><use xlink:href="#10" y="2.171"/></svg><svg x="1470"><use xlink:href="#a"/><use xlink:href="#b" x="28.996" y="2.146"/><use xlink:href="#7"/><text y="3.841" class="e">@main</text><text x="6.012" y="3.841" class="f">def</text><text x="10.02" y="3.841" class="g">hello()</text><text x="18.036" y="3.841" class="f">=</text><text x="20.04" y="3.841" class="g">{println(</text></svg><svg x="1540"><use xlink:href="#a"/><use xlink:href="#b" x="36.996" y="2.146"/><use xlink:href="#7"/><text y="3.841" class="e">@main</text><text x="6.012" y="3.841" class="f">def</text><text x="10.02" y="3.841" class="g">hello()</text><text x="18.036" y="3.841" class="f">=</text><text x="20.04" y="3.841" class="g">{println(</text><text x="29.058" y="3.841" class="h">&quot;Hello</text><text x="36.072" y="3.841" class="h">&quot;</text></svg><svg x="1610"><use xlink:href="#a"/><use xlink:href="#b" x="44.996" y="2.146"/><use xlink:href="#7"/><use xlink:href="#11" y="2.171"/></svg><svg x="1680"><use xlink:href="#a"/><use xlink:href="#b" x="44.996" y="2.146"/><use xlink:href="#7"/><use xlink:href="#11" y="2.171"/></svg><svg x="1750"><use xlink:href="#a"/><use xlink:href="#b" x="-.004" y="4.317"/><use xlink:href="#7"/><use xlink:href="#12" y="2.171"/></svg><svg x="1820"><use xlink:href="#a"/><use xlink:href="#b" x="1.996" y="4.317"/><use xlink:href="#7"/><use xlink:href="#12" y="2.171"/><use xlink:href="#1" y="4.342"/></svg><svg x="1890"><use xlink:href="#a"/><use xlink:href="#b" x="1.996" y="4.317"/><use xlink:href="#7"/><use xlink:href="#12" y="2.171"/><use xlink:href="#1" y="4.342"/></svg><svg x="1960"><use xlink:href="#a"/><use xlink:href="#b" x="1.996" y="4.317"/><use xlink:href="#7"/><use xlink:href="#12" y="2.171"/><use xlink:href="#1" y="4.342"/></svg><svg x="2030"><use xlink:href="#a"/><use xlink:href="#b" x="1.996" y="4.317"/><use xlink:href="#7"/><use xlink:href="#12" y="2.171"/><use xlink:href="#1" y="4.342"/></svg><svg x="2100"><use xlink:href="#a"/><use xlink:href="#b" x="2.996" y="4.317"/><use xlink:href="#7"/><use xlink:href="#12" y="2.171"/><text y="6.012" class="c">$</text><text x="2.004" y="6.012" class="d">s</text></svg><svg x="2170"><use xlink:href="#a"/><use xlink:href="#b" x="4.996" y="4.317"/><use xlink:href="#7"/><use xlink:href="#12" y="2.171"/><text y="6.012" class="c">$</text><text x="2.004" y="6.012" class="d">sca</text></svg><svg x="2240"><use xlink:href="#a"/><use xlink:href="#b" x="6.996" y="4.317"/><use xlink:href="#7"/><use xlink:href="#12" y="2.171"/><text y="6.012" class="c">$</text><text x="2.004" y="6.012" class="d">scala</text></svg><svg x="2310"><use xlink:href="#a"/><use xlink:href="#b" x="8.996" y="4.317"/><use xlink:href="#7"/><use xlink:href="#12" y="2.171"/><text y="6.012" class="c">$</text><text x="2.004" y="6.012" class="d">scala-c</text></svg><svg x="2380"><use xlink:href="#a"/><use xlink:href="#b" x="10.996" y="4.317"/><use xlink:href="#7"/><use xlink:href="#12" y="2.171"/><use xlink:href="#13" y="4.342"/></svg><svg x="2450"><use xlink:href="#a"/><use xlink:href="#b" x="12.996" y="4.317"/><use xlink:href="#7"/><use xlink:href="#12" y="2.171"/><use xlink:href="#14" y="4.342"/></svg><svg x="2520"><use xlink:href="#a"/><use xlink:href="#b" x="12.996" y="4.317"/><use xlink:href="#7"/><use xlink:href="#12" y="2.171"/><use xlink:href="#14" y="4.342"/></svg><svg x="2590"><use xlink:href="#a"/><use xlink:href="#b" x="12.996" y="4.317"/><use xlink:href="#7"/><use xlink:href="#12" y="2.171"/><use xlink:href="#14" y="4.342"/></svg><svg x="2660"><use xlink:href="#a"/><use xlink:href="#b" x="-.004" y="6.488"/><use xlink:href="#7"/><use xlink:href="#12" y="2.171"/><use xlink:href="#14" y="4.342"/></svg><svg x="2730"><use xlink:href="#a"/><use xlink:href="#b" x="-.004" y="8.659"/><use xlink:href="#7"/><use xlink:href="#12" y="2.171"/><use xlink:href="#14" y="4.342"/><use xlink:href="#15" y="6.513"/></svg><svg x="2800"><use xlink:href="#a"/><use xlink:href="#b" x="-.004" y="10.83"/><use xlink:href="#7"/><use xlink:href="#12" y="2.171"/><use xlink:href="#14" y="4.342"/><use xlink:href="#15" y="6.513"/><use xlink:href="#16" y="8.684"/></svg><svg x="2870"><use xlink:href="#a"/><use xlink:href="#b" x="10.996" y="10.83"/><use xlink:href="#7"/><use xlink:href="#12" y="2.171"/><use xlink:href="#14" y="4.342"/><use xlink:href="#15" y="6.513"/><use xlink:href="#16" y="8.684"/><use xlink:href="#17" y="10.855"/></svg><svg x="2940"><use xlink:href="#a"/><use xlink:href="#b" x="-.004" y="13.001"/><use xlink:href="#7"/><use xlink:href="#12" y="2.171"/><use xlink:href="#14" y="4.342"/><use xlink:href="#15" y="6.513"/><use xlink:href="#16" y="8.684"/><use xlink:href="#17" y="10.855"/></svg><svg x="3010"><use xlink:href="#a"/><use xlink:href="#b" x="1.996" y="13.001"/><use xlink:href="#7"/><use xlink:href="#12" y="2.171"/><use xlink:href="#14" y="4.342"/><use xlink:href="#15" y="6.513"/><use xlink:href="#16" y="8.684"/><use xlink:href="#17" y="10.855"/><use xlink:href="#1" y="13.026"/></svg><svg x="3080"><use xlink:href="#a"/><use xlink:href="#b" x="1.996" y="13.001"/><use xlink:href="#7"/><use xlink:href="#12" y="2.171"/><use xlink:href="#14" y="4.342"/><use xlink:href="#15" y="6.513"/><use xlink:href="#16" y="8.684"/><use xlink:href="#17" y="10.855"/><use xlink:href="#1" y="13.026"/></svg><svg x="3150"><use xlink:href="#a"/><use xlink:href="#b" x="1.996" y="13.001"/><use xlink:href="#7"/><use xlink:href="#12" y="2.171"/><use xlink:href="#14" y="4.342"/><use xlink:href="#15" y="6.513"/><use xlink:href="#16" y="8.684"/><use xlink:href="#17" y="10.855"/><use xlink:href="#1" y="13.026"/></svg><svg x="3220"><use xlink:href="#a"/><use xlink:href="#b" x="1.996" y="13.001"/><use xlink:href="#7"/><use xlink:href="#12" y="2.171"/><use xlink:href="#14" y="4.342"/><use xlink:href="#15" y="6.513"/><use xlink:href="#16" y="8.684"/><use xlink:href="#17" y="10.855"/><use xlink:href="#1" y="13.026"/></svg><svg x="3290"><use xlink:href="#a"/><use xlink:href="#b" x="1.996" y="13.001"/><use xlink:href="#7"/><use xlink:href="#12" y="2.171"/><use xlink:href="#14" y="4.342"/><use xlink:href="#15" y="6.513"/><use xlink:href="#16" y="8.684"/><use xlink:href="#17" y="10.855"/><use xlink:href="#1" y="13.026"/></svg><svg x="3360"><use xlink:href="#a"/><use xlink:href="#b" x="3.996" y="13.001"/><use xlink:href="#7"/><use xlink:href="#12" y="2.171"/><use xlink:href="#14" y="4.342"/><use xlink:href="#15" y="6.513"/><use xlink:href="#16" y="8.684"/><use xlink:href="#17" y="10.855"/><use xlink:href="#18" y="13.026"/></svg><svg x="3430"><use xlink:href="#a"/><use xlink:href="#b" x="5.996" y="13.001"/><use xlink:href="#7"/><use xlink:href="#12" y="2.171"/><use xlink:href="#14" y="4.342"/><use xlink:href="#15" y="6.513"/><use xlink:href="#16" y="8.684"/><use xlink:href="#17" y="10.855"/><use xlink:href="#19" y="13.026"/></svg><svg x="3500"><use xlink:href="#a"/><use xlink:href="#b" x="7.996" y="13.001"/><use xlink:href="#7"/><use xlink:href="#12" y="2.171"/><use xlink:href="#14" y="4.342"/><use xlink:href="#15" y="6.513"/><use xlink:href="#16" y="8.684"/><use xlink:href="#17" y="10.855"/><use xlink:href="#20" y="13.026"/></svg><svg x="3570"><use xlink:href="#a"/><use xlink:href="#b" x="9.996" y="13.001"/><use xlink:href="#7"/><use xlink:href="#12" y="2.171"/><use xlink:href="#14" y="4.342"/><use xlink:href="#15" y="6.513"/><use xlink:href="#16" y="8.684"/><use xlink:href="#17" y="10.855"/><use xlink:href="#21" y="13.026"/></svg><svg x="3640"><use xlink:href="#a"/><use xlink:href="#b" x="11.996" y="13.001"/><use xlink:href="#7"/><use xlink:href="#12" y="2.171"/><use xlink:href="#14" y="4.342"/><use xlink:href="#15" y="6.513"/><use xlink:href="#16" y="8.684"/><use xlink:href="#17" y="10.855"/><use xlink:href="#13" y="13.026"/></svg><svg x="3710"><use xlink:href="#a"/><use xlink:href="#b" x="13.996" y="13.001"/><use xlink:href="#7"/><use xlink:href="#12" y="2.171"/><use xlink:href="#14" y="4.342"/><use xlink:href="#15" y="6.513"/><use xlink:href="#16" y="8.684"/><use xlink:href="#17" y="10.855"/><text y="14.696" class="c">$</text><text x="2.004" y="14.696" class="d">scala-cli</text><text x="12.024" y="14.696" class="d">fm</text></svg><svg x="3780"><use xlink:href="#a"/><use xlink:href="#b" x="14.996" y="13.001"/><use xlink:href="#7"/><use xlink:href="#12" y="2.171"/><use xlink:href="#14" y="4.342"/><use xlink:href="#15" y="6.513"/><use xlink:href="#16" y="8.684"/><use xlink:href="#17" y="10.855"/><text y="14.696" class="c">$</text><text x="2.004" y="14.696" class="d">scala-cli</text><text x="12.024" y="14.696" class="d">fmt</text></svg><svg x="3850"><use xlink:href="#a"/><use xlink:href="#b" x="16.996" y="13.001"/><use xlink:href="#7"/><use xlink:href="#12" y="2.171"/><use xlink:href="#14" y="4.342"/><use xlink:href="#15" y="6.513"/><use xlink:href="#16" y="8.684"/><use xlink:href="#17" y="10.855"/><use xlink:href="#22" y="13.026"/></svg><svg x="3920"><use xlink:href="#a"/><use xlink:href="#b" x="16.996" y="13.001"/><use xlink:href="#7"/><use xlink:href="#12" y="2.171"/><use xlink:href="#14" y="4.342"/><use xlink:href="#15" y="6.513"/><use xlink:href="#16" y="8.684"/><use xlink:href="#17" y="10.855"/><use xlink:href="#22" y="13.026"/></svg><svg x="3990"><use xlink:href="#a"/><use xlink:href="#b" x="16.996" y="13.001"/><use xlink:href="#7"/><use xlink:href="#12" y="2.171"/><use xlink:href="#14" y="4.342"/><use xlink:href="#15" y="6.513"/><use xlink:href="#16" y="8.684"/><use xlink:href="#17" y="10.855"/><use xlink:href="#22" y="13.026"/></svg><svg x="4060"><use xlink:href="#a"/><use xlink:href="#b" x="-.004" y="15.172"/><use xlink:href="#7"/><use xlink:href="#12" y="2.171"/><use xlink:href="#14" y="4.342"/><use xlink:href="#15" y="6.513"/><use xlink:href="#16" y="8.684"/><use xlink:href="#17" y="10.855"/><use xlink:href="#22" y="13.026"/></svg><svg x="4130"><use xlink:href="#a"/><use xlink:href="#b" x="1.996" y="15.172"/><use xlink:href="#7"/><use xlink:href="#12" y="2.171"/><use xlink:href="#14" y="4.342"/><use xlink:href="#15" y="6.513"/><use xlink:href="#16" y="8.684"/><use xlink:href="#17" y="10.855"/><use xlink:href="#22" y="13.026"/><use xlink:href="#1" y="15.197"/></svg><svg x="4200"><use xlink:href="#a"/><use xlink:href="#b" x="1.996" y="15.172"/><use xlink:href="#7"/><use xlink:href="#12" y="2.171"/><use xlink:href="#14" y="4.342"/><use xlink:href="#15" y="6.513"/><use xlink:href="#16" y="8.684"/><use xlink:href="#17" y="10.855"/><use xlink:href="#22" y="13.026"/><use xlink:href="#1" y="15.197"/></svg><svg x="4270"><use xlink:href="#a"/><use xlink:href="#b" x="1.996" y="15.172"/><use xlink:href="#7"/><use xlink:href="#12" y="2.171"/><use xlink:href="#14" y="4.342"/><use xlink:href="#15" y="6.513"/><use xlink:href="#16" y="8.684"/><use xlink:href="#17" y="10.855"/><use xlink:href="#22" y="13.026"/><use xlink:href="#1" y="15.197"/></svg><svg x="4340"><use xlink:href="#a"/><use xlink:href="#b" x="1.996" y="15.172"/><use xlink:href="#7"/><use xlink:href="#12" y="2.171"/><use xlink:href="#14" y="4.342"/><use xlink:href="#15" y="6.513"/><use xlink:href="#16" y="8.684"/><use xlink:href="#17" y="10.855"/><use xlink:href="#22" y="13.026"/><use xlink:href="#1" y="15.197"/></svg><svg x="4410"><use xlink:href="#a"/><use xlink:href="#b" x="1.996" y="15.172"/><use xlink:href="#7"/><use xlink:href="#12" y="2.171"/><use xlink:href="#14" y="4.342"/><use xlink:href="#15" y="6.513"/><use xlink:href="#16" y="8.684"/><use xlink:href="#17" y="10.855"/><use xlink:href="#22" y="13.026"/><use xlink:href="#1" y="15.197"/></svg><svg x="4480"><use xlink:href="#a"/><use xlink:href="#b" x="2.996" y="15.172"/><use xlink:href="#7"/><use xlink:href="#12" y="2.171"/><use xlink:href="#14" y="4.342"/><use xlink:href="#15" y="6.513"/><use xlink:href="#16" y="8.684"/><use xlink:href="#17" y="10.855"/><use xlink:href="#22" y="13.026"/><use xlink:href="#2" y="15.197"/></svg><svg x="4550"><use xlink:href="#a"/><use xlink:href="#b" x="4.996" y="15.172"/><use xlink:href="#7"/><use xlink:href="#12" y="2.171"/><use xlink:href="#14" y="4.342"/><use xlink:href="#15" y="6.513"/><use xlink:href="#16" y="8.684"/><use xlink:href="#17" y="10.855"/><use xlink:href="#22" y="13.026"/><use xlink:href="#3" y="15.197"/></svg><svg x="4620"><use xlink:href="#a"/><use xlink:href="#b" x="6.996" y="15.172"/><use xlink:href="#7"/><use xlink:href="#12" y="2.171"/><use xlink:href="#14" y="4.342"/><use xlink:href="#15" y="6.513"/><use xlink:href="#16" y="8.684"/><use xlink:href="#17" y="10.855"/><use xlink:href="#22" y="13.026"/><use xlink:href="#4" y="15.197"/></svg><svg x="4690"><use xlink:href="#a"/><use xlink:href="#b" x="8.996" y="15.172"/><use xlink:href="#7"/><use xlink:href="#12" y="2.171"/><use xlink:href="#14" y="4.342"/><use xlink:href="#15" y="6.513"/><use xlink:href="#16" y="8.684"/><use xlink:href="#17" y="10.855"/><use xlink:href="#22" y="13.026"/><use xlink:href="#5" y="15.197"/></svg><svg x="4760"><use xlink:href="#a"/><use xlink:href="#b" x="10.996" y="15.172"/><use xlink:href="#7"/><use xlink:href="#12" y="2.171"/><use xlink:href="#14" y="4.342"/><use xlink:href="#15" y="6.513"/><use xlink:href="#16" y="8.684"/><use xlink:href="#17" y="10.855"/><use xlink:href="#22" y="13.026"/><use xlink:href="#6" y="15.197"/></svg><svg x="4830"><use xlink:href="#a"/><use xlink:href="#b" x="11.996" y="15.172"/><use xlink:href="#7"/><use xlink:href="#12" y="2.171"/><use xlink:href="#14" y="4.342"/><use xlink:href="#15" y="6.513"/><use xlink:href="#16" y="8.684"/><use xlink:href="#17" y="10.855"/><use xlink:href="#22" y="13.026"/><text y="16.867" class="c">$</text><text x="2.004" y="16.867" class="d">cat</text><text x="6.012" y="16.867" class="d">Main.s</text></svg><svg x="4900"><use xlink:href="#a"/><use xlink:href="#b" x="13.996" y="15.172"/><use xlink:href="#7"/><use xlink:href="#12" y="2.171"/><use xlink:href="#14" y="4.342"/><use xlink:href="#15" y="6.513"/><use xlink:href="#16" y="8.684"/><use xlink:href="#17" y="10.855"/><use xlink:href="#22" y="13.026"/><text y="16.867" class="c">$</text><text x="2.004" y="16.867" class="d">cat</text><text x="6.012" y="16.867" class="d">Main.sca</text></svg><svg x="4970"><use xlink:href="#a"/><use xlink:href="#b" x="15.996" y="15.172"/><use xlink:href="#7"/><use xlink:href="#12" y="2.171"/><use xlink:href="#14" y="4.342"/><use xlink:href="#15" y="6.513"/><use xlink:href="#16" y="8.684"/><use xlink:href="#17" y="10.855"/><use xlink:href="#22" y="13.026"/><use xlink:href="#7" y="15.197"/></svg><svg x="5040"><use xlink:href="#a"/><use xlink:href="#b" x="15.996" y="15.172"/><use xlink:href="#7"/><use xlink:href="#12" y="2.171"/><use xlink:href="#14" y="4.342"/><use xlink:href="#15" y="6.513"/><use xlink:href="#16" y="8.684"/><use xlink:href="#17" y="10.855"/><use xlink:href="#22" y="13.026"/><use xlink:href="#7" y="15.197"/></svg><svg x="5110"><use xlink:href="#a"/><use xlink:href="#b" x="15.996" y="15.172"/><use xlink:href="#7"/><use xlink:href="#12" y="2.171"/><use xlink:href="#14" y="4.342"/><use xlink:href="#15" y="6.513"/><use xlink:href="#16" y="8.684"/><use xlink:href="#17" y="10.855"/><use xlink:href="#22" y="13.026"/><use xlink:href="#7" y="15.197"/></svg><svg x="5180"><use xlink:href="#a"/><use xlink:href="#b" x="-.004" y="17.343"/><use xlink:href="#7"/><use xlink:href="#12" y="2.171"/><use xlink:href="#14" y="4.342"/><use xlink:href="#15" y="6.513"/><use xlink:href="#16" y="8.684"/><use xlink:href="#17" y="10.855"/><use xlink:href="#22" y="13.026"/><use xlink:href="#7" y="15.197"/></svg><svg x="5250"><use xlink:href="#a"/><use xlink:href="#b" x="-.004" y="17.343"/><use xlink:href="#7"/><use xlink:href="#12" y="2.171"/><use xlink:href="#14" y="4.342"/><use xlink:href="#15" y="6.513"/><use xlink:href="#16" y="8.684"/><use xlink:href="#17" y="10.855"/><use xlink:href="#22" y="13.026"/><use xlink:href="#7" y="15.197"/></svg><svg x="5320"><use xlink:href="#a"/><use xlink:href="#b" x="5.996" y="17.343"/><use xlink:href="#7"/><use xlink:href="#12" y="2.171"/><use xlink:href="#14" y="4.342"/><use xlink:href="#15" y="6.513"/><use xlink:href="#16" y="8.684"/><use xlink:href="#17" y="10.855"/><use xlink:href="#22" y="13.026"/><use xlink:href="#7" y="15.197"/><use xlink:href="#8" y="17.368"/></svg><svg x="5390"><use xlink:href="#a"/><use xlink:href="#b" x="5.996" y="17.343"/><use xlink:href="#7"/><use xlink:href="#12" y="2.171"/><use xlink:href="#14" y="4.342"/><use xlink:href="#15" y="6.513"/><use xlink:href="#16" y="8.684"/><use xlink:href="#17" y="10.855"/><use xlink:href="#22" y="13.026"/><use xlink:href="#7" y="15.197"/><use xlink:href="#8" y="17.368"/></svg><svg x="5460"><use xlink:href="#a"/><use xlink:href="#b" x="9.996" y="17.343"/><use xlink:href="#7"/><use xlink:href="#12" y="2.171"/><use xlink:href="#14" y="4.342"/><use xlink:href="#15" y="6.513"/><use xlink:href="#16" y="8.684"/><use xlink:href="#17" y="10.855"/><use xlink:href="#22" y="13.026"/><use xlink:href="#7" y="15.197"/><use xlink:href="#9" y="17.368"/></svg><svg x="5530"><use xlink:href="#a"/><use xlink:href="#b" x="18.996" y="17.343"/><use xlink:href="#7"/><use xlink:href="#12" y="2.171"/><use xlink:href="#14" y="4.342"/><use xlink:href="#15" y="6.513"/><use xlink:href="#16" y="8.684"/><use xlink:href="#17" y="10.855"/><use xlink:href="#22" y="13.026"/><use xlink:href="#7" y="15.197"/><use xlink:href="#10" y="17.368"/></svg><svg x="5600"><use xlink:href="#a"/><use xlink:href="#b" x="29.996" y="17.343"/><use xlink:href="#7"/><use xlink:href="#12" y="2.171"/><use xlink:href="#14" y="4.342"/><use xlink:href="#15" y="6.513"/><use xlink:href="#16" y="8.684"/><use xlink:href="#17" y="10.855"/><use xlink:href="#22" y="13.026"/><use xlink:href="#7" y="15.197"/><text y="19.038" class="e">@main</text><text x="6.012" y="19.038" class="f">def</text><text x="10.02" y="19.038" class="g">hello()</text><text x="18.036" y="19.038" class="f">=</text><text x="20.04" y="19.038" class="g">{</text><text x="22.044" y="19.038" class="g">println(</text></svg><svg x="5670"><use xlink:href="#a"/><use xlink:href="#b" x="37.996" y="17.343"/><use xlink:href="#7"/><use xlink:href="#12" y="2.171"/><use xlink:href="#14" y="4.342"/><use xlink:href="#15" y="6.513"/><use xlink:href="#16" y="8.684"/><use xlink:href="#17" y="10.855"/><use xlink:href="#22" y="13.026"/><use xlink:href="#7" y="15.197"/><use xlink:href="#23" y="17.368"/></svg><svg x="5740"><use xlink:href="#a"/><use xlink:href="#b" x="38.996" y="17.343"/><use xlink:href="#7"/><use xlink:href="#12" y="2.171"/><use xlink:href="#14" y="4.342"/><use xlink:href="#15" y="6.513"/><use xlink:href="#16" y="8.684"/><use xlink:href="#17" y="10.855"/><use xlink:href="#22" y="13.026"/><use xlink:href="#7" y="15.197"/><use xlink:href="#23" y="17.368"/></svg><svg x="5810"><use xlink:href="#a"/><use xlink:href="#b" x="39.996" y="17.343"/><use xlink:href="#7"/><use xlink:href="#12" y="2.171"/><use xlink:href="#14" y="4.342"/><use xlink:href="#15" y="6.513"/><use xlink:href="#16" y="8.684"/><use xlink:href="#17" y="10.855"/><use xlink:href="#22" y="13.026"/><use xlink:href="#7" y="15.197"/><use xlink:href="#24" y="17.368"/></svg><svg x="5880"><use xlink:href="#a"/><use xlink:href="#b" x="39.996" y="17.343"/><use xlink:href="#7"/><use xlink:href="#12" y="2.171"/><use xlink:href="#14" y="4.342"/><use xlink:href="#15" y="6.513"/><use xlink:href="#16" y="8.684"/><use xlink:href="#17" y="10.855"/><use xlink:href="#22" y="13.026"/><use xlink:href="#7" y="15.197"/><use xlink:href="#24" y="17.368"/></svg><svg x="5950"><use xlink:href="#a"/><use xlink:href="#b" x="40.996" y="17.343"/><use xlink:href="#7"/><use xlink:href="#12" y="2.171"/><use xlink:href="#14" y="4.342"/><use xlink:href="#15" y="6.513"/><use xlink:href="#16" y="8.684"/><use xlink:href="#17" y="10.855"/><use xlink:href="#22" y="13.026"/><use xlink:href="#7" y="15.197"/><use xlink:href="#24" y="17.368"/></svg><svg x="6020"><use xlink:href="#a"/><use xlink:href="#b" x="47.996" y="17.343"/><use xlink:href="#7"/><use xlink:href="#12" y="2.171"/><use xlink:href="#14" y="4.342"/><use xlink:href="#15" y="6.513"/><use xlink:href="#16" y="8.684"/><use xlink:href="#17" y="10.855"/><use xlink:href="#22" y="13.026"/><use xlink:href="#7" y="15.197"/><text y="19.038" class="e">@main</text><text x="6.012" y="19.038" class="f">def</text><text x="10.02" y="19.038" class="g">hello()</text><text x="18.036" y="19.038" class="f">=</text><text x="20.04" y="19.038" class="g">{</text><text x="22.044" y="19.038" class="g">println(</text><text x="30.06" y="19.038" class="h">&quot;Hello</text><text x="37.074" y="19.038" class="h">&quot;</text><text x="39.078" y="19.038" class="g">+</text><text x="41.082" y="19.038" class="h">&quot;world&quot;</text></svg><svg x="6090"><use xlink:href="#a"/><use xlink:href="#b" x="48.996" y="17.343"/><use xlink:href="#7"/><use xlink:href="#12" y="2.171"/><use xlink:href="#14" y="4.342"/><use xlink:href="#15" y="6.513"/><use xlink:href="#16" y="8.684"/><use xlink:href="#17" y="10.855"/><use xlink:href="#22" y="13.026"/><use xlink:href="#7" y="15.197"/><use xlink:href="#25" y="17.368"/></svg><svg x="6160"><use xlink:href="#a"/><use xlink:href="#b" x="49.996" y="17.343"/><use xlink:href="#7"/><use xlink:href="#12" y="2.171"/><use xlink:href="#14" y="4.342"/><use xlink:href="#15" y="6.513"/><use xlink:href="#16" y="8.684"/><use xlink:href="#17" y="10.855"/><use xlink:href="#22" y="13.026"/><use xlink:href="#7" y="15.197"/><use xlink:href="#25" y="17.368"/></svg><svg x="6230"><use xlink:href="#a"/><use xlink:href="#b" x="-.004" y="19.514"/><use xlink:href="#7"/><use xlink:href="#12" y="2.171"/><use xlink:href="#14" y="4.342"/><use xlink:href="#15" y="6.513"/><use xlink:href="#16" y="8.684"/><use xlink:href="#17" y="10.855"/><use xlink:href="#22" y="13.026"/><use xlink:href="#7" y="15.197"/><use xlink:href="#26" y="17.368"/></svg><svg x="6300"><use xlink:href="#a"/><use xlink:href="#b" x="1.996" y="19.514"/><use xlink:href="#7"/><use xlink:href="#12" y="2.171"/><use xlink:href="#14" y="4.342"/><use xlink:href="#15" y="6.513"/><use xlink:href="#16" y="8.684"/><use xlink:href="#17" y="10.855"/><use xlink:href="#22" y="13.026"/><use xlink:href="#7" y="15.197"/><use xlink:href="#26" y="17.368"/><use xlink:href="#1" y="19.539"/></svg><svg x="6370"><use xlink:href="#a"/><use xlink:href="#b" x="1.996" y="19.514"/><use xlink:href="#7"/><use xlink:href="#12" y="2.171"/><use xlink:href="#14" y="4.342"/><use xlink:href="#15" y="6.513"/><use xlink:href="#16" y="8.684"/><use xlink:href="#17" y="10.855"/><use xlink:href="#22" y="13.026"/><use xlink:href="#7" y="15.197"/><use xlink:href="#26" y="17.368"/><use xlink:href="#1" y="19.539"/></svg><svg x="6440"><use xlink:href="#a"/><use xlink:href="#b" x="1.996" y="19.514"/><use xlink:href="#7"/><use xlink:href="#12" y="2.171"/><use xlink:href="#14" y="4.342"/><use xlink:href="#15" y="6.513"/><use xlink:href="#16" y="8.684"/><use xlink:href="#17" y="10.855"/><use xlink:href="#22" y="13.026"/><use xlink:href="#7" y="15.197"/><use xlink:href="#26" y="17.368"/><use xlink:href="#1" y="19.539"/></svg><svg x="6510"><use xlink:href="#a"/><use xlink:href="#b" x="1.996" y="19.514"/><use xlink:href="#7"/><use xlink:href="#12" y="2.171"/><use xlink:href="#14" y="4.342"/><use xlink:href="#15" y="6.513"/><use xlink:href="#16" y="8.684"/><use xlink:href="#17" y="10.855"/><use xlink:href="#22" y="13.026"/><use xlink:href="#7" y="15.197"/><use xlink:href="#26" y="17.368"/><use xlink:href="#1" y="19.539"/></svg><svg x="6580"><use xlink:href="#a"/><use xlink:href="#b" x="1.996" y="19.514"/><use xlink:href="#7"/><use xlink:href="#12" y="2.171"/><use xlink:href="#14" y="4.342"/><use xlink:href="#15" y="6.513"/><use xlink:href="#16" y="8.684"/><use xlink:href="#17" y="10.855"/><use xlink:href="#22" y="13.026"/><use xlink:href="#7" y="15.197"/><use xlink:href="#26" y="17.368"/><use xlink:href="#1" y="19.539"/></svg><svg x="6650"><use xlink:href="#a"/><use xlink:href="#b" x="3.996" y="19.514"/><use xlink:href="#7"/><use xlink:href="#12" y="2.171"/><use xlink:href="#14" y="4.342"/><use xlink:href="#15" y="6.513"/><use xlink:href="#16" y="8.684"/><use xlink:href="#17" y="10.855"/><use xlink:href="#22" y="13.026"/><use xlink:href="#7" y="15.197"/><use xlink:href="#26" y="17.368"/><use xlink:href="#18" y="19.539"/></svg><svg x="6720"><use xlink:href="#a"/><use xlink:href="#b" x="5.996" y="19.514"/><use xlink:href="#7"/><use xlink:href="#12" y="2.171"/><use xlink:href="#14" y="4.342"/><use xlink:href="#15" y="6.513"/><use xlink:href="#16" y="8.684"/><use xlink:href="#17" y="10.855"/><use xlink:href="#22" y="13.026"/><use xlink:href="#7" y="15.197"/><use xlink:href="#26" y="17.368"/><use xlink:href="#19" y="19.539"/></svg><svg x="6790"><use xlink:href="#a"/><use xlink:href="#b" x="7.996" y="19.514"/><use xlink:href="#7"/><use xlink:href="#12" y="2.171"/><use xlink:href="#14" y="4.342"/><use xlink:href="#15" y="6.513"/><use xlink:href="#16" y="8.684"/><use xlink:href="#17" y="10.855"/><use xlink:href="#22" y="13.026"/><use xlink:href="#7" y="15.197"/><use xlink:href="#26" y="17.368"/><use xlink:href="#20" y="19.539"/></svg><svg x="6860"><use xlink:href="#a"/><use xlink:href="#b" x="9.996" y="19.514"/><use xlink:href="#7"/><use xlink:href="#12" y="2.171"/><use xlink:href="#14" y="4.342"/><use xlink:href="#15" y="6.513"/><use xlink:href="#16" y="8.684"/><use xlink:href="#17" y="10.855"/><use xlink:href="#22" y="13.026"/><use xlink:href="#7" y="15.197"/><use xlink:href="#26" y="17.368"/><use xlink:href="#21" y="19.539"/></svg><svg x="6930"><use xlink:href="#a"/><use xlink:href="#b" x="11.996" y="19.514"/><use xlink:href="#7"/><use xlink:href="#12" y="2.171"/><use xlink:href="#14" y="4.342"/><use xlink:href="#15" y="6.513"/><use xlink:href="#16" y="8.684"/><use xlink:href="#17" y="10.855"/><use xlink:href="#22" y="13.026"/><use xlink:href="#7" y="15.197"/><use xlink:href="#26" y="17.368"/><use xlink:href="#13" y="19.539"/></svg><svg x="7000"><use xlink:href="#a"/><use xlink:href="#b" x="13.996" y="19.514"/><use xlink:href="#7"/><use xlink:href="#12" y="2.171"/><use xlink:href="#14" y="4.342"/><use xlink:href="#15" y="6.513"/><use xlink:href="#16" y="8.684"/><use xlink:href="#17" y="10.855"/><use xlink:href="#22" y="13.026"/><use xlink:href="#7" y="15.197"/><use xlink:href="#26" y="17.368"/><text y="21.209" class="c">$</text><text x="2.004" y="21.209" class="d">scala-cli</text><text x="12.024" y="21.209" class="d">pa</text></svg><svg x="7070"><use xlink:href="#a"/><use xlink:href="#b" x="14.996" y="19.514"/><use xlink:href="#7"/><use xlink:href="#12" y="2.171"/><use xlink:href="#14" y="4.342"/><use xlink:href="#15" y="6.513"/><use xlink:href="#16" y="8.684"/><use xlink:href="#17" y="10.855"/><use xlink:href="#22" y="13.026"/><use xlink:href="#7" y="15.197"/><use xlink:href="#26" y="17.368"/><text y="21.209" class="c">$</text><text x="2.004" y="21.209" class="d">scala-cli</text><text x="12.024" y="21.209" class="d">pac</text></svg><svg x="7140"><use xlink:href="#a"/><use xlink:href="#b" x="16.996" y="19.514"/><use xlink:href="#7"/><use xlink:href="#12" y="2.171"/><use xlink:href="#14" y="4.342"/><use xlink:href="#15" y="6.513"/><use xlink:href="#16" y="8.684"/><use xlink:href="#17" y="10.855"/><use xlink:href="#22" y="13.026"/><use xlink:href="#7" y="15.197"/><use xlink:href="#26" y="17.368"/><text y="21.209" class="c">$</text><text x="2.004" y="21.209" class="d">scala-cli</text><text x="12.024" y="21.209" class="d">packa</text></svg><svg x="7210"><use xlink:href="#a"/><use xlink:href="#b" x="18.996" y="19.514"/><use xlink:href="#7"/><use xlink:href="#12" y="2.171"/><use xlink:href="#14" y="4.342"/><use xlink:href="#15" y="6.513"/><use xlink:href="#16" y="8.684"/><use xlink:href="#17" y="10.855"/><use xlink:href="#22" y="13.026"/><use xlink:href="#7" y="15.197"/><use xlink:href="#26" y="17.368"/><text y="21.209" class="c">$</text><text x="2.004" y="21.209" class="d">scala-cli</text><text x="12.024" y="21.209" class="d">package</text></svg><svg x="7280"><use xlink:href="#a"/><use xlink:href="#b" x="20.996" y="19.514"/><use xlink:href="#7"/><use xlink:href="#12" y="2.171"/><use xlink:href="#14" y="4.342"/><use xlink:href="#15" y="6.513"/><use xlink:href="#16" y="8.684"/><use xlink:href="#17" y="10.855"/><use xlink:href="#22" y="13.026"/><use xlink:href="#7" y="15.197"/><use xlink:href="#26" y="17.368"/><use xlink:href="#27" y="19.539"/></svg><svg x="7350"><use xlink:href="#a"/><use xlink:href="#b" x="20.996" y="19.514"/><use xlink:href="#7"/><use xlink:href="#12" y="2.171"/><use xlink:href="#14" y="4.342"/><use xlink:href="#15" y="6.513"/><use xlink:href="#16" y="8.684"/><use xlink:href="#17" y="10.855"/><use xlink:href="#22" y="13.026"/><use xlink:href="#7" y="15.197"/><use xlink:href="#26" y="17.368"/><use xlink:href="#27" y="19.539"/></svg><svg x="7420"><use xlink:href="#a"/><use xlink:href="#b" x="20.996" y="19.514"/><use xlink:href="#7"/><use xlink:href="#12" y="2.171"/><use xlink:href="#14" y="4.342"/><use xlink:href="#15" y="6.513"/><use xlink:href="#16" y="8.684"/><use xlink:href="#17" y="10.855"/><use xlink:href="#22" y="13.026"/><use xlink:href="#7" y="15.197"/><use xlink:href="#26" y="17.368"/><use xlink:href="#27" y="19.539"/></svg><svg x="7490"><use xlink:href="#a"/><use xlink:href="#b" x="-.004" y="21.685"/><use xlink:href="#7"/><use xlink:href="#12" y="2.171"/><use xlink:href="#14" y="4.342"/><use xlink:href="#15" y="6.513"/><use xlink:href="#16" y="8.684"/><use xlink:href="#17" y="10.855"/><use xlink:href="#22" y="13.026"/><use xlink:href="#7" y="15.197"/><use xlink:href="#26" y="17.368"/><use xlink:href="#27" y="19.539"/></svg><svg x="7560"><use xlink:href="#a"/><use xlink:href="#b" x="35.996" y="21.685"/><use xlink:href="#7"/><use xlink:href="#12" y="2.171"/><use xlink:href="#14" y="4.342"/><use xlink:href="#15" y="6.513"/><use xlink:href="#16" y="8.684"/><use xlink:href="#17" y="10.855"/><use xlink:href="#22" y="13.026"/><use xlink:href="#7" y="15.197"/><use xlink:href="#26" y="17.368"/><use xlink:href="#27" y="19.539"/><use xlink:href="#15" y="21.71"/></svg><svg x="7630"><use xlink:href="#a"/><use xlink:href="#b" x="-.004" y="23.856"/><use xlink:href="#7"/><use xlink:href="#12" y="2.171"/><use xlink:href="#14" y="4.342"/><use xlink:href="#15" y="6.513"/><use xlink:href="#16" y="8.684"/><use xlink:href="#17" y="10.855"/><use xlink:href="#22" y="13.026"/><use xlink:href="#7" y="15.197"/><use xlink:href="#26" y="17.368"/><use xlink:href="#27" y="19.539"/><use xlink:href="#15" y="21.71"/></svg><svg x="7700"><use xlink:href="#a"/><use xlink:href="#b" x="34.996" y="23.856"/><use xlink:href="#7"/><use xlink:href="#12" y="2.171"/><use xlink:href="#14" y="4.342"/><use xlink:href="#15" y="6.513"/><use xlink:href="#16" y="8.684"/><use xlink:href="#17" y="10.855"/><use xlink:href="#22" y="13.026"/><use xlink:href="#7" y="15.197"/><use xlink:href="#26" y="17.368"/><use xlink:href="#27" y="19.539"/><use xlink:href="#15" y="21.71"/><use xlink:href="#16" y="23.881"/></svg><svg x="7770"><use xlink:href="#a"/><use xlink:href="#b" x="-.004" y="26.027"/><use xlink:href="#7"/><use xlink:href="#12" y="2.171"/><use xlink:href="#14" y="4.342"/><use xlink:href="#15" y="6.513"/><use xlink:href="#16" y="8.684"/><use xlink:href="#17" y="10.855"/><use xlink:href="#22" y="13.026"/><use xlink:href="#7" y="15.197"/><use xlink:href="#26" y="17.368"/><use xlink:href="#27" y="19.539"/><use xlink:href="#15" y="21.71"/><use xlink:href="#16" y="23.881"/></svg><svg x="7840"><use xlink:href="#a"/><use xlink:href="#b" x="-.004" y="30.369"/><use xlink:href="#7"/><use xlink:href="#12" y="2.171"/><use xlink:href="#14" y="4.342"/><use xlink:href="#15" y="6.513"/><use xlink:href="#16" y="8.684"/><use xlink:href="#17" y="10.855"/><use xlink:href="#22" y="13.026"/><use xlink:href="#7" y="15.197"/><use xlink:href="#26" y="17.368"/><use xlink:href="#27" y="19.539"/><use xlink:href="#15" y="21.71"/><use xlink:href="#16" y="23.881"/><use xlink:href="#28" y="26.052"/><use xlink:href="#29" y="28.223"/></svg><svg x="7910"><use xlink:href="#a"/><use xlink:href="#b" x="-.004" y="32.54"/><use xlink:href="#7"/><use xlink:href="#12" y="2.171"/><use xlink:href="#14" y="4.342"/><use xlink:href="#15" y="6.513"/><use xlink:href="#16" y="8.684"/><use xlink:href="#17" y="10.855"/><use xlink:href="#22" y="13.026"/><use xlink:href="#7" y="15.197"/><use xlink:href="#26" y="17.368"/><use xlink:href="#27" y="19.539"/><use xlink:href="#15" y="21.71"/><use xlink:href="#16" y="23.881"/><use xlink:href="#28" y="26.052"/><use xlink:href="#29" y="28.223"/></svg></svg></g></g></svg></svg>