<svg xmlns="http://www.w3.org/2000/svg" xmlns:xlink="http://www.w3.org/1999/xlink" width="740" height="474.2"><rect width="740" height="474.2" rx="0" ry="0" class="a"/><svg height="434.2" viewBox="0 0 70 43.42" width="700" x="20" xmlns="http://www.w3.org/2000/svg" xmlns:xlink="http://www.w3.org/1999/xlink" y="20"><style>@keyframes h{0%{transform:translateX(0)}.1%{transform:translateX(-210px)}2.3%{transform:translateX(-280px)}3.3%{transform:translateX(-350px)}4.4%{transform:translateX(-420px)}5.5%{transform:translateX(-490px)}6.6%{transform:translateX(-560px)}7.6%{transform:translateX(-630px)}8.7%{transform:translateX(-700px)}9.8%{transform:translateX(-770px)}10.9%{transform:translateX(-840px)}13%{transform:translateX(-910px)}14.1%{transform:translateX(-980px)}15.1%{transform:translateX(-1050px)}16.2%{transform:translateX(-1120px)}17.3%{transform:translateX(-1190px)}18.4%{transform:translateX(-1260px)}19.4%{transform:translateX(-1330px)}20.5%{transform:translateX(-1400px)}21.6%{transform:translateX(-1470px)}23.7%{transform:translateX(-1540px)}24.8%{transform:translateX(-1610px)}25.9%{transform:translateX(-1680px)}27%{transform:translateX(-1750px)}28%{transform:translateX(-1820px)}29.1%{transform:translateX(-1890px)}30.2%{transform:translateX(-1960px)}31.2%{transform:translateX(-2030px)}32.3%{transform:translateX(-2100px)}34.5%{transform:translateX(-2170px)}35.5%{transform:translateX(-2240px)}36.6%{transform:translateX(-2310px)}37.7%{transform:translateX(-2380px)}38.8%{transform:translateX(-2450px)}39.8%{transform:translateX(-2520px)}40.9%{transform:translateX(-2590px)}42%{transform:translateX(-2660px)}43.1%{transform:translateX(-2730px)}45.2%{transform:translateX(-2800px)}46.3%{transform:translateX(-2870px)}47.3%{transform:translateX(-2940px)}48.4%{transform:translateX(-3010px)}49.5%{transform:translateX(-3080px)}50.6%{transform:translateX(-3150px)}51.6%{transform:translateX(-3220px)}52.7%{transform:translateX(-3290px)}53.8%{transform:translateX(-3360px)}55.9%{transform:translateX(-3430px)}57%{transform:translateX(-3500px)}58.1%{transform:translateX(-3570px)}59.1%{transform:translateX(-3640px)}60.2%{transform:translateX(-3710px)}61.3%{transform:translateX(-3780px)}62.4%{transform:translateX(-3850px)}63.4%{transform:translateX(-3920px)}64.5%{transform:translateX(-3990px)}65.6%{transform:translateX(-4130px)}68.3%{transform:translateX(-4200px)}72.3%{transform:translateX(-4270px)}76%{transform:translateX(-4340px)}to{transform:translateX(-4410px)}}.a{fill:#23262e}.c{fill:#ffca28}.c,.d,.e{white-space:pre}.d{fill:#c74ded;font-weight:700}.e{fill:#292e38}</style><g font-family="Monaco,Consolas,Menlo,'Bitstream Vera Sans Mono','Powerline Symbols',monospace" font-size="1.67"><defs><symbol id="1"><text y="1.67" class="c">$</text></symbol><symbol id="2"><text y="1.67" class="c">$</text><text x="2.004" y="1.67" class="d">echo</text><text x="7.014" y="1.67" class="d">&apos;println(&quot;TODO:</text><text x="23.046" y="1.67" class="d">turn</text><text x="28.056" y="1.67" class="d">gifs/scenarios/demo.sh</text><text x="51.102" y="1.67" class="d">into</text><text x="56.112" y="1.67" class="d">proper</text><text x="63.126" y="1.67" class="d">scenari</text></symbol><symbol id="3"><text y="1.67" class="d">o</text><text x="2.004" y="1.67" class="d">general</text><text x="10.02" y="1.67" class="d">demo</text><text x="15.03" y="1.67" class="d">of</text><text x="18.036" y="1.67" class="d">Scala</text><text x="24.048" y="1.67" class="d">CLI&quot;)&apos;</text><text x="31.062" y="1.67" class="d">|</text><text x="33.066" y="1.67" class="d">scala-cli</text><text x="43.086" y="1.67" class="d">-</text></symbol><symbol id="4"><text y="1.67" class="e">Compiling</text><text x="10.02" y="1.67" class="e">project</text><text x="18.036" y="1.67" class="e">(Scala</text><text x="25.05" y="1.67" class="e">3.0.2,</text><text x="32.064" y="1.67" class="e">JVM)</text></symbol><symbol id="5"><text y="1.67" class="e">Compiled</text><text x="9.018" y="1.67" class="e">project</text><text x="17.034" y="1.67" class="e">(Scala</text><text x="24.048" y="1.67" class="e">3.0.2,</text><text x="31.062" y="1.67" class="e">JVM)</text></symbol><symbol id="6"><text y="1.67" class="c">TODO:</text><text x="6.012" y="1.67" class="c">turn</text><text x="11.022" y="1.67" class="c">gifs/scenarios/demo.sh</text><text x="34.068" y="1.67" class="c">into</text><text x="39.078" y="1.67" class="c">proper</text><text x="46.092" y="1.67" class="c">scenario</text><text x="55.11" y="1.67" class="c">general</text><text x="63.126" y="1.67" class="c">demo</text><text x="68.136" y="1.67" class="c">of</text></symbol><symbol id="7"><text x="1.002" y="1.67" class="c">Scala</text><text x="7.014" y="1.67" class="c">CLI</text></symbol><symbol id="a"><path fill="transparent" d="M0 0h70v21H0z"/></symbol><symbol id="b"><path fill="#ee5d43" d="M0 0h1.102v2.171H0z"/></symbol></defs><path class="a" d="M0 0h70v43.42H0z"/><g style="animation-duration:8.401492s;animation-iteration-count:infinite;animation-name:h;animation-timing-function:steps(1,end)"><svg width="4480"><svg><use xlink:href="#a"/><use xlink:href="#b" x="-.004"/></svg><svg x="70"><use xlink:href="#a"/><use xlink:href="#b" x="-.004"/></svg><svg x="140"><use xlink:href="#a"/><use xlink:href="#b" x="1.996"/><use xlink:href="#1"/></svg><svg x="210"><use xlink:href="#a"/><use xlink:href="#b" x="1.996"/><use xlink:href="#1"/></svg><svg x="280"><use xlink:href="#a"/><use xlink:href="#b" x="1.996"/><use xlink:href="#1"/></svg><svg x="350"><use xlink:href="#a"/><use xlink:href="#b" x="1.996"/><use xlink:href="#1"/></svg><svg x="420"><use xlink:href="#a"/><use xlink:href="#b" x="2.996"/><text y="1.67" class="c">$</text><text x="2.004" y="1.67" class="d">e</text></svg><svg x="490"><use xlink:href="#a"/><use xlink:href="#b" x="5.996"/><text y="1.67" class="c">$</text><text x="2.004" y="1.67" class="d">echo</text></svg><svg x="560"><use xlink:href="#a"/><use xlink:href="#b" x="7.996"/><text y="1.67" class="c">$</text><text x="2.004" y="1.67" class="d">echo</text><text x="7.014" y="1.67" class="d">&apos;</text></svg><svg x="630"><use xlink:href="#a"/><use xlink:href="#b" x="9.996"/><text y="1.67" class="c">$</text><text x="2.004" y="1.67" class="d">echo</text><text x="7.014" y="1.67" class="d">&apos;pr</text></svg><svg x="700"><use xlink:href="#a"/><use xlink:href="#b" x="11.996"/><text y="1.67" class="c">$</text><text x="2.004" y="1.67" class="d">echo</text><text x="7.014" y="1.67" class="d">&apos;prin</text></svg><svg x="770"><use xlink:href="#a"/><use xlink:href="#b" x="13.996"/><text y="1.67" class="c">$</text><text x="2.004" y="1.67" class="d">echo</text><text x="7.014" y="1.67" class="d">&apos;printl</text></svg><svg x="840"><use xlink:href="#a"/><use xlink:href="#b" x="16.996"/><text y="1.67" class="c">$</text><text x="2.004" y="1.67" class="d">echo</text><text x="7.014" y="1.67" class="d">&apos;println(&quot;</text></svg><svg x="910"><use xlink:href="#a"/><use xlink:href="#b" x="18.996"/><text y="1.67" class="c">$</text><text x="2.004" y="1.67" class="d">echo</text><text x="7.014" y="1.67" class="d">&apos;println(&quot;TO</text></svg><svg x="980"><use xlink:href="#a"/><use xlink:href="#b" x="20.996"/><text y="1.67" class="c">$</text><text x="2.004" y="1.67" class="d">echo</text><text x="7.014" y="1.67" class="d">&apos;println(&quot;TODO</text></svg><svg x="1050"><use xlink:href="#a"/><use xlink:href="#b" x="22.996"/><text y="1.67" class="c">$</text><text x="2.004" y="1.67" class="d">echo</text><text x="7.014" y="1.67" class="d">&apos;println(&quot;TODO:</text></svg><svg x="1120"><use xlink:href="#a"/><use xlink:href="#b" x="24.996"/><text y="1.67" class="c">$</text><text x="2.004" y="1.67" class="d">echo</text><text x="7.014" y="1.67" class="d">&apos;println(&quot;TODO:</text><text x="23.046" y="1.67" class="d">tu</text></svg><svg x="1190"><use xlink:href="#a"/><use xlink:href="#b" x="27.996"/><text y="1.67" class="c">$</text><text x="2.004" y="1.67" class="d">echo</text><text x="7.014" y="1.67" class="d">&apos;println(&quot;TODO:</text><text x="23.046" y="1.67" class="d">turn</text></svg><svg x="1260"><use xlink:href="#a"/><use xlink:href="#b" x="29.996"/><text y="1.67" class="c">$</text><text x="2.004" y="1.67" class="d">echo</text><text x="7.014" y="1.67" class="d">&apos;println(&quot;TODO:</text><text x="23.046" y="1.67" class="d">turn</text><text x="28.056" y="1.67" class="d">gi</text></svg><svg x="1330"><use xlink:href="#a"/><use xlink:href="#b" x="31.996"/><text y="1.67" class="c">$</text><text x="2.004" y="1.67" class="d">echo</text><text x="7.014" y="1.67" class="d">&apos;println(&quot;TODO:</text><text x="23.046" y="1.67" class="d">turn</text><text x="28.056" y="1.67" class="d">gifs</text></svg><svg x="1400"><use xlink:href="#a"/><use xlink:href="#b" x="33.996"/><text y="1.67" class="c">$</text><text x="2.004" y="1.67" class="d">echo</text><text x="7.014" y="1.67" class="d">&apos;println(&quot;TODO:</text><text x="23.046" y="1.67" class="d">turn</text><text x="28.056" y="1.67" class="d">gifs/s</text></svg><svg x="1470"><use xlink:href="#a"/><use xlink:href="#b" x="35.996"/><text y="1.67" class="c">$</text><text x="2.004" y="1.67" class="d">echo</text><text x="7.014" y="1.67" class="d">&apos;println(&quot;TODO:</text><text x="23.046" y="1.67" class="d">turn</text><text x="28.056" y="1.67" class="d">gifs/sce</text></svg><svg x="1540"><use xlink:href="#a"/><use xlink:href="#b" x="38.996"/><text y="1.67" class="c">$</text><text x="2.004" y="1.67" class="d">echo</text><text x="7.014" y="1.67" class="d">&apos;println(&quot;TODO:</text><text x="23.046" y="1.67" class="d">turn</text><text x="28.056" y="1.67" class="d">gifs/scenar</text></svg><svg x="1610"><use xlink:href="#a"/><use xlink:href="#b" x="40.996"/><text y="1.67" class="c">$</text><text x="2.004" y="1.67" class="d">echo</text><text x="7.014" y="1.67" class="d">&apos;println(&quot;TODO:</text><text x="23.046" y="1.67" class="d">turn</text><text x="28.056" y="1.67" class="d">gifs/scenario</text></svg><svg x="1680"><use xlink:href="#a"/><use xlink:href="#b" x="42.996"/><text y="1.67" class="c">$</text><text x="2.004" y="1.67" class="d">echo</text><text x="7.014" y="1.67" class="d">&apos;println(&quot;TODO:</text><text x="23.046" y="1.67" class="d">turn</text><text x="28.056" y="1.67" class="d">gifs/scenarios/</text></svg><svg x="1750"><use xlink:href="#a"/><use xlink:href="#b" x="44.996"/><text y="1.67" class="c">$</text><text x="2.004" y="1.67" class="d">echo</text><text x="7.014" y="1.67" class="d">&apos;println(&quot;TODO:</text><text x="23.046" y="1.67" class="d">turn</text><text x="28.056" y="1.67" class="d">gifs/scenarios/de</text></svg><svg x="1820"><use xlink:href="#a"/><use xlink:href="#b" x="46.996"/><text y="1.67" class="c">$</text><text x="2.004" y="1.67" class="d">echo</text><text x="7.014" y="1.67" class="d">&apos;println(&quot;TODO:</text><text x="23.046" y="1.67" class="d">turn</text><text x="28.056" y="1.67" class="d">gifs/scenarios/demo</text></svg><svg x="1890"><use xlink:href="#a"/><use xlink:href="#b" x="49.996"/><text y="1.67" class="c">$</text><text x="2.004" y="1.67" class="d">echo</text><text x="7.014" y="1.67" class="d">&apos;println(&quot;TODO:</text><text x="23.046" y="1.67" class="d">turn</text><text x="28.056" y="1.67" class="d">gifs/scenarios/demo.sh</text></svg><svg x="1960"><use xlink:href="#a"/><use xlink:href="#b" x="51.996"/><text y="1.67" class="c">$</text><text x="2.004" y="1.67" class="d">echo</text><text x="7.014" y="1.67" class="d">&apos;println(&quot;TODO:</text><text x="23.046" y="1.67" class="d">turn</text><text x="28.056" y="1.67" class="d">gifs/scenarios/demo.sh</text><text x="51.102" y="1.67" class="d">i</text></svg><svg x="2030"><use xlink:href="#a"/><use xlink:href="#b" x="53.996"/><text y="1.67" class="c">$</text><text x="2.004" y="1.67" class="d">echo</text><text x="7.014" y="1.67" class="d">&apos;println(&quot;TODO:</text><text x="23.046" y="1.67" class="d">turn</text><text x="28.056" y="1.67" class="d">gifs/scenarios/demo.sh</text><text x="51.102" y="1.67" class="d">int</text></svg><svg x="2100"><use xlink:href="#a"/><use xlink:href="#b" x="55.996"/><text y="1.67" class="c">$</text><text x="2.004" y="1.67" class="d">echo</text><text x="7.014" y="1.67" class="d">&apos;println(&quot;TODO:</text><text x="23.046" y="1.67" class="d">turn</text><text x="28.056" y="1.67" class="d">gifs/scenarios/demo.sh</text><text x="51.102" y="1.67" class="d">into</text></svg><svg x="2170"><use xlink:href="#a"/><use xlink:href="#b" x="57.996"/><text y="1.67" class="c">$</text><text x="2.004" y="1.67" class="d">echo</text><text x="7.014" y="1.67" class="d">&apos;println(&quot;TODO:</text><text x="23.046" y="1.67" class="d">turn</text><text x="28.056" y="1.67" class="d">gifs/scenarios/demo.sh</text><text x="51.102" y="1.67" class="d">into</text><text x="56.112" y="1.67" class="d">pr</text></svg><svg x="2240"><use xlink:href="#a"/><use xlink:href="#b" x="60.996"/><text y="1.67" class="c">$</text><text x="2.004" y="1.67" class="d">echo</text><text x="7.014" y="1.67" class="d">&apos;println(&quot;TODO:</text><text x="23.046" y="1.67" class="d">turn</text><text x="28.056" y="1.67" class="d">gifs/scenarios/demo.sh</text><text x="51.102" y="1.67" class="d">into</text><text x="56.112" y="1.67" class="d">prope</text></svg><svg x="2310"><use xlink:href="#a"/><use xlink:href="#b" x="62.996"/><text y="1.67" class="c">$</text><text x="2.004" y="1.67" class="d">echo</text><text x="7.014" y="1.67" class="d">&apos;println(&quot;TODO:</text><text x="23.046" y="1.67" class="d">turn</text><text x="28.056" y="1.67" class="d">gifs/scenarios/demo.sh</text><text x="51.102" y="1.67" class="d">into</text><text x="56.112" y="1.67" class="d">proper</text></svg><svg x="2380"><use xlink:href="#a"/><use xlink:href="#b" x="64.996"/><text y="1.67" class="c">$</text><text x="2.004" y="1.67" class="d">echo</text><text x="7.014" y="1.67" class="d">&apos;println(&quot;TODO:</text><text x="23.046" y="1.67" class="d">turn</text><text x="28.056" y="1.67" class="d">gifs/scenarios/demo.sh</text><text x="51.102" y="1.67" class="d">into</text><text x="56.112" y="1.67" class="d">proper</text><text x="63.126" y="1.67" class="d">sc</text></svg><svg x="2450"><use xlink:href="#a"/><use xlink:href="#b" x="66.996"/><text y="1.67" class="c">$</text><text x="2.004" y="1.67" class="d">echo</text><text x="7.014" y="1.67" class="d">&apos;println(&quot;TODO:</text><text x="23.046" y="1.67" class="d">turn</text><text x="28.056" y="1.67" class="d">gifs/scenarios/demo.sh</text><text x="51.102" y="1.67" class="d">into</text><text x="56.112" y="1.67" class="d">proper</text><text x="63.126" y="1.67" class="d">scen</text></svg><svg x="2520"><use xlink:href="#a"/><use xlink:href="#b" x="68.996"/><text y="1.67" class="c">$</text><text x="2.004" y="1.67" class="d">echo</text><text x="7.014" y="1.67" class="d">&apos;println(&quot;TODO:</text><text x="23.046" y="1.67" class="d">turn</text><text x="28.056" y="1.67" class="d">gifs/scenarios/demo.sh</text><text x="51.102" y="1.67" class="d">into</text><text x="56.112" y="1.67" class="d">proper</text><text x="63.126" y="1.67" class="d">scenar</text></svg><svg x="2590"><use xlink:href="#a"/><use xlink:href="#b" x="1.996" y="2.146"/><use xlink:href="#2"/><text y="3.841" class="d">o</text></svg><svg x="2660"><use xlink:href="#a"/><use xlink:href="#b" x="3.996" y="2.146"/><use xlink:href="#2"/><text y="3.841" class="d">o</text><text x="2.004" y="3.841" class="d">ge</text></svg><svg x="2730"><use xlink:href="#a"/><use xlink:href="#b" x="5.996" y="2.146"/><use xlink:href="#2"/><text y="3.841" class="d">o</text><text x="2.004" y="3.841" class="d">gene</text></svg><svg x="2800"><use xlink:href="#a"/><use xlink:href="#b" x="7.996" y="2.146"/><use xlink:href="#2"/><text y="3.841" class="d">o</text><text x="2.004" y="3.841" class="d">genera</text></svg><svg x="2870"><use xlink:href="#a"/><use xlink:href="#b" x="9.996" y="2.146"/><use xlink:href="#2"/><text y="3.841" class="d">o</text><text x="2.004" y="3.841" class="d">general</text></svg><svg x="2940"><use xlink:href="#a"/><use xlink:href="#b" x="12.996" y="2.146"/><use xlink:href="#2"/><text y="3.841" class="d">o</text><text x="2.004" y="3.841" class="d">general</text><text x="10.02" y="3.841" class="d">dem</text></svg><svg x="3010"><use xlink:href="#a"/><use xlink:href="#b" x="14.996" y="2.146"/><use xlink:href="#2"/><text y="3.841" class="d">o</text><text x="2.004" y="3.841" class="d">general</text><text x="10.02" y="3.841" class="d">demo</text></svg><svg x="3080"><use xlink:href="#a"/><use xlink:href="#b" x="16.996" y="2.146"/><use xlink:href="#2"/><text y="3.841" class="d">o</text><text x="2.004" y="3.841" class="d">general</text><text x="10.02" y="3.841" class="d">demo</text><text x="15.03" y="3.841" class="d">of</text></svg><svg x="3150"><use xlink:href="#a"/><use xlink:href="#b" x="18.996" y="2.146"/><use xlink:href="#2"/><text y="3.841" class="d">o</text><text x="2.004" y="3.841" class="d">general</text><text x="10.02" y="3.841" class="d">demo</text><text x="15.03" y="3.841" class="d">of</text><text x="18.036" y="3.841" class="d">S</text></svg><svg x="3220"><use xlink:href="#a"/><use xlink:href="#b" x="20.996" y="2.146"/><use xlink:href="#2"/><text y="3.841" class="d">o</text><text x="2.004" y="3.841" class="d">general</text><text x="10.02" y="3.841" class="d">demo</text><text x="15.03" y="3.841" class="d">of</text><text x="18.036" y="3.841" class="d">Sca</text></svg><svg x="3290"><use xlink:href="#a"/><use xlink:href="#b" x="23.996" y="2.146"/><use xlink:href="#2"/><text y="3.841" class="d">o</text><text x="2.004" y="3.841" class="d">general</text><text x="10.02" y="3.841" class="d">demo</text><text x="15.03" y="3.841" class="d">of</text><text x="18.036" y="3.841" class="d">Scala</text></svg><svg x="3360"><use xlink:href="#a"/><use xlink:href="#b" x="25.996" y="2.146"/><use xlink:href="#2"/><text y="3.841" class="d">o</text><text x="2.004" y="3.841" class="d">general</text><text x="10.02" y="3.841" class="d">demo</text><text x="15.03" y="3.841" class="d">of</text><text x="18.036" y="3.841" class="d">Scala</text><text x="24.048" y="3.841" class="d">CL</text></svg><svg x="3430"><use xlink:href="#a"/><use xlink:href="#b" x="27.996" y="2.146"/><use xlink:href="#2"/><text y="3.841" class="d">o</text><text x="2.004" y="3.841" class="d">general</text><text x="10.02" y="3.841" class="d">demo</text><text x="15.03" y="3.841" class="d">of</text><text x="18.036" y="3.841" class="d">Scala</text><text x="24.048" y="3.841" class="d">CLI&quot;</text></svg><svg x="3500"><use xlink:href="#a"/><use xlink:href="#b" x="29.996" y="2.146"/><use xlink:href="#2"/><text y="3.841" class="d">o</text><text x="2.004" y="3.841" class="d">general</text><text x="10.02" y="3.841" class="d">demo</text><text x="15.03" y="3.841" class="d">of</text><text x="18.036" y="3.841" class="d">Scala</text><text x="24.048" y="3.841" class="d">CLI&quot;)&apos;</text></svg><svg x="3570"><use xlink:href="#a"/><use xlink:href="#b" x="31.996" y="2.146"/><use xlink:href="#2"/><text y="3.841" class="d">o</text><text x="2.004" y="3.841" class="d">general</text><text x="10.02" y="3.841" class="d">demo</text><text x="15.03" y="3.841" class="d">of</text><text x="18.036" y="3.841" class="d">Scala</text><text x="24.048" y="3.841" class="d">CLI&quot;)&apos;</text><text x="31.062" y="3.841" class="d">|</text></svg><svg x="3640"><use xlink:href="#a"/><use xlink:href="#b" x="34.996" y="2.146"/><use xlink:href="#2"/><text y="3.841" class="d">o</text><text x="2.004" y="3.841" class="d">general</text><text x="10.02" y="3.841" class="d">demo</text><text x="15.03" y="3.841" class="d">of</text><text x="18.036" y="3.841" class="d">Scala</text><text x="24.048" y="3.841" class="d">CLI&quot;)&apos;</text><text x="31.062" y="3.841" class="d">|</text><text x="33.066" y="3.841" class="d">sc</text></svg><svg x="3710"><use xlink:href="#a"/><use xlink:href="#b" x="36.996" y="2.146"/><use xlink:href="#2"/><text y="3.841" class="d">o</text><text x="2.004" y="3.841" class="d">general</text><text x="10.02" y="3.841" class="d">demo</text><text x="15.03" y="3.841" class="d">of</text><text x="18.036" y="3.841" class="d">Scala</text><text x="24.048" y="3.841" class="d">CLI&quot;)&apos;</text><text x="31.062" y="3.841" class="d">|</text><text x="33.066" y="3.841" class="d">scal</text></svg><svg x="3780"><use xlink:href="#a"/><use xlink:href="#b" x="38.996" y="2.146"/><use xlink:href="#2"/><text y="3.841" class="d">o</text><text x="2.004" y="3.841" class="d">general</text><text x="10.02" y="3.841" class="d">demo</text><text x="15.03" y="3.841" class="d">of</text><text x="18.036" y="3.841" class="d">Scala</text><text x="24.048" y="3.841" class="d">CLI&quot;)&apos;</text><text x="31.062" y="3.841" class="d">|</text><text x="33.066" y="3.841" class="d">scala-</text></svg><svg x="3850"><use xlink:href="#a"/><use xlink:href="#b" x="40.996" y="2.146"/><use xlink:href="#2"/><text y="3.841" class="d">o</text><text x="2.004" y="3.841" class="d">general</text><text x="10.02" y="3.841" class="d">demo</text><text x="15.03" y="3.841" class="d">of</text><text x="18.036" y="3.841" class="d">Scala</text><text x="24.048" y="3.841" class="d">CLI&quot;)&apos;</text><text x="31.062" y="3.841" class="d">|</text><text x="33.066" y="3.841" class="d">scala-cl</text></svg><svg x="3920"><use xlink:href="#a"/><use xlink:href="#b" x="42.996" y="2.146"/><use xlink:href="#2"/><text y="3.841" class="d">o</text><text x="2.004" y="3.841" class="d">general</text><text x="10.02" y="3.841" class="d">demo</text><text x="15.03" y="3.841" class="d">of</text><text x="18.036" y="3.841" class="d">Scala</text><text x="24.048" y="3.841" class="d">CLI&quot;)&apos;</text><text x="31.062" y="3.841" class="d">|</text><text x="33.066" y="3.841" class="d">scala-cli</text></svg><svg x="3990"><use xlink:href="#a"/><use xlink:href="#b" x="43.996" y="2.146"/><use xlink:href="#2"/><use xlink:href="#3" y="2.171"/></svg><svg x="4060"><use xlink:href="#a"/><use xlink:href="#b" x="43.996" y="2.146"/><use xlink:href="#2"/><use xlink:href="#3" y="2.171"/></svg><svg x="4130"><use xlink:href="#a"/><use xlink:href="#b" x="-.004" y="4.317"/><use xlink:href="#2"/><use xlink:href="#3" y="2.171"/></svg><svg x="4200"><use xlink:href="#a"/><use xlink:href="#b" x="-.004" y="6.488"/><use xlink:href="#2"/><use xlink:href="#3" y="2.171"/><use xlink:href="#4" y="4.342"/></svg><svg x="4270"><use xlink:href="#a"/><use xlink:href="#b" x="-.004" y="8.659"/><use xlink:href="#2"/><use xlink:href="#3" y="2.171"/><use xlink:href="#4" y="4.342"/><use xlink:href="#5" y="6.513"/></svg><svg x="4340"><use xlink:href="#a"/><use xlink:href="#b" x="-.004" y="13.001"/><use xlink:href="#2"/><use xlink:href="#3" y="2.171"/><use xlink:href="#4" y="4.342"/><use xlink:href="#5" y="6.513"/><use xlink:href="#6" y="8.684"/><use xlink:href="#7" y="10.855"/></svg><svg x="4410"><use xlink:href="#a"/><use xlink:href="#b" x="-.004" y="15.172"/><use xlink:href="#2"/><use xlink:href="#3" y="2.171"/><use xlink:href="#4" y="4.342"/><use xlink:href="#5" y="6.513"/><use xlink:href="#6" y="8.684"/><use xlink:href="#7" y="10.855"/></svg></svg></g></g></svg></svg>