<svg xmlns="http://www.w3.org/2000/svg" xmlns:xlink="http://www.w3.org/1999/xlink" width="740" height="474.2"><rect width="740" height="474.2" rx="0" ry="0" class="a"/><svg height="434.2" viewBox="0 0 70 43.42" width="700" x="20" xmlns="http://www.w3.org/2000/svg" xmlns:xlink="http://www.w3.org/1999/xlink" y="20"><style>@keyframes o{0%{transform:translateX(-70px)}.1%{transform:translateX(-210px)}1.5%{transform:translateX(-280px)}2.2%{transform:translateX(-350px)}2.9%{transform:translateX(-420px)}3.5%{transform:translateX(-490px)}4.2%{transform:translateX(-560px)}4.9%{transform:translateX(-630px)}5.6%{transform:translateX(-700px)}6.3%{transform:translateX(-770px)}7%{transform:translateX(-910px)}8.8%{transform:translateX(-1610px)}8.9%{transform:translateX(-2310px)}39.3%{transform:translateX(-2450px)}40.7%{transform:translateX(-2520px)}41.4%{transform:translateX(-2590px)}42%{transform:translateX(-2660px)}42.7%{transform:translateX(-2730px)}43.4%{transform:translateX(-2800px)}44.1%{transform:translateX(-2870px)}44.8%{transform:translateX(-2940px)}45.5%{transform:translateX(-3010px)}46.1%{transform:translateX(-3080px)}47.5%{transform:translateX(-3150px)}48.2%{transform:translateX(-3220px)}48.9%{transform:translateX(-3290px)}49.6%{transform:translateX(-3430px)}49.7%{transform:translateX(-3570px)}51.1%{transform:translateX(-3640px)}51.8%{transform:translateX(-3710px)}52.4%{transform:translateX(-3780px)}53.1%{transform:translateX(-3850px)}53.8%{transform:translateX(-3920px)}54.5%{transform:translateX(-3990px)}55.2%{transform:translateX(-4060px)}55.9%{transform:translateX(-4130px)}56.6%{transform:translateX(-4200px)}57.9%{transform:translateX(-4270px)}58.6%{transform:translateX(-4340px)}59.3%{transform:translateX(-4410px)}60%{transform:translateX(-4480px)}60.7%{transform:translateX(-4620px)}60.8%{transform:translateX(-4760px)}62.1%{transform:translateX(-4830px)}62.8%{transform:translateX(-4900px)}63.5%{transform:translateX(-4970px)}64.2%{transform:translateX(-5040px)}64.9%{transform:translateX(-5110px)}65.6%{transform:translateX(-5180px)}66.3%{transform:translateX(-5250px)}66.9%{transform:translateX(-5320px)}67.6%{transform:translateX(-5390px)}69%{transform:translateX(-5460px)}69.7%{transform:translateX(-5530px)}70.4%{transform:translateX(-5600px)}71%{transform:translateX(-5670px)}71.7%{transform:translateX(-5740px)}72.4%{transform:translateX(-5810px)}73.1%{transform:translateX(-5880px)}73.8%{transform:translateX(-5950px)}74.5%{transform:translateX(-6020px)}75.8%{transform:translateX(-6090px)}76.5%{transform:translateX(-6160px)}77.2%{transform:translateX(-6300px)}78.8%{transform:translateX(-6370px)}82.2%{transform:translateX(-6440px)}86.3%{transform:translateX(-7140px)}to{transform:translateX(-7210px)}}.a{fill:#2c3643}.c,.d,.e,.f,.g{fill:#fff;white-space:pre}.d,.e,.f,.g{fill:#e7e7e7;font-weight:700}.e,.f,.g{fill:#fff0a6}.f,.g{fill:#fff}.g{fill:#faaf4c}.h{fill:#41ff5b}.h,.i,.j,.k{white-space:pre}.i{fill:#9f93e6;font-weight:700}.j,.k{fill:#6f6b68}.k{fill:#ffc83f}</style><g font-family="Monaco,Consolas,Menlo,'Bitstream Vera Sans Mono','Powerline Symbols',monospace" font-size="1.67"><defs><symbol id="1"><text y="1.67" class="c">$</text></symbol><symbol id="2"><text y="1.67" class="c">$</text><text x="2.004" y="1.67" class="d">c</text></symbol><symbol id="3"><text y="1.67" class="c">$</text><text x="2.004" y="1.67" class="d">cat</text><text x="6.012" y="1.67" class="d">stat.sc</text></symbol><symbol id="4"><text y="1.67" class="c">using</text><text x="6.012" y="1.67" class="c">lib</text></symbol><symbol id="5"><text y="1.67" class="c">using</text><text x="6.012" y="1.67" class="c">lib</text><text x="10.02" y="1.67" class="e">&quot;com.lihaoyi::os-lib:0.7.8&quot;</text></symbol><symbol id="6"><text y="1.67" class="c">using</text><text x="6.012" y="1.67" class="c">lib</text><text x="10.02" y="1.67" class="e">&quot;com.lihaoyi::pprint:0.6.6&quot;</text></symbol><symbol id="7"><text y="1.67" class="f">import</text></symbol><symbol id="8"><text y="1.67" class="f">import</text><text x="7.014" y="1.67" class="g">pprint._</text></symbol><symbol id="9"><text y="1.67" class="f">import</text><text x="7.014" y="1.67" class="g">os._</text></symbol><symbol id="10"><text y="1.67" class="c">val</text><text x="4.008" y="1.67" class="c">path</text></symbol><symbol id="11"><text y="1.67" class="c">val</text><text x="4.008" y="1.67" class="c">path</text><text x="9.018" y="1.67" class="h">=</text><text x="11.022" y="1.67" class="c">Path</text><text x="15.03" y="1.67" class="h">(</text><text x="16.032" y="1.67" class="c">args</text><text x="20.04" y="1.67" class="h">(</text><text x="21.042" y="1.67" class="i">0</text><text x="22.044" y="1.67" class="h">),</text><text x="25.05" y="1.67" class="c">pwd</text><text x="28.056" y="1.67" class="h">)</text></symbol><symbol id="12"><text y="1.67" class="c">pprintln</text><text x="8.016" y="1.67" class="h">(</text><text x="9.018" y="1.67" class="c">os</text><text x="11.022" y="1.67" class="h">.</text><text x="12.024" y="1.67" class="c">stat</text><text x="16.032" y="1.67" class="h">(</text><text x="17.034" y="1.67" class="c">path</text></symbol><symbol id="13"><text y="1.67" class="c">pprintln</text><text x="8.016" y="1.67" class="h">(</text><text x="9.018" y="1.67" class="c">os</text><text x="11.022" y="1.67" class="h">.</text><text x="12.024" y="1.67" class="c">stat</text><text x="16.032" y="1.67" class="h">(</text><text x="17.034" y="1.67" class="c">path</text><text x="21.042" y="1.67" class="h">))</text></symbol><symbol id="14"><text y="1.67" class="c">$</text><text x="2.004" y="1.67" class="d">chmod</text><text x="8.016" y="1.67" class="d">+x</text><text x="11.022" y="1.67" class="d">stat.sc</text></symbol><symbol id="15"><text y="1.67" class="c">$</text><text x="2.004" y="1.67" class="d">echo</text><text x="7.014" y="1.67" class="d">&quot;Hello&quot;</text><text x="15.03" y="1.67" class="d">&gt;</text><text x="17.034" y="1.67" class="d">my_file</text></symbol><symbol id="16"><text y="1.67" class="c">$</text><text x="2.004" y="1.67" class="d">scala-cli</text><text x="12.024" y="1.67" class="d">./stat.sc</text><text x="22.044" y="1.67" class="d">--</text><text x="25.05" y="1.67" class="d">my_file</text></symbol><symbol id="17"><text y="1.67" class="j">Compiling</text><text x="10.02" y="1.67" class="j">project</text><text x="18.036" y="1.67" class="j">(Scala</text><text x="25.05" y="1.67" class="j">3.0.2,</text><text x="32.064" y="1.67" class="j">JVM)</text></symbol><symbol id="18"><text y="1.67" class="j">Compiled</text><text x="9.018" y="1.67" class="j">project</text><text x="17.034" y="1.67" class="j">(Scala</text><text x="24.048" y="1.67" class="j">3.0.2,</text><text x="31.062" y="1.67" class="j">JVM)</text></symbol><symbol id="19"><text y="1.67" class="k">StatInfo</text><text x="8.016" y="1.67" class="c">(</text></symbol><symbol id="20"><text x="2.004" y="1.67" class="c">size</text><text x="7.014" y="1.67" class="c">=</text><text x="9.018" y="1.67" style="white-space:pre" fill="#16c98d">6L</text><text x="11.022" y="1.67" class="c">,</text></symbol><symbol id="21"><text x="2.004" y="1.67" class="c">mtime</text><text x="8.016" y="1.67" class="c">=</text><text x="10.02" y="1.67" class="c">2021-10-20T15:24:25.426209Z,</text></symbol><symbol id="22"><text x="2.004" y="1.67" class="c">ctime</text><text x="8.016" y="1.67" class="c">=</text><text x="10.02" y="1.67" class="c">2021-10-20T15:24:25.426209Z,</text></symbol><symbol id="23"><text x="2.004" y="1.67" class="c">atime</text><text x="8.016" y="1.67" class="c">=</text><text x="10.02" y="1.67" class="c">2021-10-20T15:24:25.426209Z,</text></symbol><symbol id="24"><text x="2.004" y="1.67" class="c">fileType</text><text x="11.022" y="1.67" class="c">=</text><text x="13.026" y="1.67" class="c">File</text></symbol><symbol id="25"><text y="1.67" class="c">)</text></symbol><symbol id="a"><path fill="transparent" d="M0 0h70v21H0z"/></symbol><symbol id="b"><path fill="#b4b1b1" d="M0 0h1.102v2.171H0z"/></symbol></defs><path class="a" d="M0 0h70v43.42H0z"/><g style="animation-duration:13.194422s;animation-iteration-count:infinite;animation-name:o;animation-timing-function:steps(1,end)"><svg width="7280"><svg><use xlink:href="#a"/><use xlink:href="#b" x="-.004"/></svg><svg x="70"><use xlink:href="#a"/><use xlink:href="#b" x="-.004"/></svg><svg x="140"><use xlink:href="#a"/><use xlink:href="#b" x="1.996"/><use xlink:href="#1"/></svg><svg x="210"><use xlink:href="#a"/><use xlink:href="#b" x="1.996"/><use xlink:href="#1"/></svg><svg x="280"><use xlink:href="#a"/><use xlink:href="#b" x="1.996"/><use xlink:href="#1"/></svg><svg x="350"><use xlink:href="#a"/><use xlink:href="#b" x="1.996"/><use xlink:href="#1"/></svg><svg x="420"><use xlink:href="#a"/><use xlink:href="#b" x="2.996"/><use xlink:href="#2"/></svg><svg x="490"><use xlink:href="#a"/><use xlink:href="#b" x="5.996"/><text y="1.67" class="c">$</text><text x="2.004" y="1.67" class="d">cat</text></svg><svg x="560"><use xlink:href="#a"/><use xlink:href="#b" x="7.996"/><text y="1.67" class="c">$</text><text x="2.004" y="1.67" class="d">cat</text><text x="6.012" y="1.67" class="d">st</text></svg><svg x="630"><use xlink:href="#a"/><use xlink:href="#b" x="9.996"/><text y="1.67" class="c">$</text><text x="2.004" y="1.67" class="d">cat</text><text x="6.012" y="1.67" class="d">stat</text></svg><svg x="700"><use xlink:href="#a"/><use xlink:href="#b" x="11.996"/><text y="1.67" class="c">$</text><text x="2.004" y="1.67" class="d">cat</text><text x="6.012" y="1.67" class="d">stat.s</text></svg><svg x="770"><use xlink:href="#a"/><use xlink:href="#b" x="12.996"/><use xlink:href="#3"/></svg><svg x="840"><use xlink:href="#a"/><use xlink:href="#b" x="12.996"/><use xlink:href="#3"/></svg><svg x="910"><use xlink:href="#a"/><use xlink:href="#b" x="-.004" y="2.146"/><use xlink:href="#3"/></svg><svg x="980"><use xlink:href="#a"/><use xlink:href="#b" x="-.004" y="2.146"/><use xlink:href="#3"/></svg><svg x="1050"><use xlink:href="#a"/><use xlink:href="#b" x="8.996" y="2.146"/><use xlink:href="#3"/><use xlink:href="#4" y="2.171"/></svg><svg x="1120"><use xlink:href="#a"/><use xlink:href="#b" x="9.996" y="2.146"/><use xlink:href="#3"/><use xlink:href="#4" y="2.171"/></svg><svg x="1190"><use xlink:href="#a"/><use xlink:href="#b" x="36.996" y="2.146"/><use xlink:href="#3"/><use xlink:href="#5" y="2.171"/></svg><svg x="1260"><use xlink:href="#a"/><use xlink:href="#b" x="-.004" y="4.317"/><use xlink:href="#3"/><use xlink:href="#5" y="2.171"/></svg><svg x="1330"><use xlink:href="#a"/><use xlink:href="#b" x="4.996" y="4.317"/><use xlink:href="#3"/><use xlink:href="#5" y="2.171"/><text y="6.012" class="c">using</text></svg><svg x="1400"><use xlink:href="#a"/><use xlink:href="#b" x="6.996" y="6.488"/><use xlink:href="#3"/><use xlink:href="#5" y="2.171"/><use xlink:href="#6" y="4.342"/><use xlink:href="#7" y="6.513"/></svg><svg x="1470"><use xlink:href="#a"/><use xlink:href="#b" x="6.996" y="6.488"/><use xlink:href="#3"/><use xlink:href="#5" y="2.171"/><use xlink:href="#6" y="4.342"/><use xlink:href="#7" y="6.513"/></svg><svg x="1540"><use xlink:href="#a"/><use xlink:href="#b" x="7.996" y="13.001"/><use xlink:href="#3"/><use xlink:href="#5" y="2.171"/><use xlink:href="#6" y="4.342"/><use xlink:href="#8" y="6.513"/><use xlink:href="#9" y="8.684"/><use xlink:href="#10" y="13.026"/></svg><svg x="1610"><use xlink:href="#a"/><use xlink:href="#b" x="8.996" y="13.001"/><use xlink:href="#3"/><use xlink:href="#5" y="2.171"/><use xlink:href="#6" y="4.342"/><use xlink:href="#8" y="6.513"/><use xlink:href="#9" y="8.684"/><use xlink:href="#10" y="13.026"/></svg><svg x="1680"><use xlink:href="#a"/><use xlink:href="#b" x="19.996" y="13.001"/><use xlink:href="#3"/><use xlink:href="#5" y="2.171"/><use xlink:href="#6" y="4.342"/><use xlink:href="#8" y="6.513"/><use xlink:href="#9" y="8.684"/><text y="14.696" class="c">val</text><text x="4.008" y="14.696" class="c">path</text><text x="9.018" y="14.696" class="h">=</text><text x="11.022" y="14.696" class="c">Path</text><text x="15.03" y="14.696" class="h">(</text><text x="16.032" y="14.696" class="c">args</text></svg><svg x="1750"><use xlink:href="#a"/><use xlink:href="#b" x="20.996" y="13.001"/><use xlink:href="#3"/><use xlink:href="#5" y="2.171"/><use xlink:href="#6" y="4.342"/><use xlink:href="#8" y="6.513"/><use xlink:href="#9" y="8.684"/><text y="14.696" class="c">val</text><text x="4.008" y="14.696" class="c">path</text><text x="9.018" y="14.696" class="h">=</text><text x="11.022" y="14.696" class="c">Path</text><text x="15.03" y="14.696" class="h">(</text><text x="16.032" y="14.696" class="c">args</text><text x="20.04" y="14.696" class="h">(</text></svg><svg x="1820"><use xlink:href="#a"/><use xlink:href="#b" x="21.996" y="13.001"/><use xlink:href="#3"/><use xlink:href="#5" y="2.171"/><use xlink:href="#6" y="4.342"/><use xlink:href="#8" y="6.513"/><use xlink:href="#9" y="8.684"/><text y="14.696" class="c">val</text><text x="4.008" y="14.696" class="c">path</text><text x="9.018" y="14.696" class="h">=</text><text x="11.022" y="14.696" class="c">Path</text><text x="15.03" y="14.696" class="h">(</text><text x="16.032" y="14.696" class="c">args</text><text x="20.04" y="14.696" class="h">(</text><text x="21.042" y="14.696" class="i">0</text></svg><svg x="1890"><use xlink:href="#a"/><use xlink:href="#b" x="-.004" y="15.172"/><use xlink:href="#3"/><use xlink:href="#5" y="2.171"/><use xlink:href="#6" y="4.342"/><use xlink:href="#8" y="6.513"/><use xlink:href="#9" y="8.684"/><use xlink:href="#11" y="13.026"/></svg><svg x="1960"><use xlink:href="#a"/><use xlink:href="#b" x="11.996" y="15.172"/><use xlink:href="#3"/><use xlink:href="#5" y="2.171"/><use xlink:href="#6" y="4.342"/><use xlink:href="#8" y="6.513"/><use xlink:href="#9" y="8.684"/><use xlink:href="#11" y="13.026"/><text y="16.867" class="c">pprintln</text><text x="8.016" y="16.867" class="h">(</text><text x="9.018" y="16.867" class="c">os</text><text x="11.022" y="16.867" class="h">.</text></svg><svg x="2030"><use xlink:href="#a"/><use xlink:href="#b" x="15.996" y="15.172"/><use xlink:href="#3"/><use xlink:href="#5" y="2.171"/><use xlink:href="#6" y="4.342"/><use xlink:href="#8" y="6.513"/><use xlink:href="#9" y="8.684"/><use xlink:href="#11" y="13.026"/><text y="16.867" class="c">pprintln</text><text x="8.016" y="16.867" class="h">(</text><text x="9.018" y="16.867" class="c">os</text><text x="11.022" y="16.867" class="h">.</text><text x="12.024" y="16.867" class="c">stat</text></svg><svg x="2100"><use xlink:href="#a"/><use xlink:href="#b" x="20.996" y="15.172"/><use xlink:href="#3"/><use xlink:href="#5" y="2.171"/><use xlink:href="#6" y="4.342"/><use xlink:href="#8" y="6.513"/><use xlink:href="#9" y="8.684"/><use xlink:href="#11" y="13.026"/><use xlink:href="#12" y="15.197"/></svg><svg x="2170"><use xlink:href="#a"/><use xlink:href="#b" x="20.996" y="15.172"/><use xlink:href="#3"/><use xlink:href="#5" y="2.171"/><use xlink:href="#6" y="4.342"/><use xlink:href="#8" y="6.513"/><use xlink:href="#9" y="8.684"/><use xlink:href="#11" y="13.026"/><use xlink:href="#12" y="15.197"/></svg><svg x="2240"><use xlink:href="#a"/><use xlink:href="#b" x="-.004" y="19.514"/><use xlink:href="#3"/><use xlink:href="#5" y="2.171"/><use xlink:href="#6" y="4.342"/><use xlink:href="#8" y="6.513"/><use xlink:href="#9" y="8.684"/><use xlink:href="#11" y="13.026"/><use xlink:href="#13" y="15.197"/></svg><svg x="2310"><use xlink:href="#a"/><use xlink:href="#b" x="-.004" y="19.514"/><use xlink:href="#3"/><use xlink:href="#5" y="2.171"/><use xlink:href="#6" y="4.342"/><use xlink:href="#8" y="6.513"/><use xlink:href="#9" y="8.684"/><use xlink:href="#11" y="13.026"/><use xlink:href="#13" y="15.197"/></svg><svg x="2380"><use xlink:href="#a"/><use xlink:href="#b" x="1.996" y="19.514"/><use xlink:href="#3"/><use xlink:href="#5" y="2.171"/><use xlink:href="#6" y="4.342"/><use xlink:href="#8" y="6.513"/><use xlink:href="#9" y="8.684"/><use xlink:href="#11" y="13.026"/><use xlink:href="#13" y="15.197"/><use xlink:href="#1" y="19.539"/></svg><svg x="2450"><use xlink:href="#a"/><use xlink:href="#b" x="1.996" y="19.514"/><use xlink:href="#3"/><use xlink:href="#5" y="2.171"/><use xlink:href="#6" y="4.342"/><use xlink:href="#8" y="6.513"/><use xlink:href="#9" y="8.684"/><use xlink:href="#11" y="13.026"/><use xlink:href="#13" y="15.197"/><use xlink:href="#1" y="19.539"/></svg><svg x="2520"><use xlink:href="#a"/><use xlink:href="#b" x="1.996" y="19.514"/><use xlink:href="#3"/><use xlink:href="#5" y="2.171"/><use xlink:href="#6" y="4.342"/><use xlink:href="#8" y="6.513"/><use xlink:href="#9" y="8.684"/><use xlink:href="#11" y="13.026"/><use xlink:href="#13" y="15.197"/><use xlink:href="#1" y="19.539"/></svg><svg x="2590"><use xlink:href="#a"/><use xlink:href="#b" x="1.996" y="19.514"/><use xlink:href="#3"/><use xlink:href="#5" y="2.171"/><use xlink:href="#6" y="4.342"/><use xlink:href="#8" y="6.513"/><use xlink:href="#9" y="8.684"/><use xlink:href="#11" y="13.026"/><use xlink:href="#13" y="15.197"/><use xlink:href="#1" y="19.539"/></svg><svg x="2660"><use xlink:href="#a"/><use xlink:href="#b" x="2.996" y="19.514"/><use xlink:href="#3"/><use xlink:href="#5" y="2.171"/><use xlink:href="#6" y="4.342"/><use xlink:href="#8" y="6.513"/><use xlink:href="#9" y="8.684"/><use xlink:href="#11" y="13.026"/><use xlink:href="#13" y="15.197"/><use xlink:href="#2" y="19.539"/></svg><svg x="2730"><use xlink:href="#a"/><use xlink:href="#b" x="4.996" y="19.514"/><use xlink:href="#3"/><use xlink:href="#5" y="2.171"/><use xlink:href="#6" y="4.342"/><use xlink:href="#8" y="6.513"/><use xlink:href="#9" y="8.684"/><use xlink:href="#11" y="13.026"/><use xlink:href="#13" y="15.197"/><text y="21.209" class="c">$</text><text x="2.004" y="21.209" class="d">chm</text></svg><svg x="2800"><use xlink:href="#a"/><use xlink:href="#b" x="6.996" y="19.514"/><use xlink:href="#3"/><use xlink:href="#5" y="2.171"/><use xlink:href="#6" y="4.342"/><use xlink:href="#8" y="6.513"/><use xlink:href="#9" y="8.684"/><use xlink:href="#11" y="13.026"/><use xlink:href="#13" y="15.197"/><text y="21.209" class="c">$</text><text x="2.004" y="21.209" class="d">chmod</text></svg><svg x="2870"><use xlink:href="#a"/><use xlink:href="#b" x="8.996" y="19.514"/><use xlink:href="#3"/><use xlink:href="#5" y="2.171"/><use xlink:href="#6" y="4.342"/><use xlink:href="#8" y="6.513"/><use xlink:href="#9" y="8.684"/><use xlink:href="#11" y="13.026"/><use xlink:href="#13" y="15.197"/><text y="21.209" class="c">$</text><text x="2.004" y="21.209" class="d">chmod</text><text x="8.016" y="21.209" class="d">+</text></svg><svg x="2940"><use xlink:href="#a"/><use xlink:href="#b" x="10.996" y="19.514"/><use xlink:href="#3"/><use xlink:href="#5" y="2.171"/><use xlink:href="#6" y="4.342"/><use xlink:href="#8" y="6.513"/><use xlink:href="#9" y="8.684"/><use xlink:href="#11" y="13.026"/><use xlink:href="#13" y="15.197"/><text y="21.209" class="c">$</text><text x="2.004" y="21.209" class="d">chmod</text><text x="8.016" y="21.209" class="d">+x</text></svg><svg x="3010"><use xlink:href="#a"/><use xlink:href="#b" x="12.996" y="19.514"/><use xlink:href="#3"/><use xlink:href="#5" y="2.171"/><use xlink:href="#6" y="4.342"/><use xlink:href="#8" y="6.513"/><use xlink:href="#9" y="8.684"/><use xlink:href="#11" y="13.026"/><use xlink:href="#13" y="15.197"/><text y="21.209" class="c">$</text><text x="2.004" y="21.209" class="d">chmod</text><text x="8.016" y="21.209" class="d">+x</text><text x="11.022" y="21.209" class="d">st</text></svg><svg x="3080"><use xlink:href="#a"/><use xlink:href="#b" x="14.996" y="19.514"/><use xlink:href="#3"/><use xlink:href="#5" y="2.171"/><use xlink:href="#6" y="4.342"/><use xlink:href="#8" y="6.513"/><use xlink:href="#9" y="8.684"/><use xlink:href="#11" y="13.026"/><use xlink:href="#13" y="15.197"/><text y="21.209" class="c">$</text><text x="2.004" y="21.209" class="d">chmod</text><text x="8.016" y="21.209" class="d">+x</text><text x="11.022" y="21.209" class="d">stat</text></svg><svg x="3150"><use xlink:href="#a"/><use xlink:href="#b" x="16.996" y="19.514"/><use xlink:href="#3"/><use xlink:href="#5" y="2.171"/><use xlink:href="#6" y="4.342"/><use xlink:href="#8" y="6.513"/><use xlink:href="#9" y="8.684"/><use xlink:href="#11" y="13.026"/><use xlink:href="#13" y="15.197"/><text y="21.209" class="c">$</text><text x="2.004" y="21.209" class="d">chmod</text><text x="8.016" y="21.209" class="d">+x</text><text x="11.022" y="21.209" class="d">stat.s</text></svg><svg x="3220"><use xlink:href="#a"/><use xlink:href="#b" x="17.996" y="19.514"/><use xlink:href="#3"/><use xlink:href="#5" y="2.171"/><use xlink:href="#6" y="4.342"/><use xlink:href="#8" y="6.513"/><use xlink:href="#9" y="8.684"/><use xlink:href="#11" y="13.026"/><use xlink:href="#13" y="15.197"/><use xlink:href="#14" y="19.539"/></svg><svg x="3290"><use xlink:href="#a"/><use xlink:href="#b" x="17.996" y="19.514"/><use xlink:href="#3"/><use xlink:href="#5" y="2.171"/><use xlink:href="#6" y="4.342"/><use xlink:href="#8" y="6.513"/><use xlink:href="#9" y="8.684"/><use xlink:href="#11" y="13.026"/><use xlink:href="#13" y="15.197"/><use xlink:href="#14" y="19.539"/></svg><svg x="3360"><use xlink:href="#a"/><use xlink:href="#b" x="17.996" y="19.514"/><use xlink:href="#3"/><use xlink:href="#5" y="2.171"/><use xlink:href="#6" y="4.342"/><use xlink:href="#8" y="6.513"/><use xlink:href="#9" y="8.684"/><use xlink:href="#11" y="13.026"/><use xlink:href="#13" y="15.197"/><use xlink:href="#14" y="19.539"/></svg><svg x="3430"><use xlink:href="#a"/><use xlink:href="#b" x="-.004" y="21.685"/><use xlink:href="#3"/><use xlink:href="#5" y="2.171"/><use xlink:href="#6" y="4.342"/><use xlink:href="#8" y="6.513"/><use xlink:href="#9" y="8.684"/><use xlink:href="#11" y="13.026"/><use xlink:href="#13" y="15.197"/><use xlink:href="#14" y="19.539"/></svg><svg x="3500"><use xlink:href="#a"/><use xlink:href="#b" x="1.996" y="21.685"/><use xlink:href="#3"/><use xlink:href="#5" y="2.171"/><use xlink:href="#6" y="4.342"/><use xlink:href="#8" y="6.513"/><use xlink:href="#9" y="8.684"/><use xlink:href="#11" y="13.026"/><use xlink:href="#13" y="15.197"/><use xlink:href="#14" y="19.539"/><use xlink:href="#1" y="21.71"/></svg><svg x="3570"><use xlink:href="#a"/><use xlink:href="#b" x="1.996" y="21.685"/><use xlink:href="#3"/><use xlink:href="#5" y="2.171"/><use xlink:href="#6" y="4.342"/><use xlink:href="#8" y="6.513"/><use xlink:href="#9" y="8.684"/><use xlink:href="#11" y="13.026"/><use xlink:href="#13" y="15.197"/><use xlink:href="#14" y="19.539"/><use xlink:href="#1" y="21.71"/></svg><svg x="3640"><use xlink:href="#a"/><use xlink:href="#b" x="1.996" y="21.685"/><use xlink:href="#3"/><use xlink:href="#5" y="2.171"/><use xlink:href="#6" y="4.342"/><use xlink:href="#8" y="6.513"/><use xlink:href="#9" y="8.684"/><use xlink:href="#11" y="13.026"/><use xlink:href="#13" y="15.197"/><use xlink:href="#14" y="19.539"/><use xlink:href="#1" y="21.71"/></svg><svg x="3710"><use xlink:href="#a"/><use xlink:href="#b" x="1.996" y="21.685"/><use xlink:href="#3"/><use xlink:href="#5" y="2.171"/><use xlink:href="#6" y="4.342"/><use xlink:href="#8" y="6.513"/><use xlink:href="#9" y="8.684"/><use xlink:href="#11" y="13.026"/><use xlink:href="#13" y="15.197"/><use xlink:href="#14" y="19.539"/><use xlink:href="#1" y="21.71"/></svg><svg x="3780"><use xlink:href="#a"/><use xlink:href="#b" x="2.996" y="21.685"/><use xlink:href="#3"/><use xlink:href="#5" y="2.171"/><use xlink:href="#6" y="4.342"/><use xlink:href="#8" y="6.513"/><use xlink:href="#9" y="8.684"/><use xlink:href="#11" y="13.026"/><use xlink:href="#13" y="15.197"/><use xlink:href="#14" y="19.539"/><text y="23.38" class="c">$</text><text x="2.004" y="23.38" class="d">e</text></svg><svg x="3850"><use xlink:href="#a"/><use xlink:href="#b" x="5.996" y="21.685"/><use xlink:href="#3"/><use xlink:href="#5" y="2.171"/><use xlink:href="#6" y="4.342"/><use xlink:href="#8" y="6.513"/><use xlink:href="#9" y="8.684"/><use xlink:href="#11" y="13.026"/><use xlink:href="#13" y="15.197"/><use xlink:href="#14" y="19.539"/><text y="23.38" class="c">$</text><text x="2.004" y="23.38" class="d">echo</text></svg><svg x="3920"><use xlink:href="#a"/><use xlink:href="#b" x="7.996" y="21.685"/><use xlink:href="#3"/><use xlink:href="#5" y="2.171"/><use xlink:href="#6" y="4.342"/><use xlink:href="#8" y="6.513"/><use xlink:href="#9" y="8.684"/><use xlink:href="#11" y="13.026"/><use xlink:href="#13" y="15.197"/><use xlink:href="#14" y="19.539"/><text y="23.38" class="c">$</text><text x="2.004" y="23.38" class="d">echo</text><text x="7.014" y="23.38" class="d">&quot;</text></svg><svg x="3990"><use xlink:href="#a"/><use xlink:href="#b" x="9.996" y="21.685"/><use xlink:href="#3"/><use xlink:href="#5" y="2.171"/><use xlink:href="#6" y="4.342"/><use xlink:href="#8" y="6.513"/><use xlink:href="#9" y="8.684"/><use xlink:href="#11" y="13.026"/><use xlink:href="#13" y="15.197"/><use xlink:href="#14" y="19.539"/><text y="23.38" class="c">$</text><text x="2.004" y="23.38" class="d">echo</text><text x="7.014" y="23.38" class="d">&quot;He</text></svg><svg x="4060"><use xlink:href="#a"/><use xlink:href="#b" x="11.996" y="21.685"/><use xlink:href="#3"/><use xlink:href="#5" y="2.171"/><use xlink:href="#6" y="4.342"/><use xlink:href="#8" y="6.513"/><use xlink:href="#9" y="8.684"/><use xlink:href="#11" y="13.026"/><use xlink:href="#13" y="15.197"/><use xlink:href="#14" y="19.539"/><text y="23.38" class="c">$</text><text x="2.004" y="23.38" class="d">echo</text><text x="7.014" y="23.38" class="d">&quot;Hell</text></svg><svg x="4130"><use xlink:href="#a"/><use xlink:href="#b" x="13.996" y="21.685"/><use xlink:href="#3"/><use xlink:href="#5" y="2.171"/><use xlink:href="#6" y="4.342"/><use xlink:href="#8" y="6.513"/><use xlink:href="#9" y="8.684"/><use xlink:href="#11" y="13.026"/><use xlink:href="#13" y="15.197"/><use xlink:href="#14" y="19.539"/><text y="23.38" class="c">$</text><text x="2.004" y="23.38" class="d">echo</text><text x="7.014" y="23.38" class="d">&quot;Hello&quot;</text></svg><svg x="4200"><use xlink:href="#a"/><use xlink:href="#b" x="16.996" y="21.685"/><use xlink:href="#3"/><use xlink:href="#5" y="2.171"/><use xlink:href="#6" y="4.342"/><use xlink:href="#8" y="6.513"/><use xlink:href="#9" y="8.684"/><use xlink:href="#11" y="13.026"/><use xlink:href="#13" y="15.197"/><use xlink:href="#14" y="19.539"/><text y="23.38" class="c">$</text><text x="2.004" y="23.38" class="d">echo</text><text x="7.014" y="23.38" class="d">&quot;Hello&quot;</text><text x="15.03" y="23.38" class="d">&gt;</text></svg><svg x="4270"><use xlink:href="#a"/><use xlink:href="#b" x="18.996" y="21.685"/><use xlink:href="#3"/><use xlink:href="#5" y="2.171"/><use xlink:href="#6" y="4.342"/><use xlink:href="#8" y="6.513"/><use xlink:href="#9" y="8.684"/><use xlink:href="#11" y="13.026"/><use xlink:href="#13" y="15.197"/><use xlink:href="#14" y="19.539"/><text y="23.38" class="c">$</text><text x="2.004" y="23.38" class="d">echo</text><text x="7.014" y="23.38" class="d">&quot;Hello&quot;</text><text x="15.03" y="23.38" class="d">&gt;</text><text x="17.034" y="23.38" class="d">my</text></svg><svg x="4340"><use xlink:href="#a"/><use xlink:href="#b" x="20.996" y="21.685"/><use xlink:href="#3"/><use xlink:href="#5" y="2.171"/><use xlink:href="#6" y="4.342"/><use xlink:href="#8" y="6.513"/><use xlink:href="#9" y="8.684"/><use xlink:href="#11" y="13.026"/><use xlink:href="#13" y="15.197"/><use xlink:href="#14" y="19.539"/><text y="23.38" class="c">$</text><text x="2.004" y="23.38" class="d">echo</text><text x="7.014" y="23.38" class="d">&quot;Hello&quot;</text><text x="15.03" y="23.38" class="d">&gt;</text><text x="17.034" y="23.38" class="d">my_f</text></svg><svg x="4410"><use xlink:href="#a"/><use xlink:href="#b" x="22.996" y="21.685"/><use xlink:href="#3"/><use xlink:href="#5" y="2.171"/><use xlink:href="#6" y="4.342"/><use xlink:href="#8" y="6.513"/><use xlink:href="#9" y="8.684"/><use xlink:href="#11" y="13.026"/><use xlink:href="#13" y="15.197"/><use xlink:href="#14" y="19.539"/><text y="23.38" class="c">$</text><text x="2.004" y="23.38" class="d">echo</text><text x="7.014" y="23.38" class="d">&quot;Hello&quot;</text><text x="15.03" y="23.38" class="d">&gt;</text><text x="17.034" y="23.38" class="d">my_fil</text></svg><svg x="4480"><use xlink:href="#a"/><use xlink:href="#b" x="23.996" y="21.685"/><use xlink:href="#3"/><use xlink:href="#5" y="2.171"/><use xlink:href="#6" y="4.342"/><use xlink:href="#8" y="6.513"/><use xlink:href="#9" y="8.684"/><use xlink:href="#11" y="13.026"/><use xlink:href="#13" y="15.197"/><use xlink:href="#14" y="19.539"/><use xlink:href="#15" y="21.71"/></svg><svg x="4550"><use xlink:href="#a"/><use xlink:href="#b" x="23.996" y="21.685"/><use xlink:href="#3"/><use xlink:href="#5" y="2.171"/><use xlink:href="#6" y="4.342"/><use xlink:href="#8" y="6.513"/><use xlink:href="#9" y="8.684"/><use xlink:href="#11" y="13.026"/><use xlink:href="#13" y="15.197"/><use xlink:href="#14" y="19.539"/><use xlink:href="#15" y="21.71"/></svg><svg x="4620"><use xlink:href="#a"/><use xlink:href="#b" x="-.004" y="23.856"/><use xlink:href="#3"/><use xlink:href="#5" y="2.171"/><use xlink:href="#6" y="4.342"/><use xlink:href="#8" y="6.513"/><use xlink:href="#9" y="8.684"/><use xlink:href="#11" y="13.026"/><use xlink:href="#13" y="15.197"/><use xlink:href="#14" y="19.539"/><use xlink:href="#15" y="21.71"/></svg><svg x="4690"><use xlink:href="#a"/><use xlink:href="#b" x="1.996" y="23.856"/><use xlink:href="#3"/><use xlink:href="#5" y="2.171"/><use xlink:href="#6" y="4.342"/><use xlink:href="#8" y="6.513"/><use xlink:href="#9" y="8.684"/><use xlink:href="#11" y="13.026"/><use xlink:href="#13" y="15.197"/><use xlink:href="#14" y="19.539"/><use xlink:href="#15" y="21.71"/><use xlink:href="#1" y="23.881"/></svg><svg x="4760"><use xlink:href="#a"/><use xlink:href="#b" x="1.996" y="23.856"/><use xlink:href="#3"/><use xlink:href="#5" y="2.171"/><use xlink:href="#6" y="4.342"/><use xlink:href="#8" y="6.513"/><use xlink:href="#9" y="8.684"/><use xlink:href="#11" y="13.026"/><use xlink:href="#13" y="15.197"/><use xlink:href="#14" y="19.539"/><use xlink:href="#15" y="21.71"/><use xlink:href="#1" y="23.881"/></svg><svg x="4830"><use xlink:href="#a"/><use xlink:href="#b" x="1.996" y="23.856"/><use xlink:href="#3"/><use xlink:href="#5" y="2.171"/><use xlink:href="#6" y="4.342"/><use xlink:href="#8" y="6.513"/><use xlink:href="#9" y="8.684"/><use xlink:href="#11" y="13.026"/><use xlink:href="#13" y="15.197"/><use xlink:href="#14" y="19.539"/><use xlink:href="#15" y="21.71"/><use xlink:href="#1" y="23.881"/></svg><svg x="4900"><use xlink:href="#a"/><use xlink:href="#b" x="1.996" y="23.856"/><use xlink:href="#3"/><use xlink:href="#5" y="2.171"/><use xlink:href="#6" y="4.342"/><use xlink:href="#8" y="6.513"/><use xlink:href="#9" y="8.684"/><use xlink:href="#11" y="13.026"/><use xlink:href="#13" y="15.197"/><use xlink:href="#14" y="19.539"/><use xlink:href="#15" y="21.71"/><use xlink:href="#1" y="23.881"/></svg><svg x="4970"><use xlink:href="#a"/><use xlink:href="#b" x="1.996" y="23.856"/><use xlink:href="#3"/><use xlink:href="#5" y="2.171"/><use xlink:href="#6" y="4.342"/><use xlink:href="#8" y="6.513"/><use xlink:href="#9" y="8.684"/><use xlink:href="#11" y="13.026"/><use xlink:href="#13" y="15.197"/><use xlink:href="#14" y="19.539"/><use xlink:href="#15" y="21.71"/><use xlink:href="#1" y="23.881"/></svg><svg x="5040"><use xlink:href="#a"/><use xlink:href="#b" x="3.996" y="23.856"/><use xlink:href="#3"/><use xlink:href="#5" y="2.171"/><use xlink:href="#6" y="4.342"/><use xlink:href="#8" y="6.513"/><use xlink:href="#9" y="8.684"/><use xlink:href="#11" y="13.026"/><use xlink:href="#13" y="15.197"/><use xlink:href="#14" y="19.539"/><use xlink:href="#15" y="21.71"/><text y="25.551" class="c">$</text><text x="2.004" y="25.551" class="d">sc</text></svg><svg x="5110"><use xlink:href="#a"/><use xlink:href="#b" x="5.996" y="23.856"/><use xlink:href="#3"/><use xlink:href="#5" y="2.171"/><use xlink:href="#6" y="4.342"/><use xlink:href="#8" y="6.513"/><use xlink:href="#9" y="8.684"/><use xlink:href="#11" y="13.026"/><use xlink:href="#13" y="15.197"/><use xlink:href="#14" y="19.539"/><use xlink:href="#15" y="21.71"/><text y="25.551" class="c">$</text><text x="2.004" y="25.551" class="d">scal</text></svg><svg x="5180"><use xlink:href="#a"/><use xlink:href="#b" x="7.996" y="23.856"/><use xlink:href="#3"/><use xlink:href="#5" y="2.171"/><use xlink:href="#6" y="4.342"/><use xlink:href="#8" y="6.513"/><use xlink:href="#9" y="8.684"/><use xlink:href="#11" y="13.026"/><use xlink:href="#13" y="15.197"/><use xlink:href="#14" y="19.539"/><use xlink:href="#15" y="21.71"/><text y="25.551" class="c">$</text><text x="2.004" y="25.551" class="d">scala-</text></svg><svg x="5250"><use xlink:href="#a"/><use xlink:href="#b" x="9.996" y="23.856"/><use xlink:href="#3"/><use xlink:href="#5" y="2.171"/><use xlink:href="#6" y="4.342"/><use xlink:href="#8" y="6.513"/><use xlink:href="#9" y="8.684"/><use xlink:href="#11" y="13.026"/><use xlink:href="#13" y="15.197"/><use xlink:href="#14" y="19.539"/><use xlink:href="#15" y="21.71"/><text y="25.551" class="c">$</text><text x="2.004" y="25.551" class="d">scala-cl</text></svg><svg x="5320"><use xlink:href="#a"/><use xlink:href="#b" x="11.996" y="23.856"/><use xlink:href="#3"/><use xlink:href="#5" y="2.171"/><use xlink:href="#6" y="4.342"/><use xlink:href="#8" y="6.513"/><use xlink:href="#9" y="8.684"/><use xlink:href="#11" y="13.026"/><use xlink:href="#13" y="15.197"/><use xlink:href="#14" y="19.539"/><use xlink:href="#15" y="21.71"/><text y="25.551" class="c">$</text><text x="2.004" y="25.551" class="d">scala-cli</text></svg><svg x="5390"><use xlink:href="#a"/><use xlink:href="#b" x="13.996" y="23.856"/><use xlink:href="#3"/><use xlink:href="#5" y="2.171"/><use xlink:href="#6" y="4.342"/><use xlink:href="#8" y="6.513"/><use xlink:href="#9" y="8.684"/><use xlink:href="#11" y="13.026"/><use xlink:href="#13" y="15.197"/><use xlink:href="#14" y="19.539"/><use xlink:href="#15" y="21.71"/><text y="25.551" class="c">$</text><text x="2.004" y="25.551" class="d">scala-cli</text><text x="12.024" y="25.551" class="d">./</text></svg><svg x="5460"><use xlink:href="#a"/><use xlink:href="#b" x="14.996" y="23.856"/><use xlink:href="#3"/><use xlink:href="#5" y="2.171"/><use xlink:href="#6" y="4.342"/><use xlink:href="#8" y="6.513"/><use xlink:href="#9" y="8.684"/><use xlink:href="#11" y="13.026"/><use xlink:href="#13" y="15.197"/><use xlink:href="#14" y="19.539"/><use xlink:href="#15" y="21.71"/><text y="25.551" class="c">$</text><text x="2.004" y="25.551" class="d">scala-cli</text><text x="12.024" y="25.551" class="d">./s</text></svg><svg x="5530"><use xlink:href="#a"/><use xlink:href="#b" x="16.996" y="23.856"/><use xlink:href="#3"/><use xlink:href="#5" y="2.171"/><use xlink:href="#6" y="4.342"/><use xlink:href="#8" y="6.513"/><use xlink:href="#9" y="8.684"/><use xlink:href="#11" y="13.026"/><use xlink:href="#13" y="15.197"/><use xlink:href="#14" y="19.539"/><use xlink:href="#15" y="21.71"/><text y="25.551" class="c">$</text><text x="2.004" y="25.551" class="d">scala-cli</text><text x="12.024" y="25.551" class="d">./sta</text></svg><svg x="5600"><use xlink:href="#a"/><use xlink:href="#b" x="18.996" y="23.856"/><use xlink:href="#3"/><use xlink:href="#5" y="2.171"/><use xlink:href="#6" y="4.342"/><use xlink:href="#8" y="6.513"/><use xlink:href="#9" y="8.684"/><use xlink:href="#11" y="13.026"/><use xlink:href="#13" y="15.197"/><use xlink:href="#14" y="19.539"/><use xlink:href="#15" y="21.71"/><text y="25.551" class="c">$</text><text x="2.004" y="25.551" class="d">scala-cli</text><text x="12.024" y="25.551" class="d">./stat.</text></svg><svg x="5670"><use xlink:href="#a"/><use xlink:href="#b" x="20.996" y="23.856"/><use xlink:href="#3"/><use xlink:href="#5" y="2.171"/><use xlink:href="#6" y="4.342"/><use xlink:href="#8" y="6.513"/><use xlink:href="#9" y="8.684"/><use xlink:href="#11" y="13.026"/><use xlink:href="#13" y="15.197"/><use xlink:href="#14" y="19.539"/><use xlink:href="#15" y="21.71"/><text y="25.551" class="c">$</text><text x="2.004" y="25.551" class="d">scala-cli</text><text x="12.024" y="25.551" class="d">./stat.sc</text></svg><svg x="5740"><use xlink:href="#a"/><use xlink:href="#b" x="22.996" y="23.856"/><use xlink:href="#3"/><use xlink:href="#5" y="2.171"/><use xlink:href="#6" y="4.342"/><use xlink:href="#8" y="6.513"/><use xlink:href="#9" y="8.684"/><use xlink:href="#11" y="13.026"/><use xlink:href="#13" y="15.197"/><use xlink:href="#14" y="19.539"/><use xlink:href="#15" y="21.71"/><text y="25.551" class="c">$</text><text x="2.004" y="25.551" class="d">scala-cli</text><text x="12.024" y="25.551" class="d">./stat.sc</text><text x="22.044" y="25.551" class="d">-</text></svg><svg x="5810"><use xlink:href="#a"/><use xlink:href="#b" x="24.996" y="23.856"/><use xlink:href="#3"/><use xlink:href="#5" y="2.171"/><use xlink:href="#6" y="4.342"/><use xlink:href="#8" y="6.513"/><use xlink:href="#9" y="8.684"/><use xlink:href="#11" y="13.026"/><use xlink:href="#13" y="15.197"/><use xlink:href="#14" y="19.539"/><use xlink:href="#15" y="21.71"/><text y="25.551" class="c">$</text><text x="2.004" y="25.551" class="d">scala-cli</text><text x="12.024" y="25.551" class="d">./stat.sc</text><text x="22.044" y="25.551" class="d">--</text></svg><svg x="5880"><use xlink:href="#a"/><use xlink:href="#b" x="26.996" y="23.856"/><use xlink:href="#3"/><use xlink:href="#5" y="2.171"/><use xlink:href="#6" y="4.342"/><use xlink:href="#8" y="6.513"/><use xlink:href="#9" y="8.684"/><use xlink:href="#11" y="13.026"/><use xlink:href="#13" y="15.197"/><use xlink:href="#14" y="19.539"/><use xlink:href="#15" y="21.71"/><text y="25.551" class="c">$</text><text x="2.004" y="25.551" class="d">scala-cli</text><text x="12.024" y="25.551" class="d">./stat.sc</text><text x="22.044" y="25.551" class="d">--</text><text x="25.05" y="25.551" class="d">my</text></svg><svg x="5950"><use xlink:href="#a"/><use xlink:href="#b" x="28.996" y="23.856"/><use xlink:href="#3"/><use xlink:href="#5" y="2.171"/><use xlink:href="#6" y="4.342"/><use xlink:href="#8" y="6.513"/><use xlink:href="#9" y="8.684"/><use xlink:href="#11" y="13.026"/><use xlink:href="#13" y="15.197"/><use xlink:href="#14" y="19.539"/><use xlink:href="#15" y="21.71"/><text y="25.551" class="c">$</text><text x="2.004" y="25.551" class="d">scala-cli</text><text x="12.024" y="25.551" class="d">./stat.sc</text><text x="22.044" y="25.551" class="d">--</text><text x="25.05" y="25.551" class="d">my_f</text></svg><svg x="6020"><use xlink:href="#a"/><use xlink:href="#b" x="30.996" y="23.856"/><use xlink:href="#3"/><use xlink:href="#5" y="2.171"/><use xlink:href="#6" y="4.342"/><use xlink:href="#8" y="6.513"/><use xlink:href="#9" y="8.684"/><use xlink:href="#11" y="13.026"/><use xlink:href="#13" y="15.197"/><use xlink:href="#14" y="19.539"/><use xlink:href="#15" y="21.71"/><text y="25.551" class="c">$</text><text x="2.004" y="25.551" class="d">scala-cli</text><text x="12.024" y="25.551" class="d">./stat.sc</text><text x="22.044" y="25.551" class="d">--</text><text x="25.05" y="25.551" class="d">my_fil</text></svg><svg x="6090"><use xlink:href="#a"/><use xlink:href="#b" x="31.996" y="23.856"/><use xlink:href="#3"/><use xlink:href="#5" y="2.171"/><use xlink:href="#6" y="4.342"/><use xlink:href="#8" y="6.513"/><use xlink:href="#9" y="8.684"/><use xlink:href="#11" y="13.026"/><use xlink:href="#13" y="15.197"/><use xlink:href="#14" y="19.539"/><use xlink:href="#15" y="21.71"/><use xlink:href="#16" y="23.881"/></svg><svg x="6160"><use xlink:href="#a"/><use xlink:href="#b" x="31.996" y="23.856"/><use xlink:href="#3"/><use xlink:href="#5" y="2.171"/><use xlink:href="#6" y="4.342"/><use xlink:href="#8" y="6.513"/><use xlink:href="#9" y="8.684"/><use xlink:href="#11" y="13.026"/><use xlink:href="#13" y="15.197"/><use xlink:href="#14" y="19.539"/><use xlink:href="#15" y="21.71"/><use xlink:href="#16" y="23.881"/></svg><svg x="6230"><use xlink:href="#a"/><use xlink:href="#b" x="31.996" y="23.856"/><use xlink:href="#3"/><use xlink:href="#5" y="2.171"/><use xlink:href="#6" y="4.342"/><use xlink:href="#8" y="6.513"/><use xlink:href="#9" y="8.684"/><use xlink:href="#11" y="13.026"/><use xlink:href="#13" y="15.197"/><use xlink:href="#14" y="19.539"/><use xlink:href="#15" y="21.71"/><use xlink:href="#16" y="23.881"/></svg><svg x="6300"><use xlink:href="#a"/><use xlink:href="#b" x="-.004" y="26.027"/><use xlink:href="#3"/><use xlink:href="#5" y="2.171"/><use xlink:href="#6" y="4.342"/><use xlink:href="#8" y="6.513"/><use xlink:href="#9" y="8.684"/><use xlink:href="#11" y="13.026"/><use xlink:href="#13" y="15.197"/><use xlink:href="#14" y="19.539"/><use xlink:href="#15" y="21.71"/><use xlink:href="#16" y="23.881"/></svg><svg x="6370"><use xlink:href="#a"/><use xlink:href="#b" x="-.004" y="28.198"/><use xlink:href="#3"/><use xlink:href="#5" y="2.171"/><use xlink:href="#6" y="4.342"/><use xlink:href="#8" y="6.513"/><use xlink:href="#9" y="8.684"/><use xlink:href="#11" y="13.026"/><use xlink:href="#13" y="15.197"/><use xlink:href="#14" y="19.539"/><use xlink:href="#15" y="21.71"/><use xlink:href="#16" y="23.881"/><use xlink:href="#17" y="26.052"/></svg><svg x="6440"><use xlink:href="#a"/><use xlink:href="#b" x="-.004" y="30.369"/><use xlink:href="#3"/><use xlink:href="#5" y="2.171"/><use xlink:href="#6" y="4.342"/><use xlink:href="#8" y="6.513"/><use xlink:href="#9" y="8.684"/><use xlink:href="#11" y="13.026"/><use xlink:href="#13" y="15.197"/><use xlink:href="#14" y="19.539"/><use xlink:href="#15" y="21.71"/><use xlink:href="#16" y="23.881"/><use xlink:href="#17" y="26.052"/><use xlink:href="#18" y="28.223"/></svg><svg x="6510"><use xlink:href="#a"/><use xlink:href="#b" x="7.996" y="30.369"/><use xlink:href="#3"/><use xlink:href="#5" y="2.171"/><use xlink:href="#6" y="4.342"/><use xlink:href="#8" y="6.513"/><use xlink:href="#9" y="8.684"/><use xlink:href="#11" y="13.026"/><use xlink:href="#13" y="15.197"/><use xlink:href="#14" y="19.539"/><use xlink:href="#15" y="21.71"/><use xlink:href="#16" y="23.881"/><use xlink:href="#17" y="26.052"/><use xlink:href="#18" y="28.223"/><text y="32.064" class="k">StatInfo</text></svg><svg x="6580"><use xlink:href="#a"/><use xlink:href="#b" x="-.004" y="32.54"/><use xlink:href="#3"/><use xlink:href="#5" y="2.171"/><use xlink:href="#6" y="4.342"/><use xlink:href="#8" y="6.513"/><use xlink:href="#9" y="8.684"/><use xlink:href="#11" y="13.026"/><use xlink:href="#13" y="15.197"/><use xlink:href="#14" y="19.539"/><use xlink:href="#15" y="21.71"/><use xlink:href="#16" y="23.881"/><use xlink:href="#17" y="26.052"/><use xlink:href="#18" y="28.223"/><use xlink:href="#19" y="30.394"/></svg><svg x="6650"><use xlink:href="#a"/><use xlink:href="#b" x="1.996" y="32.54"/><use xlink:href="#3"/><use xlink:href="#5" y="2.171"/><use xlink:href="#6" y="4.342"/><use xlink:href="#8" y="6.513"/><use xlink:href="#9" y="8.684"/><use xlink:href="#11" y="13.026"/><use xlink:href="#13" y="15.197"/><use xlink:href="#14" y="19.539"/><use xlink:href="#15" y="21.71"/><use xlink:href="#16" y="23.881"/><use xlink:href="#17" y="26.052"/><use xlink:href="#18" y="28.223"/><use xlink:href="#19" y="30.394"/></svg><svg x="6720"><use xlink:href="#a"/><use xlink:href="#b" x="-.004" y="36.882"/><use xlink:href="#3"/><use xlink:href="#5" y="2.171"/><use xlink:href="#6" y="4.342"/><use xlink:href="#8" y="6.513"/><use xlink:href="#9" y="8.684"/><use xlink:href="#11" y="13.026"/><use xlink:href="#13" y="15.197"/><use xlink:href="#14" y="19.539"/><use xlink:href="#15" y="21.71"/><use xlink:href="#16" y="23.881"/><use xlink:href="#17" y="26.052"/><use xlink:href="#18" y="28.223"/><use xlink:href="#19" y="30.394"/><use xlink:href="#20" y="32.565"/><use xlink:href="#21" y="34.736"/></svg><svg x="6790"><use xlink:href="#a"/><use xlink:href="#b" x="-.004" y="39.053"/><use xlink:href="#3"/><use xlink:href="#5" y="2.171"/><use xlink:href="#6" y="4.342"/><use xlink:href="#8" y="6.513"/><use xlink:href="#9" y="8.684"/><use xlink:href="#11" y="13.026"/><use xlink:href="#13" y="15.197"/><use xlink:href="#14" y="19.539"/><use xlink:href="#15" y="21.71"/><use xlink:href="#16" y="23.881"/><use xlink:href="#17" y="26.052"/><use xlink:href="#18" y="28.223"/><use xlink:href="#19" y="30.394"/><use xlink:href="#20" y="32.565"/><use xlink:href="#21" y="34.736"/><use xlink:href="#22" y="36.907"/></svg><svg x="6860"><use xlink:href="#a"/><use xlink:href="#b" x="1.996" y="39.053"/><use xlink:href="#3"/><use xlink:href="#5" y="2.171"/><use xlink:href="#6" y="4.342"/><use xlink:href="#8" y="6.513"/><use xlink:href="#9" y="8.684"/><use xlink:href="#11" y="13.026"/><use xlink:href="#13" y="15.197"/><use xlink:href="#14" y="19.539"/><use xlink:href="#15" y="21.71"/><use xlink:href="#16" y="23.881"/><use xlink:href="#17" y="26.052"/><use xlink:href="#18" y="28.223"/><use xlink:href="#19" y="30.394"/><use xlink:href="#20" y="32.565"/><use xlink:href="#21" y="34.736"/><use xlink:href="#22" y="36.907"/></svg><svg x="6930"><use xlink:href="#a"/><use xlink:href="#b" x="-.004" y="41.224"/><use xlink:href="#3"/><use xlink:href="#5" y="2.171"/><use xlink:href="#6" y="4.342"/><use xlink:href="#8" y="6.513"/><use xlink:href="#9" y="8.684"/><use xlink:href="#11" y="13.026"/><use xlink:href="#13" y="15.197"/><use xlink:href="#14" y="19.539"/><use xlink:href="#15" y="21.71"/><use xlink:href="#16" y="23.881"/><use xlink:href="#17" y="26.052"/><use xlink:href="#18" y="28.223"/><use xlink:href="#19" y="30.394"/><use xlink:href="#20" y="32.565"/><use xlink:href="#21" y="34.736"/><use xlink:href="#22" y="36.907"/><use xlink:href="#23" y="39.078"/></svg><svg x="7000"><use xlink:href="#a"/><use xlink:href="#b" x="1.996" y="41.224"/><use xlink:href="#3"/><use xlink:href="#5" y="2.171"/><use xlink:href="#6" y="4.342"/><use xlink:href="#8" y="6.513"/><use xlink:href="#9" y="8.684"/><use xlink:href="#11" y="13.026"/><use xlink:href="#13" y="15.197"/><use xlink:href="#14" y="19.539"/><use xlink:href="#15" y="21.71"/><use xlink:href="#16" y="23.881"/><use xlink:href="#17" y="26.052"/><use xlink:href="#18" y="28.223"/><use xlink:href="#19" y="30.394"/><use xlink:href="#20" y="32.565"/><use xlink:href="#21" y="34.736"/><use xlink:href="#22" y="36.907"/><use xlink:href="#23" y="39.078"/></svg><svg x="7070"><use xlink:href="#a"/><use xlink:href="#b" x="12.996" y="41.224"/><use xlink:href="#3"/><use xlink:href="#5" y="2.171"/><use xlink:href="#6" y="4.342"/><use xlink:href="#8" y="6.513"/><use xlink:href="#9" y="8.684"/><use xlink:href="#11" y="13.026"/><use xlink:href="#13" y="15.197"/><use xlink:href="#14" y="19.539"/><use xlink:href="#15" y="21.71"/><use xlink:href="#16" y="23.881"/><use xlink:href="#17" y="26.052"/><use xlink:href="#18" y="28.223"/><use xlink:href="#19" y="30.394"/><use xlink:href="#20" y="32.565"/><use xlink:href="#21" y="34.736"/><use xlink:href="#22" y="36.907"/><use xlink:href="#23" y="39.078"/><text x="2.004" y="42.919" class="c">fileType</text><text x="11.022" y="42.919" class="c">=</text></svg><svg x="7140"><use xlink:href="#a"/><use xlink:href="#b" x="-.004" y="43.395"/><use xlink:href="#5"/><use xlink:href="#6" y="2.171"/><use xlink:href="#8" y="4.342"/><use xlink:href="#9" y="6.513"/><use xlink:href="#11" y="10.855"/><use xlink:href="#13" y="13.026"/><use xlink:href="#14" y="17.368"/><use xlink:href="#15" y="19.539"/><use xlink:href="#16" y="21.71"/><use xlink:href="#17" y="23.881"/><use xlink:href="#18" y="26.052"/><use xlink:href="#19" y="28.223"/><use xlink:href="#20" y="30.394"/><use xlink:href="#21" y="32.565"/><use xlink:href="#22" y="34.736"/><use xlink:href="#23" y="36.907"/><use xlink:href="#24" y="39.078"/><use xlink:href="#25" y="41.249"/></svg><svg x="7210"><use xlink:href="#a"/><use xlink:href="#b" x="1.996" y="43.395"/><use xlink:href="#5"/><use xlink:href="#6" y="2.171"/><use xlink:href="#8" y="4.342"/><use xlink:href="#9" y="6.513"/><use xlink:href="#11" y="10.855"/><use xlink:href="#13" y="13.026"/><use xlink:href="#14" y="17.368"/><use xlink:href="#15" y="19.539"/><use xlink:href="#16" y="21.71"/><use xlink:href="#17" y="23.881"/><use xlink:href="#18" y="26.052"/><use xlink:href="#19" y="28.223"/><use xlink:href="#20" y="30.394"/><use xlink:href="#21" y="32.565"/><use xlink:href="#22" y="34.736"/><use xlink:href="#23" y="36.907"/><use xlink:href="#24" y="39.078"/><use xlink:href="#25" y="41.249"/><text y="45.09" class="c">^C</text></svg></svg></g></g></svg></svg>