<svg xmlns="http://www.w3.org/2000/svg" xmlns:xlink="http://www.w3.org/1999/xlink" width="740" height="474.2"><rect width="740" height="474.2" rx="0" ry="0" class="a"/><svg height="434.2" viewBox="0 0 70 43.42" width="700" x="20" xmlns="http://www.w3.org/2000/svg" xmlns:xlink="http://www.w3.org/1999/xlink" y="20"><style>@keyframes h{0%{transform:translateX(0)}.1%{transform:translateX(-140px)}.2%{transform:translateX(-210px)}2.9%{transform:translateX(-280px)}4.3%{transform:translateX(-350px)}5.6%{transform:translateX(-420px)}7%{transform:translateX(-490px)}8.3%{transform:translateX(-560px)}9.7%{transform:translateX(-630px)}11.1%{transform:translateX(-700px)}12.4%{transform:translateX(-770px)}13.8%{transform:translateX(-840px)}16.5%{transform:translateX(-910px)}17.9%{transform:translateX(-1050px)}18.6%{transform:translateX(-1120px)}18.7%{transform:translateX(-1190px)}18.8%{transform:translateX(-1260px)}21.5%{transform:translateX(-1330px)}22.9%{transform:translateX(-1400px)}24.2%{transform:translateX(-1470px)}25.6%{transform:translateX(-1540px)}27%{transform:translateX(-1610px)}28.3%{transform:translateX(-1680px)}29.7%{transform:translateX(-1750px)}31.1%{transform:translateX(-1820px)}32.4%{transform:translateX(-1890px)}35.1%{transform:translateX(-1960px)}36.5%{transform:translateX(-2030px)}37.9%{transform:translateX(-2100px)}39.2%{transform:translateX(-2170px)}40.6%{transform:translateX(-2240px)}42%{transform:translateX(-2310px)}43.3%{transform:translateX(-2380px)}44.7%{transform:translateX(-2450px)}46.1%{transform:translateX(-2520px)}48.8%{transform:translateX(-2590px)}50.2%{transform:translateX(-2660px)}51.5%{transform:translateX(-2730px)}52.9%{transform:translateX(-2800px)}54.3%{transform:translateX(-2940px)}58.6%{transform:translateX(-3010px)}64.7%{transform:translateX(-3080px)}69.6%{transform:translateX(-3150px)}to{transform:translateX(-3220px)}}.a{fill:#2c3643}.c{fill:#fff}.c,.d,.e{white-space:pre}.d{fill:#e7e7e7;font-weight:700}.e{fill:#6f6b68}</style><g font-family="Monaco,Consolas,Menlo,'Bitstream Vera Sans Mono','Powerline Symbols',monospace" font-size="1.67"><defs><symbol id="1"><text y="1.67" class="c">$</text></symbol><symbol id="2"><text y="1.67" class="c">$</text><text x="2.004" y="1.67" class="d">scala-cli</text><text x="12.024" y="1.67" class="d">about</text></symbol><symbol id="3"><text y="1.67" class="c">Scala</text><text x="6.012" y="1.67" class="c">CLI</text><text x="10.02" y="1.67" class="c">version</text><text x="18.036" y="1.67" class="c">0.0.7</text><text x="24.048" y="1.67" class="c">(v0.0.7)</text></symbol><symbol id="4"><text y="1.67" class="c">$</text><text x="2.004" y="1.67" class="d">echo</text><text x="7.014" y="1.67" class="d">&apos;println(&quot;TODO&quot;)&apos;</text><text x="25.05" y="1.67" class="d">|</text><text x="27.054" y="1.67" class="d">scala-cli</text><text x="37.074" y="1.67" class="d">-</text></symbol><symbol id="5"><text y="1.67" class="e">Compiling</text><text x="10.02" y="1.67" class="e">project</text><text x="18.036" y="1.67" class="e">(Scala</text><text x="25.05" y="1.67" class="e">3.0.2,</text><text x="32.064" y="1.67" class="e">JVM)</text></symbol><symbol id="6"><text y="1.67" class="e">Compiled</text><text x="9.018" y="1.67" class="e">project</text><text x="17.034" y="1.67" class="e">(Scala</text><text x="24.048" y="1.67" class="e">3.0.2,</text><text x="31.062" y="1.67" class="e">JVM)</text></symbol><symbol id="7"><text y="1.67" class="c">TODO</text></symbol><symbol id="a"><path fill="transparent" d="M0 0h70v21H0z"/></symbol><symbol id="b"><path fill="#b4b1b1" d="M0 0h1.102v2.171H0z"/></symbol></defs><path class="a" d="M0 0h70v43.42H0z"/><g style="animation-duration:6.60623s;animation-iteration-count:infinite;animation-name:h;animation-timing-function:steps(1,end)"><svg width="3290"><svg><use xlink:href="#a"/><use xlink:href="#b" x="-.004"/></svg><svg x="70"><use xlink:href="#a"/><use xlink:href="#b" x="-.004"/></svg><svg x="140"><use xlink:href="#a"/><use xlink:href="#b" x="1.996"/><use xlink:href="#1"/></svg><svg x="210"><use xlink:href="#a"/><use xlink:href="#b" x="1.996"/><use xlink:href="#1"/></svg><svg x="280"><use xlink:href="#a"/><use xlink:href="#b" x="1.996"/><use xlink:href="#1"/></svg><svg x="350"><use xlink:href="#a"/><use xlink:href="#b" x="1.996"/><use xlink:href="#1"/></svg><svg x="420"><use xlink:href="#a"/><use xlink:href="#b" x="2.996"/><text y="1.67" class="c">$</text><text x="2.004" y="1.67" class="d">s</text></svg><svg x="490"><use xlink:href="#a"/><use xlink:href="#b" x="5.996"/><text y="1.67" class="c">$</text><text x="2.004" y="1.67" class="d">scal</text></svg><svg x="560"><use xlink:href="#a"/><use xlink:href="#b" x="7.996"/><text y="1.67" class="c">$</text><text x="2.004" y="1.67" class="d">scala-</text></svg><svg x="630"><use xlink:href="#a"/><use xlink:href="#b" x="9.996"/><text y="1.67" class="c">$</text><text x="2.004" y="1.67" class="d">scala-cl</text></svg><svg x="700"><use xlink:href="#a"/><use xlink:href="#b" x="11.996"/><text y="1.67" class="c">$</text><text x="2.004" y="1.67" class="d">scala-cli</text></svg><svg x="770"><use xlink:href="#a"/><use xlink:href="#b" x="13.996"/><text y="1.67" class="c">$</text><text x="2.004" y="1.67" class="d">scala-cli</text><text x="12.024" y="1.67" class="d">ab</text></svg><svg x="840"><use xlink:href="#a"/><use xlink:href="#b" x="16.996"/><use xlink:href="#2"/></svg><svg x="910"><use xlink:href="#a"/><use xlink:href="#b" x="16.996"/><use xlink:href="#2"/></svg><svg x="980"><use xlink:href="#a"/><use xlink:href="#b" x="16.996"/><use xlink:href="#2"/></svg><svg x="1050"><use xlink:href="#a"/><use xlink:href="#b" x="-.004" y="2.146"/><use xlink:href="#2"/></svg><svg x="1120"><use xlink:href="#a"/><use xlink:href="#b" x="-.004" y="4.317"/><use xlink:href="#2"/><use xlink:href="#3" y="2.171"/></svg><svg x="1190"><use xlink:href="#a"/><use xlink:href="#b" x="1.996" y="4.317"/><use xlink:href="#2"/><use xlink:href="#3" y="2.171"/><use xlink:href="#1" y="4.342"/></svg><svg x="1260"><use xlink:href="#a"/><use xlink:href="#b" x="1.996" y="4.317"/><use xlink:href="#2"/><use xlink:href="#3" y="2.171"/><use xlink:href="#1" y="4.342"/></svg><svg x="1330"><use xlink:href="#a"/><use xlink:href="#b" x="1.996" y="4.317"/><use xlink:href="#2"/><use xlink:href="#3" y="2.171"/><use xlink:href="#1" y="4.342"/></svg><svg x="1400"><use xlink:href="#a"/><use xlink:href="#b" x="1.996" y="4.317"/><use xlink:href="#2"/><use xlink:href="#3" y="2.171"/><use xlink:href="#1" y="4.342"/></svg><svg x="1470"><use xlink:href="#a"/><use xlink:href="#b" x="2.996" y="4.317"/><use xlink:href="#2"/><use xlink:href="#3" y="2.171"/><text y="6.012" class="c">$</text><text x="2.004" y="6.012" class="d">e</text></svg><svg x="1540"><use xlink:href="#a"/><use xlink:href="#b" x="4.996" y="4.317"/><use xlink:href="#2"/><use xlink:href="#3" y="2.171"/><text y="6.012" class="c">$</text><text x="2.004" y="6.012" class="d">ech</text></svg><svg x="1610"><use xlink:href="#a"/><use xlink:href="#b" x="6.996" y="4.317"/><use xlink:href="#2"/><use xlink:href="#3" y="2.171"/><text y="6.012" class="c">$</text><text x="2.004" y="6.012" class="d">echo</text></svg><svg x="1680"><use xlink:href="#a"/><use xlink:href="#b" x="8.996" y="4.317"/><use xlink:href="#2"/><use xlink:href="#3" y="2.171"/><text y="6.012" class="c">$</text><text x="2.004" y="6.012" class="d">echo</text><text x="7.014" y="6.012" class="d">&apos;p</text></svg><svg x="1750"><use xlink:href="#a"/><use xlink:href="#b" x="10.996" y="4.317"/><use xlink:href="#2"/><use xlink:href="#3" y="2.171"/><text y="6.012" class="c">$</text><text x="2.004" y="6.012" class="d">echo</text><text x="7.014" y="6.012" class="d">&apos;pri</text></svg><svg x="1820"><use xlink:href="#a"/><use xlink:href="#b" x="12.996" y="4.317"/><use xlink:href="#2"/><use xlink:href="#3" y="2.171"/><text y="6.012" class="c">$</text><text x="2.004" y="6.012" class="d">echo</text><text x="7.014" y="6.012" class="d">&apos;print</text></svg><svg x="1890"><use xlink:href="#a"/><use xlink:href="#b" x="14.996" y="4.317"/><use xlink:href="#2"/><use xlink:href="#3" y="2.171"/><text y="6.012" class="c">$</text><text x="2.004" y="6.012" class="d">echo</text><text x="7.014" y="6.012" class="d">&apos;println</text></svg><svg x="1960"><use xlink:href="#a"/><use xlink:href="#b" x="16.996" y="4.317"/><use xlink:href="#2"/><use xlink:href="#3" y="2.171"/><text y="6.012" class="c">$</text><text x="2.004" y="6.012" class="d">echo</text><text x="7.014" y="6.012" class="d">&apos;println(&quot;</text></svg><svg x="2030"><use xlink:href="#a"/><use xlink:href="#b" x="18.996" y="4.317"/><use xlink:href="#2"/><use xlink:href="#3" y="2.171"/><text y="6.012" class="c">$</text><text x="2.004" y="6.012" class="d">echo</text><text x="7.014" y="6.012" class="d">&apos;println(&quot;TO</text></svg><svg x="2100"><use xlink:href="#a"/><use xlink:href="#b" x="20.996" y="4.317"/><use xlink:href="#2"/><use xlink:href="#3" y="2.171"/><text y="6.012" class="c">$</text><text x="2.004" y="6.012" class="d">echo</text><text x="7.014" y="6.012" class="d">&apos;println(&quot;TODO</text></svg><svg x="2170"><use xlink:href="#a"/><use xlink:href="#b" x="22.996" y="4.317"/><use xlink:href="#2"/><use xlink:href="#3" y="2.171"/><text y="6.012" class="c">$</text><text x="2.004" y="6.012" class="d">echo</text><text x="7.014" y="6.012" class="d">&apos;println(&quot;TODO&quot;)</text></svg><svg x="2240"><use xlink:href="#a"/><use xlink:href="#b" x="24.996" y="4.317"/><use xlink:href="#2"/><use xlink:href="#3" y="2.171"/><text y="6.012" class="c">$</text><text x="2.004" y="6.012" class="d">echo</text><text x="7.014" y="6.012" class="d">&apos;println(&quot;TODO&quot;)&apos;</text></svg><svg x="2310"><use xlink:href="#a"/><use xlink:href="#b" x="26.996" y="4.317"/><use xlink:href="#2"/><use xlink:href="#3" y="2.171"/><text y="6.012" class="c">$</text><text x="2.004" y="6.012" class="d">echo</text><text x="7.014" y="6.012" class="d">&apos;println(&quot;TODO&quot;)&apos;</text><text x="25.05" y="6.012" class="d">|</text></svg><svg x="2380"><use xlink:href="#a"/><use xlink:href="#b" x="28.996" y="4.317"/><use xlink:href="#2"/><use xlink:href="#3" y="2.171"/><text y="6.012" class="c">$</text><text x="2.004" y="6.012" class="d">echo</text><text x="7.014" y="6.012" class="d">&apos;println(&quot;TODO&quot;)&apos;</text><text x="25.05" y="6.012" class="d">|</text><text x="27.054" y="6.012" class="d">sc</text></svg><svg x="2450"><use xlink:href="#a"/><use xlink:href="#b" x="30.996" y="4.317"/><use xlink:href="#2"/><use xlink:href="#3" y="2.171"/><text y="6.012" class="c">$</text><text x="2.004" y="6.012" class="d">echo</text><text x="7.014" y="6.012" class="d">&apos;println(&quot;TODO&quot;)&apos;</text><text x="25.05" y="6.012" class="d">|</text><text x="27.054" y="6.012" class="d">scal</text></svg><svg x="2520"><use xlink:href="#a"/><use xlink:href="#b" x="32.996" y="4.317"/><use xlink:href="#2"/><use xlink:href="#3" y="2.171"/><text y="6.012" class="c">$</text><text x="2.004" y="6.012" class="d">echo</text><text x="7.014" y="6.012" class="d">&apos;println(&quot;TODO&quot;)&apos;</text><text x="25.05" y="6.012" class="d">|</text><text x="27.054" y="6.012" class="d">scala-</text></svg><svg x="2590"><use xlink:href="#a"/><use xlink:href="#b" x="34.996" y="4.317"/><use xlink:href="#2"/><use xlink:href="#3" y="2.171"/><text y="6.012" class="c">$</text><text x="2.004" y="6.012" class="d">echo</text><text x="7.014" y="6.012" class="d">&apos;println(&quot;TODO&quot;)&apos;</text><text x="25.05" y="6.012" class="d">|</text><text x="27.054" y="6.012" class="d">scala-cl</text></svg><svg x="2660"><use xlink:href="#a"/><use xlink:href="#b" x="36.996" y="4.317"/><use xlink:href="#2"/><use xlink:href="#3" y="2.171"/><text y="6.012" class="c">$</text><text x="2.004" y="6.012" class="d">echo</text><text x="7.014" y="6.012" class="d">&apos;println(&quot;TODO&quot;)&apos;</text><text x="25.05" y="6.012" class="d">|</text><text x="27.054" y="6.012" class="d">scala-cli</text></svg><svg x="2730"><use xlink:href="#a"/><use xlink:href="#b" x="37.996" y="4.317"/><use xlink:href="#2"/><use xlink:href="#3" y="2.171"/><use xlink:href="#4" y="4.342"/></svg><svg x="2800"><use xlink:href="#a"/><use xlink:href="#b" x="37.996" y="4.317"/><use xlink:href="#2"/><use xlink:href="#3" y="2.171"/><use xlink:href="#4" y="4.342"/></svg><svg x="2870"><use xlink:href="#a"/><use xlink:href="#b" x="37.996" y="4.317"/><use xlink:href="#2"/><use xlink:href="#3" y="2.171"/><use xlink:href="#4" y="4.342"/></svg><svg x="2940"><use xlink:href="#a"/><use xlink:href="#b" x="-.004" y="6.488"/><use xlink:href="#2"/><use xlink:href="#3" y="2.171"/><use xlink:href="#4" y="4.342"/></svg><svg x="3010"><use xlink:href="#a"/><use xlink:href="#b" x="-.004" y="8.659"/><use xlink:href="#2"/><use xlink:href="#3" y="2.171"/><use xlink:href="#4" y="4.342"/><use xlink:href="#5" y="6.513"/></svg><svg x="3080"><use xlink:href="#a"/><use xlink:href="#b" x="-.004" y="10.83"/><use xlink:href="#2"/><use xlink:href="#3" y="2.171"/><use xlink:href="#4" y="4.342"/><use xlink:href="#5" y="6.513"/><use xlink:href="#6" y="8.684"/></svg><svg x="3150"><use xlink:href="#a"/><use xlink:href="#b" x="-.004" y="13.001"/><use xlink:href="#2"/><use xlink:href="#3" y="2.171"/><use xlink:href="#4" y="4.342"/><use xlink:href="#5" y="6.513"/><use xlink:href="#6" y="8.684"/><use xlink:href="#7" y="10.855"/></svg><svg x="3220"><use xlink:href="#a"/><use xlink:href="#b" x="-.004" y="15.172"/><use xlink:href="#2"/><use xlink:href="#3" y="2.171"/><use xlink:href="#4" y="4.342"/><use xlink:href="#5" y="6.513"/><use xlink:href="#6" y="8.684"/><use xlink:href="#7" y="10.855"/></svg></svg></g></g></svg></svg>