<svg xmlns="http://www.w3.org/2000/svg" xmlns:xlink="http://www.w3.org/1999/xlink" width="740" height="474.2"><rect width="740" height="474.2" rx="0" ry="0" class="a"/><svg height="434.2" viewBox="0 0 70 43.42" width="700" x="20" xmlns="http://www.w3.org/2000/svg" xmlns:xlink="http://www.w3.org/1999/xlink" y="20"><style>@keyframes l{0%{transform:translateX(0)}.03%{transform:translateX(-70px)}.05%{transform:translateX(-140px)}.06%{transform:translateX(-210px)}.94%{transform:translateX(-280px)}1.38%{transform:translateX(-350px)}1.82%{transform:translateX(-420px)}2.25%{transform:translateX(-490px)}2.69%{transform:translateX(-560px)}3.13%{transform:translateX(-630px)}3.57%{transform:translateX(-700px)}4.01%{transform:translateX(-770px)}4.45%{transform:translateX(-840px)}5.32%{transform:translateX(-910px)}5.76%{transform:translateX(-980px)}6.2%{transform:translateX(-1050px)}6.64%{transform:translateX(-1120px)}7.08%{transform:translateX(-1260px)}8.41%{transform:translateX(-1400px)}8.42%{transform:translateX(-2100px)}8.43%{transform:translateX(-3290px)}13.37%{transform:translateX(-3360px)}13.38%{transform:translateX(-3430px)}14.26%{transform:translateX(-3500px)}14.7%{transform:translateX(-3570px)}15.13%{transform:translateX(-3640px)}15.57%{transform:translateX(-3710px)}16.01%{transform:translateX(-3780px)}16.45%{transform:translateX(-3850px)}16.89%{transform:translateX(-3920px)}17.33%{transform:translateX(-3990px)}17.77%{transform:translateX(-4060px)}18.64%{transform:translateX(-4130px)}19.08%{transform:translateX(-4200px)}19.52%{transform:translateX(-4270px)}19.96%{transform:translateX(-4340px)}20.4%{transform:translateX(-4410px)}20.84%{transform:translateX(-4480px)}21.28%{transform:translateX(-4620px)}22.53%{transform:translateX(-4690px)}23.86%{transform:translateX(-4830px)}25.6%{transform:translateX(-4900px)}49.97%{transform:translateX(-4970px)}50.04%{transform:translateX(-5040px)}50.06%{transform:translateX(-5110px)}50.94%{transform:translateX(-5180px)}51.38%{transform:translateX(-5250px)}51.82%{transform:translateX(-5320px)}52.25%{transform:translateX(-5390px)}52.69%{transform:translateX(-5460px)}53.13%{transform:translateX(-5530px)}53.57%{transform:translateX(-5600px)}54.01%{transform:translateX(-5670px)}54.45%{transform:translateX(-5740px)}55.32%{transform:translateX(-5810px)}55.76%{transform:translateX(-5880px)}56.2%{transform:translateX(-6020px)}58.14%{transform:translateX(-6580px)}63.05%{transform:translateX(-6720px)}63.93%{transform:translateX(-6790px)}64.37%{transform:translateX(-6860px)}64.81%{transform:translateX(-6930px)}65.25%{transform:translateX(-7000px)}65.68%{transform:translateX(-7070px)}66.12%{transform:translateX(-7140px)}66.56%{transform:translateX(-7210px)}67%{transform:translateX(-7280px)}67.44%{transform:translateX(-7350px)}68.31%{transform:translateX(-7420px)}68.75%{transform:translateX(-7490px)}69.19%{transform:translateX(-7560px)}69.63%{transform:translateX(-7630px)}70.07%{transform:translateX(-7700px)}70.51%{transform:translateX(-7770px)}70.95%{transform:translateX(-7910px)}72.21%{transform:translateX(-7980px)}73.68%{transform:translateX(-8050px)}75.64%{transform:translateX(-8120px)}to{transform:translateX(-8190px)}}.a{fill:#2c3643}.c,.d,.e,.f{fill:#fff;white-space:pre}.d,.e,.f{fill:#e7e7e7;font-weight:700}.e,.f{fill:#fff02a}.f{fill:#faaf4c}.g{fill:#41ff5b}.g,.h,.i{white-space:pre}.h{fill:#fff0a6;font-weight:700}.i{fill:#6f6b68}</style><g font-family="Monaco,Consolas,Menlo,'Bitstream Vera Sans Mono','Powerline Symbols',monospace" font-size="1.67"><defs><symbol id="1"><text y="1.67" class="c">$</text></symbol><symbol id="2"><text y="1.67" class="c">$</text><text x="2.004" y="1.67" class="d">c</text></symbol><symbol id="3"><text y="1.67" class="c">$</text><text x="2.004" y="1.67" class="d">cat</text></symbol><symbol id="4"><text y="1.67" class="c">$</text><text x="2.004" y="1.67" class="d">cat</text><text x="6.012" y="1.67" class="d">He</text></symbol><symbol id="5"><text y="1.67" class="c">$</text><text x="2.004" y="1.67" class="d">cat</text><text x="6.012" y="1.67" class="d">Hell</text></symbol><symbol id="6"><text y="1.67" class="c">$</text><text x="2.004" y="1.67" class="d">cat</text><text x="6.012" y="1.67" class="d">HelloW</text></symbol><symbol id="7"><text y="1.67" class="c">$</text><text x="2.004" y="1.67" class="d">cat</text><text x="6.012" y="1.67" class="d">HelloWor</text></symbol><symbol id="8"><text y="1.67" class="c">$</text><text x="2.004" y="1.67" class="d">cat</text><text x="6.012" y="1.67" class="d">HelloWorld.</text></symbol><symbol id="9"><text y="1.67" class="c">$</text><text x="2.004" y="1.67" class="d">cat</text><text x="6.012" y="1.67" class="d">HelloWorld.sc</text></symbol><symbol id="10"><text y="1.67" class="c">$</text><text x="2.004" y="1.67" class="d">cat</text><text x="6.012" y="1.67" class="d">HelloWorld.scala</text></symbol><symbol id="11"><text y="1.67" class="e">object</text></symbol><symbol id="12"><text y="1.67" class="e">object</text><text x="7.014" y="1.67" class="f">HelloWorld</text></symbol><symbol id="13"><text y="1.67" class="e">object</text><text x="7.014" y="1.67" class="f">HelloWorld</text><text x="18.036" y="1.67" class="g">{</text></symbol><symbol id="14"><text x="4.008" y="1.67" class="e">def</text><text x="8.016" y="1.67" class="g">main(</text><text x="13.026" y="1.67" class="c">args</text><text x="17.034" y="1.67" class="e">:</text></symbol><symbol id="15"><text x="4.008" y="1.67" class="e">def</text><text x="8.016" y="1.67" class="g">main(</text><text x="13.026" y="1.67" class="c">args</text><text x="17.034" y="1.67" class="e">:</text><text x="19.038" y="1.67" class="f">Array</text><text x="24.048" y="1.67" class="g">[</text><text x="25.05" y="1.67" class="f">String</text><text x="31.062" y="1.67" class="g">])</text></symbol><symbol id="16"><text x="4.008" y="1.67" class="e">def</text><text x="8.016" y="1.67" class="g">main(</text><text x="13.026" y="1.67" class="c">args</text><text x="17.034" y="1.67" class="e">:</text><text x="19.038" y="1.67" class="f">Array</text><text x="24.048" y="1.67" class="g">[</text><text x="25.05" y="1.67" class="f">String</text><text x="31.062" y="1.67" class="g">])</text><text x="34.068" y="1.67" class="e">=</text><text x="36.072" y="1.67" class="g">{</text></symbol><symbol id="17"><text x="8.016" y="1.67" class="g">println(</text></symbol><symbol id="18"><text x="8.016" y="1.67" class="g">println(</text><text x="16.032" y="1.67" class="h">&quot;Hello</text><text x="23.046" y="1.67" class="h">world</text><text x="29.058" y="1.67" class="h">from</text><text x="34.068" y="1.67" class="h">ScalaCLI&quot;</text><text x="43.086" y="1.67" class="g">)</text></symbol><symbol id="19"><text x="4.008" y="1.67" class="g">}</text></symbol><symbol id="20"><text y="1.67" class="g">}</text></symbol><symbol id="21"><text y="1.67" class="c">$</text><text x="2.004" y="1.67" class="d">s</text></symbol><symbol id="22"><text y="1.67" class="c">$</text><text x="2.004" y="1.67" class="d">scala-cli</text></symbol><symbol id="23"><text y="1.67" class="c">$</text><text x="2.004" y="1.67" class="d">scala-cli</text><text x="12.024" y="1.67" class="d">Hello</text></symbol><symbol id="24"><text y="1.67" class="c">$</text><text x="2.004" y="1.67" class="d">scala-cli</text><text x="12.024" y="1.67" class="d">HelloWo</text></symbol><symbol id="25"><text y="1.67" class="c">$</text><text x="2.004" y="1.67" class="d">scala-cli</text><text x="12.024" y="1.67" class="d">HelloWorl</text></symbol><symbol id="26"><text y="1.67" class="c">$</text><text x="2.004" y="1.67" class="d">scala-cli</text><text x="12.024" y="1.67" class="d">HelloWorld.</text></symbol><symbol id="27"><text y="1.67" class="c">$</text><text x="2.004" y="1.67" class="d">scala-cli</text><text x="12.024" y="1.67" class="d">HelloWorld.sc</text></symbol><symbol id="28"><text y="1.67" class="c">$</text><text x="2.004" y="1.67" class="d">scala-cli</text><text x="12.024" y="1.67" class="d">HelloWorld.scala</text></symbol><symbol id="29"><text y="1.67" class="i">Compiling</text><text x="10.02" y="1.67" class="i">project</text><text x="18.036" y="1.67" class="i">(Scala</text><text x="25.05" y="1.67" class="i">3.0.2,</text><text x="32.064" y="1.67" class="i">JVM)</text></symbol><symbol id="30"><text y="1.67" class="i">Compiled</text><text x="9.018" y="1.67" class="i">project</text><text x="17.034" y="1.67" class="i">(Scala</text><text x="24.048" y="1.67" class="i">3.0.2,</text><text x="31.062" y="1.67" class="i">JVM)</text></symbol><symbol id="31"><text y="1.67" class="c">println</text></symbol><symbol id="32"><text y="1.67" class="c">println</text><text x="7.014" y="1.67" class="g">(</text></symbol><symbol id="33"><text y="1.67" class="c">println</text><text x="7.014" y="1.67" class="g">(</text><text x="8.016" y="1.67" class="h">&quot;Hello</text><text x="15.03" y="1.67" class="h">world</text><text x="21.042" y="1.67" class="h">from</text><text x="26.052" y="1.67" class="h">script&quot;</text><text x="33.066" y="1.67" class="g">)</text></symbol><symbol id="34"><text y="1.67" class="c">Hello</text><text x="6.012" y="1.67" class="c">world</text><text x="12.024" y="1.67" class="c">from</text><text x="17.034" y="1.67" class="c">script</text></symbol><symbol id="a"><path fill="transparent" d="M0 0h70v21H0z"/></symbol><symbol id="b"><path fill="#b4b1b1" d="M0 0h1.102v2.171H0z"/></symbol></defs><path class="a" d="M0 0h70v43.42H0z"/><g style="animation-duration:20.558286s;animation-iteration-count:infinite;animation-name:l;animation-timing-function:steps(1,end)"><svg width="8260"><svg><use xlink:href="#a"/><use xlink:href="#b" x="-.004"/></svg><svg x="70"><use xlink:href="#a"/><use xlink:href="#b" x="-.004"/></svg><svg x="140"><use xlink:href="#a"/><use xlink:href="#b" x="1.996"/><use xlink:href="#1"/></svg><svg x="210"><use xlink:href="#a"/><use xlink:href="#b" x="1.996"/><use xlink:href="#1"/></svg><svg x="280"><use xlink:href="#a"/><use xlink:href="#b" x="1.996"/><use xlink:href="#1"/></svg><svg x="350"><use xlink:href="#a"/><use xlink:href="#b" x="1.996"/><use xlink:href="#1"/></svg><svg x="420"><use xlink:href="#a"/><use xlink:href="#b" x="2.996"/><use xlink:href="#2"/></svg><svg x="490"><use xlink:href="#a"/><use xlink:href="#b" x="5.996"/><use xlink:href="#3"/></svg><svg x="560"><use xlink:href="#a"/><use xlink:href="#b" x="7.996"/><use xlink:href="#4"/></svg><svg x="630"><use xlink:href="#a"/><use xlink:href="#b" x="9.996"/><use xlink:href="#5"/></svg><svg x="700"><use xlink:href="#a"/><use xlink:href="#b" x="11.996"/><use xlink:href="#6"/></svg><svg x="770"><use xlink:href="#a"/><use xlink:href="#b" x="13.996"/><use xlink:href="#7"/></svg><svg x="840"><use xlink:href="#a"/><use xlink:href="#b" x="16.996"/><use xlink:href="#8"/></svg><svg x="910"><use xlink:href="#a"/><use xlink:href="#b" x="18.996"/><use xlink:href="#9"/></svg><svg x="980"><use xlink:href="#a"/><use xlink:href="#b" x="20.996"/><text y="1.67" class="c">$</text><text x="2.004" y="1.67" class="d">cat</text><text x="6.012" y="1.67" class="d">HelloWorld.scal</text></svg><svg x="1050"><use xlink:href="#a"/><use xlink:href="#b" x="21.996"/><use xlink:href="#10"/></svg><svg x="1120"><use xlink:href="#a"/><use xlink:href="#b" x="21.996"/><use xlink:href="#10"/></svg><svg x="1190"><use xlink:href="#a"/><use xlink:href="#b" x="21.996"/><use xlink:href="#10"/></svg><svg x="1260"><use xlink:href="#a"/><use xlink:href="#b" x="-.004" y="2.146"/><use xlink:href="#10"/></svg><svg x="1330"><use xlink:href="#a"/><use xlink:href="#b" x="-.004" y="2.146"/><use xlink:href="#10"/></svg><svg x="1400"><use xlink:href="#a"/><use xlink:href="#b" x="5.996" y="2.146"/><use xlink:href="#10"/><use xlink:href="#11" y="2.171"/></svg><svg x="1470"><use xlink:href="#a"/><use xlink:href="#b" x="5.996" y="2.146"/><use xlink:href="#10"/><use xlink:href="#11" y="2.171"/></svg><svg x="1540"><use xlink:href="#a"/><use xlink:href="#b" x="6.996" y="2.146"/><use xlink:href="#10"/><use xlink:href="#11" y="2.171"/></svg><svg x="1610"><use xlink:href="#a"/><use xlink:href="#b" x="6.996" y="2.146"/><use xlink:href="#10"/><use xlink:href="#11" y="2.171"/></svg><svg x="1680"><use xlink:href="#a"/><use xlink:href="#b" x="16.996" y="2.146"/><use xlink:href="#10"/><use xlink:href="#12" y="2.171"/></svg><svg x="1750"><use xlink:href="#a"/><use xlink:href="#b" x="17.996" y="2.146"/><use xlink:href="#10"/><use xlink:href="#12" y="2.171"/></svg><svg x="1820"><use xlink:href="#a"/><use xlink:href="#b" x="17.996" y="2.146"/><use xlink:href="#10"/><use xlink:href="#12" y="2.171"/></svg><svg x="1890"><use xlink:href="#a"/><use xlink:href="#b" x="18.996" y="2.146"/><use xlink:href="#10"/><use xlink:href="#13" y="2.171"/></svg><svg x="1960"><use xlink:href="#a"/><use xlink:href="#b" x="3.996" y="4.317"/><use xlink:href="#10"/><use xlink:href="#13" y="2.171"/></svg><svg x="2030"><use xlink:href="#a"/><use xlink:href="#b" x="7.996" y="4.317"/><use xlink:href="#10"/><use xlink:href="#13" y="2.171"/><text x="4.008" y="6.012" class="e">def</text></svg><svg x="2100"><use xlink:href="#a"/><use xlink:href="#b" x="16.996" y="4.317"/><use xlink:href="#10"/><use xlink:href="#13" y="2.171"/><text x="4.008" y="6.012" class="e">def</text><text x="8.016" y="6.012" class="g">main(</text><text x="13.026" y="6.012" class="c">args</text></svg><svg x="2170"><use xlink:href="#a"/><use xlink:href="#b" x="17.996" y="4.317"/><use xlink:href="#10"/><use xlink:href="#13" y="2.171"/><use xlink:href="#14" y="4.342"/></svg><svg x="2240"><use xlink:href="#a"/><use xlink:href="#b" x="18.996" y="4.317"/><use xlink:href="#10"/><use xlink:href="#13" y="2.171"/><use xlink:href="#14" y="4.342"/></svg><svg x="2310"><use xlink:href="#a"/><use xlink:href="#b" x="23.996" y="4.317"/><use xlink:href="#10"/><use xlink:href="#13" y="2.171"/><text x="4.008" y="6.012" class="e">def</text><text x="8.016" y="6.012" class="g">main(</text><text x="13.026" y="6.012" class="c">args</text><text x="17.034" y="6.012" class="e">:</text><text x="19.038" y="6.012" class="f">Array</text></svg><svg x="2380"><use xlink:href="#a"/><use xlink:href="#b" x="24.996" y="4.317"/><use xlink:href="#10"/><use xlink:href="#13" y="2.171"/><text x="4.008" y="6.012" class="e">def</text><text x="8.016" y="6.012" class="g">main(</text><text x="13.026" y="6.012" class="c">args</text><text x="17.034" y="6.012" class="e">:</text><text x="19.038" y="6.012" class="f">Array</text><text x="24.048" y="6.012" class="g">[</text></svg><svg x="2450"><use xlink:href="#a"/><use xlink:href="#b" x="30.996" y="4.317"/><use xlink:href="#10"/><use xlink:href="#13" y="2.171"/><text x="4.008" y="6.012" class="e">def</text><text x="8.016" y="6.012" class="g">main(</text><text x="13.026" y="6.012" class="c">args</text><text x="17.034" y="6.012" class="e">:</text><text x="19.038" y="6.012" class="f">Array</text><text x="24.048" y="6.012" class="g">[</text><text x="25.05" y="6.012" class="f">String</text></svg><svg x="2520"><use xlink:href="#a"/><use xlink:href="#b" x="33.996" y="4.317"/><use xlink:href="#10"/><use xlink:href="#13" y="2.171"/><use xlink:href="#15" y="4.342"/></svg><svg x="2590"><use xlink:href="#a"/><use xlink:href="#b" x="33.996" y="4.317"/><use xlink:href="#10"/><use xlink:href="#13" y="2.171"/><use xlink:href="#15" y="4.342"/></svg><svg x="2660"><use xlink:href="#a"/><use xlink:href="#b" x="36.996" y="4.317"/><use xlink:href="#10"/><use xlink:href="#13" y="2.171"/><use xlink:href="#16" y="4.342"/></svg><svg x="2730"><use xlink:href="#a"/><use xlink:href="#b" x="15.996" y="6.488"/><use xlink:href="#10"/><use xlink:href="#13" y="2.171"/><use xlink:href="#16" y="4.342"/><use xlink:href="#17" y="6.513"/></svg><svg x="2800"><use xlink:href="#a"/><use xlink:href="#b" x="15.996" y="6.488"/><use xlink:href="#10"/><use xlink:href="#13" y="2.171"/><use xlink:href="#16" y="4.342"/><use xlink:href="#17" y="6.513"/></svg><svg x="2870"><use xlink:href="#a"/><use xlink:href="#b" x="43.996" y="6.488"/><use xlink:href="#10"/><use xlink:href="#13" y="2.171"/><use xlink:href="#16" y="4.342"/><use xlink:href="#18" y="6.513"/></svg><svg x="2940"><use xlink:href="#a"/><use xlink:href="#b" x="43.996" y="6.488"/><use xlink:href="#10"/><use xlink:href="#13" y="2.171"/><use xlink:href="#16" y="4.342"/><use xlink:href="#18" y="6.513"/></svg><svg x="3010"><use xlink:href="#a"/><use xlink:href="#b" x="3.996" y="8.659"/><use xlink:href="#10"/><use xlink:href="#13" y="2.171"/><use xlink:href="#16" y="4.342"/><use xlink:href="#18" y="6.513"/></svg><svg x="3080"><use xlink:href="#a"/><use xlink:href="#b" x="-.004" y="10.83"/><use xlink:href="#10"/><use xlink:href="#13" y="2.171"/><use xlink:href="#16" y="4.342"/><use xlink:href="#18" y="6.513"/><use xlink:href="#19" y="8.684"/></svg><svg x="3150"><use xlink:href="#a"/><use xlink:href="#b" x="-.004" y="10.83"/><use xlink:href="#10"/><use xlink:href="#13" y="2.171"/><use xlink:href="#16" y="4.342"/><use xlink:href="#18" y="6.513"/><use xlink:href="#19" y="8.684"/></svg><svg x="3220"><use xlink:href="#a"/><use xlink:href="#b" x=".996" y="10.83"/><use xlink:href="#10"/><use xlink:href="#13" y="2.171"/><use xlink:href="#16" y="4.342"/><use xlink:href="#18" y="6.513"/><use xlink:href="#19" y="8.684"/><use xlink:href="#20" y="10.855"/></svg><svg x="3290"><use xlink:href="#a"/><use xlink:href="#b" x="-.004" y="13.001"/><use xlink:href="#10"/><use xlink:href="#13" y="2.171"/><use xlink:href="#16" y="4.342"/><use xlink:href="#18" y="6.513"/><use xlink:href="#19" y="8.684"/><use xlink:href="#20" y="10.855"/></svg><svg x="3360"><use xlink:href="#a"/><use xlink:href="#b" x="1.996" y="13.001"/><use xlink:href="#10"/><use xlink:href="#13" y="2.171"/><use xlink:href="#16" y="4.342"/><use xlink:href="#18" y="6.513"/><use xlink:href="#19" y="8.684"/><use xlink:href="#20" y="10.855"/><use xlink:href="#1" y="13.026"/></svg><svg x="3430"><use xlink:href="#a"/><use xlink:href="#b" x="1.996" y="13.001"/><use xlink:href="#10"/><use xlink:href="#13" y="2.171"/><use xlink:href="#16" y="4.342"/><use xlink:href="#18" y="6.513"/><use xlink:href="#19" y="8.684"/><use xlink:href="#20" y="10.855"/><use xlink:href="#1" y="13.026"/></svg><svg x="3500"><use xlink:href="#a"/><use xlink:href="#b" x="1.996" y="13.001"/><use xlink:href="#10"/><use xlink:href="#13" y="2.171"/><use xlink:href="#16" y="4.342"/><use xlink:href="#18" y="6.513"/><use xlink:href="#19" y="8.684"/><use xlink:href="#20" y="10.855"/><use xlink:href="#1" y="13.026"/></svg><svg x="3570"><use xlink:href="#a"/><use xlink:href="#b" x="1.996" y="13.001"/><use xlink:href="#10"/><use xlink:href="#13" y="2.171"/><use xlink:href="#16" y="4.342"/><use xlink:href="#18" y="6.513"/><use xlink:href="#19" y="8.684"/><use xlink:href="#20" y="10.855"/><use xlink:href="#1" y="13.026"/></svg><svg x="3640"><use xlink:href="#a"/><use xlink:href="#b" x="2.996" y="13.001"/><use xlink:href="#10"/><use xlink:href="#13" y="2.171"/><use xlink:href="#16" y="4.342"/><use xlink:href="#18" y="6.513"/><use xlink:href="#19" y="8.684"/><use xlink:href="#20" y="10.855"/><use xlink:href="#21" y="13.026"/></svg><svg x="3710"><use xlink:href="#a"/><use xlink:href="#b" x="5.996" y="13.001"/><use xlink:href="#10"/><use xlink:href="#13" y="2.171"/><use xlink:href="#16" y="4.342"/><use xlink:href="#18" y="6.513"/><use xlink:href="#19" y="8.684"/><use xlink:href="#20" y="10.855"/><text y="14.696" class="c">$</text><text x="2.004" y="14.696" class="d">scal</text></svg><svg x="3780"><use xlink:href="#a"/><use xlink:href="#b" x="7.996" y="13.001"/><use xlink:href="#10"/><use xlink:href="#13" y="2.171"/><use xlink:href="#16" y="4.342"/><use xlink:href="#18" y="6.513"/><use xlink:href="#19" y="8.684"/><use xlink:href="#20" y="10.855"/><text y="14.696" class="c">$</text><text x="2.004" y="14.696" class="d">scala-</text></svg><svg x="3850"><use xlink:href="#a"/><use xlink:href="#b" x="9.996" y="13.001"/><use xlink:href="#10"/><use xlink:href="#13" y="2.171"/><use xlink:href="#16" y="4.342"/><use xlink:href="#18" y="6.513"/><use xlink:href="#19" y="8.684"/><use xlink:href="#20" y="10.855"/><text y="14.696" class="c">$</text><text x="2.004" y="14.696" class="d">scala-cl</text></svg><svg x="3920"><use xlink:href="#a"/><use xlink:href="#b" x="11.996" y="13.001"/><use xlink:href="#10"/><use xlink:href="#13" y="2.171"/><use xlink:href="#16" y="4.342"/><use xlink:href="#18" y="6.513"/><use xlink:href="#19" y="8.684"/><use xlink:href="#20" y="10.855"/><use xlink:href="#22" y="13.026"/></svg><svg x="3990"><use xlink:href="#a"/><use xlink:href="#b" x="13.996" y="13.001"/><use xlink:href="#10"/><use xlink:href="#13" y="2.171"/><use xlink:href="#16" y="4.342"/><use xlink:href="#18" y="6.513"/><use xlink:href="#19" y="8.684"/><use xlink:href="#20" y="10.855"/><text y="14.696" class="c">$</text><text x="2.004" y="14.696" class="d">scala-cli</text><text x="12.024" y="14.696" class="d">He</text></svg><svg x="4060"><use xlink:href="#a"/><use xlink:href="#b" x="16.996" y="13.001"/><use xlink:href="#10"/><use xlink:href="#13" y="2.171"/><use xlink:href="#16" y="4.342"/><use xlink:href="#18" y="6.513"/><use xlink:href="#19" y="8.684"/><use xlink:href="#20" y="10.855"/><use xlink:href="#23" y="13.026"/></svg><svg x="4130"><use xlink:href="#a"/><use xlink:href="#b" x="18.996" y="13.001"/><use xlink:href="#10"/><use xlink:href="#13" y="2.171"/><use xlink:href="#16" y="4.342"/><use xlink:href="#18" y="6.513"/><use xlink:href="#19" y="8.684"/><use xlink:href="#20" y="10.855"/><use xlink:href="#24" y="13.026"/></svg><svg x="4200"><use xlink:href="#a"/><use xlink:href="#b" x="20.996" y="13.001"/><use xlink:href="#10"/><use xlink:href="#13" y="2.171"/><use xlink:href="#16" y="4.342"/><use xlink:href="#18" y="6.513"/><use xlink:href="#19" y="8.684"/><use xlink:href="#20" y="10.855"/><use xlink:href="#25" y="13.026"/></svg><svg x="4270"><use xlink:href="#a"/><use xlink:href="#b" x="22.996" y="13.001"/><use xlink:href="#10"/><use xlink:href="#13" y="2.171"/><use xlink:href="#16" y="4.342"/><use xlink:href="#18" y="6.513"/><use xlink:href="#19" y="8.684"/><use xlink:href="#20" y="10.855"/><use xlink:href="#26" y="13.026"/></svg><svg x="4340"><use xlink:href="#a"/><use xlink:href="#b" x="24.996" y="13.001"/><use xlink:href="#10"/><use xlink:href="#13" y="2.171"/><use xlink:href="#16" y="4.342"/><use xlink:href="#18" y="6.513"/><use xlink:href="#19" y="8.684"/><use xlink:href="#20" y="10.855"/><use xlink:href="#27" y="13.026"/></svg><svg x="4410"><use xlink:href="#a"/><use xlink:href="#b" x="27.996" y="13.001"/><use xlink:href="#10"/><use xlink:href="#13" y="2.171"/><use xlink:href="#16" y="4.342"/><use xlink:href="#18" y="6.513"/><use xlink:href="#19" y="8.684"/><use xlink:href="#20" y="10.855"/><use xlink:href="#28" y="13.026"/></svg><svg x="4480"><use xlink:href="#a"/><use xlink:href="#b" x="27.996" y="13.001"/><use xlink:href="#10"/><use xlink:href="#13" y="2.171"/><use xlink:href="#16" y="4.342"/><use xlink:href="#18" y="6.513"/><use xlink:href="#19" y="8.684"/><use xlink:href="#20" y="10.855"/><use xlink:href="#28" y="13.026"/></svg><svg x="4550"><use xlink:href="#a"/><use xlink:href="#b" x="27.996" y="13.001"/><use xlink:href="#10"/><use xlink:href="#13" y="2.171"/><use xlink:href="#16" y="4.342"/><use xlink:href="#18" y="6.513"/><use xlink:href="#19" y="8.684"/><use xlink:href="#20" y="10.855"/><use xlink:href="#28" y="13.026"/></svg><svg x="4620"><use xlink:href="#a"/><use xlink:href="#b" x="-.004" y="15.172"/><use xlink:href="#10"/><use xlink:href="#13" y="2.171"/><use xlink:href="#16" y="4.342"/><use xlink:href="#18" y="6.513"/><use xlink:href="#19" y="8.684"/><use xlink:href="#20" y="10.855"/><use xlink:href="#28" y="13.026"/></svg><svg x="4690"><use xlink:href="#a"/><use xlink:href="#b" x="-.004" y="17.343"/><use xlink:href="#10"/><use xlink:href="#13" y="2.171"/><use xlink:href="#16" y="4.342"/><use xlink:href="#18" y="6.513"/><use xlink:href="#19" y="8.684"/><use xlink:href="#20" y="10.855"/><use xlink:href="#28" y="13.026"/><use xlink:href="#29" y="15.197"/></svg><svg x="4760"><use xlink:href="#a"/><use xlink:href="#b" x="34.996" y="17.343"/><use xlink:href="#10"/><use xlink:href="#13" y="2.171"/><use xlink:href="#16" y="4.342"/><use xlink:href="#18" y="6.513"/><use xlink:href="#19" y="8.684"/><use xlink:href="#20" y="10.855"/><use xlink:href="#28" y="13.026"/><use xlink:href="#29" y="15.197"/><use xlink:href="#30" y="17.368"/></svg><svg x="4830"><use xlink:href="#a"/><use xlink:href="#b" x="-.004" y="19.514"/><use xlink:href="#10"/><use xlink:href="#13" y="2.171"/><use xlink:href="#16" y="4.342"/><use xlink:href="#18" y="6.513"/><use xlink:href="#19" y="8.684"/><use xlink:href="#20" y="10.855"/><use xlink:href="#28" y="13.026"/><use xlink:href="#29" y="15.197"/><use xlink:href="#30" y="17.368"/></svg><svg x="4900"><use xlink:href="#a"/><use xlink:href="#b" x="-.004" y="21.685"/><use xlink:href="#10"/><use xlink:href="#13" y="2.171"/><use xlink:href="#16" y="4.342"/><use xlink:href="#18" y="6.513"/><use xlink:href="#19" y="8.684"/><use xlink:href="#20" y="10.855"/><use xlink:href="#28" y="13.026"/><use xlink:href="#29" y="15.197"/><use xlink:href="#30" y="17.368"/><text y="21.209" class="c">Hello</text><text x="6.012" y="21.209" class="c">world</text><text x="12.024" y="21.209" class="c">from</text><text x="17.034" y="21.209" class="c">ScalaCLI</text></svg><svg x="4970"><use xlink:href="#a"/><use xlink:href="#b" x="-.004"/></svg><svg x="5040"><use xlink:href="#a"/><use xlink:href="#b" x="1.996"/><use xlink:href="#1"/></svg><svg x="5110"><use xlink:href="#a"/><use xlink:href="#b" x="1.996"/><use xlink:href="#1"/></svg><svg x="5180"><use xlink:href="#a"/><use xlink:href="#b" x="1.996"/><use xlink:href="#1"/></svg><svg x="5250"><use xlink:href="#a"/><use xlink:href="#b" x="1.996"/><use xlink:href="#1"/></svg><svg x="5320"><use xlink:href="#a"/><use xlink:href="#b" x="2.996"/><use xlink:href="#2"/></svg><svg x="5390"><use xlink:href="#a"/><use xlink:href="#b" x="5.996"/><use xlink:href="#3"/></svg><svg x="5460"><use xlink:href="#a"/><use xlink:href="#b" x="7.996"/><use xlink:href="#4"/></svg><svg x="5530"><use xlink:href="#a"/><use xlink:href="#b" x="9.996"/><use xlink:href="#5"/></svg><svg x="5600"><use xlink:href="#a"/><use xlink:href="#b" x="11.996"/><use xlink:href="#6"/></svg><svg x="5670"><use xlink:href="#a"/><use xlink:href="#b" x="13.996"/><use xlink:href="#7"/></svg><svg x="5740"><use xlink:href="#a"/><use xlink:href="#b" x="16.996"/><use xlink:href="#8"/></svg><svg x="5810"><use xlink:href="#a"/><use xlink:href="#b" x="18.996"/><use xlink:href="#9"/></svg><svg x="5880"><use xlink:href="#a"/><use xlink:href="#b" x="18.996"/><use xlink:href="#9"/></svg><svg x="5950"><use xlink:href="#a"/><use xlink:href="#b" x="18.996"/><use xlink:href="#9"/></svg><svg x="6020"><use xlink:href="#a"/><use xlink:href="#b" x="-.004" y="2.146"/><use xlink:href="#9"/></svg><svg x="6090"><use xlink:href="#a"/><use xlink:href="#b" x="-.004" y="2.146"/><use xlink:href="#9"/></svg><svg x="6160"><use xlink:href="#a"/><use xlink:href="#b" x="6.996" y="2.146"/><use xlink:href="#9"/><use xlink:href="#31" y="2.171"/></svg><svg x="6230"><use xlink:href="#a"/><use xlink:href="#b" x="6.996" y="2.146"/><use xlink:href="#9"/><use xlink:href="#31" y="2.171"/></svg><svg x="6300"><use xlink:href="#a"/><use xlink:href="#b" x="7.996" y="2.146"/><use xlink:href="#9"/><use xlink:href="#32" y="2.171"/></svg><svg x="6370"><use xlink:href="#a"/><use xlink:href="#b" x="7.996" y="2.146"/><use xlink:href="#9"/><use xlink:href="#32" y="2.171"/></svg><svg x="6440"><use xlink:href="#a"/><use xlink:href="#b" x="32.996" y="2.146"/><use xlink:href="#9"/><text y="3.841" class="c">println</text><text x="7.014" y="3.841" class="g">(</text><text x="8.016" y="3.841" class="h">&quot;Hello</text><text x="15.03" y="3.841" class="h">world</text><text x="21.042" y="3.841" class="h">from</text><text x="26.052" y="3.841" class="h">script&quot;</text></svg><svg x="6510"><use xlink:href="#a"/><use xlink:href="#b" x="33.996" y="2.146"/><use xlink:href="#9"/><use xlink:href="#33" y="2.171"/></svg><svg x="6580"><use xlink:href="#a"/><use xlink:href="#b" x="-.004" y="4.317"/><use xlink:href="#9"/><use xlink:href="#33" y="2.171"/></svg><svg x="6650"><use xlink:href="#a"/><use xlink:href="#b" x="1.996" y="4.317"/><use xlink:href="#9"/><use xlink:href="#33" y="2.171"/><use xlink:href="#1" y="4.342"/></svg><svg x="6720"><use xlink:href="#a"/><use xlink:href="#b" x="1.996" y="4.317"/><use xlink:href="#9"/><use xlink:href="#33" y="2.171"/><use xlink:href="#1" y="4.342"/></svg><svg x="6790"><use xlink:href="#a"/><use xlink:href="#b" x="1.996" y="4.317"/><use xlink:href="#9"/><use xlink:href="#33" y="2.171"/><use xlink:href="#1" y="4.342"/></svg><svg x="6860"><use xlink:href="#a"/><use xlink:href="#b" x="1.996" y="4.317"/><use xlink:href="#9"/><use xlink:href="#33" y="2.171"/><use xlink:href="#1" y="4.342"/></svg><svg x="6930"><use xlink:href="#a"/><use xlink:href="#b" x="2.996" y="4.317"/><use xlink:href="#9"/><use xlink:href="#33" y="2.171"/><use xlink:href="#21" y="4.342"/></svg><svg x="7000"><use xlink:href="#a"/><use xlink:href="#b" x="4.996" y="4.317"/><use xlink:href="#9"/><use xlink:href="#33" y="2.171"/><text y="6.012" class="c">$</text><text x="2.004" y="6.012" class="d">sca</text></svg><svg x="7070"><use xlink:href="#a"/><use xlink:href="#b" x="6.996" y="4.317"/><use xlink:href="#9"/><use xlink:href="#33" y="2.171"/><text y="6.012" class="c">$</text><text x="2.004" y="6.012" class="d">scala</text></svg><svg x="7140"><use xlink:href="#a"/><use xlink:href="#b" x="8.996" y="4.317"/><use xlink:href="#9"/><use xlink:href="#33" y="2.171"/><text y="6.012" class="c">$</text><text x="2.004" y="6.012" class="d">scala-c</text></svg><svg x="7210"><use xlink:href="#a"/><use xlink:href="#b" x="10.996" y="4.317"/><use xlink:href="#9"/><use xlink:href="#33" y="2.171"/><use xlink:href="#22" y="4.342"/></svg><svg x="7280"><use xlink:href="#a"/><use xlink:href="#b" x="12.996" y="4.317"/><use xlink:href="#9"/><use xlink:href="#33" y="2.171"/><text y="6.012" class="c">$</text><text x="2.004" y="6.012" class="d">scala-cli</text><text x="12.024" y="6.012" class="d">H</text></svg><svg x="7350"><use xlink:href="#a"/><use xlink:href="#b" x="14.996" y="4.317"/><use xlink:href="#9"/><use xlink:href="#33" y="2.171"/><text y="6.012" class="c">$</text><text x="2.004" y="6.012" class="d">scala-cli</text><text x="12.024" y="6.012" class="d">Hel</text></svg><svg x="7420"><use xlink:href="#a"/><use xlink:href="#b" x="16.996" y="4.317"/><use xlink:href="#9"/><use xlink:href="#33" y="2.171"/><use xlink:href="#23" y="4.342"/></svg><svg x="7490"><use xlink:href="#a"/><use xlink:href="#b" x="18.996" y="4.317"/><use xlink:href="#9"/><use xlink:href="#33" y="2.171"/><use xlink:href="#24" y="4.342"/></svg><svg x="7560"><use xlink:href="#a"/><use xlink:href="#b" x="20.996" y="4.317"/><use xlink:href="#9"/><use xlink:href="#33" y="2.171"/><use xlink:href="#25" y="4.342"/></svg><svg x="7630"><use xlink:href="#a"/><use xlink:href="#b" x="22.996" y="4.317"/><use xlink:href="#9"/><use xlink:href="#33" y="2.171"/><use xlink:href="#26" y="4.342"/></svg><svg x="7700"><use xlink:href="#a"/><use xlink:href="#b" x="24.996" y="4.317"/><use xlink:href="#9"/><use xlink:href="#33" y="2.171"/><use xlink:href="#27" y="4.342"/></svg><svg x="7770"><use xlink:href="#a"/><use xlink:href="#b" x="24.996" y="4.317"/><use xlink:href="#9"/><use xlink:href="#33" y="2.171"/><use xlink:href="#27" y="4.342"/></svg><svg x="7840"><use xlink:href="#a"/><use xlink:href="#b" x="24.996" y="4.317"/><use xlink:href="#9"/><use xlink:href="#33" y="2.171"/><use xlink:href="#27" y="4.342"/></svg><svg x="7910"><use xlink:href="#a"/><use xlink:href="#b" x="-.004" y="6.488"/><use xlink:href="#9"/><use xlink:href="#33" y="2.171"/><use xlink:href="#27" y="4.342"/></svg><svg x="7980"><use xlink:href="#a"/><use xlink:href="#b" x="-.004" y="8.659"/><use xlink:href="#9"/><use xlink:href="#33" y="2.171"/><use xlink:href="#27" y="4.342"/><use xlink:href="#29" y="6.513"/></svg><svg x="8050"><use xlink:href="#a"/><use xlink:href="#b" x="-.004" y="10.83"/><use xlink:href="#9"/><use xlink:href="#33" y="2.171"/><use xlink:href="#27" y="4.342"/><use xlink:href="#29" y="6.513"/><use xlink:href="#30" y="8.684"/></svg><svg x="8120"><use xlink:href="#a"/><use xlink:href="#b" x="-.004" y="13.001"/><use xlink:href="#9"/><use xlink:href="#33" y="2.171"/><use xlink:href="#27" y="4.342"/><use xlink:href="#29" y="6.513"/><use xlink:href="#30" y="8.684"/><use xlink:href="#34" y="10.855"/></svg><svg x="8190"><use xlink:href="#a"/><use xlink:href="#b" x="-.004" y="15.172"/><use xlink:href="#9"/><use xlink:href="#33" y="2.171"/><use xlink:href="#27" y="4.342"/><use xlink:href="#29" y="6.513"/><use xlink:href="#30" y="8.684"/><use xlink:href="#34" y="10.855"/></svg></svg></g></g></svg></svg>