<svg xmlns="http://www.w3.org/2000/svg" xmlns:xlink="http://www.w3.org/1999/xlink" width="740" height="474.2"><rect width="740" height="474.2" rx="0" ry="0" class="a"/><svg height="434.2" viewBox="0 0 70 43.42" width="700" x="20" xmlns="http://www.w3.org/2000/svg" xmlns:xlink="http://www.w3.org/1999/xlink" y="20"><style>@keyframes n{0%{transform:translateX(0)}.1%{transform:translateX(-70px)}.2%{transform:translateX(-210px)}1.4%{transform:translateX(-280px)}2%{transform:translateX(-350px)}2.6%{transform:translateX(-420px)}3.2%{transform:translateX(-490px)}3.8%{transform:translateX(-560px)}4.4%{transform:translateX(-630px)}5%{transform:translateX(-700px)}5.5%{transform:translateX(-770px)}6.1%{transform:translateX(-840px)}6.8%{transform:translateX(-910px)}7.9%{transform:translateX(-980px)}8.6%{transform:translateX(-1050px)}9.2%{transform:translateX(-1190px)}11.6%{transform:translateX(-1260px)}11.7%{transform:translateX(-3010px)}31.5%{transform:translateX(-3150px)}32.7%{transform:translateX(-3220px)}33.3%{transform:translateX(-3290px)}33.9%{transform:translateX(-3360px)}34.5%{transform:translateX(-3430px)}35.1%{transform:translateX(-3500px)}35.7%{transform:translateX(-3570px)}36.3%{transform:translateX(-3640px)}36.9%{transform:translateX(-3710px)}37.5%{transform:translateX(-3780px)}38.2%{transform:translateX(-3850px)}38.7%{transform:translateX(-3920px)}39.4%{transform:translateX(-3990px)}40.6%{transform:translateX(-4060px)}41.2%{transform:translateX(-4130px)}41.8%{transform:translateX(-4200px)}42.4%{transform:translateX(-4270px)}43%{transform:translateX(-4340px)}43.6%{transform:translateX(-4410px)}44.2%{transform:translateX(-4480px)}44.8%{transform:translateX(-4550px)}45.4%{transform:translateX(-4620px)}46%{transform:translateX(-4760px)}47.6%{transform:translateX(-4900px)}51.7%{transform:translateX(-5040px)}67.3%{transform:translateX(-5110px)}to{transform:translateX(-5180px)}}.a{fill:#2c3643}.c,.d,.e,.f,.g{fill:#fff;white-space:pre}.d,.e,.f,.g{fill:#e7e7e7;font-weight:700}.e,.f,.g{fill:#6d6e70}.f,.g{fill:#fff02a}.g{fill:#faaf4c}.h,.i{fill:#41ff5b}.h{white-space:pre}.i{font-weight:700}.i,.j,.k{white-space:pre}.j{fill:#fff0a6;font-weight:700}.k{fill:#6f6b68}</style><g font-family="Monaco,Consolas,Menlo,'Bitstream Vera Sans Mono','Powerline Symbols',monospace" font-size="1.67"><defs><symbol id="1"><text y="1.67" class="c">$</text></symbol><symbol id="2"><text y="1.67" class="c">$</text><text x="2.004" y="1.67" class="d">cat</text><text x="6.012" y="1.67" class="d">Post.scala</text></symbol><symbol id="3"><text y="1.67" class="e">//</text><text x="3.006" y="1.67" class="e">using</text><text x="9.018" y="1.67" class="e">lib</text><text x="13.026" y="1.67" class="e">com.softwaremill.sttp.client3::core:3.3.18</text></symbol><symbol id="4"><text y="1.67" class="f">import</text></symbol><symbol id="5"><text y="1.67" class="f">import</text><text x="7.014" y="1.67" class="g">sttp.client3._</text></symbol><symbol id="6"><text y="1.67" class="e">//</text><text x="3.006" y="1.67" class="e">https://sttp.softwaremill.com/en/latest/quickstart.html</text></symbol><symbol id="7"><text y="1.67" class="f">object</text><text x="7.014" y="1.67" class="g">Post</text><text x="12.024" y="1.67" class="f">extends</text><text x="20.04" y="1.67" class="g">App</text><text x="24.048" y="1.67" class="h">{</text></symbol><symbol id="8"><text x="2.004" y="1.67" class="f">val</text></symbol><symbol id="9"><text x="2.004" y="1.67" class="f">val</text><text x="6.012" y="1.67" class="i">backend</text><text x="14.028" y="1.67" class="f">=</text><text x="16.032" y="1.67" class="g">HttpURLConnectionBackend</text><text x="40.08" y="1.67" class="h">()</text></symbol><symbol id="10"><text x="2.004" y="1.67" class="f">val</text><text x="6.012" y="1.67" class="i">response</text><text x="15.03" y="1.67" class="f">=</text><text x="17.034" y="1.67" class="c">basicRequest</text></symbol><symbol id="11"><text x="4.008" y="1.67" class="h">.body(</text><text x="10.02" y="1.67" class="j">&quot;Hello,</text><text x="18.036" y="1.67" class="j">world!&quot;</text><text x="25.05" y="1.67" class="h">)</text></symbol><symbol id="12"><text x="4.008" y="1.67" class="h">.post(</text><text x="10.02" y="1.67" class="c">uri</text><text x="13.026" y="1.67" class="j">&quot;https://httpbin.org/post?hello=world&quot;</text><text x="51.102" y="1.67" class="h">).send(</text><text x="58.116" y="1.67" class="c">backend</text><text x="65.13" y="1.67" class="h">)</text></symbol><symbol id="13"><text x="2.004" y="1.67" class="h">println(</text><text x="10.02" y="1.67" class="i">response</text><text x="18.036" y="1.67" class="h">.body)</text></symbol><symbol id="14"><text y="1.67" class="h">}</text></symbol><symbol id="15"><text y="1.67" class="c">$</text><text x="2.004" y="1.67" class="d">scala-cli</text></symbol><symbol id="16"><text y="1.67" class="c">$</text><text x="2.004" y="1.67" class="d">scala-cli</text><text x="12.024" y="1.67" class="d">Post.scala</text><text x="23.046" y="1.67" class="d">-S</text><text x="26.052" y="1.67" class="d">2.13.6</text></symbol><symbol id="17"><text y="1.67" class="k">Compiling</text><text x="10.02" y="1.67" class="k">project</text><text x="18.036" y="1.67" class="k">(Scala</text><text x="25.05" y="1.67" class="k">2.13.6,</text><text x="33.066" y="1.67" class="k">JVM)</text></symbol><symbol id="18"><text y="1.67" class="k">Compiled</text><text x="9.018" y="1.67" class="k">project</text><text x="17.034" y="1.67" class="k">(Scala</text><text x="24.048" y="1.67" class="k">2.13.6,</text><text x="32.064" y="1.67" class="k">JVM)</text></symbol><symbol id="19"><text x="4.008" y="1.67" class="c">&quot;hello&quot;:</text><text x="13.026" y="1.67" class="c">&quot;world&quot;</text></symbol><symbol id="20"><text x="2.004" y="1.67" class="c">},</text></symbol><symbol id="21"><text x="2.004" y="1.67" class="c">&quot;data&quot;:</text><text x="10.02" y="1.67" class="c">&quot;Hello,</text><text x="18.036" y="1.67" class="c">world!&quot;,</text></symbol><symbol id="22"><text x="2.004" y="1.67" class="c">&quot;files&quot;:</text><text x="11.022" y="1.67" class="c">{},</text></symbol><symbol id="23"><text x="2.004" y="1.67" class="c">&quot;form&quot;:</text><text x="10.02" y="1.67" class="c">{},</text></symbol><symbol id="24"><text x="2.004" y="1.67" class="c">&quot;headers&quot;:</text><text x="13.026" y="1.67" class="c">{</text></symbol><symbol id="25"><text x="4.008" y="1.67" class="c">&quot;Accept&quot;:</text><text x="14.028" y="1.67" class="c">&quot;text/html,</text><text x="26.052" y="1.67" class="c">image/gif,</text><text x="37.074" y="1.67" class="c">image/jpeg,</text><text x="49.098" y="1.67" class="c">*;</text><text x="52.104" y="1.67" class="c">q=.2,</text><text x="58.116" y="1.67" class="c">*/*;</text><text x="63.126" y="1.67" class="c">q=.2&quot;,</text></symbol><symbol id="26"><text x="4.008" y="1.67" class="c">&quot;Accept-Encoding&quot;:</text><text x="23.046" y="1.67" class="c">&quot;gzip,</text><text x="30.06" y="1.67" class="c">deflate&quot;,</text></symbol><symbol id="27"><text x="4.008" y="1.67" class="c">&quot;Content-Length&quot;:</text><text x="22.044" y="1.67" class="c">&quot;13&quot;,</text></symbol><symbol id="28"><text x="4.008" y="1.67" class="c">&quot;Content-Type&quot;:</text><text x="20.04" y="1.67" class="c">&quot;text/plain;</text><text x="33.066" y="1.67" class="c">charset=utf-8&quot;,</text></symbol><symbol id="29"><text x="4.008" y="1.67" class="c">&quot;Host&quot;:</text><text x="12.024" y="1.67" class="c">&quot;httpbin.org&quot;,</text></symbol><symbol id="30"><text x="4.008" y="1.67" class="c">&quot;User-Agent&quot;:</text><text x="18.036" y="1.67" class="c">&quot;Java/1.8.0_292&quot;,</text></symbol><symbol id="31"><text x="4.008" y="1.67" class="c">&quot;X-Amzn-Trace-Id&quot;:</text><text x="23.046" y="1.67" class="c">&quot;Root=1-61ae6fb2-0ea6ed06172b667e44c69fe6&quot;</text></symbol><symbol id="32"><text x="2.004" y="1.67" class="c">&quot;json&quot;:</text><text x="10.02" y="1.67" class="c">null,</text></symbol><symbol id="33"><text x="2.004" y="1.67" class="c">&quot;origin&quot;:</text><text x="12.024" y="1.67" class="c">&quot;80.49.147.85&quot;,</text></symbol><symbol id="34"><text x="2.004" y="1.67" class="c">&quot;url&quot;:</text><text x="9.018" y="1.67" class="c">&quot;https://httpbin.org/post?hello=world&quot;</text></symbol><symbol id="35"><text y="1.67" class="c">}</text></symbol><symbol id="36"><text y="1.67" class="c">)</text></symbol><symbol id="a"><path fill="transparent" d="M0 0h70v21H0z"/></symbol><symbol id="b"><path fill="#b4b1b1" d="M0 0h1.102v2.171H0z"/></symbol></defs><path class="a" d="M0 0h70v43.42H0z"/><g style="animation-duration:15.353635s;animation-iteration-count:infinite;animation-name:n;animation-timing-function:steps(1,end)"><svg width="5250"><svg><use xlink:href="#a"/><use xlink:href="#b" x="-.004"/></svg><svg x="70"><use xlink:href="#a"/><use xlink:href="#b" x="-.004"/></svg><svg x="140"><use xlink:href="#a"/><use xlink:href="#b" x="1.996"/><use xlink:href="#1"/></svg><svg x="210"><use xlink:href="#a"/><use xlink:href="#b" x="1.996"/><use xlink:href="#1"/></svg><svg x="280"><use xlink:href="#a"/><use xlink:href="#b" x="1.996"/><use xlink:href="#1"/></svg><svg x="350"><use xlink:href="#a"/><use xlink:href="#b" x="1.996"/><use xlink:href="#1"/></svg><svg x="420"><use xlink:href="#a"/><use xlink:href="#b" x="1.996"/><use xlink:href="#1"/></svg><svg x="490"><use xlink:href="#a"/><use xlink:href="#b" x="3.996"/><text y="1.67" class="c">$</text><text x="2.004" y="1.67" class="d">ca</text></svg><svg x="560"><use xlink:href="#a"/><use xlink:href="#b" x="5.996"/><text y="1.67" class="c">$</text><text x="2.004" y="1.67" class="d">cat</text></svg><svg x="630"><use xlink:href="#a"/><use xlink:href="#b" x="7.996"/><text y="1.67" class="c">$</text><text x="2.004" y="1.67" class="d">cat</text><text x="6.012" y="1.67" class="d">Po</text></svg><svg x="700"><use xlink:href="#a"/><use xlink:href="#b" x="9.996"/><text y="1.67" class="c">$</text><text x="2.004" y="1.67" class="d">cat</text><text x="6.012" y="1.67" class="d">Post</text></svg><svg x="770"><use xlink:href="#a"/><use xlink:href="#b" x="11.996"/><text y="1.67" class="c">$</text><text x="2.004" y="1.67" class="d">cat</text><text x="6.012" y="1.67" class="d">Post.s</text></svg><svg x="840"><use xlink:href="#a"/><use xlink:href="#b" x="13.996"/><text y="1.67" class="c">$</text><text x="2.004" y="1.67" class="d">cat</text><text x="6.012" y="1.67" class="d">Post.sca</text></svg><svg x="910"><use xlink:href="#a"/><use xlink:href="#b" x="14.996"/><text y="1.67" class="c">$</text><text x="2.004" y="1.67" class="d">cat</text><text x="6.012" y="1.67" class="d">Post.scal</text></svg><svg x="980"><use xlink:href="#a"/><use xlink:href="#b" x="15.996"/><use xlink:href="#2"/></svg><svg x="1050"><use xlink:href="#a"/><use xlink:href="#b" x="15.996"/><use xlink:href="#2"/></svg><svg x="1120"><use xlink:href="#a"/><use xlink:href="#b" x="15.996"/><use xlink:href="#2"/></svg><svg x="1190"><use xlink:href="#a"/><use xlink:href="#b" x="-.004" y="2.146"/><use xlink:href="#2"/></svg><svg x="1260"><use xlink:href="#a"/><use xlink:href="#b" x="-.004" y="2.146"/><use xlink:href="#2"/></svg><svg x="1330"><use xlink:href="#a"/><use xlink:href="#b" x="54.996" y="2.146"/><use xlink:href="#2"/><use xlink:href="#3" y="2.171"/></svg><svg x="1400"><use xlink:href="#a"/><use xlink:href="#b" x="54.996" y="2.146"/><use xlink:href="#2"/><use xlink:href="#3" y="2.171"/></svg><svg x="1470"><use xlink:href="#a"/><use xlink:href="#b" x="-.004" y="4.317"/><use xlink:href="#2"/><use xlink:href="#3" y="2.171"/></svg><svg x="1540"><use xlink:href="#a"/><use xlink:href="#b" x="-.004" y="4.317"/><use xlink:href="#2"/><use xlink:href="#3" y="2.171"/></svg><svg x="1610"><use xlink:href="#a"/><use xlink:href="#b" x="5.996" y="4.317"/><use xlink:href="#2"/><use xlink:href="#3" y="2.171"/><use xlink:href="#4" y="4.342"/></svg><svg x="1680"><use xlink:href="#a"/><use xlink:href="#b" x="6.996" y="4.317"/><use xlink:href="#2"/><use xlink:href="#3" y="2.171"/><use xlink:href="#4" y="4.342"/></svg><svg x="1750"><use xlink:href="#a"/><use xlink:href="#b" x="6.996" y="4.317"/><use xlink:href="#2"/><use xlink:href="#3" y="2.171"/><use xlink:href="#4" y="4.342"/></svg><svg x="1820"><use xlink:href="#a"/><use xlink:href="#b" x="20.996" y="4.317"/><use xlink:href="#2"/><use xlink:href="#3" y="2.171"/><use xlink:href="#5" y="4.342"/></svg><svg x="1890"><use xlink:href="#a"/><use xlink:href="#b" x="-.004" y="8.659"/><use xlink:href="#2"/><use xlink:href="#3" y="2.171"/><use xlink:href="#5" y="4.342"/></svg><svg x="1960"><use xlink:href="#a"/><use xlink:href="#b" x="5.996" y="13.001"/><use xlink:href="#2"/><use xlink:href="#3" y="2.171"/><use xlink:href="#5" y="4.342"/><use xlink:href="#6" y="8.684"/><text y="14.696" class="f">object</text></svg><svg x="2030"><use xlink:href="#a"/><use xlink:href="#b" x="24.996" y="13.001"/><use xlink:href="#2"/><use xlink:href="#3" y="2.171"/><use xlink:href="#5" y="4.342"/><use xlink:href="#6" y="8.684"/><use xlink:href="#7" y="13.026"/></svg><svg x="2100"><use xlink:href="#a"/><use xlink:href="#b" x="5.996" y="15.172"/><use xlink:href="#2"/><use xlink:href="#3" y="2.171"/><use xlink:href="#5" y="4.342"/><use xlink:href="#6" y="8.684"/><use xlink:href="#7" y="13.026"/><use xlink:href="#8" y="15.197"/></svg><svg x="2170"><use xlink:href="#a"/><use xlink:href="#b" x="5.996" y="15.172"/><use xlink:href="#2"/><use xlink:href="#3" y="2.171"/><use xlink:href="#5" y="4.342"/><use xlink:href="#6" y="8.684"/><use xlink:href="#7" y="13.026"/><use xlink:href="#8" y="15.197"/></svg><svg x="2240"><use xlink:href="#a"/><use xlink:href="#b" x="39.996" y="15.172"/><use xlink:href="#2"/><use xlink:href="#3" y="2.171"/><use xlink:href="#5" y="4.342"/><use xlink:href="#6" y="8.684"/><use xlink:href="#7" y="13.026"/><text x="2.004" y="16.867" class="f">val</text><text x="6.012" y="16.867" class="i">backend</text><text x="14.028" y="16.867" class="f">=</text><text x="16.032" y="16.867" class="g">HttpURLConnectionBackend</text></svg><svg x="2310"><use xlink:href="#a"/><use xlink:href="#b" x="16.996" y="17.343"/><use xlink:href="#2"/><use xlink:href="#3" y="2.171"/><use xlink:href="#5" y="4.342"/><use xlink:href="#6" y="8.684"/><use xlink:href="#7" y="13.026"/><use xlink:href="#9" y="15.197"/><text x="2.004" y="19.038" class="f">val</text><text x="6.012" y="19.038" class="i">response</text><text x="15.03" y="19.038" class="f">=</text></svg><svg x="2380"><use xlink:href="#a"/><use xlink:href="#b" x="28.996" y="17.343"/><use xlink:href="#2"/><use xlink:href="#3" y="2.171"/><use xlink:href="#5" y="4.342"/><use xlink:href="#6" y="8.684"/><use xlink:href="#7" y="13.026"/><use xlink:href="#9" y="15.197"/><use xlink:href="#10" y="17.368"/></svg><svg x="2450"><use xlink:href="#a"/><use xlink:href="#b" x="28.996" y="17.343"/><use xlink:href="#2"/><use xlink:href="#3" y="2.171"/><use xlink:href="#5" y="4.342"/><use xlink:href="#6" y="8.684"/><use xlink:href="#7" y="13.026"/><use xlink:href="#9" y="15.197"/><use xlink:href="#10" y="17.368"/></svg><svg x="2520"><use xlink:href="#a"/><use xlink:href="#b" x="28.996" y="17.343"/><use xlink:href="#2"/><use xlink:href="#3" y="2.171"/><use xlink:href="#5" y="4.342"/><use xlink:href="#6" y="8.684"/><use xlink:href="#7" y="13.026"/><use xlink:href="#9" y="15.197"/><use xlink:href="#10" y="17.368"/></svg><svg x="2590"><use xlink:href="#a"/><use xlink:href="#b" x="9.996" y="19.514"/><use xlink:href="#2"/><use xlink:href="#3" y="2.171"/><use xlink:href="#5" y="4.342"/><use xlink:href="#6" y="8.684"/><use xlink:href="#7" y="13.026"/><use xlink:href="#9" y="15.197"/><use xlink:href="#10" y="17.368"/><text x="4.008" y="21.209" class="h">.body(</text></svg><svg x="2660"><use xlink:href="#a"/><use xlink:href="#b" x="4.996" y="21.685"/><use xlink:href="#2"/><use xlink:href="#3" y="2.171"/><use xlink:href="#5" y="4.342"/><use xlink:href="#6" y="8.684"/><use xlink:href="#7" y="13.026"/><use xlink:href="#9" y="15.197"/><use xlink:href="#10" y="17.368"/><use xlink:href="#11" y="19.539"/><text x="4.008" y="23.38" class="h">.</text></svg><svg x="2730"><use xlink:href="#a"/><use xlink:href="#b" x="56.996" y="21.685"/><use xlink:href="#2"/><use xlink:href="#3" y="2.171"/><use xlink:href="#5" y="4.342"/><use xlink:href="#6" y="8.684"/><use xlink:href="#7" y="13.026"/><use xlink:href="#9" y="15.197"/><use xlink:href="#10" y="17.368"/><use xlink:href="#11" y="19.539"/><text x="4.008" y="23.38" class="h">.post(</text><text x="10.02" y="23.38" class="c">uri</text><text x="13.026" y="23.38" class="j">&quot;https://httpbin.org/post?hello=world&quot;</text><text x="51.102" y="23.38" class="h">).send</text></svg><svg x="2800"><use xlink:href="#a"/><use xlink:href="#b" x="1.996" y="26.027"/><use xlink:href="#2"/><use xlink:href="#3" y="2.171"/><use xlink:href="#5" y="4.342"/><use xlink:href="#6" y="8.684"/><use xlink:href="#7" y="13.026"/><use xlink:href="#9" y="15.197"/><use xlink:href="#10" y="17.368"/><use xlink:href="#11" y="19.539"/><use xlink:href="#12" y="21.71"/></svg><svg x="2870"><use xlink:href="#a"/><use xlink:href="#b" x="18.996" y="26.027"/><use xlink:href="#2"/><use xlink:href="#3" y="2.171"/><use xlink:href="#5" y="4.342"/><use xlink:href="#6" y="8.684"/><use xlink:href="#7" y="13.026"/><use xlink:href="#9" y="15.197"/><use xlink:href="#10" y="17.368"/><use xlink:href="#11" y="19.539"/><use xlink:href="#12" y="21.71"/><text x="2.004" y="27.722" class="h">println(</text><text x="10.02" y="27.722" class="i">response</text><text x="18.036" y="27.722" class="h">.</text></svg><svg x="2940"><use xlink:href="#a"/><use xlink:href="#b" x="23.996" y="26.027"/><use xlink:href="#2"/><use xlink:href="#3" y="2.171"/><use xlink:href="#5" y="4.342"/><use xlink:href="#6" y="8.684"/><use xlink:href="#7" y="13.026"/><use xlink:href="#9" y="15.197"/><use xlink:href="#10" y="17.368"/><use xlink:href="#11" y="19.539"/><use xlink:href="#12" y="21.71"/><use xlink:href="#13" y="26.052"/></svg><svg x="3010"><use xlink:href="#a"/><use xlink:href="#b" x="-.004" y="30.369"/><use xlink:href="#2"/><use xlink:href="#3" y="2.171"/><use xlink:href="#5" y="4.342"/><use xlink:href="#6" y="8.684"/><use xlink:href="#7" y="13.026"/><use xlink:href="#9" y="15.197"/><use xlink:href="#10" y="17.368"/><use xlink:href="#11" y="19.539"/><use xlink:href="#12" y="21.71"/><use xlink:href="#13" y="26.052"/><use xlink:href="#14" y="28.223"/></svg><svg x="3080"><use xlink:href="#a"/><use xlink:href="#b" x="1.996" y="30.369"/><use xlink:href="#2"/><use xlink:href="#3" y="2.171"/><use xlink:href="#5" y="4.342"/><use xlink:href="#6" y="8.684"/><use xlink:href="#7" y="13.026"/><use xlink:href="#9" y="15.197"/><use xlink:href="#10" y="17.368"/><use xlink:href="#11" y="19.539"/><use xlink:href="#12" y="21.71"/><use xlink:href="#13" y="26.052"/><use xlink:href="#14" y="28.223"/><use xlink:href="#1" y="30.394"/></svg><svg x="3150"><use xlink:href="#a"/><use xlink:href="#b" x="1.996" y="30.369"/><use xlink:href="#2"/><use xlink:href="#3" y="2.171"/><use xlink:href="#5" y="4.342"/><use xlink:href="#6" y="8.684"/><use xlink:href="#7" y="13.026"/><use xlink:href="#9" y="15.197"/><use xlink:href="#10" y="17.368"/><use xlink:href="#11" y="19.539"/><use xlink:href="#12" y="21.71"/><use xlink:href="#13" y="26.052"/><use xlink:href="#14" y="28.223"/><use xlink:href="#1" y="30.394"/></svg><svg x="3220"><use xlink:href="#a"/><use xlink:href="#b" x="1.996" y="30.369"/><use xlink:href="#2"/><use xlink:href="#3" y="2.171"/><use xlink:href="#5" y="4.342"/><use xlink:href="#6" y="8.684"/><use xlink:href="#7" y="13.026"/><use xlink:href="#9" y="15.197"/><use xlink:href="#10" y="17.368"/><use xlink:href="#11" y="19.539"/><use xlink:href="#12" y="21.71"/><use xlink:href="#13" y="26.052"/><use xlink:href="#14" y="28.223"/><use xlink:href="#1" y="30.394"/></svg><svg x="3290"><use xlink:href="#a"/><use xlink:href="#b" x="1.996" y="30.369"/><use xlink:href="#2"/><use xlink:href="#3" y="2.171"/><use xlink:href="#5" y="4.342"/><use xlink:href="#6" y="8.684"/><use xlink:href="#7" y="13.026"/><use xlink:href="#9" y="15.197"/><use xlink:href="#10" y="17.368"/><use xlink:href="#11" y="19.539"/><use xlink:href="#12" y="21.71"/><use xlink:href="#13" y="26.052"/><use xlink:href="#14" y="28.223"/><use xlink:href="#1" y="30.394"/></svg><svg x="3360"><use xlink:href="#a"/><use xlink:href="#b" x="1.996" y="30.369"/><use xlink:href="#2"/><use xlink:href="#3" y="2.171"/><use xlink:href="#5" y="4.342"/><use xlink:href="#6" y="8.684"/><use xlink:href="#7" y="13.026"/><use xlink:href="#9" y="15.197"/><use xlink:href="#10" y="17.368"/><use xlink:href="#11" y="19.539"/><use xlink:href="#12" y="21.71"/><use xlink:href="#13" y="26.052"/><use xlink:href="#14" y="28.223"/><use xlink:href="#1" y="30.394"/></svg><svg x="3430"><use xlink:href="#a"/><use xlink:href="#b" x="2.996" y="30.369"/><use xlink:href="#2"/><use xlink:href="#3" y="2.171"/><use xlink:href="#5" y="4.342"/><use xlink:href="#6" y="8.684"/><use xlink:href="#7" y="13.026"/><use xlink:href="#9" y="15.197"/><use xlink:href="#10" y="17.368"/><use xlink:href="#11" y="19.539"/><use xlink:href="#12" y="21.71"/><use xlink:href="#13" y="26.052"/><use xlink:href="#14" y="28.223"/><text y="32.064" class="c">$</text><text x="2.004" y="32.064" class="d">s</text></svg><svg x="3500"><use xlink:href="#a"/><use xlink:href="#b" x="4.996" y="30.369"/><use xlink:href="#2"/><use xlink:href="#3" y="2.171"/><use xlink:href="#5" y="4.342"/><use xlink:href="#6" y="8.684"/><use xlink:href="#7" y="13.026"/><use xlink:href="#9" y="15.197"/><use xlink:href="#10" y="17.368"/><use xlink:href="#11" y="19.539"/><use xlink:href="#12" y="21.71"/><use xlink:href="#13" y="26.052"/><use xlink:href="#14" y="28.223"/><text y="32.064" class="c">$</text><text x="2.004" y="32.064" class="d">sca</text></svg><svg x="3570"><use xlink:href="#a"/><use xlink:href="#b" x="6.996" y="30.369"/><use xlink:href="#2"/><use xlink:href="#3" y="2.171"/><use xlink:href="#5" y="4.342"/><use xlink:href="#6" y="8.684"/><use xlink:href="#7" y="13.026"/><use xlink:href="#9" y="15.197"/><use xlink:href="#10" y="17.368"/><use xlink:href="#11" y="19.539"/><use xlink:href="#12" y="21.71"/><use xlink:href="#13" y="26.052"/><use xlink:href="#14" y="28.223"/><text y="32.064" class="c">$</text><text x="2.004" y="32.064" class="d">scala</text></svg><svg x="3640"><use xlink:href="#a"/><use xlink:href="#b" x="8.996" y="30.369"/><use xlink:href="#2"/><use xlink:href="#3" y="2.171"/><use xlink:href="#5" y="4.342"/><use xlink:href="#6" y="8.684"/><use xlink:href="#7" y="13.026"/><use xlink:href="#9" y="15.197"/><use xlink:href="#10" y="17.368"/><use xlink:href="#11" y="19.539"/><use xlink:href="#12" y="21.71"/><use xlink:href="#13" y="26.052"/><use xlink:href="#14" y="28.223"/><text y="32.064" class="c">$</text><text x="2.004" y="32.064" class="d">scala-c</text></svg><svg x="3710"><use xlink:href="#a"/><use xlink:href="#b" x="10.996" y="30.369"/><use xlink:href="#2"/><use xlink:href="#3" y="2.171"/><use xlink:href="#5" y="4.342"/><use xlink:href="#6" y="8.684"/><use xlink:href="#7" y="13.026"/><use xlink:href="#9" y="15.197"/><use xlink:href="#10" y="17.368"/><use xlink:href="#11" y="19.539"/><use xlink:href="#12" y="21.71"/><use xlink:href="#13" y="26.052"/><use xlink:href="#14" y="28.223"/><use xlink:href="#15" y="30.394"/></svg><svg x="3780"><use xlink:href="#a"/><use xlink:href="#b" x="11.996" y="30.369"/><use xlink:href="#2"/><use xlink:href="#3" y="2.171"/><use xlink:href="#5" y="4.342"/><use xlink:href="#6" y="8.684"/><use xlink:href="#7" y="13.026"/><use xlink:href="#9" y="15.197"/><use xlink:href="#10" y="17.368"/><use xlink:href="#11" y="19.539"/><use xlink:href="#12" y="21.71"/><use xlink:href="#13" y="26.052"/><use xlink:href="#14" y="28.223"/><use xlink:href="#15" y="30.394"/></svg><svg x="3850"><use xlink:href="#a"/><use xlink:href="#b" x="13.996" y="30.369"/><use xlink:href="#2"/><use xlink:href="#3" y="2.171"/><use xlink:href="#5" y="4.342"/><use xlink:href="#6" y="8.684"/><use xlink:href="#7" y="13.026"/><use xlink:href="#9" y="15.197"/><use xlink:href="#10" y="17.368"/><use xlink:href="#11" y="19.539"/><use xlink:href="#12" y="21.71"/><use xlink:href="#13" y="26.052"/><use xlink:href="#14" y="28.223"/><text y="32.064" class="c">$</text><text x="2.004" y="32.064" class="d">scala-cli</text><text x="12.024" y="32.064" class="d">Po</text></svg><svg x="3920"><use xlink:href="#a"/><use xlink:href="#b" x="15.996" y="30.369"/><use xlink:href="#2"/><use xlink:href="#3" y="2.171"/><use xlink:href="#5" y="4.342"/><use xlink:href="#6" y="8.684"/><use xlink:href="#7" y="13.026"/><use xlink:href="#9" y="15.197"/><use xlink:href="#10" y="17.368"/><use xlink:href="#11" y="19.539"/><use xlink:href="#12" y="21.71"/><use xlink:href="#13" y="26.052"/><use xlink:href="#14" y="28.223"/><text y="32.064" class="c">$</text><text x="2.004" y="32.064" class="d">scala-cli</text><text x="12.024" y="32.064" class="d">Post</text></svg><svg x="3990"><use xlink:href="#a"/><use xlink:href="#b" x="17.996" y="30.369"/><use xlink:href="#2"/><use xlink:href="#3" y="2.171"/><use xlink:href="#5" y="4.342"/><use xlink:href="#6" y="8.684"/><use xlink:href="#7" y="13.026"/><use xlink:href="#9" y="15.197"/><use xlink:href="#10" y="17.368"/><use xlink:href="#11" y="19.539"/><use xlink:href="#12" y="21.71"/><use xlink:href="#13" y="26.052"/><use xlink:href="#14" y="28.223"/><text y="32.064" class="c">$</text><text x="2.004" y="32.064" class="d">scala-cli</text><text x="12.024" y="32.064" class="d">Post.s</text></svg><svg x="4060"><use xlink:href="#a"/><use xlink:href="#b" x="19.996" y="30.369"/><use xlink:href="#2"/><use xlink:href="#3" y="2.171"/><use xlink:href="#5" y="4.342"/><use xlink:href="#6" y="8.684"/><use xlink:href="#7" y="13.026"/><use xlink:href="#9" y="15.197"/><use xlink:href="#10" y="17.368"/><use xlink:href="#11" y="19.539"/><use xlink:href="#12" y="21.71"/><use xlink:href="#13" y="26.052"/><use xlink:href="#14" y="28.223"/><text y="32.064" class="c">$</text><text x="2.004" y="32.064" class="d">scala-cli</text><text x="12.024" y="32.064" class="d">Post.sca</text></svg><svg x="4130"><use xlink:href="#a"/><use xlink:href="#b" x="20.996" y="30.369"/><use xlink:href="#2"/><use xlink:href="#3" y="2.171"/><use xlink:href="#5" y="4.342"/><use xlink:href="#6" y="8.684"/><use xlink:href="#7" y="13.026"/><use xlink:href="#9" y="15.197"/><use xlink:href="#10" y="17.368"/><use xlink:href="#11" y="19.539"/><use xlink:href="#12" y="21.71"/><use xlink:href="#13" y="26.052"/><use xlink:href="#14" y="28.223"/><text y="32.064" class="c">$</text><text x="2.004" y="32.064" class="d">scala-cli</text><text x="12.024" y="32.064" class="d">Post.scal</text></svg><svg x="4200"><use xlink:href="#a"/><use xlink:href="#b" x="22.996" y="30.369"/><use xlink:href="#2"/><use xlink:href="#3" y="2.171"/><use xlink:href="#5" y="4.342"/><use xlink:href="#6" y="8.684"/><use xlink:href="#7" y="13.026"/><use xlink:href="#9" y="15.197"/><use xlink:href="#10" y="17.368"/><use xlink:href="#11" y="19.539"/><use xlink:href="#12" y="21.71"/><use xlink:href="#13" y="26.052"/><use xlink:href="#14" y="28.223"/><text y="32.064" class="c">$</text><text x="2.004" y="32.064" class="d">scala-cli</text><text x="12.024" y="32.064" class="d">Post.scala</text></svg><svg x="4270"><use xlink:href="#a"/><use xlink:href="#b" x="24.996" y="30.369"/><use xlink:href="#2"/><use xlink:href="#3" y="2.171"/><use xlink:href="#5" y="4.342"/><use xlink:href="#6" y="8.684"/><use xlink:href="#7" y="13.026"/><use xlink:href="#9" y="15.197"/><use xlink:href="#10" y="17.368"/><use xlink:href="#11" y="19.539"/><use xlink:href="#12" y="21.71"/><use xlink:href="#13" y="26.052"/><use xlink:href="#14" y="28.223"/><text y="32.064" class="c">$</text><text x="2.004" y="32.064" class="d">scala-cli</text><text x="12.024" y="32.064" class="d">Post.scala</text><text x="23.046" y="32.064" class="d">-S</text></svg><svg x="4340"><use xlink:href="#a"/><use xlink:href="#b" x="26.996" y="30.369"/><use xlink:href="#2"/><use xlink:href="#3" y="2.171"/><use xlink:href="#5" y="4.342"/><use xlink:href="#6" y="8.684"/><use xlink:href="#7" y="13.026"/><use xlink:href="#9" y="15.197"/><use xlink:href="#10" y="17.368"/><use xlink:href="#11" y="19.539"/><use xlink:href="#12" y="21.71"/><use xlink:href="#13" y="26.052"/><use xlink:href="#14" y="28.223"/><text y="32.064" class="c">$</text><text x="2.004" y="32.064" class="d">scala-cli</text><text x="12.024" y="32.064" class="d">Post.scala</text><text x="23.046" y="32.064" class="d">-S</text><text x="26.052" y="32.064" class="d">2</text></svg><svg x="4410"><use xlink:href="#a"/><use xlink:href="#b" x="28.996" y="30.369"/><use xlink:href="#2"/><use xlink:href="#3" y="2.171"/><use xlink:href="#5" y="4.342"/><use xlink:href="#6" y="8.684"/><use xlink:href="#7" y="13.026"/><use xlink:href="#9" y="15.197"/><use xlink:href="#10" y="17.368"/><use xlink:href="#11" y="19.539"/><use xlink:href="#12" y="21.71"/><use xlink:href="#13" y="26.052"/><use xlink:href="#14" y="28.223"/><text y="32.064" class="c">$</text><text x="2.004" y="32.064" class="d">scala-cli</text><text x="12.024" y="32.064" class="d">Post.scala</text><text x="23.046" y="32.064" class="d">-S</text><text x="26.052" y="32.064" class="d">2.1</text></svg><svg x="4480"><use xlink:href="#a"/><use xlink:href="#b" x="29.996" y="30.369"/><use xlink:href="#2"/><use xlink:href="#3" y="2.171"/><use xlink:href="#5" y="4.342"/><use xlink:href="#6" y="8.684"/><use xlink:href="#7" y="13.026"/><use xlink:href="#9" y="15.197"/><use xlink:href="#10" y="17.368"/><use xlink:href="#11" y="19.539"/><use xlink:href="#12" y="21.71"/><use xlink:href="#13" y="26.052"/><use xlink:href="#14" y="28.223"/><text y="32.064" class="c">$</text><text x="2.004" y="32.064" class="d">scala-cli</text><text x="12.024" y="32.064" class="d">Post.scala</text><text x="23.046" y="32.064" class="d">-S</text><text x="26.052" y="32.064" class="d">2.13</text></svg><svg x="4550"><use xlink:href="#a"/><use xlink:href="#b" x="31.996" y="30.369"/><use xlink:href="#2"/><use xlink:href="#3" y="2.171"/><use xlink:href="#5" y="4.342"/><use xlink:href="#6" y="8.684"/><use xlink:href="#7" y="13.026"/><use xlink:href="#9" y="15.197"/><use xlink:href="#10" y="17.368"/><use xlink:href="#11" y="19.539"/><use xlink:href="#12" y="21.71"/><use xlink:href="#13" y="26.052"/><use xlink:href="#14" y="28.223"/><use xlink:href="#16" y="30.394"/></svg><svg x="4620"><use xlink:href="#a"/><use xlink:href="#b" x="31.996" y="30.369"/><use xlink:href="#2"/><use xlink:href="#3" y="2.171"/><use xlink:href="#5" y="4.342"/><use xlink:href="#6" y="8.684"/><use xlink:href="#7" y="13.026"/><use xlink:href="#9" y="15.197"/><use xlink:href="#10" y="17.368"/><use xlink:href="#11" y="19.539"/><use xlink:href="#12" y="21.71"/><use xlink:href="#13" y="26.052"/><use xlink:href="#14" y="28.223"/><use xlink:href="#16" y="30.394"/></svg><svg x="4690"><use xlink:href="#a"/><use xlink:href="#b" x="31.996" y="30.369"/><use xlink:href="#2"/><use xlink:href="#3" y="2.171"/><use xlink:href="#5" y="4.342"/><use xlink:href="#6" y="8.684"/><use xlink:href="#7" y="13.026"/><use xlink:href="#9" y="15.197"/><use xlink:href="#10" y="17.368"/><use xlink:href="#11" y="19.539"/><use xlink:href="#12" y="21.71"/><use xlink:href="#13" y="26.052"/><use xlink:href="#14" y="28.223"/><use xlink:href="#16" y="30.394"/></svg><svg x="4760"><use xlink:href="#a"/><use xlink:href="#b" x="-.004" y="32.54"/><use xlink:href="#2"/><use xlink:href="#3" y="2.171"/><use xlink:href="#5" y="4.342"/><use xlink:href="#6" y="8.684"/><use xlink:href="#7" y="13.026"/><use xlink:href="#9" y="15.197"/><use xlink:href="#10" y="17.368"/><use xlink:href="#11" y="19.539"/><use xlink:href="#12" y="21.71"/><use xlink:href="#13" y="26.052"/><use xlink:href="#14" y="28.223"/><use xlink:href="#16" y="30.394"/></svg><svg x="4830"><use xlink:href="#a"/><use xlink:href="#b" x="36.996" y="32.54"/><use xlink:href="#2"/><use xlink:href="#3" y="2.171"/><use xlink:href="#5" y="4.342"/><use xlink:href="#6" y="8.684"/><use xlink:href="#7" y="13.026"/><use xlink:href="#9" y="15.197"/><use xlink:href="#10" y="17.368"/><use xlink:href="#11" y="19.539"/><use xlink:href="#12" y="21.71"/><use xlink:href="#13" y="26.052"/><use xlink:href="#14" y="28.223"/><use xlink:href="#16" y="30.394"/><use xlink:href="#17" y="32.565"/></svg><svg x="4900"><use xlink:href="#a"/><use xlink:href="#b" x="-.004" y="34.711"/><use xlink:href="#2"/><use xlink:href="#3" y="2.171"/><use xlink:href="#5" y="4.342"/><use xlink:href="#6" y="8.684"/><use xlink:href="#7" y="13.026"/><use xlink:href="#9" y="15.197"/><use xlink:href="#10" y="17.368"/><use xlink:href="#11" y="19.539"/><use xlink:href="#12" y="21.71"/><use xlink:href="#13" y="26.052"/><use xlink:href="#14" y="28.223"/><use xlink:href="#16" y="30.394"/><use xlink:href="#17" y="32.565"/></svg><svg x="4970"><use xlink:href="#a"/><use xlink:href="#b" x="35.996" y="34.711"/><use xlink:href="#2"/><use xlink:href="#3" y="2.171"/><use xlink:href="#5" y="4.342"/><use xlink:href="#6" y="8.684"/><use xlink:href="#7" y="13.026"/><use xlink:href="#9" y="15.197"/><use xlink:href="#10" y="17.368"/><use xlink:href="#11" y="19.539"/><use xlink:href="#12" y="21.71"/><use xlink:href="#13" y="26.052"/><use xlink:href="#14" y="28.223"/><use xlink:href="#16" y="30.394"/><use xlink:href="#17" y="32.565"/><use xlink:href="#18" y="34.736"/></svg><svg x="5040"><use xlink:href="#a"/><use xlink:href="#b" x="-.004" y="36.882"/><use xlink:href="#2"/><use xlink:href="#3" y="2.171"/><use xlink:href="#5" y="4.342"/><use xlink:href="#6" y="8.684"/><use xlink:href="#7" y="13.026"/><use xlink:href="#9" y="15.197"/><use xlink:href="#10" y="17.368"/><use xlink:href="#11" y="19.539"/><use xlink:href="#12" y="21.71"/><use xlink:href="#13" y="26.052"/><use xlink:href="#14" y="28.223"/><use xlink:href="#16" y="30.394"/><use xlink:href="#17" y="32.565"/><use xlink:href="#18" y="34.736"/></svg><svg x="5110"><use xlink:href="#a"/><use xlink:href="#b" x="-.004" y="43.395"/><text x="2.004" y="1.67" class="c">&quot;args&quot;:</text><text x="10.02" y="1.67" class="c">{</text><use xlink:href="#19" y="2.171"/><use xlink:href="#20" y="4.342"/><use xlink:href="#21" y="6.513"/><use xlink:href="#22" y="8.684"/><use xlink:href="#23" y="10.855"/><use xlink:href="#24" y="13.026"/><use xlink:href="#25" y="15.197"/><use xlink:href="#26" y="17.368"/><use xlink:href="#27" y="19.539"/><use xlink:href="#28" y="21.71"/><use xlink:href="#29" y="23.881"/><use xlink:href="#30" y="26.052"/><use xlink:href="#31" y="28.223"/><use xlink:href="#20" y="30.394"/><use xlink:href="#32" y="32.565"/><use xlink:href="#33" y="34.736"/><use xlink:href="#34" y="36.907"/><use xlink:href="#35" y="39.078"/><use xlink:href="#36" y="41.249"/></svg><svg x="5180"><use xlink:href="#a"/><use xlink:href="#b" x="-.004" y="43.395"/><use xlink:href="#19"/><use xlink:href="#20" y="2.171"/><use xlink:href="#21" y="4.342"/><use xlink:href="#22" y="6.513"/><use xlink:href="#23" y="8.684"/><use xlink:href="#24" y="10.855"/><use xlink:href="#25" y="13.026"/><use xlink:href="#26" y="15.197"/><use xlink:href="#27" y="17.368"/><use xlink:href="#28" y="19.539"/><use xlink:href="#29" y="21.71"/><use xlink:href="#30" y="23.881"/><use xlink:href="#31" y="26.052"/><use xlink:href="#20" y="28.223"/><use xlink:href="#32" y="30.394"/><use xlink:href="#33" y="32.565"/><use xlink:href="#34" y="34.736"/><use xlink:href="#35" y="36.907"/><use xlink:href="#36" y="39.078"/></svg></svg></g></g></svg></svg>