<?xml version="1.0" encoding="UTF-8" standalone="no"?>
<!-- Created with Inkscape (http://www.inkscape.org/) -->

<svg
   width="200"
   height="200"
   viewBox="0 0 52.916666 52.916668"
   version="1.1"
   id="svg5"
   inkscape:version="1.1 (ce6663b3b7, 2021-05-25)"
   sodipodi:docname="cmd.svg"
   xmlns:inkscape="http://www.inkscape.org/namespaces/inkscape"
   xmlns:sodipodi="http://sodipodi.sourceforge.net/DTD/sodipodi-0.dtd"
   xmlns="http://www.w3.org/2000/svg"
   xmlns:svg="http://www.w3.org/2000/svg">
  <sodipodi:namedview
     id="namedview7"
     pagecolor="#ffffff"
     bordercolor="#666666"
     borderopacity="1.0"
     inkscape:pageshadow="2"
     inkscape:pageopacity="0.0"
     inkscape:pagecheckerboard="0"
     inkscape:document-units="mm"
     showgrid="false"
     inkscape:zoom="0.75187991"
     inkscape:cx="-60.514983"
     inkscape:cy="454.85987"
     inkscape:window-width="1920"
     inkscape:window-height="1043"
     inkscape:window-x="0"
     inkscape:window-y="0"
     inkscape:window-maximized="1"
     inkscape:current-layer="layer1"
     units="px" />
  <defs
     id="defs2" />
  <g
     inkscape:label="Layer 1"
     inkscape:groupmode="layer"
     id="layer1">
    <path
       style="fill:#008000;stroke:#cc0000;stroke-width:1.05833;stroke-linecap:round;stroke-linejoin:round"
       id="path1902"
       d="m 3.4325856,9.3460815 c 1.2481896,0.1554242 2.4600963,0.5009578 3.6465443,0.9086855 0.8505116,0.298318 1.6567933,0.702403 2.4544142,1.117998 0.4543512,0.344422 1.4003629,0.654862 1.6781279,1.188584 0.03919,0.0753 0.0234,0.168153 0.0351,0.252229 -0.454927,1.302025 -1.5648762,2.273803 -2.5268112,3.215768 -1.011396,0.900034 -2.0507994,1.768782 -3.1076873,2.614695 0,0 3.5698937,-1.436505 3.5698937,-1.436505 v 0 c 1.0400188,-0.864348 2.0913188,-1.71741 3.0776208,-2.643533 0.833772,-0.844116 2.031062,-1.926161 2.373192,-3.098547 0.04786,-0.164002 0.03452,-0.339937 0.05177,-0.509905 -0.04432,-0.14253 -0.06096,-0.296844 -0.13296,-0.42759 C 14.229049,9.941907 13.284801,9.6390345 12.788784,9.2360296 11.967606,8.8201787 11.159213,8.3702495 10.277054,8.0902317 9.0863546,7.6759728 7.8739316,7.3329318 6.6365439,7.0895069 c 0,0 -3.2039583,2.2565746 -3.2039583,2.2565746 z" />
    <path
       style="fill:#008000;stroke:#cc0000;stroke-width:1.05833;stroke-linecap:round;stroke-linejoin:round"
       id="path1904"
       d="m 16.791619,17.576824 c 1.967027,-0.348311 3.97194,-0.367477 5.960453,-0.497515 1.986968,-0.162981 3.977295,-0.268705 5.969965,-0.324302 1.433152,-0.03525 2.866813,-0.02975 4.300264,-0.03543 0.861743,-0.0037 1.72348,0.0024 2.585197,0.0084 0,0 3.131894,-2.274988 3.131894,-2.274988 v 0 c -0.868098,0.0043 -1.736215,0.0085 -2.604326,0.0047 -1.443625,-0.0041 -2.887321,0.0063 -4.330523,0.04381 -2.007917,0.06209 -4.013782,0.169288 -6.015688,0.339325 -1.957909,0.141801 -3.924076,0.166306 -5.876795,0.380684 0,0 -3.120441,2.355262 -3.120441,2.355262 z" />
    <path
       style="fill:#008000;stroke:#cc0000;stroke-width:1.05833;stroke-linecap:round;stroke-linejoin:round"
       id="path1906"
       d="m 17.166554,34.810567 c 2.234314,-0.05723 4.469755,-0.0539 6.704649,-0.06494 2.248894,-0.0088 4.497729,0.01098 6.746348,0.04415 1.616541,0.004 3.23305,-0.01617 4.849659,-0.01662 1.750841,0.04555 3.495741,-0.01548 5.241859,-0.137099 0.957061,-0.09344 1.921335,-0.09838 2.877973,-0.191087 0.625026,-0.110998 1.248315,-0.225142 1.88018,-0.28946 0.36258,-0.03357 0.726493,-0.04234 1.090263,-0.0515 0,0 3.148126,-2.294779 3.148126,-2.294779 v 0 c -0.362362,0.0021 -0.725167,-0.0036 -1.087149,0.01598 -0.641884,0.04332 -1.278339,0.135459 -1.90595,0.278765 -0.955622,0.190209 -1.955339,0.102076 -2.918978,0.254923 -1.749171,0.1455 -3.497167,0.227468 -5.253352,0.181616 -1.601354,-5.29e-4 -3.202599,-0.02066 -4.803884,-0.01662 -2.289138,0.03245 -4.578474,0.05293 -6.867874,0.04415 -2.175298,-0.0109 -4.351223,-0.0065 -6.525896,-0.06494 0,0 -3.175974,2.307481 -3.175974,2.307481 z" />
    <path
       style="fill:#008000;stroke:#cc0000;stroke-width:1.05833;stroke-linecap:round;stroke-linejoin:round"
       id="path1908"
       d="m 17.592712,45.823703 c 0.815739,-0.0031 1.627285,-0.0031 2.439215,-0.08752 0,0 3.117043,-2.322054 3.117043,-2.322054 v 0 c -0.7941,0.108249 -1.583777,0.155093 -2.385944,0.106209 0,0 -3.170314,2.303367 -3.170314,2.303367 z" />
    <path
       style="fill:#008000;stroke:#cc0000;stroke-width:1.05833;stroke-linecap:round;stroke-linejoin:round"
       id="path1910"
       d="m 26.737923,46.386453 c 0.828374,0.0104 1.647407,-0.0076 2.470621,-0.101052 0.227968,-0.02093 0.455938,-0.04186 0.683909,-0.06279 0,0 3.095868,-2.289249 3.095868,-2.289249 v 0 c -0.224978,0.0172 -0.449953,0.0344 -0.674931,0.0516 -0.799732,0.05837 -1.592469,0.151247 -2.397659,0.09268 0,0 -3.177808,2.308812 -3.177808,2.308812 z" />
    <path
       style="fill:#008000;stroke:#cc0000;stroke-width:1.05833;stroke-linecap:round;stroke-linejoin:round"
       id="path1912"
       d="m 37.608052,47.479902 c 1.702051,-0.230383 3.425076,-0.269584 5.140388,-0.315169 0.885135,-0.02185 1.770531,-0.0286 2.655901,-0.02678 0.358034,0.0088 0.71765,-0.01257 1.074351,0.02458 0,0 3.222419,-2.269948 3.222419,-2.269948 v 0 c -0.376029,-0.07005 -0.750028,-0.06763 -1.132322,-0.05503 -0.906182,0.0066 -1.812385,0.01916 -2.717895,0.05708 -1.702477,0.06942 -3.403915,0.162283 -5.106628,0.225256 0,0 -3.136214,2.360015 -3.136214,2.360015 z" />
    <path
       style="fill:#008000;stroke:#cc0000;stroke-width:1.05833;stroke-linecap:round;stroke-linejoin:round"
       id="path1914"
       d="m 41.684609,15.689613 c 1.064207,0.161617 2.139974,0.220048 3.213843,0.274869 0.683549,0.02857 1.367542,0.04122 2.051601,0.04746 0,0 3.142874,-2.279529 3.142874,-2.279529 v 0 c -0.683914,-0.0049 -1.367957,-0.0072 -2.051569,-0.03047 -1.050356,-0.03827 -2.105858,-0.08047 -3.142583,-0.265556 0,0 -3.214166,2.253226 -3.214166,2.253226 z" />
    <circle
       id="path1954"
       style="fill:#008000;stroke:#cc0000;stroke-width:0.264583"
       cx="-82.019989"
       cy="111.09081"
       r="0.18602528" />
    <circle
       id="path1956"
       style="fill:#008000;stroke:#cc0000;stroke-width:0.264583"
       cx="-82.019989"
       cy="111.09081"
       r="0.18602528" />
  </g>
</svg>
