<?xml version="1.0" encoding="UTF-8" standalone="no"?>
<!-- Created with Inkscape (http://www.inkscape.org/) -->

<svg
   width="200"
   height="200"
   viewBox="0 0 52.916666 52.916668"
   version="1.1"
   id="svg5"
   inkscape:version="1.1 (ce6663b3b7, 2021-05-25)"
   sodipodi:docname="intuitive.svg"
   xmlns:inkscape="http://www.inkscape.org/namespaces/inkscape"
   xmlns:sodipodi="http://sodipodi.sourceforge.net/DTD/sodipodi-0.dtd"
   xmlns="http://www.w3.org/2000/svg"
   xmlns:svg="http://www.w3.org/2000/svg">
  <sodipodi:namedview
     id="namedview7"
     pagecolor="#ffffff"
     bordercolor="#666666"
     borderopacity="1.0"
     inkscape:pageshadow="2"
     inkscape:pageopacity="0.0"
     inkscape:pagecheckerboard="0"
     inkscape:document-units="mm"
     showgrid="false"
     inkscape:zoom="0.75187991"
     inkscape:cx="-60.514983"
     inkscape:cy="454.85987"
     inkscape:window-width="1920"
     inkscape:window-height="1043"
     inkscape:window-x="0"
     inkscape:window-y="0"
     inkscape:window-maximized="1"
     inkscape:current-layer="layer1"
     units="px" />
  <defs
     id="defs2" />
  <g
     inkscape:label="Layer 1"
     inkscape:groupmode="layer"
     id="layer1">
    <path
       style="fill:#00ff00;stroke:#00cc55;stroke-width:1;stroke-linecap:round;stroke-linejoin:round;stroke-miterlimit:4;stroke-dasharray:none;stroke-opacity:1"
       id="path3948"
       d="M 5.7156135,34.555001 C 5.3360285,33.893172 4.8376929,33.317627 4.5029141,32.629588 4.3034219,32.021261 4.1734612,31.387494 4.0420469,30.75963 3.9235747,30.15629 3.8954514,29.541499 3.8807374,28.928464 c -0.00779,-0.545697 -0.00623,-1.09149 -0.00508,-1.637231 0.00485,-0.558207 -0.078258,-1.097632 0.1980187,-1.598663 0.3267226,-0.917055 0.7481728,-1.795838 1.1874748,-2.665616 0.3812371,-0.688056 0.9143759,-1.27279 1.3000924,-1.957209 0.3158421,-0.418081 0.5487334,-0.89859 0.8745101,-1.306255 0.355019,-0.405123 0.6745301,-0.836286 1.0198904,-1.25306 0.4024887,-0.48077 0.6826914,-1.040637 1.062255,-1.537429 0.2669561,-0.416884 0.6639362,-0.785077 1.0607572,-1.086529 0.09963,-0.05765 0.381485,-0.216544 0.468027,-0.284508 1.162366,-0.912854 2.951482,-1.817165 -2.396336,1.299208 0.8629613,-0.345372 1.760307,-0.587693 2.670237,-0.771761 0.970962,-0.125686 1.914598,-0.367377 2.846695,-0.659524 0.89133,-0.313432 1.8282,-0.452312 2.737552,-0.69945 0.72673,-0.260428 1.484691,-0.388912 2.249543,-0.467355 0.746539,-0.1294 1.452262,-0.414864 2.195784,-0.574072 0.850971,-0.156229 1.719002,-0.170917 2.581572,-0.184778 0.761331,-0.0071 1.522696,-0.0055 2.284044,-0.0027 0.814118,0.05054 1.613897,-0.0876 2.412349,-0.226531 0.938914,-0.207776 1.888964,-0.341149 2.846911,-0.416484 0.74839,-0.05252 1.521685,-0.0039 2.22984,0.255136 0.622781,0.232563 1.175094,0.593599 1.684189,1.0142 0.499462,0.406465 1.03777,0.754335 1.573911,1.109226 0.554884,0.314677 1.04462,0.725947 1.577758,1.072035 0.40735,0.303054 0.807882,0.620168 1.188307,0.956944 0.481598,0.338185 0.954302,0.681358 1.400631,1.064545 0.452942,0.326752 0.906179,0.649092 1.328097,1.015138 0.443928,0.416269 0.896921,0.832568 1.304792,1.285496 0.576107,0.601666 1.1986,1.159465 1.622984,1.882863 0.29569,0.501011 0.629798,0.973335 0.894561,1.491898 0.336778,0.704733 0.613905,1.434871 0.914342,2.155732 0.26793,0.731419 0.579207,1.443455 0.760547,2.202862 0.234826,0.720839 0.375365,1.463828 0.453319,2.216428 0.0541,0.707956 0.05893,1.418849 0.06274,2.128538 0.05843,0.802852 -0.115009,1.58577 -0.222327,2.376025 -0.01815,0.644752 -0.179194,1.236371 -0.418653,1.826913 -0.113956,0.61195 -0.29419,0.979535 -0.5819,1.510533 -0.20056,0.513506 -0.487344,0.97513 -0.875702,1.365104 -0.341064,0.460542 -0.800259,0.815668 -1.268937,1.137838 0,0 3.648663,-1.450229 3.648663,-1.450229 v 0 c 0.449138,-0.36399 0.878488,-0.745728 1.227542,-1.21104 0.343773,-0.44836 0.615272,-0.92779 0.844833,-1.444739 0.271089,-0.495612 0.381378,-1.026398 0.561459,-1.557938 0.223385,-0.613949 0.311063,-1.251876 0.365326,-1.901161 0.112194,-0.803478 0.241411,-1.604433 0.187899,-2.419564 1.64e-4,-0.725416 0.01712,-1.45311 -0.06836,-2.175124 -0.09773,-0.766164 -0.262768,-1.518859 -0.480121,-2.260271 -0.203597,-0.771623 -0.516821,-1.500522 -0.802351,-2.244226 -0.298681,-0.732019 -0.568167,-1.475538 -0.904799,-2.190935 -0.255696,-0.537037 -0.608269,-1.00849 -0.920541,-1.513162 -0.446756,-0.73752 -1.070451,-1.32056 -1.654569,-1.948396 -0.410898,-0.473396 -0.87585,-0.900886 -1.323184,-1.338063 -0.427249,-0.361163 -0.855728,-0.71962 -1.332505,-1.015345 -0.447003,-0.371943 -0.885502,-0.753144 -1.386202,-1.054319 -0.386464,-0.367104 -0.826868,-0.674767 -1.231411,-1.02192 -0.552034,-0.308893 -1.019003,-0.750999 -1.583425,-1.044259 -0.517745,-0.360536 -1.049232,-0.696561 -1.54437,-1.086863 -0.539719,-0.436674 -1.09514,-0.853846 -1.751666,-1.103635 -0.72176,-0.340733 -1.554343,-0.425582 -2.346058,-0.399314 -0.969439,0.06741 -1.936724,0.171286 -2.885194,0.390905 -0.773189,0.156146 -1.560502,0.294727 -2.350601,0.271709 -0.763235,-6.35e-4 -1.526471,-0.0065 -2.289693,-0.0012 -0.875519,0.01126 -1.753481,0.02927 -2.623987,0.130131 -0.743277,0.12996 -1.463486,0.324611 -2.164301,0.600739 -0.779025,0.05912 -1.566093,0.149881 -2.307408,0.408204 -0.899023,0.311248 -1.84967,0.408009 -2.753053,0.704395 -0.922989,0.309298 -1.856073,0.590492 -2.826449,0.704911 -0.91504,0.164647 -1.803863,0.392784 -2.689367,0.670403 -1.64434,0.926804 -3.3185576,1.713231 -4.775101,2.894138 -0.3762221,0.363152 -0.7643691,0.711619 -1.0237523,1.173655 -0.3416898,0.513263 -0.6630847,1.038225 -1.0642227,1.510018 -0.3449674,0.426991 -0.6988862,0.846973 -1.0243841,1.289171 -0.2691619,0.447603 -0.5867963,0.863629 -0.8435953,1.319519 -0.4258789,0.658131 -0.9201468,1.271977 -1.2677715,1.980096 -0.4219941,0.88898 -0.83794209,1.78004 -1.19683289,2.696434 -0.17999548,0.570989 -0.14941206,1.147079 -0.14193067,1.741831 -8.7842e-4,0.549563 -0.005215,1.099307 0.0124778,1.648677 0.0261694,0.633137 0.0696455,1.267198 0.20180297,1.888548 0.14336236,0.657259 0.26124172,1.32937 0.51033769,1.955379 0.3532684,0.691341 0.8639284,1.274813 1.213464,1.96686 0,0 3.3954813,-1.974961 3.3954813,-1.974961 z" />
    <path
       style="fill:#00ff00;stroke:#00cc55;stroke-width:1;stroke-linecap:round;stroke-linejoin:round;stroke-miterlimit:4;stroke-dasharray:none;stroke-opacity:1"
       id="path4104"
       d="m 2.7627085,26.277126 c 0.606866,0.06354 1.2060901,0.190571 1.8003586,0.326545 0,0 3.2167208,-2.223471 3.2167208,-2.223471 v 0 c -0.594986,-0.148539 -1.2013954,-0.261053 -1.8051158,-0.365776 0,0 -3.2119636,2.262702 -3.2119636,2.262702 z" />
    <path
       style="fill:#00ff00;stroke:#00cc55;stroke-width:1;stroke-linecap:round;stroke-linejoin:round;stroke-miterlimit:4;stroke-dasharray:none;stroke-opacity:1"
       id="path4106"
       d="m 18.683371,15.519219 c 0.01985,0.768856 0.02249,1.538186 0.02214,2.307282 0,0 3.454883,-1.760351 3.454883,-1.760351 v 0 c -3.44e-4,-0.77662 0.0025,-1.55346 0.02214,-2.329847 0,0 -3.499169,1.782916 -3.499169,1.782916 z" />
    <path
       style="fill:#00ff00;stroke:#00cc55;stroke-width:1;stroke-linecap:round;stroke-linejoin:round;stroke-miterlimit:4;stroke-dasharray:none;stroke-opacity:1"
       id="path4108"
       d="m 38.057666,15.974973 c -0.475747,0.300364 -0.94389,0.608527 -1.426546,0.897983 0,0 3.60059,-1.393244 3.60059,-1.393244 v 0 c 0.495816,-0.311283 0.994151,-0.619908 1.46512,-0.96854 0,0 -3.639164,1.463801 -3.639164,1.463801 z" />
    <path
       style="fill:#00ff00;stroke:#00cc55;stroke-width:1;stroke-linecap:round;stroke-linejoin:round;stroke-miterlimit:4;stroke-dasharray:none;stroke-opacity:1"
       id="path4110"
       d="m 50.685125,33.519922 c -1.176393,-0.230963 -2.350365,-0.475787 -3.529655,-0.691893 -1.124448,-0.211585 -2.239272,-0.46649 -3.352829,-0.728084 0,0 -3.192965,2.213952 -3.192965,2.213952 v 0 c 1.129728,0.241115 2.252329,0.510503 3.387915,0.724902 1.163992,0.199168 2.330122,0.424577 3.469555,0.732701 0,0 3.217979,-2.251578 3.217979,-2.251578 z" />
    <path
       style="fill:#00ff00;stroke:#00cc55;stroke-width:1;stroke-linecap:round;stroke-linejoin:round;stroke-miterlimit:4;stroke-dasharray:none;stroke-opacity:1"
       id="path4112"
       d="m 21.073075,35.937221 c -0.259622,0.820227 -0.183572,1.404459 0.23764,2.136106 0.537553,0.623842 1.365571,0.739963 2.139343,0.836197 2.001913,0.06631 4.051294,-1.322149 4.812191,-3.143226 0.258641,-0.605727 0.191021,-1.107101 -0.227894,-1.598308 -0.392067,-0.329063 -0.897911,-0.464598 -1.402625,-0.442527 -1.647249,0.361133 -3.111318,1.406681 -4.348272,2.541016 0,0 3.635458,-1.482733 3.635458,-1.482733 v 0 c 0.121386,-0.106394 0.525199,-0.373583 0.384727,-0.294071 -5.722104,3.238902 -3.887915,2.3485 -2.82321,1.58727 0.411753,-0.09214 0.811753,-0.08503 1.191671,0.132112 0.362897,0.35106 0.234516,0.748506 0.03616,1.172877 -0.142388,0.260577 -0.184996,0.374853 -0.385749,0.597463 -0.07642,0.08474 -0.352464,0.285261 -0.251294,0.232476 6.298794,-3.286323 3.788152,-1.771131 2.56089,-1.565505 -0.655987,-0.05104 -1.412291,-0.08034 -1.929099,-0.532691 -0.383451,-0.654169 -0.346163,-1.140161 -0.08035,-1.853631 0,0 -3.549587,1.677175 -3.549587,1.677175 z" />
    <path
       style="fill:#00ff00;stroke:#00cc55;stroke-width:1;stroke-linecap:round;stroke-linejoin:round;stroke-miterlimit:4;stroke-dasharray:none;stroke-opacity:1"
       id="path4114"
       d="m 27.116466,34.039585 c 1.010348,-1.074285 4.928883,-3.269031 -0.329087,-0.157666 2.798501,-1.362659 5.479968,-2.925225 8.173749,-4.483806 0.72471,-0.419073 1.398469,-0.915411 2.099228,-1.369451 -1.045342,0.60911 -4.155265,2.479182 -3.136026,1.827331 1.154186,-0.738158 2.361027,-1.390552 3.541178,-2.086446 0.06407,-0.03778 0.255793,-0.151918 0.191473,-0.114567 -5.353783,3.108915 -3.798617,2.031913 -2.34165,1.516848 0.774333,-0.223305 1.562436,-0.391006 2.341462,-0.597403 0,0 3.074549,-2.360977 3.074549,-2.360977 v 0 c -0.779145,0.217174 -1.557632,0.423095 -2.350913,0.583634 -1.787962,0.50601 -1.989392,0.899371 -4.384932,2.285105 -0.06509,0.03765 -0.250219,0.166471 -0.184817,0.12936 1.059445,-0.601136 4.204346,-2.461667 3.167769,-1.821904 -1.170405,0.722362 -2.379617,1.37987 -3.569427,2.069803 -0.660646,0.463137 -1.340255,0.903177 -2.031098,1.319348 5.384628,-3.074408 2.165562,-1.231927 0.994981,-0.609021 -1.644668,0.875183 -0.18529,0.07567 -1.810162,0.891458 -0.269918,0.135514 -0.53253,0.285112 -0.798793,0.42767 -2.199489,1.251312 -4.45082,2.297536 -6.27892,4.048868 0,0 3.631436,-1.498184 3.631436,-1.498184 z" />
    <path
       style="fill:#00ff00;stroke:#00cc55;stroke-width:1;stroke-linecap:round;stroke-linejoin:round;stroke-miterlimit:4;stroke-dasharray:none;stroke-opacity:1"
       id="path4116"
       d="m 38.558028,28.106028 c -0.896874,0.841976 -1.754373,1.720144 -2.627109,2.587985 -1.009568,1.076643 -2.172338,1.984986 -3.319166,2.906972 -0.793224,0.601755 -1.643489,1.119592 -2.4516,1.699048 -1.020559,0.625819 -3.112961,1.905294 2.62677,-1.521923 0.105174,-0.0628 -0.220226,0.107442 -0.332026,0.157504 -0.343395,0.153771 -0.685747,0.303067 -1.024416,0.467659 -1.660242,0.690107 -3.338917,1.466707 -4.715023,2.635538 -0.309031,0.146484 -0.506292,0.430332 -0.778064,0.632873 0,0 3.636474,-1.46427 3.636474,-1.46427 v 0 c 0.252492,-0.226253 0.509487,-0.439164 0.795306,-0.622504 1.10632,-0.734444 2.765099,-1.635231 -2.852463,1.599914 -0.07614,0.04385 0.15611,-0.08125 0.237519,-0.114305 0.0973,-0.0395 0.199459,-0.06596 0.297715,-0.103018 0.10936,-0.04124 0.216617,-0.08787 0.324927,-0.1318 1.863698,-0.864444 3.730559,-1.739894 5.404514,-2.962039 0.813022,-0.555316 1.635569,-1.097891 2.407917,-1.710235 1.144257,-0.927804 2.275917,-1.872917 3.296359,-2.938933 0.895869,-0.876107 1.765001,-1.777405 2.696197,-2.616529 0,0 -3.623831,1.498063 -3.623831,1.498063 z" />
  </g>
</svg>
