<svg id="Layer_1" data-name="Layer 1" xmlns="http://www.w3.org/2000/svg" xmlns:xlink="http://www.w3.org/1999/xlink" viewBox="0 0 400 400"><defs><style>.cls-1{fill:url(#linear-gradient);}.cls-2{fill:url(#linear-gradient-2);}.cls-3{fill:url(#linear-gradient-3);}.cls-4{fill:url(#linear-gradient-4);}.cls-5{fill:url(#linear-gradient-5);}</style><linearGradient id="linear-gradient" x1="-610.33" y1="-3900.19" x2="-609.33" y2="-3900.19" gradientTransform="matrix(0, 70.98, 70.98, 0, 277020.13, 43445.54)" gradientUnits="userSpaceOnUse"><stop offset="0" stop-color="#5f1318"/><stop offset="0.3" stop-color="#5f1318"/><stop offset="0.78" stop-color="#7f1620"/><stop offset="1" stop-color="#7f1620"/></linearGradient><linearGradient id="linear-gradient-2" x1="-610.33" y1="-3900.19" x2="-609.33" y2="-3900.19" gradientTransform="matrix(108.03, 0, 0, -108.03, 66097.93, -421155.58)" gradientUnits="userSpaceOnUse"><stop offset="0" stop-color="#c90d0d"/><stop offset="0.39" stop-color="#e3322f"/><stop offset="0.67" stop-color="#de3d3b"/><stop offset="1" stop-color="#de3d3b"/></linearGradient><linearGradient id="linear-gradient-3" x1="-610.33" y1="-3900.19" x2="-609.33" y2="-3900.19" gradientTransform="matrix(144.33, 0, 0, -144.33, 88213.86, -562769.42)" gradientUnits="userSpaceOnUse"><stop offset="0" stop-color="#ba0000"/><stop offset="0.27" stop-color="#ca0e0e"/><stop offset="0.74" stop-color="#e3322f"/><stop offset="1" stop-color="#e3322f"/></linearGradient><linearGradient id="linear-gradient-4" x1="-610.33" y1="-3900.19" x2="-609.33" y2="-3900.19" gradientTransform="matrix(0, -58.35, -58.35, 0, -227357.47, -35311.82)" gradientUnits="userSpaceOnUse"><stop offset="0" stop-color="#018845"/><stop offset="0.38" stop-color="#016a37"/><stop offset="0.76" stop-color="#1d4c36"/><stop offset="1" stop-color="#1d4c36"/></linearGradient><linearGradient id="linear-gradient-5" x1="-610.33" y1="-3900.19" x2="-609.33" y2="-3900.19" gradientTransform="matrix(0, 118.23, 118.23, 0, 461324.24, 72342.46)" gradientUnits="userSpaceOnUse"><stop offset="0" stop-color="#006535"/><stop offset="0.4" stop-color="#038e47"/><stop offset="1" stop-color="#199e4a"/></linearGradient></defs><polygon class="cls-1" points="272.16 154.96 127.84 118.88 127.84 173 272.16 209.08 272.16 154.96"/><polygon class="cls-2" points="272.16 155 272.16 209.02 164.13 182.01 272.16 155"/><polygon class="cls-3" points="127.84 118.82 272.16 82.74 272.16 136.86 127.84 172.94 127.84 118.82"/><polygon class="cls-4" points="127.84 263.14 272.16 227.06 272.16 281.18 127.84 317.26 127.84 263.14"/><polygon class="cls-5" points="272.16 227.06 127.84 190.98 127.84 245.1 272.16 281.18 272.16 227.06"/></svg>