<?xml version="1.0" encoding="UTF-8"?>
<svg xmlns="http://www.w3.org/2000/svg" viewBox="0 0 360 72" fill="none" role="img" aria-label="Scala CLI">
  <title>Scala CLI</title>
  <!-- Mark (cropped) + Merriweather wordmark outlined -->
  <defs>
    <style>
      .cls-1{fill:url(#sc-lg1)}.cls-2{fill:url(#sc-lg2)}.cls-3{fill:url(#sc-lg3)}.cls-4{fill:url(#sc-lg4)}.cls-5{fill:url(#sc-lg5)}
      .sc-wordmark{fill:#0f172a}
      @media (prefers-color-scheme: dark){.sc-wordmark{fill:#f8fafc}}
    </style>
    <linearGradient id="sc-lg1" x1="-610.33" y1="-3900.19" x2="-609.33" y2="-3900.19" gradientTransform="matrix(0, 70.98, 70.98, 0, 277020.13, 43445.54)" gradientUnits="userSpaceOnUse"><stop offset="0" stop-color="#5f1318"/><stop offset="0.3" stop-color="#5f1318"/><stop offset="0.78" stop-color="#7f1620"/><stop offset="1" stop-color="#7f1620"/></linearGradient>
    <linearGradient id="sc-lg2" x1="-610.33" y1="-3900.19" x2="-609.33" y2="-3900.19" gradientTransform="matrix(108.03, 0, 0, -108.03, 66097.93, -421155.58)" gradientUnits="userSpaceOnUse"><stop offset="0" stop-color="#c90d0d"/><stop offset="0.39" stop-color="#e3322f"/><stop offset="0.67" stop-color="#de3d3b"/><stop offset="1" stop-color="#de3d3b"/></linearGradient>
    <linearGradient id="sc-lg3" x1="-610.33" y1="-3900.19" x2="-609.33" y2="-3900.19" gradientTransform="matrix(144.33, 0, 0, -144.33, 88213.86, -562769.42)" gradientUnits="userSpaceOnUse"><stop offset="0" stop-color="#ba0000"/><stop offset="0.27" stop-color="#ca0e0e"/><stop offset="0.74" stop-color="#e3322f"/><stop offset="1" stop-color="#e3322f"/></linearGradient>
    <linearGradient id="sc-lg4" x1="-610.33" y1="-3900.19" x2="-609.33" y2="-3900.19" gradientTransform="matrix(0, -58.35, -58.35, 0, -227357.47, -35311.82)" gradientUnits="userSpaceOnUse"><stop offset="0" stop-color="#018845"/><stop offset="0.38" stop-color="#016a37"/><stop offset="0.76" stop-color="#1d4c36"/><stop offset="1" stop-color="#1d4c36"/></linearGradient>
    <linearGradient id="sc-lg5" x1="-610.33" y1="-3900.19" x2="-609.33" y2="-3900.19" gradientTransform="matrix(0, 118.23, 118.23, 0, 461324.24, 72342.46)" gradientUnits="userSpaceOnUse"><stop offset="0" stop-color="#006535"/><stop offset="0.4" stop-color="#038e47"/><stop offset="1" stop-color="#199e4a"/></linearGradient>
  </defs>
  <g transform="translate(0 0) scale(0.307010) translate(-127.84 -82.74)">
    <polygon class="cls-1" points="272.16 154.96 127.84 118.88 127.84 173 272.16 209.08 272.16 154.96"/>
    <polygon class="cls-2" points="272.16 155 272.16 209.02 164.13 182.01 272.16 155"/>
    <polygon class="cls-3" points="127.84 118.82 272.16 82.74 272.16 136.86 127.84 172.94 127.84 118.82"/>
    <polygon class="cls-4" points="127.84 263.14 272.16 227.06 272.16 281.18 127.84 317.26 127.84 263.14"/>
    <polygon class="cls-5" points="272.16 227.06 127.84 190.98 127.84 245.1 272.16 281.18 272.16 227.06"/>
  </g>
  <path class="sc-wordmark" transform="translate(51.30 65.09)" d="M20.59 0.79Q16.70 0.79 13.59 0Q10.48-0.79 8.30-1.60Q6.12-2.41 5-2.52L5.58-15.34L9.32-15.34L10.40-5.90Q11.23-5.11 12.83-4.39Q14.44-3.67 16.54-3.20Q18.65-2.74 20.95-2.74Q25.27-2.74 27.92-3.96Q30.56-5.18 31.77-7.43Q32.98-9.68 32.98-12.74Q32.98-15.91 31.27-18.04Q29.56-20.16 26.64-21.73Q23.72-23.29 20.09-24.77Q17.82-25.70 15.30-26.98Q12.78-28.26 10.57-30.10Q8.35-31.93 6.97-34.49Q5.58-37.04 5.58-40.54Q5.58-44.57 7.69-47.61Q9.79-50.65 13.61-52.36Q17.42-54.07 22.57-54.07Q24.98-54.07 27.11-53.73Q29.23-53.39 31-52.92Q32.76-52.45 34.07-52.04Q35.39-51.62 36.18-51.48L35.75-39.67L32.15-39.67L30.85-48.60Q30.35-49.03 29.09-49.52Q27.83-50 26.05-50.35Q24.26-50.69 22.21-50.69Q18.54-50.69 16.11-49.73Q13.68-48.78 12.47-46.84Q11.27-44.89 11.27-41.98Q11.27-38.70 12.83-36.70Q14.40-34.70 17.24-33.25Q20.09-31.79 23.83-30.02Q26.50-28.80 29.20-27.40Q31.90-25.99 34.18-24.19Q36.47-22.39 37.85-19.98Q39.24-17.57 39.24-14.33Q39.24-11.56 38.09-8.86Q36.94-6.16 34.63-3.98Q32.33-1.80 28.82-0.50Q25.31 0.79 20.59 0.79M62.75 0.79Q56.92 0.79 52.96-1.91Q49-4.61 46.96-9.22Q44.93-13.82 44.89-19.51Q44.86-23.80 46.08-27.67Q47.30-31.54 49.79-34.54Q52.27-37.55 56.05-39.29Q59.83-41.04 64.91-41.04Q67-41.04 68.96-40.66Q70.92-40.28 72.49-39.78Q74.05-39.28 74.99-38.88L74.70-28.58L71.10-28.58L69.59-35.50Q69.48-36.07 68.53-36.56Q67.57-37.04 66.20-37.35Q64.84-37.66 63.40-37.66Q59.69-37.66 56.93-35.73Q54.18-33.80 52.65-30.24Q51.12-26.68 51.08-21.74Q51.05-17.06 52.04-13.59Q53.03-10.12 54.79-7.87Q56.56-5.62 58.93-4.50Q61.31-3.38 64.04-3.38Q66.24-3.38 68.26-3.91Q70.27-4.43 71.91-5.18Q73.55-5.94 74.63-6.70L75.78-4.32Q74.45-2.99 72.34-1.82Q70.24-0.65 67.73 0.07Q65.23 0.79 62.75 0.79M92.02 0.79Q88.81 0.79 86.08-0.40Q83.34-1.58 81.67-4.09Q79.99-6.59 79.99-10.51Q79.99-14.29 82.06-16.85Q84.13-19.40 87.61-20.93Q91.08-22.46 95.36-23.18Q99.65-23.90 104.11-23.98L104.11-27Q104.11-30.56 103.36-32.54Q102.60-34.52 100.73-35.33Q98.86-36.14 95.47-36.14Q91.26-36.14 88.07-34.72Q84.89-33.30 83.16-32.33L81.58-35.50Q82.22-36.11 84.56-37.37Q86.90-38.63 90.18-39.69Q93.46-40.75 96.91-40.75Q101.70-40.75 104.54-39.38Q107.39-38.02 108.63-34.96Q109.87-31.90 109.87-26.86L109.87-3.20L114.34-3.20L114.34-0.54Q113.54-0.32 112.39-0.07Q111.24 0.18 109.98 0.36Q108.72 0.54 107.64 0.54Q106.09 0.54 105.35 0.07Q104.62-0.40 104.62-2.48L104.62-5.04Q103.72-4.25 101.90-2.86Q100.08-1.48 97.56-0.34Q95.04 0.79 92.02 0.79M94.18-3.46Q96.34-3.46 99.14-4.73Q101.95-6.01 104.11-7.85L104.11-20.59Q98.14-20.56 94.21-19.35Q90.29-18.14 88.34-16.06Q86.40-13.97 86.40-11.23Q86.40-8.35 87.43-6.64Q88.45-4.93 90.22-4.19Q91.98-3.46 94.18-3.46M117.32-3.10L123.66-3.67L123.66-54.43L117.54-55.08L117.54-57.74L127.98-58.97L128.05-58.97L129.42-58.03L129.42-3.60L136.26-3.10L136.26 0L117.32 0L117.32-3.10M151.09 0.79Q147.89 0.79 145.15-0.40Q142.42-1.58 140.74-4.09Q139.07-6.59 139.07-10.51Q139.07-14.29 141.14-16.85Q143.21-19.40 146.68-20.93Q150.16-22.46 154.44-23.18Q158.72-23.90 163.19-23.98L163.19-27Q163.19-30.56 162.43-32.54Q161.68-34.52 159.80-35.33Q157.93-36.14 154.55-36.14Q150.34-36.14 147.15-34.72Q143.96-33.30 142.24-32.33L140.65-35.50Q141.30-36.11 143.64-37.37Q145.98-38.63 149.26-39.69Q152.53-40.75 155.99-40.75Q160.78-40.75 163.62-39.38Q166.46-38.02 167.71-34.96Q168.95-31.90 168.95-26.86L168.95-3.20L173.41-3.20L173.41-0.54Q172.62-0.32 171.47-0.07Q170.32 0.18 169.06 0.36Q167.80 0.54 166.72 0.54Q165.17 0.54 164.43 0.07Q163.69-0.40 163.69-2.48L163.69-5.04Q162.79-4.25 160.97-2.86Q159.16-1.48 156.64-0.34Q154.12 0.79 151.09 0.79M153.25-3.46Q155.41-3.46 158.22-4.73Q161.03-6.01 163.19-7.85L163.19-20.59Q157.21-20.56 153.29-19.35Q149.36-18.14 147.42-16.06Q145.48-13.97 145.48-11.23Q145.48-8.35 146.50-6.64Q147.53-4.93 149.29-4.19Q151.06-3.46 153.25-3.46M219.28 0.79Q213.41 0.79 208.84-1.12Q204.26-3.02 201.11-6.59Q197.96-10.15 196.34-15.19Q194.72-20.23 194.72-26.50Q194.72-32.51 196.67-37.58Q198.61-42.66 202.10-46.40Q205.60-50.15 210.26-52.20Q214.92-54.25 220.36-54.25Q222.77-54.25 225.05-53.96Q227.34-53.68 229.36-53.28Q231.37-52.88 232.97-52.51Q234.58-52.13 235.55-51.95L234.97-40.21L231.23-40.21L229.64-48.56Q229-49.14 227.56-49.64Q226.12-50.15 223.94-50.47Q221.76-50.80 218.92-50.80Q214.02-50.80 210.08-48.08Q206.14-45.36 203.81-40.19Q201.49-35.03 201.49-27.65Q201.49-22.64 202.57-18.14Q203.65-13.64 205.85-10.15Q208.04-6.66 211.43-4.66Q214.81-2.66 219.42-2.66Q222.41-2.66 224.35-3.01Q226.30-3.35 227.54-3.96Q228.78-4.57 229.72-5.33L232.60-12.17L236.12-11.59L234.32-1.94Q232.92-1.91 231.59-1.48Q230.26-1.04 228.64-0.52Q227.02 0 224.77 0.40Q222.52 0.79 219.28 0.79M278.78 0L241.70 0L241.70-3.10L247.90-3.74L247.90-49.61L241.85-50.40L241.85-53.50L261-53.50L261-50.40L253.80-49.61L253.80-3.74L273.96-4.32L277.99-15.55L281.45-14.98L278.78 0M285.80-3.10L292.79-3.74L292.79-49.61L285.80-50.40L285.80-53.50L305.71-53.50L305.71-50.40L298.73-49.61L298.73-3.74L305.71-3.02L305.71 0L285.80 0"/>
</svg>
